<svg version="1.1" xmlns="http://www.w3.org/2000/svg" xmlns:xlink="http://www.w3.org/1999/xlink" width="65.16926" height="65.16926" viewBox="0,0,65.16926,65.16926"><defs><linearGradient x1="140.56987" y1="73.10317" x2="140.56987" y2="135.77243" gradientUnits="userSpaceOnUse" id="color-1"><stop offset="0" stop-color="#e6fcf1"/><stop offset="1" stop-color="#99ffcf"/></linearGradient></defs><g transform="translate(-107.98524,-71.85317)"><g stroke="#ffffff" stroke-width="2.5" stroke-linejoin="round" stroke-miterlimit="10"><path d="M109.23524,104.4378c0,-17.30566 14.02899,-31.33463 31.33463,-31.33463c17.30566,0 31.33463,14.02899 31.33463,31.33463c0,17.30566 -14.02899,31.33463 -31.33463,31.33463c-17.30566,0 -31.33463,-14.02899 -31.33463,-31.33463z" fill="url(#color-1)" fill-rule="evenodd" stroke-linecap="round"/><path d="M131.86254,99.81351c0,-4.80888 3.89846,-8.70734 8.70734,-8.70734c4.80888,0 8.70734,3.89846 8.70734,8.70734c0,4.80888 -3.89846,8.70732 -8.70734,8.70732c-4.80888,0 -8.70734,-3.89844 -8.70734,-8.70732z" fill="none" fill-rule="nonzero" stroke-linecap="butt"/><path d="M118.94578,125.62371c0.5454,-8.26964 7.42577,-14.80837 15.83345,-14.80837h12.6947c8.39659,0 15.26999,6.52143 15.8314,14.77551" fill="none" fill-rule="nonzero" stroke-linecap="round"/></g></g></svg>