<svg version="1.1" xmlns="http://www.w3.org/2000/svg" xmlns:xlink="http://www.w3.org/1999/xlink" width="159.56007" height="165.4555" viewBox="0,0,159.56007,165.4555"><g transform="translate(-342.55054,-163.72938)"><g stroke-miterlimit="10"><path d="M343.30056,322.90279c0,-26.36733 0,-138.60632 0,-153.07223c0,-3.01386 2.49714,-5.35118 5.56237,-5.35118c12.62004,0 123.82557,0 146.7949,0c3.62539,0 5.70278,2.39563 5.70278,5.47198c0,14.61288 0,126.89496 0,153.05039c0,3.47803 -2.5673,5.43313 -5.70278,5.43313c-12.77545,0 -124.19708,0 -146.84626,0c-1.72581,0 -2.85605,-0.55755 -3.79425,-1.46959c-0.96816,-0.94117 -1.71678,-2.26471 -1.71678,-4.06249z" fill="#1f2025" stroke-opacity="0.01176" stroke="#ffffff" stroke-width="1.5" stroke-linecap="butt"/><path d="M345.55924,304.98695c0,-2.63419 2.742,-4.42489 6.81238,-4.42489c26.2052,0 124.25388,0 139.22146,0c3.73491,0 6.81238,2.35575 6.81238,4.42489c0,3.50631 0,8.53712 0,14.48145c0,2.29642 -3.39236,3.93721 -7.43483,3.93721c-15.58853,0 -113.9268,0.28579 -139.01398,0.28579c-3.68399,0 -6.3974,-2.28099 -6.3974,-4.30297c0,0 0,-8.2956 0,-14.40147z" fill-opacity="0.51765" fill="#5c5c5c" stroke="none" stroke-width="0" stroke-linecap="butt"/><path d="M351.59699,311.61361l140.60587,-0.33719" fill="none" stroke="#ffffff" stroke-width="2" stroke-linecap="round"/><text transform="translate(352.00062,297.28263) scale(0.1755,0.1755)" font-size="40" xml:space="preserve" fill="#999999" stroke="none" stroke-width="1" stroke-linecap="butt" font-family="Sans Serif" font-weight="normal" text-anchor="start"><tspan x="0" dy="0"> 声音</tspan></text></g></g></svg>