<svg version="1.1" xmlns="http://www.w3.org/2000/svg" xmlns:xlink="http://www.w3.org/1999/xlink" width="352.99696" height="20.95556" viewBox="0,0,352.99696,20.95556"><g transform="translate(-223.50152,-214.52222)"><g data-paper-data="{&quot;isPaintingLayer&quot;:true}" stroke="none" stroke-linecap="butt" stroke-linejoin="miter" stroke-miterlimit="10" stroke-dasharray="" stroke-dashoffset="0" style="mix-blend-mode: normal"><path d="M223.50152,231.88169c0,-4.19108 0,-10.8568 0,-13.31832c0,-1.80958 1.22064,-4.04115 3.12279,-4.04115c18.87391,0 309.81354,0 346.15628,0c2.42635,0 3.71789,2.27323 3.71789,5.18464c0,3.99644 0,9.19535 0,11.36767c0,1.93664 -1.48018,4.40325 -4.24834,4.40325c-38.65995,0 -328.53668,0 -346.06787,0c-1.64339,0 -2.68075,-1.48374 -2.68075,-3.59609z" fill="#e9eef0" fill-rule="nonzero" stroke-width="NaN"/><path d="M233.66926,218.21498c0.11309,-0.11309 0.26647,-0.17662 0.42641,-0.17662h4.82424c0.99916,0 1.80909,0.80996 1.80909,1.80909v3.01515c0,0.33304 -0.26998,0.60303 -0.60303,0.60303c-0.33305,0 -0.60303,-0.26999 -0.60303,-0.60303v-3.01515c0,-0.33304 -0.26998,-0.60303 -0.60303,-0.60303h-4.22121v3.01515c0,0.33304 -0.26998,0.60303 -0.60303,0.60303h-3.01515v6.63333c0,0.33305 0.26999,0.60303 0.60303,0.60303h0.60303c0.33304,0 0.60303,0.26998 0.60303,0.60303c0,0.33305 -0.26999,0.60303 -0.60303,0.60303h-0.60303c-0.99913,0 -1.80909,-0.80993 -1.80909,-1.80909v-7.23636c0,-0.15993 0.06354,-0.31332 0.17662,-0.42641zM231.93333,221.65654h1.55931v-1.55931zM237.71385,226.33002c0,-0.91588 0.74245,-1.65833 1.65833,-1.65833h1.35682c0.33305,0 0.60303,0.26998 0.60303,0.60303c0,0.33305 -0.26998,0.60303 -0.60303,0.60303h-1.35682c-0.24977,0 -0.45227,0.2025 -0.45227,0.45227c0,0.24977 0.2025,0.45227 0.45227,0.45227h0.30152c0.91588,0 1.65833,0.74245 1.65833,1.65833c0,0.91588 -0.74245,1.65833 -1.65833,1.65833h-1.35682c-0.33305,0 -0.60303,-0.26998 -0.60303,-0.60303c0,-0.33305 0.26998,-0.60303 0.60303,-0.60303h1.35682c0.24977,0 0.45227,-0.2025 0.45227,-0.45227c0,-0.24977 -0.2025,-0.45227 -0.45227,-0.45227h-0.30152c-0.91588,0 -1.65833,-0.74245 -1.65833,-1.65833zM237.11082,225.27471c0,-0.33305 -0.26998,-0.60303 -0.60303,-0.60303c-0.33305,0 -0.60303,0.26998 -0.60303,0.60303v3.01515c0,0.33305 -0.26998,0.60303 -0.60303,0.60303c-0.33305,0 -0.60303,-0.26998 -0.60303,-0.60303v-0.20099c0,-0.33305 -0.26998,-0.60303 -0.60303,-0.60303c-0.33304,0 -0.60303,0.26998 -0.60303,0.60303v0.20099c0,0.99916 0.80993,1.80909 1.80909,1.80909c0.99916,0 1.80909,-0.80993 1.80909,-1.80909z" fill="#e1ccb1" fill-rule="evenodd" stroke-width="1"/></g></g></svg>