<svg version="1.1" xmlns="http://www.w3.org/2000/svg" xmlns:xlink="http://www.w3.org/1999/xlink" width="78.51628" height="17.35137" viewBox="0,0,78.51628,17.35137"><defs><linearGradient x1="373.14165" y1="218.35771" x2="373.14165" y2="231.68707" gradientUnits="userSpaceOnUse" id="color-1"><stop offset="0" stop-color="#f79801"/><stop offset="1" stop-color="#f77700"/></linearGradient></defs><g transform="translate(-360.74186,-216.32434)"><g stroke-miterlimit="10"><path d="M436.83622,233.47087l-73.53753,0.20485l-2.40736,-1.93378l-0.14947,-13.82757l2.58728,-1.38517l73.53753,-0.20485l2.242,1.9461l0.14947,13.82757z" fill="#ffffff" fill-rule="nonzero" stroke="none" stroke-width="0" stroke-linecap="round" stroke-linejoin="miter"/><text transform="translate(395.18632,227.33361) scale(0.20511,0.20511)" font-size="40" xml:space="preserve" fill="#515151" fill-rule="nonzero" stroke="none" stroke-width="1" stroke-linecap="butt" stroke-linejoin="miter" font-family="Sans Serif" font-weight="normal" text-anchor="start"><tspan x="0" dy="0">账户设置</tspan></text><path d="M375.18786,218.35883c1.32181,0.01164 2.86559,0.10942 3.68511,0.92895c0.81057,0.81057 0.91251,2.32704 0.92533,3.63845c0.00182,0.18524 0.0018,4.06216 -0.00095,4.27723c-0.01655,1.29449 -0.13112,2.77408 -0.92437,3.56735c-0.78453,0.78453 -2.23276,0.89763 -3.51461,0.91388c-0.22961,0.00292 -4.1125,0.00284 -4.29287,0.00142c-1.31252,-0.01029 -2.82859,-0.10201 -3.64189,-0.9153c-0.80462,-0.80462 -0.92124,-2.31536 -0.93797,-3.62283c-0.0025,-0.19571 -0.00272,-4.1102 0.0004,-4.33519c0.01788,-1.28767 0.13653,-2.75146 0.924,-3.53893c0.79012,-0.79012 2.25344,-0.8992 3.542,-0.91421c0.22006,-0.00257 4.06561,-0.00232 4.23582,-0.00082z" fill="url(#color-1)" fill-rule="nonzero" stroke="none" stroke-width="0.47449" stroke-linecap="butt" stroke-linejoin="miter"/><path d="M368.67819,224.73559c0,-2.50893 2.03389,-4.54282 4.54282,-4.54282c2.50893,0 4.54282,2.03389 4.54282,4.54282c0,2.50893 -2.03389,4.54282 -4.54282,4.54282c-2.50893,0 -4.54282,-2.03389 -4.54282,-4.54282z" fill="none" fill-rule="evenodd" stroke="#ffffff" stroke-width="1" stroke-linecap="round" stroke-linejoin="round"/><path d="M372.08531,223.37275c0,-0.62723 0.50847,-1.13571 1.1357,-1.13571c0.62723,0 1.13571,0.50848 1.13571,1.13571c0,0.62723 -0.50848,1.13571 -1.13571,1.13571c-0.62723,0 -1.1357,-0.50848 -1.1357,-1.13571z" fill="#ffffff" fill-rule="nonzero" stroke="#ffffff" stroke-width="1" stroke-linecap="butt" stroke-linejoin="round"/><path d="M370.04604,227.99097c0.07806,-1.18373 1.06293,-2.11968 2.26641,-2.11968h1.81712c1.20189,0 2.18575,0.93348 2.26611,2.11498" fill="none" fill-rule="nonzero" stroke="#ffffff" stroke-width="1" stroke-linecap="round" stroke-linejoin="round"/></g></g></svg>