<svg version="1.1" xmlns="http://www.w3.org/2000/svg" xmlns:xlink="http://www.w3.org/1999/xlink" width="78.51628" height="17.35137" viewBox="0,0,78.51628,17.35137"><defs><linearGradient x1="373.31011" y1="220.57213" x2="373.31011" y2="229.97996" gradientUnits="userSpaceOnUse" id="color-1"><stop offset="0" stop-color="#418b2a"/><stop offset="1" stop-color="#2f924e" stop-opacity="0.72549"/></linearGradient></defs><g transform="translate(-360.74186,-216.32433)"><g stroke="none" stroke-miterlimit="10"><path d="M436.83622,233.47086l-73.53753,0.20485l-2.40736,-1.93378l-0.14947,-13.82757l2.58728,-1.38517l73.53753,-0.20485l2.242,1.9461l0.14947,13.82757z" fill="#ffffff" stroke-width="0" stroke-linecap="round"/><path d="M375.18786,218.35881c1.32181,0.01164 2.86559,0.10942 3.68511,0.92895c0.81057,0.81057 0.91251,2.32704 0.92533,3.63845c0.00182,0.18524 0.0018,4.06216 -0.00095,4.27723c-0.01655,1.29449 -0.13112,2.77408 -0.92437,3.56735c-0.78453,0.78453 -2.23276,0.89763 -3.51461,0.91388c-0.22961,0.00292 -4.1125,0.00284 -4.29287,0.00142c-1.31252,-0.01029 -2.82859,-0.10201 -3.64189,-0.9153c-0.80462,-0.80462 -0.92124,-2.31536 -0.93797,-3.62283c-0.0025,-0.19571 -0.00272,-4.1102 0.0004,-4.33519c0.01788,-1.28767 0.13653,-2.75146 0.924,-3.53893c0.79012,-0.79012 2.25344,-0.8992 3.542,-0.91421c0.22006,-0.00257 4.06561,-0.00232 4.23582,-0.00082z" fill="#ddf7ea" stroke-width="0.47449" stroke-linecap="butt"/><path d="M377.76669,220.57213v0.9903c0,4.7668 -2.66044,6.93209 -5.94179,6.93209h-0.94177c0.10497,-1.49139 0.56942,-2.39405 1.78155,-3.46654c0.59616,-0.52733 0.54565,-0.83185 0.25203,-0.65706c-2.02219,1.20321 -3.02684,2.82929 -3.07141,5.42584l-0.00148,0.1832h-0.9903c0,-0.67489 0.05744,-1.28739 0.17132,-1.8479c-0.11355,-0.64073 -0.1705,-1.5102 -0.17082,-2.60845c0,-2.73471 2.21678,-4.95149 4.95149,-4.95149c0.9903,0 1.9806,0.49515 3.9612,0" fill="url(#color-1)" stroke-width="1" stroke-linecap="butt"/><text transform="translate(395.18632,227.33359) scale(0.20511,0.20511)" font-size="40" xml:space="preserve" fill="#515151" stroke-width="1" stroke-linecap="butt" font-family="Sans Serif" font-weight="normal" text-anchor="start"><tspan x="0" dy="0">关于系统</tspan></text></g></g></svg>