<svg version="1.1" xmlns="http://www.w3.org/2000/svg" xmlns:xlink="http://www.w3.org/1999/xlink" width="26.17128" height="22.10518" viewBox="0,0,26.17128,22.10518"><g transform="translate(-693.46523,-49.24589)"><g stroke-miterlimit="10"><path d="M693.46523,71.35107v-22.10518h26.17128v22.10518z" fill="#fafafa" stroke="none" stroke-width="NaN" stroke-linecap="butt" stroke-linejoin="miter"/><g fill="none" stroke="#2b2b2b" stroke-width="1.5" stroke-linejoin="round"><path d="M698.06461,65.39087c0,-1.44507 1.17147,-2.61656 2.61656,-2.61656c1.44507,0 2.61656,1.17148 2.61656,2.61656c0,1.44507 -1.17148,2.61656 -2.61656,2.61656c-1.44507,0 -2.61656,-1.17148 -2.61656,-2.61656z" stroke-linecap="butt"/><path d="M713.79074,53.18029c-7.00428,8.91072 -10.5782,13.37952 -11.25941,14.06075c-1.02182,1.02185 -2.67855,1.02185 -3.70035,0" stroke-linecap="round"/><path d="M710.27518,65.39087c0,-1.44507 1.17148,-2.61656 2.61656,-2.61656c1.44507,0 2.61656,1.17148 2.61656,2.61656c0,1.44507 -1.17148,2.61656 -2.61656,2.61656c-1.44507,0 -2.61656,-1.17148 -2.61656,-2.61656z" stroke-linecap="butt"/><path d="M714.74181,67.24104c-1.02182,1.02185 -2.67853,1.02185 -3.70035,0c-0.68121,-0.68121 -4.25508,-5.14441 -11.23224,-14.06075" stroke-linecap="round"/></g></g></g></svg>