<svg version="1.1" xmlns="http://www.w3.org/2000/svg" xmlns:xlink="http://www.w3.org/1999/xlink" width="71.18472" height="18.70267" viewBox="0,0,71.18472,18.70267"><g transform="translate(-224.72853,-196.66163)"><g stroke-miterlimit="10"><path d="M224.97854,200.394c0,-2.0731 1.26806,-3.48237 3.15043,-3.48237c12.11876,0 57.46201,0 64.38386,0c1.72724,0 3.15043,1.85396 3.15043,3.48237c0,2.75944 0,6.71867 0,11.39682c0,1.80727 -1.56882,3.09856 -3.43829,3.09856c-7.20902,0 -52.68619,0.22492 -64.28791,0.22492c-1.70369,0 -2.95852,-1.79513 -2.95852,-3.38641c0,0 0,-6.52859 0,-11.33388z" fill="#ffffff" stroke="#cccccc" stroke-width="0.5" stroke-linecap="butt" stroke-linejoin="miter"/><path d="M231.7258,205.30321c0,-2.69168 2.18206,-4.87374 4.87374,-4.87374c2.69168,0 4.87374,2.18206 4.87374,4.87374c0,2.69168 -2.18206,4.87374 -4.87374,4.87374c-2.69168,0 -4.87374,-2.18206 -4.87374,-4.87374z" fill="none" stroke="#000000" stroke-width="1" stroke-linecap="butt" stroke-linejoin="round"/><path d="M234.97782,203.39474c0.41504,-0.41504 0.98842,-0.67174 1.62175,-0.67174c0.63336,0 1.20674,0.2567 1.62178,0.67174" fill="none" stroke="#000000" stroke-width="1" stroke-linecap="round" stroke-linejoin="round"/><path d="M240.10336,208.80706l2.43266,2.43266" fill="none" stroke="#000000" stroke-width="1" stroke-linecap="round" stroke-linejoin="round"/><text transform="translate(252.30266,208.98496) scale(0.20309,0.20309)" font-size="40" xml:space="preserve" fill="#181818" stroke="none" stroke-width="1" stroke-linecap="butt" stroke-linejoin="miter" font-family="Sans Serif" font-weight="normal" text-anchor="start"><tspan x="0" dy="0">搜索记录</tspan></text></g></g></svg>