<svg version="1.1" xmlns="http://www.w3.org/2000/svg" xmlns:xlink="http://www.w3.org/1999/xlink" width="211.97542" height="231.67524" viewBox="0,0,211.97542,231.67524"><defs><linearGradient x1="308.00209" y1="98.45069" x2="308.00209" y2="330.12593" gradientUnits="userSpaceOnUse" id="color-1"><stop offset="0" stop-color="#ebebeb" stop-opacity="0.58039"/><stop offset="1" stop-color="#d9d9d9" stop-opacity="0.64314"/></linearGradient></defs><g transform="translate(-202.01438,-98.45069)"><g stroke="none" stroke-miterlimit="10"><path d="M202.01438,108.89392c0,-6.21699 3.80275,-10.44323 9.44778,-10.44323c36.34279,0 172.32201,0 193.07986,0c5.17977,0 9.44778,5.55981 9.44778,10.44323c0,8.27526 0,197.23604 0,211.26529c0,5.41979 -4.70471,9.29223 -10.31102,9.29223c-21.61901,0 -157.99987,0.67449 -192.79213,0.67449c-5.10917,0 -8.87226,-5.38337 -8.87226,-10.15547c0,0 0,-196.66603 0,-211.07653z" fill="url(#color-1)" fill-rule="nonzero" stroke-width="0"/><path d="M294.66059,177.121l23.19638,23.19004l-23.19638,23.18996l-4.51895,-4.52535l15.46425,-15.47071h-61.21059v-6.40075h61.21059l-15.46425,-15.46425zM350.39919,167.3637c1.81135,1.81788 2.80989,4.23093 2.80989,6.79123v74.15931h-83.21001v-35.20426h6.40073v28.80352h70.40848v-64.00772h-25.60309v-25.60309h-44.80544v35.00579h-6.40075v-41.40659h54.95703c2.52192,0 4.99908,1.02408 6.78488,2.80988l18.65822,18.65194zM327.606,153.6276v17.87735h17.87737l-17.87737,-17.8773z" fill="#000000" fill-rule="evenodd" stroke-width="1"/><text transform="translate(252.96559,315.59167) scale(0.44641,0.44641)" font-size="40" xml:space="preserve" fill="#7a7a7a" fill-rule="nonzero" stroke-width="1" font-family="Sans Serif" font-weight="normal" text-anchor="start"><tspan x="0" dy="0">导入小型程序</tspan></text></g></g></svg>