<svg version="1.1" xmlns="http://www.w3.org/2000/svg" xmlns:xlink="http://www.w3.org/1999/xlink" width="143.89501" height="56.14434" viewBox="0,0,143.89501,56.14434"><defs><linearGradient x1="511.37587" y1="219.76467" x2="511.37587" y2="275.90901" gradientUnits="userSpaceOnUse" id="color-1"><stop offset="0" stop-color="#7b7b7b"/><stop offset="1" stop-color="#c8c8c8"/></linearGradient></defs><g transform="translate(-439.42835,-219.76466)"><g stroke-miterlimit="10"><path d="M439.42837,267.63075c0,-7.13598 0,-26.22393 0,-39.05291c0,-4.82711 3.50473,-8.81318 8.15217,-8.81318c25.87881,0 111.26924,0 127.05569,0c4.87293,0 8.68714,5.04711 8.68714,9.61564c0,7.53899 0,26.04876 0,38.25045c0,4.51912 -3.90758,8.27825 -7.88469,8.27825c-14.51486,0 -101.00751,0 -127.59066,0c-4.81207,0 -8.41966,-4.43876 -8.41966,-8.27825z" fill="url(#color-1)" stroke="none" stroke-width="0" stroke-linecap="butt" stroke-linejoin="miter"/><path d="M446.31628,248.07421c0,-2.42526 0,-8.91256 0,-13.27266c0,-1.64056 1.13029,-2.99528 2.62911,-2.99528c8.34601,0 35.88473,0 40.97592,0c1.57153,0 2.80164,1.71533 2.80164,3.268c0,2.56223 0,8.85302 0,12.99993c0,1.53588 -1.26021,2.81348 -2.54284,2.81348c-4.68109,0 -32.57529,0 -41.14845,0c-1.55191,0 -2.71537,-1.50857 -2.71537,-2.81348z" fill-opacity="0.01176" fill="#f2f2f2" stroke="none" stroke-width="0" stroke-linecap="butt" stroke-linejoin="miter"/><path d="M469.5196,227.90374v26.88646" fill="none" stroke-opacity="0.74118" stroke="#e6e6e6" stroke-width="3" stroke-linecap="round" stroke-linejoin="round"/><path d="M457.90775,234.62536l23.28434,13.44323" fill="none" stroke-opacity="0.74118" stroke="#e6e6e6" stroke-width="3" stroke-linecap="round" stroke-linejoin="round"/><path d="M457.90414,248.05333l23.23136,-13.41264" fill="none" stroke-opacity="0.74118" stroke="#e6e6e6" stroke-width="3" stroke-linecap="round" stroke-linejoin="round"/><path d="M461.45367,231.93671l2.01648,6.04945l-6.04945,1.34432" fill="none" stroke-opacity="0.74118" stroke="#e6e6e6" stroke-width="3" stroke-linecap="round" stroke-linejoin="round"/><path d="M457.4207,243.36346l6.04945,1.34432l-2.01648,6.04945" fill="none" stroke-opacity="0.74118" stroke="#e6e6e6" stroke-width="3" stroke-linecap="round" stroke-linejoin="round"/><path d="M481.61851,239.33049l-6.04945,-1.34432l2.01648,-6.04945" fill="none" stroke-opacity="0.74118" stroke="#e6e6e6" stroke-width="3" stroke-linecap="round" stroke-linejoin="round"/><path d="M477.58554,250.75723l-2.01648,-6.04945l6.04945,-1.34432" fill="none" stroke-opacity="0.74118" stroke="#e6e6e6" stroke-width="3" stroke-linecap="round" stroke-linejoin="round"/><path d="M473.55257,229.92023l-4.03297,4.03297l-4.03297,-4.03297" fill="none" stroke-opacity="0.74118" stroke="#e6e6e6" stroke-width="3" stroke-linecap="round" stroke-linejoin="round"/><path d="M465.48664,252.77372l4.03297,-4.03297l4.03297,4.03297" fill="none" stroke-opacity="0.74118" stroke="#e6e6e6" stroke-width="3" stroke-linecap="round" stroke-linejoin="round"/><path d="M495.2677,251.4962v18.44353" fill="none" stroke-opacity="0.74118" stroke="#e6e6e6" stroke-width="2" stroke-linecap="round" stroke-linejoin="round"/><path d="M487.30222,256.10708l15.97256,9.22177" fill="none" stroke-opacity="0.74118" stroke="#e6e6e6" stroke-width="2" stroke-linecap="round" stroke-linejoin="round"/><path d="M487.29974,265.31838l15.93621,-9.20079" fill="none" stroke-opacity="0.74118" stroke="#e6e6e6" stroke-width="2" stroke-linecap="round" stroke-linejoin="round"/><path d="M489.73464,254.26273l1.38327,4.1498l-4.1498,0.92218" fill="none" stroke-opacity="0.74118" stroke="#e6e6e6" stroke-width="2" stroke-linecap="round" stroke-linejoin="round"/><path d="M486.96811,262.10123l4.1498,0.92218l-1.38327,4.1498" fill="none" stroke-opacity="0.74118" stroke="#e6e6e6" stroke-width="2" stroke-linecap="round" stroke-linejoin="round"/><path d="M503.56729,259.3347l-4.1498,-0.92218l1.38327,-4.1498" fill="none" stroke-opacity="0.74118" stroke="#e6e6e6" stroke-width="2" stroke-linecap="round" stroke-linejoin="round"/><path d="M500.80076,267.1732l-1.38327,-4.1498l4.1498,-0.92218" fill="none" stroke-opacity="0.74118" stroke="#e6e6e6" stroke-width="2" stroke-linecap="round" stroke-linejoin="round"/><path d="M498.03423,252.87946l-2.76653,2.76653l-2.76653,-2.76653" fill="none" stroke-opacity="0.74118" stroke="#e6e6e6" stroke-width="2" stroke-linecap="round" stroke-linejoin="round"/><path d="M492.50117,268.55647l2.76653,-2.76653l2.76653,2.76653" fill="none" stroke-opacity="0.74118" stroke="#e6e6e6" stroke-width="2" stroke-linecap="round" stroke-linejoin="round"/></g></g></svg>