<svg version="1.1" xmlns="http://www.w3.org/2000/svg" xmlns:xlink="http://www.w3.org/1999/xlink" width="29.33062" height="29.36042" viewBox="0,0,29.33062,29.36042"><g transform="translate(-385.33469,-210.31979)"><g stroke-miterlimit="10"><path d="M404.50716,210.32226c2.91154,0.02564 6.312,0.24101 8.11717,2.04618c1.78542,1.78542 2.00998,5.12575 2.03821,8.01437c0.00399,0.40802 0.00396,8.94766 -0.00208,9.4214c-0.03645,2.85136 -0.28881,6.11044 -2.03612,7.85776c-1.72808,1.72808 -4.91807,1.97719 -7.74159,2.01299c-0.50576,0.00642 -9.05856,0.00626 -9.45584,0.00314c-2.89107,-0.02267 -6.23053,-0.2247 -8.02197,-2.01614c-1.77233,-1.77233 -2.0292,-5.10002 -2.06605,-7.97996c-0.00551,-0.43108 -0.006,-9.05349 0.00089,-9.54909c0.03938,-2.83633 0.30075,-6.06061 2.03528,-7.79514c1.74039,-1.74039 4.96363,-1.98067 7.80193,-2.01373c0.48472,-0.00565 8.95528,-0.00509 9.33018,-0.00179z" fill="#e7e7e7" stroke="none" stroke-width="0.47449" stroke-linecap="butt" stroke-linejoin="miter"/><path d="M390.32059,216.59614c0,-0.55229 0.44771,-1 1,-1h6l2.5,3h8.5c0.5523,0 1,0.4477 1,1v13c0,0.5523 -0.4477,1 -1,1h-17c-0.55229,0 -1,-0.4477 -1,-1z" fill="none" stroke="#333333" stroke-width="1.5" stroke-linecap="butt" stroke-linejoin="round"/><path d="M396.82059,225.59614l3,-3l3,2.99335" fill="none" stroke="#333333" stroke-width="1.5" stroke-linecap="round" stroke-linejoin="round"/><path d="M399.82059,222.59614v7" fill="none" stroke="#333333" stroke-width="1.5" stroke-linecap="round" stroke-linejoin="round"/></g></g></svg>