<svg version="1.1" xmlns="http://www.w3.org/2000/svg" xmlns:xlink="http://www.w3.org/1999/xlink" width="39.95562" height="39.99621" viewBox="0,0,39.95562,39.99621"><g transform="translate(-380.02219,-205.0019)"><g fill="#fafafa" stroke="none" stroke-width="0.47449" stroke-miterlimit="10"><path d="M406.13988,205.00527c3.96625,0.03493 8.59852,0.32832 11.05761,2.78741c2.43219,2.43219 2.73809,6.98255 2.77655,10.91757c0.00544,0.55582 0.0054,12.18895 -0.00284,12.8343c-0.04965,3.88426 -0.39343,8.32395 -2.7737,10.70423c-2.35407,2.35407 -6.69964,2.69342 -10.54598,2.7422c-0.68897,0.00874 -12.34002,0.00853 -12.88121,0.00428c-3.93836,-0.03088 -8.48753,-0.3061 -10.92792,-2.74648c-2.41435,-2.41435 -2.76428,-6.9475 -2.81447,-10.8707c-0.00751,-0.58724 -0.00817,-12.33311 0.00121,-13.00824c0.05365,-3.86379 0.4097,-8.25606 2.77256,-10.61892c2.37085,-2.37085 6.7617,-2.69816 10.62817,-2.7432c0.66031,-0.0077 12.19932,-0.00694 12.71003,-0.00244z"/></g></g></svg>