<svg version="1.1" xmlns="http://www.w3.org/2000/svg" xmlns:xlink="http://www.w3.org/1999/xlink" width="71.18472" height="18.70266" viewBox="0,0,71.18472,18.70266"><g transform="translate(-253.56052,-233.6361)"><g stroke-miterlimit="10"><path d="M253.81052,237.36847c0,-2.0731 1.26806,-3.48237 3.15043,-3.48237c12.11876,0 57.46201,0 64.38386,0c1.72724,0 3.15043,1.85396 3.15043,3.48237c0,2.75944 0,6.71867 0,11.39682c0,1.80727 -1.56882,3.09856 -3.43829,3.09856c-7.20902,0 -52.68619,0.22492 -64.28791,0.22492c-1.70369,0 -2.95852,-1.79513 -2.95852,-3.38641c0,0 0,-6.52859 0,-11.33388z" fill="#ffffff" fill-rule="nonzero" stroke="#cccccc" stroke-width="0.5"/><text transform="translate(276.87958,245.50419) scale(0.20309,0.20309)" font-size="40" xml:space="preserve" fill="#181818" fill-rule="nonzero" stroke="none" stroke-width="1" font-family="Sans Serif" font-weight="normal" text-anchor="start"><tspan x="0" dy="0">关于浏览器</tspan></text><path d="M271.63541,242.6903c0,3.25732 -2.64056,5.89791 -5.89791,5.89791c-3.25732,0 -5.89791,-2.6406 -5.89791,-5.89791c0,-3.25735 2.6406,-5.89791 5.89791,-5.89791c3.25735,0 5.89791,2.64056 5.89791,5.89791zM270.45583,242.6903c0,-2.60168 -2.11661,-4.71833 -4.71833,-4.71833c-2.60168,0 -4.71833,2.11665 -4.71833,4.71833c0,2.60168 2.11665,4.71833 4.71833,4.71833c2.60172,0 4.71833,-2.11665 4.71833,-4.71833zM265.74349,239.5939c-0.43001,0 -0.74194,0.3102 -0.74194,0.72906c0,0.4358 0.30371,0.74542 0.74194,0.74542c0.42119,0 0.73254,-0.30962 0.73254,-0.73724c0,-0.42704 -0.31135,-0.73724 -0.73254,-0.73724zM265.149,245.63926h1.17958v-3.53875h-1.17958z" fill="#000000" fill-rule="evenodd" stroke="none" stroke-width="1"/></g></g></svg>