<svg version="1.1" xmlns="http://www.w3.org/2000/svg" xmlns:xlink="http://www.w3.org/1999/xlink" width="159.97994" height="165.4555" viewBox="0,0,159.97994,165.4555"><defs><linearGradient x1="422.54056" y1="164.47938" x2="422.54056" y2="328.43488" gradientUnits="userSpaceOnUse" id="color-1"><stop offset="0" stop-color="#e0efdc" stop-opacity="0.9451"/><stop offset="1" stop-color="#c6f1bc" stop-opacity="0.93333"/></linearGradient><linearGradient x1="422.31957" y1="300.56206" x2="422.31957" y2="323.6914" gradientUnits="userSpaceOnUse" id="color-2"><stop offset="0" stop-color="#fdfdfd"/><stop offset="1" stop-color="#e4f2e1" stop-opacity="0.93725"/></linearGradient></defs><g transform="translate(-342.55058,-163.72938)"><g stroke-miterlimit="10"><path d="M343.3006,322.90279c0,-26.36733 0,-138.60632 0,-153.07223c0,-3.01386 2.50377,-5.35118 5.57715,-5.35118c12.65356,0 124.15451,0 147.18485,0c3.63502,0 5.71793,2.39563 5.71793,5.47198c0,14.61288 0,126.89496 0,153.05039c0,3.47803 -2.57412,5.43313 -5.71793,5.43313c-12.80939,0 -124.52699,0 -147.23634,0c-1.73039,0 -2.86364,-0.55755 -3.80433,-1.46959c-0.97073,-0.94117 -1.72134,-2.26471 -1.72134,-4.06249z" fill="url(#color-1)" stroke-opacity="0.01176" stroke="#ffffff" stroke-width="1.5" stroke-linecap="butt"/><path d="M345.89646,304.98695c0,-2.63419 2.742,-4.42489 6.81238,-4.42489c26.2052,0 124.25388,0 139.22146,0c3.73491,0 6.81238,2.35575 6.81238,4.42489c0,3.50631 0,8.53712 0,14.48145c0,2.29642 -3.39236,3.93721 -7.43483,3.93721c-15.58853,0 -113.9268,0.28579 -139.01398,0.28579c-3.68399,0 -6.3974,-2.28099 -6.3974,-4.30297c0,0 0,-8.2956 0,-14.40147z" fill="url(#color-2)" stroke="none" stroke-width="0" stroke-linecap="butt"/><path d="M492.20289,311.27643l-140.60587,0.33718" fill="none" stroke="#e8e8e8" stroke-width="2" stroke-linecap="round"/><text transform="translate(352.00063,297.28263) scale(0.1755,0.1755)" font-size="40" xml:space="preserve" fill="#ffffff" stroke="none" stroke-width="1" stroke-linecap="butt" font-family="Sans Serif" font-weight="normal" text-anchor="start"><tspan x="0" dy="0"> 声音</tspan></text></g></g></svg>