<svg version="1.1" xmlns="http://www.w3.org/2000/svg" xmlns:xlink="http://www.w3.org/1999/xlink" width="11.45757" height="13.26666" viewBox="0,0,11.45757,13.26666"><g transform="translate(-394.27121,-218.36667)"><g data-paper-data="{&quot;isPaintingLayer&quot;:true}" fill="#e1ccb1" fill-rule="evenodd" stroke="none" stroke-width="1" stroke-linecap="butt" stroke-linejoin="miter" stroke-miterlimit="10" stroke-dasharray="" stroke-dashoffset="0" style="mix-blend-mode: normal"><path d="M398.06602,218.54329c0.11309,-0.11309 0.26647,-0.17662 0.42641,-0.17662h4.82424c0.99916,0 1.80909,0.80996 1.80909,1.80909v3.01515c0,0.33304 -0.26998,0.60303 -0.60303,0.60303c-0.33305,0 -0.60303,-0.26999 -0.60303,-0.60303v-3.01515c0,-0.33304 -0.26998,-0.60303 -0.60303,-0.60303h-4.22121v3.01515c0,0.33304 -0.26998,0.60303 -0.60303,0.60303h-3.01515v6.63333c0,0.33305 0.26999,0.60303 0.60303,0.60303h0.60303c0.33304,0 0.60303,0.26998 0.60303,0.60303c0,0.33305 -0.26999,0.60303 -0.60303,0.60303h-0.60303c-0.99913,0 -1.80909,-0.80993 -1.80909,-1.80909v-7.23636c0,-0.15993 0.06354,-0.31332 0.17662,-0.42641zM396.33008,221.98485h1.55931v-1.55931zM402.11061,226.65833c0,-0.91588 0.74245,-1.65833 1.65833,-1.65833h1.35682c0.33305,0 0.60303,0.26998 0.60303,0.60303c0,0.33305 -0.26998,0.60303 -0.60303,0.60303h-1.35682c-0.24977,0 -0.45227,0.2025 -0.45227,0.45227c0,0.24977 0.2025,0.45227 0.45227,0.45227h0.30152c0.91588,0 1.65833,0.74245 1.65833,1.65833c0,0.91588 -0.74245,1.65833 -1.65833,1.65833h-1.35682c-0.33305,0 -0.60303,-0.26998 -0.60303,-0.60303c0,-0.33305 0.26998,-0.60303 0.60303,-0.60303h1.35682c0.24977,0 0.45227,-0.2025 0.45227,-0.45227c0,-0.24977 -0.2025,-0.45227 -0.45227,-0.45227h-0.30152c-0.91588,0 -1.65833,-0.74245 -1.65833,-1.65833zM401.50758,225.60302c0,-0.33305 -0.26998,-0.60303 -0.60303,-0.60303c-0.33305,0 -0.60303,0.26998 -0.60303,0.60303v3.01515c0,0.33305 -0.26998,0.60303 -0.60303,0.60303c-0.33305,0 -0.60303,-0.26998 -0.60303,-0.60303v-0.20099c0,-0.33305 -0.26998,-0.60303 -0.60303,-0.60303c-0.33304,0 -0.60303,0.26998 -0.60303,0.60303v0.20099c0,0.99916 0.80993,1.80909 1.80909,1.80909c0.99916,0 1.80909,-0.80993 1.80909,-1.80909z"/></g></g></svg>