<svg version="1.1" xmlns="http://www.w3.org/2000/svg" xmlns:xlink="http://www.w3.org/1999/xlink" width="78.51628" height="17.35137" viewBox="0,0,78.51628,17.35137"><defs><linearGradient x1="373.14165" y1="218.3577" x2="373.14165" y2="231.68706" gradientUnits="userSpaceOnUse" id="color-1"><stop offset="0" stop-color="#b6f5f7"/><stop offset="1" stop-color="#e5f7e1"/></linearGradient><linearGradient x1="372.57368" y1="222.09777" x2="372.57368" y2="227.30515" gradientUnits="userSpaceOnUse" id="color-2"><stop offset="0" stop-color="#335bc2"/><stop offset="1" stop-color="#c2c2c2"/></linearGradient></defs><g transform="translate(-360.74186,-216.32432)"><g stroke-miterlimit="10"><path d="M436.83622,233.47084l-73.53753,0.20485l-2.40736,-1.93378l-0.14947,-13.82757l2.58728,-1.38517l73.53753,-0.20485l2.242,1.9461l0.14947,13.82757z" fill="#ffffff" stroke="none" stroke-width="0" stroke-linecap="round" stroke-linejoin="miter"/><path d="M375.18786,218.35882c1.32181,0.01164 2.86559,0.10942 3.68511,0.92895c0.81057,0.81057 0.91251,2.32704 0.92533,3.63845c0.00182,0.18524 0.0018,4.06216 -0.00095,4.27723c-0.01655,1.29449 -0.13112,2.77408 -0.92437,3.56735c-0.78453,0.78453 -2.23276,0.89763 -3.51461,0.91388c-0.22961,0.00292 -4.1125,0.00284 -4.29287,0.00142c-1.31252,-0.01029 -2.82859,-0.10201 -3.64189,-0.9153c-0.80462,-0.80462 -0.92124,-2.31536 -0.93797,-3.62283c-0.0025,-0.19571 -0.00272,-4.1102 0.0004,-4.33519c0.01788,-1.28767 0.13653,-2.75146 0.924,-3.53893c0.79012,-0.79012 2.25344,-0.8992 3.542,-0.91421c0.22006,-0.00257 4.06561,-0.00232 4.23582,-0.00082z" fill="url(#color-1)" stroke="none" stroke-width="0.47449" stroke-linecap="butt" stroke-linejoin="miter"/><text transform="translate(395.18632,227.33358) scale(0.20511,0.20511)" font-size="40" xml:space="preserve" fill="#515151" stroke="none" stroke-width="1" stroke-linecap="butt" stroke-linejoin="miter" font-family="Sans Serif" font-weight="normal" text-anchor="start"><tspan x="0" dy="0">个性化</tspan></text><path d="M368.88512,227.30515c-0.23966,0 -0.43394,-0.19429 -0.43394,-0.43394v-4.33948c0,-0.23966 0.19429,-0.43394 0.43394,-0.43394h7.37712c0.23966,0 0.43394,0.19429 0.43394,0.43394v4.33948c0,0.23966 -0.19429,0.43394 -0.43394,0.43394z" fill="url(#color-2)" stroke="#172c45" stroke-width="0.5" stroke-linecap="butt" stroke-linejoin="miter"/><path d="M372.13973,226.22027h0.86789" fill="none" stroke="#4a90e2" stroke-width="0.5" stroke-linecap="round" stroke-linejoin="round"/><path d="M374.77213,228.13813h-4.33948" fill="none" stroke="#172c45" stroke-width="0.5" stroke-linecap="round" stroke-linejoin="round"/><path d="M374.12855,227.65633l3.32726,-3.32726l0.90744,0.90743l-3.32726,3.32726l-0.90741,-0.00002z" fill="#c16700" stroke="#000000" stroke-width="0.5" stroke-linecap="butt" stroke-linejoin="round"/><path d="M377.45581,226.14394l-0.90743,-0.90743" fill="#c16700" stroke="#000000" stroke-width="0.5" stroke-linecap="round" stroke-linejoin="round"/></g></g></svg>