<svg version="1.1" xmlns="http://www.w3.org/2000/svg" xmlns:xlink="http://www.w3.org/1999/xlink" width="21.52086" height="19.87991" viewBox="0,0,21.52086,19.87991"><g transform="translate(-733.79896,-4.86813)"><g stroke-miterlimit="10"><path d="" fill="#131313" stroke="none" stroke-width="0.5" stroke-linecap="butt" stroke-linejoin="miter"/><path d="" fill="#131313" stroke="none" stroke-width="0.5" stroke-linecap="butt" stroke-linejoin="miter"/><path d="M733.79898,9.14866c0,-0.63227 0.09065,-2.14386 1.04046,-3.10818c1.32436,-1.12186 2.05781,-1.17235 2.71732,-1.17235c4.27053,0 13.09631,0 13.30708,0c0.60617,0 2.0178,0.0184 3.1543,1.17575c1.35814,1.23032 1.30135,2.48342 1.30135,3.03268c0,2.36248 0,7.44984 0,11.60346c0,0.66018 -0.46195,1.91784 -1.38605,2.76214c-0.8656,0.84001 -2.33857,1.30589 -3.0696,1.30589c-4.68137,0 -10.14411,0 -12.69923,0c-0.57823,0 -2.07411,-0.35553 -3.0697,-1.26987c-0.98341,-0.80308 -1.29594,-2.19689 -1.29594,-2.87026c0,0 0,-9.09251 0,-11.45925z" fill-opacity="0.01569" fill="#ededed" stroke="#000000" stroke-width="0" stroke-linecap="butt" stroke-linejoin="miter"/><path d="M751.76141,20.41901l-13.8735,-13.8735" fill="none" stroke="#000000" stroke-width="1" stroke-linecap="round" stroke-linejoin="round"/><path d="M737.88792,20.419l13.8735,-13.87349" fill="none" stroke="#000000" stroke-width="1" stroke-linecap="round" stroke-linejoin="round"/></g></g></svg>