<svg version="1.1" xmlns="http://www.w3.org/2000/svg" xmlns:xlink="http://www.w3.org/1999/xlink" width="15.34777" height="14.86899" viewBox="0,0,15.34777,14.86899"><g transform="translate(-392.32611,-217.56551)"><g data-paper-data="{&quot;isPaintingLayer&quot;:true}" fill="#e1ccb1" fill-rule="nonzero" stroke="none" stroke-width="1" stroke-linecap="butt" stroke-linejoin="miter" stroke-miterlimit="10" stroke-dasharray="" stroke-dashoffset="0" style="mix-blend-mode: normal"><path d="M396.55416,217.82864c0.25855,-0.31026 0.71966,-0.35218 1.02991,-0.09362c0.73902,0.61584 1.02602,1.34289 0.86746,2.06025c-0.13501,0.61076 -0.56047,1.04627 -0.89211,1.27791c-0.20724,0.17766 -0.29363,0.3171 -0.32932,0.40392c-0.03408,0.08286 -0.03334,0.14363 -0.0217,0.19628c0.03043,0.13762 0.16201,0.30174 0.3132,0.40254c0.33604,0.22402 0.42685,0.67804 0.20281,1.01407c-0.22402,0.33604 -0.67804,0.42685 -1.01408,0.20283c-0.33631,-0.22421 -0.78976,-0.66947 -0.92997,-1.30374c-0.15859,-0.71736 0.12841,-1.44442 0.86743,-2.06026l0.03001,-0.02501l0.0325,-0.02166c0.15119,-0.1008 0.28276,-0.26492 0.31318,-0.40253c0.01164,-0.05264 0.01237,-0.11342 -0.0217,-0.19628c-0.03709,-0.09019 -0.12887,-0.23717 -0.35399,-0.42477c-0.31026,-0.25855 -0.35218,-0.71966 -0.09363,-1.02991zM401.09028,219.77868c0.25855,0.31026 0.21664,0.77136 -0.09362,1.02991c-0.22512,0.18759 -0.31691,0.33456 -0.354,0.42475c-0.03408,0.08287 -0.03333,0.14364 -0.02169,0.19628c0.03041,0.13762 0.16199,0.30174 0.31317,0.40253c0.33604,0.22403 0.42685,0.67804 0.20281,1.01408c-0.22402,0.33604 -0.67804,0.42683 -1.01407,0.20281c-0.33632,-0.22421 -0.78976,-0.66948 -0.92997,-1.30374c-0.15857,-0.71736 0.12845,-1.44441 0.86745,-2.06026c0.31026,-0.25855 0.77137,-0.21662 1.02991,0.09363zM392.43088,224.45702c0.08138,-0.32553 0.37387,-0.55391 0.70942,-0.55391h11.22721c0.33561,0 0.62809,0.22837 0.7095,0.55391c0.10569,0.42302 0.13259,0.96271 0.07528,1.56675h1.79035c0.4039,0 0.73125,0.32739 0.73125,0.73125c0,0.71768 -0.04362,1.88013 -0.77419,2.85403c-0.7194,0.95894 -1.9718,1.57548 -3.97556,1.64143c-0.26179,0.32833 -0.55009,0.65287 -0.86705,0.96982c-0.13714,0.13716 -0.32314,0.21419 -0.51708,0.21419h-5.57216c-0.19394,0 -0.37995,-0.07703 -0.51708,-0.21419c-1.40737,-1.40743 -2.25048,-2.96261 -2.69957,-4.34381c-0.44137,-1.3574 -0.52208,-2.61245 -0.32032,-3.4195zM401.23098,230.972c0.27401,-0.29044 0.52099,-0.58632 0.74306,-0.88405c0.9061,-1.215 1.39694,-2.4605 1.61132,-3.483c0.10248,-0.4887 0.13832,-0.90874 0.13347,-1.23932h-9.92977c-0.00744,0.51104 0.08248,1.2267 0.353,2.0587c0.36135,1.11126 1.02843,2.37492 2.13483,3.54766zM403.97634,229.67308c0.97468,-0.18961 1.47717,-0.5735 1.75343,-0.94166c0.27218,-0.36281 0.39409,-0.79546 0.44596,-1.24511h-1.30116c-0.19282,0.69045 -0.48462,1.43366 -0.89823,2.18677z"/></g></g></svg>