<svg version="1.1" xmlns="http://www.w3.org/2000/svg" xmlns:xlink="http://www.w3.org/1999/xlink" width="1200" height="675" viewBox="0,0,1200,675"><defs><linearGradient x1="201.27123" y1="159.74037" x2="201.27123" y2="180.65966" gradientUnits="userSpaceOnUse" id="color-1"><stop offset="0" stop-color="#d17862" stop-opacity="0.9098"/><stop offset="1" stop-color="#d1629c"/></linearGradient><clipPath id="clip-1"><rect x="-400" y="-225" transform="scale(0.5,0.5)" width="2400" height="1350" fill="none" stroke="none" stroke-width="0.5" stroke-linecap="butt" stroke-linejoin="miter"/></clipPath></defs><g transform="translate(200,112.5)"><g clip-path="url(#clip-1)" stroke-miterlimit="10"><path d="M182.79455,181.11379c0,-3.81138 0,-14.00638 0,-20.85843c0,-2.57819 2.654,-4.70718 6.17334,-4.70718c19.59709,0 84.26017,0 96.21468,0c3.69009,0 6.57846,2.6957 6.57846,5.13578c0,4.02662 0,13.91282 0,20.42983c0,2.41369 -2.95907,4.42147 -5.97079,4.42147c-10.99158,0 -76.48933,0 -96.61979,0c-3.644,0 -6.3759,-2.37077 -6.3759,-4.42147z" fill="#fafafa" stroke="#cccccc" stroke-width="0.5" stroke-linecap="butt" stroke-linejoin="miter"/><text transform="translate(226.89729,173.1169) scale(0.22047,0.22047)" font-size="40" xml:space="preserve" fill-opacity="0.9098" fill="#000000" stroke="none" stroke-width="0" stroke-linecap="butt" stroke-linejoin="miter" font-family="&quot;Exo-Bold&quot;, Sans Serif" font-weight="normal" text-anchor="start"><tspan x="0" dy="0">zx画图</tspan></text><path d="M204.48259,159.74212c2.07447,0.01827 4.4973,0.17172 5.78348,1.4579c1.27211,1.27211 1.43211,3.6521 1.45222,5.71024c0.00285,0.29071 0.00282,6.37521 -0.00149,6.71275c-0.02597,2.03159 -0.20578,4.35369 -1.45073,5.59865c-1.23125,1.23125 -3.50412,1.40874 -5.51588,1.43426c-0.36035,0.00457 -6.45422,0.00446 -6.73728,0.00224c-2.05989,-0.01615 -4.43925,-0.1601 -5.71565,-1.4365c-1.26278,-1.26278 -1.44581,-3.63376 -1.47206,-5.68572c-0.00393,-0.30715 -0.00427,-6.45061 0.00063,-6.80372c0.02806,-2.02088 0.21429,-4.31818 1.45014,-5.55403c1.24003,-1.24003 3.53658,-1.41122 5.55887,-1.43478c0.34536,-0.00403 6.38063,-0.00363 6.64775,-0.00128z" fill="url(#color-1)" stroke="none" stroke-width="0.47449" stroke-linecap="butt" stroke-linejoin="miter"/><path d="M199.29191,170.45866l5.89807,-5.16082c0,0 0.55293,-0.55294 1.10587,0c0.55294,0.55294 0,1.10589 0,1.10589l-5.16082,5.89807z" fill="#ffffff" stroke="#b9b9b9" stroke-width="1" stroke-linecap="butt" stroke-linejoin="round"/><path d="M202.42546,170.64298l-1.4745,-1.47454" fill="#ffffff" stroke="#b9b9b9" stroke-width="1" stroke-linecap="round" stroke-linejoin="round"/><path d="M196.5274,171.7488l2.76471,-1.29021l1.84316,1.84315l-1.29022,2.76472c0,0 -1.2902,0.18431 -2.39608,-0.92157c-1.10589,-1.1059 -0.92157,-2.3961 -0.92157,-2.3961z" fill="#ffffff" stroke="#b9b9b9" stroke-width="1" stroke-linecap="butt" stroke-linejoin="round"/><path d="M196.89611,173.22328l1.29021,-0.55294" fill="#ffffff" stroke="#b9b9b9" stroke-width="1" stroke-linecap="round" stroke-linejoin="round"/><path d="M198.37079,174.69789l0.36863,-0.73726" fill="#ffffff" stroke="#b9b9b9" stroke-width="1" stroke-linecap="round" stroke-linejoin="round"/><path d="M200.02958,169.8135l0.73725,-0.64511l0.73729,-0.64511" fill="#ffffff" stroke="#b9b9b9" stroke-width="1" stroke-linecap="butt" stroke-linejoin="round"/><path d="M201.78041,171.56443l0.64509,-0.73724l0.64511,-0.73726" fill="#ffffff" stroke="#b9b9b9" stroke-width="1" stroke-linecap="butt" stroke-linejoin="round"/></g></g></svg>