<svg version="1.1" xmlns="http://www.w3.org/2000/svg" xmlns:xlink="http://www.w3.org/1999/xlink" width="26.17128" height="22.10518" viewBox="0,0,26.17128,22.10518"><g transform="translate(-542.78591,-49.64064)"><g stroke-miterlimit="10"><path d="M542.78591,71.74582v-22.10518h26.17128v22.10518z" fill="#fafafa" stroke="none" stroke-width="NaN"/><path d="M548.6258,60.12816c-0.00229,-0.62906 0.08107,-1.2555 0.24779,-1.86207c0.65213,-2.3772 2.50936,-4.23443 4.88656,-4.88656c1.2194,-0.33039 2.50474,-0.33039 3.72414,0c2.3772,0.65213 4.23443,2.50936 4.88656,4.88656c0.16672,0.60657 0.25008,1.23301 0.24779,1.86207c0.00229,0.6293 -0.08232,1.25591 -0.25144,1.86207c-0.65871,2.37262 -2.51345,4.22598 -4.88656,4.88292c-0.60501,0.16864 -1.23035,0.25324 -1.85842,0.25144c-1.85745,0.00618 -3.64061,-0.72896 -4.95403,-2.04239c-1.31342,-1.31342 -2.04856,-3.09658 -2.04239,-4.95403zM561.68578,60.12816c0.00366,-1.07716 -0.282,-2.13554 -0.82713,-3.06458c-0.52755,-0.89681 -1.27504,-1.6443 -2.17185,-2.17185c-1.89287,-1.10785 -4.23629,-1.10785 -6.12916,0c-0.89681,0.52755 -1.6443,1.27504 -2.17185,2.17185c-0.8217,1.41495 -1.04217,3.10014 -0.61214,4.67886c0.56311,2.06104 2.17326,3.67119 4.2343,4.2343c1.05709,0.28665 2.17146,0.28665 3.22855,0c2.06104,-0.56311 3.67119,-2.17326 4.2343,-4.2343c0.14446,-0.52587 0.21678,-1.06893 0.21499,-1.61428zM554.92258,57.32959c0.00139,-0.33211 0.23701,-0.61707 0.56294,-0.68083c0.32593,-0.06376 0.65156,0.11139 0.77801,0.41849c0.12645,0.3071 0.01856,0.66075 -0.25777,0.84497c-0.27634,0.18422 -0.64429,0.14779 -0.87912,-0.08705c-0.13352,-0.12994 -0.20737,-0.3093 -0.20406,-0.49558zM555.15579,62.92672v-3.73142c0,-0.2576 0.20883,-0.46643 0.46643,-0.46643c0.2576,0 0.46643,0.20883 0.46643,0.46643v3.73142c0,0.2576 -0.20883,0.46643 -0.46643,0.46643c-0.2576,0 -0.46643,-0.20883 -0.46643,-0.46643z" fill="#000000" stroke="#505050" stroke-width="0.5"/></g></g></svg>