<svg version="1.1" xmlns="http://www.w3.org/2000/svg" xmlns:xlink="http://www.w3.org/1999/xlink" width="132.50129" height="33.8738" viewBox="0,0,132.50129,33.8738"><defs><linearGradient x1="374.43163" y1="189.95336" x2="374.43163" y2="223.73196" gradientUnits="userSpaceOnUse" id="color-1"><stop offset="0" stop-color="#4e80b5" stop-opacity="0.54902"/><stop offset="1" stop-color="#b8c4cc" stop-opacity="0.41961"/></linearGradient><linearGradient x1="374.94747" y1="190.04856" x2="374.94747" y2="223.82716" gradientUnits="userSpaceOnUse" id="color-2"><stop offset="0" stop-color="#4372a3" stop-opacity="0.47451"/><stop offset="1" stop-color="#83afcc" stop-opacity="0.52549"/></linearGradient></defs><g transform="translate(-308.43891,-189.95336)"><g stroke-miterlimit="10"><path d="M308.43891,215.71254c0,-6.28592 0,-14.54436 0,-18.10263c0,-3.31153 4.7921,-7.65655 9.95381,-7.65655c14.63976,0 85.63282,0 112.07783,0c6.20202,0 9.95381,4.53708 9.95381,7.9439c0,3.56994 0,11.71401 0,17.91106c0,4.46783 -3.75159,7.82786 -9.95381,7.82786c-26.47713,0 -97.61481,0.09578 -112.1977,0.09578c-5.10693,0 -9.83394,-3.49986 -9.83394,-8.01942z" fill="url(#color-1)" stroke="none" stroke-width="0" stroke-linecap="butt" stroke-linejoin="miter"/><path d="M308.95475,215.80774c0,-6.28592 0,-14.54436 0,-18.10263c0,-3.31153 4.7921,-7.65655 9.95381,-7.65655c14.63976,0 85.63282,0 112.07783,0c6.20202,0 9.95381,4.53708 9.95381,7.9439c0,3.56994 0,11.71401 0,17.91106c0,4.46783 -3.75159,7.82786 -9.95381,7.82786c-26.47713,0 -97.61481,0.09578 -112.1977,0.09578c-5.10693,0 -9.83394,-3.49986 -9.83394,-8.01942z" fill="url(#color-2)" stroke="none" stroke-width="0" stroke-linecap="butt" stroke-linejoin="miter"/><path d="M319.61284,204.28681c0,-4.2499 3.44525,-7.69514 7.69514,-7.69514c4.24989,0 7.69515,3.44525 7.69515,7.69514c0,4.2499 -3.44525,7.69515 -7.69515,7.69515c-4.24989,0 -7.69514,-3.44526 -7.69514,-7.69515z" fill="none" stroke="#696969" stroke-width="1.5" stroke-linecap="butt" stroke-linejoin="round"/><path d="M324.74745,201.27353c0.65531,-0.65531 1.56062,-1.06062 2.56058,-1.06062c1,0 1.90533,0.40531 2.56063,1.06062" fill="none" stroke="#696969" stroke-width="1.5" stroke-linecap="round" stroke-linejoin="round"/><path d="M332.84016,209.81904l3.84093,3.84091" fill="none" stroke="#696969" stroke-width="1.5" stroke-linecap="round" stroke-linejoin="round"/></g></g></svg>