<svg version="1.1" xmlns="http://www.w3.org/2000/svg" xmlns:xlink="http://www.w3.org/1999/xlink" width="308.41127" height="20.92898" viewBox="0,0,308.41127,20.92898"><defs><linearGradient x1="338.51915" y1="148.24555" x2="338.51915" y2="163.57367" gradientUnits="userSpaceOnUse" id="color-1"><stop offset="0" stop-color="#99dc7c"/><stop offset="1" stop-color="#c4eab4"/></linearGradient></defs><g transform="translate(-321.81972,-145.01234)"><g stroke-miterlimit="10"><path d="M321.81972,160.24007c0,-3.09396 0,-7.85281 0,-9.69697c0,-2.50379 3.4799,-5.53076 9.31612,-5.53076c27.53257,0 239.91381,0 289.64614,0c6.73087,0 9.44901,3.31191 9.44901,5.92979c0,1.79999 0,6.35432 0,9.29794c0,3.37251 -2.79963,5.70125 -9.66563,5.70125c-50.07083,0 -261.49535,0 -289.2129,0c-5.94787,0 -9.53274,-2.31286 -9.53274,-5.70125z" fill="#f9f9f9" stroke="none" stroke-width="0" stroke-linecap="butt" stroke-linejoin="miter"/><text transform="translate(369.38116,158.38009) scale(0.23741,0.23741)" font-size="40" xml:space="preserve" fill="#515151" stroke="none" stroke-width="1" stroke-linecap="butt" stroke-linejoin="miter" font-family="Sans Serif" font-weight="normal" text-anchor="start"><tspan x="0" dy="0">翻译</tspan></text><path d="M340.87219,148.24683c1.52002,0.01339 3.29529,0.12582 4.23771,1.06824c0.93211,0.93211 1.04935,2.67599 1.06408,4.18405c0.00209,0.21301 0.00207,4.67129 -0.00109,4.91861c-0.01903,1.4886 -0.15078,3.19007 -1.06299,4.10228c-0.90217,0.90217 -2.56756,1.03222 -4.04163,1.05092c-0.26404,0.00335 -4.72918,0.00327 -4.93659,0.00164c-1.50934,-0.01183 -3.25276,-0.11731 -4.18801,-1.05256c-0.92527,-0.92527 -1.05938,-2.66255 -1.07862,-4.16608c-0.00288,-0.22506 -0.00313,-4.72654 0.00046,-4.98527c0.02056,-1.48075 0.15702,-3.16405 1.06256,-4.06959c0.9086,-0.9086 2.59135,-1.03404 4.07313,-1.0513c0.25305,-0.00295 4.67526,-0.00266 4.87099,-0.00094z" fill="url(#color-1)" stroke="none" stroke-width="0.47449" stroke-linecap="butt" stroke-linejoin="miter"/><path d="M336.89824,158.0311l0.56675,-1.29542M340.52541,158.0311l-0.56675,-1.29542M337.46499,156.73568l1.24684,-2.84992l1.24684,2.84992M337.46499,156.73568h2.49368" fill="none" stroke="#313131" stroke-width="1.5" stroke-linecap="round" stroke-linejoin="round"/><path d="M335.08466,154.40392l-1.5545,0.51816c0.4801,-2.36517 2.57117,-4.14534 5.07801,-4.14534c2.50686,0 4.59793,1.78017 5.07803,4.14534" fill="none" stroke="#313131" stroke-width="1.5" stroke-linecap="round" stroke-linejoin="round"/><path d="M342.33899,157.51293l1.34721,-0.51816c-0.4801,2.36517 -2.57117,4.14534 -5.07803,4.14534c-2.50684,0 -4.59791,-1.78017 -5.07801,-4.14534" fill="none" stroke="#313131" stroke-width="1.5" stroke-linecap="round" stroke-linejoin="round"/></g></g></svg>