<svg version="1.1" xmlns="http://www.w3.org/2000/svg" xmlns:xlink="http://www.w3.org/1999/xlink" width="585.94387" height="178.92288" viewBox="0,0,585.94387,178.92288"><g transform="translate(-178.18286,-44.05875)"><g stroke-miterlimit="10"><path d="M187.8581,220.9324c0,0 -9.17524,-2.97136 -9.17524,-10.52934c0,-34.48282 0,-132.19105 0,-152.2586c0,-7.03453 4.69748,-9.50005 4.69748,-9.50005c0,0 2.30062,-4.08566 11.58422,-4.08566c48.90868,0 462.51527,0 551.741,0c10.86592,0 11.85554,2.42557 11.85554,2.42557c0,0 5.06563,2.38466 5.06563,10.3873c0,35.87432 0,135.90221 0,154.34452c0,5.7243 -3.66234,7.29057 -3.66234,7.29057c0,0 -1.89968,3.47492 -11.92705,3.47492c-86.00364,0 -500.49096,0 -551.50694,0c-10.10557,0 -12.5237,-4.6304 -12.5237,-4.6304z" fill="#f7f7f7" stroke="#cccccc" stroke-width="1" stroke-linecap="butt"/><path d="M183.95561,216.19021c0,0 -5.27276,0.10875 -5.27276,-7.37678c0,-34.1523 0,-130.92397 0,-150.79917c0,-6.96711 4.65245,-9.409 4.65245,-9.409c0,0 2.27856,-4.0465 11.47318,-4.0465c48.43988,0 458.08197,0 546.45245,0c10.76177,0 11.15322,4.58883 11.15322,4.58883c0,0 5.60575,0.17529 5.60575,8.10122c0,35.53045 0,134.59956 0,152.86509c0,5.66944 -3.62724,7.22069 -3.62724,7.22069c0,0 -1.88147,3.44161 -11.81272,3.44161c-85.17928,0 -495.69365,0 -546.22064,0c-10.00871,0 -12.40366,-4.58602 -12.40366,-4.58602z" fill="#f7f7f7" stroke="none" stroke-width="0" stroke-linecap="butt"/><text transform="translate(241.458,104.11814) scale(0.41739,0.41739)" font-size="40" xml:space="preserve" fill="#000000" stroke="none" stroke-width="1" stroke-linecap="butt" font-family="Sans Serif" font-weight="normal" text-anchor="start"><tspan x="0" dy="0">你就有机会将你的广告放在这里</tspan><tspan x="0" dy="46.150000000000006px">机会有限，点击咨询作者~</tspan></text><text transform="translate(229.28712,79.78106) rotate(-6.1989) scale(0.5,0.5)" font-size="40" xml:space="preserve" fill="#ff0f0f" stroke="#000000" stroke-width="1" stroke-linecap="butt" font-family="Sans Serif" font-weight="normal" text-anchor="start"><tspan x="0" dy="0">只需4个三连</tspan><tspan x="0" dy="46.150000000000006px"> </tspan></text><path d="M189.43538,220.23806c-0.11181,0.2236 -0.33541,0.1118 -0.33541,0.1118l-0.11956,-0.05982c-0.12572,0.10583 -0.28189,0.01213 -0.28189,0.01213l-0.16217,-0.09998c-0.15745,-0.06748 -0.33628,-0.13687 -0.52997,-0.20927c-0.78678,-0.1224 -1.66886,-0.123 -2.25624,-0.59271c-0.12727,-0.10178 -0.27077,-0.27246 -0.42518,-0.45834l-0.00904,0.00247l-0.00542,-0.01988c-0.02957,-0.03562 -0.05954,-0.07172 -0.08986,-0.10795c-0.00901,-0.00527 -0.01799,-0.01054 -0.02694,-0.01584c-1.3545,0.0539 -2.56126,-1.47913 -3.24272,-2.46484l-0.32763,-0.29122c-0.05202,-0.04582 -0.08485,-0.11291 -0.08485,-0.18768c0,-0.13807 0.11193,-0.25 0.25,-0.25c0.00798,0 0.01588,0.00037 0.02368,0.0011l0.45863,0.03822l-0.01202,0.14426c0.95767,0.18464 2.01057,0.88394 2.64821,1.52496l0.36824,0.25777c0.06609,0.04499 0.1095,0.12083 0.1095,0.20682c0,0.04487 -0.01182,0.08698 -0.03252,0.12338c1.06373,0.5481 2.28823,1.29358 3.04447,1.67893c0.22666,0.03785 0.43623,0.08761 0.61257,0.16326l0.31431,0.15704c0,0 0.22361,0.11181 0.11181,0.33541z" fill="#f7f7f7" stroke="none" stroke-width="0.5" stroke-linecap="butt"/><path d="M183.09623,217.39541l5.96169,3.00008" fill="none" stroke="#f7f7f7" stroke-width="1" stroke-linecap="round"/></g></g></svg>