<svg xmlns="http://www.w3.org/2000/svg" fill="none" viewBox="0 0 48 48" height="48" width="48"><path stroke-linejoin="round" stroke-linecap="round" stroke-width="3" stroke="#000000" d="M9.45455 30.9942C6.14242 28.461 4 24.4278 4 19.8851C4 12.2166 10.1052 6 17.6364 6C23.9334 6 29.2336 10.3462 30.8015 16.2533C32.0353 15.6159 33.431 15.2567 34.9091 15.2567C39.9299 15.2567 44 19.4011 44 24.5135C44 28.3094 41.7562 31.5716 38.5455 33"></path><path stroke-linejoin="round" stroke-linecap="round" stroke-width="3" stroke="#000000" d="M22.2426 15.7574C21.1569 14.6716 19.6569 14 18 14C14.6863 14 12 16.6863 12 20C12 21.6569 12.6716 23.1569 13.7574 24.2426"></path><path stroke-linejoin="round" stroke-linecap="round" stroke-width="3" stroke="#000000" d="M20 34H28"></path><path stroke-linejoin="round" stroke-linecap="round" stroke-width="3" stroke="#000000" d="M10 42H20"></path><path stroke-linejoin="round" stroke-linecap="round" stroke-width="3" stroke="#000000" d="M28 42H38"></path><path stroke-linejoin="round" stroke-linecap="round" stroke-width="3" stroke="#000000" d="M26 26H34"></path></svg>