<svg version="1.1" xmlns="http://www.w3.org/2000/svg" xmlns:xlink="http://www.w3.org/1999/xlink" width="49.22364" height="36.46317" viewBox="0,0,49.22364,36.46317"><g transform="translate(-381.51322,-206.76847)"><g stroke-miterlimit="10"><path d="M382.51323,238.37175c0,-7.21711 0,-22.39711 0,-26.5c0,-2.00018 2.03654,-4.10328 5.23826,-4.10328c9.37104,0 36.25712,0 36.71961,0c2.60166,0 5.26577,2.02993 5.26577,3.97828c0,4.09551 0,19.54943 0,26.75c0,2.28187 -2.04756,3.73489 -5.26577,3.73489c-10.27258,0 -31.28278,0 -36.88961,0c-2.51786,0 -5.06826,-1.50665 -5.06826,-3.85989z" fill-opacity="0.05098" fill="#262626" stroke-opacity="0.01176" stroke="#000000" stroke-width="2" stroke-linecap="butt" stroke-linejoin="miter"/><path d="M398.32085,230.5107c-0.83837,0 -1.51801,-0.67964 -1.51801,-1.51801v-11.13207c0,-0.83837 0.67964,-1.51801 1.51801,-1.51801h15.18009c0.83837,0 1.51801,0.67964 1.51801,1.51801v11.13207c0,0.83837 -0.67964,1.51801 -1.51801,1.51801z" fill="none" stroke="#505955" stroke-width="2" stroke-linecap="butt" stroke-linejoin="round"/><path d="M400.85084,234.55873h10.12006" fill="none" stroke="#505955" stroke-width="2" stroke-linecap="round" stroke-linejoin="round"/><path d="M405.9109,230.5107v4.04801" fill="none" stroke="#505955" stroke-width="2" stroke-linecap="round" stroke-linejoin="round"/><path d="M412.25335,234.79161h2.2373l1.78641,-5.95567l1.44519,8.65873l1.79197,-4.08632l1.36352,1.38327h1.60867" fill="none" stroke="#83ef70" stroke-width="1" stroke-linecap="round" stroke-linejoin="round"/></g></g></svg>