<svg version="1.1" xmlns="http://www.w3.org/2000/svg" xmlns:xlink="http://www.w3.org/1999/xlink" width="71.18472" height="18.70266" viewBox="0,0,71.18472,18.70266"><g transform="translate(-204.59408,-83.5251)"><g stroke-miterlimit="10"><path d="M204.84408,87.25746c0,-2.0731 1.26806,-3.48237 3.15043,-3.48237c12.11876,0 57.46201,0 64.38386,0c1.72724,0 3.15043,1.85396 3.15043,3.48237c0,2.75944 0,6.71867 0,11.39682c0,1.80726 -1.56882,3.09856 -3.43829,3.09856c-7.20902,0 -52.68619,0.22492 -64.28791,0.22492c-1.70369,0 -2.95852,-1.79512 -2.95852,-3.38642c0,0 0,-6.52859 0,-11.33388z" fill="#ffffff" stroke="#cccccc" stroke-width="0.5" stroke-linecap="butt" stroke-linejoin="miter"/><text transform="translate(240.69834,96.17062) scale(0.24929,0.24929)" font-size="40" xml:space="preserve" fill="#646464" stroke="none" stroke-width="1" stroke-linecap="butt" stroke-linejoin="miter" font-family="Sans Serif" font-weight="normal" text-anchor="start"><tspan x="0" dy="0">返回</tspan></text><path d="M218.0199,91.9884l-1.53369,-1.53374l1.53369,-1.31463" fill="none" stroke="#000000" stroke-width="1" stroke-linecap="round" stroke-linejoin="round"/><path d="M216.48621,90.45466h5.03806c1.5081,0 2.78883,1.23146 2.84762,2.73881c0.06212,1.59281 -1.254,2.95792 -2.84762,2.95792h-3.72378" fill="none" stroke="#000000" stroke-width="1" stroke-linecap="round" stroke-linejoin="round"/></g></g></svg>