<svg version="1.1" xmlns="http://www.w3.org/2000/svg" xmlns:xlink="http://www.w3.org/1999/xlink" width="109.46648" height="30.48708" viewBox="0,0,109.46648,30.48708"><defs><linearGradient x1="201.27123" y1="159.89422" x2="201.27123" y2="180.8135" gradientUnits="userSpaceOnUse" id="color-1"><stop offset="0" stop-color="#99dc7c"/><stop offset="1" stop-color="#c4eab4"/></linearGradient></defs><g transform="translate(-182.54454,-155.29818)"><g stroke-miterlimit="10"><path d="M182.79454,181.11379c0,-3.81138 0,-14.00638 0,-20.85843c0,-2.57819 2.654,-4.70718 6.17334,-4.70718c19.59709,0 84.26017,0 96.21468,0c3.69009,0 6.57846,2.6957 6.57846,5.13578c0,4.02662 0,13.91282 0,20.42983c0,2.41369 -2.95907,4.42147 -5.97079,4.42147c-10.99158,0 -76.48933,0 -96.61979,0c-3.644,0 -6.3759,-2.37077 -6.3759,-4.42147z" fill="#fafafa" stroke="#cccccc" stroke-width="0.5" stroke-linecap="butt" stroke-linejoin="miter"/><text transform="translate(226.89728,173.1169) scale(0.22047,0.22047)" font-size="40" xml:space="preserve" fill-opacity="0.9098" fill="#000000" stroke="none" stroke-width="0" stroke-linecap="butt" stroke-linejoin="miter" font-family="&quot;Exo-Bold&quot;, Sans Serif" font-weight="normal" text-anchor="start"><tspan x="0" dy="0">外语翻译</tspan></text><path d="M204.48258,159.89597c2.07447,0.01827 4.4973,0.17172 5.78348,1.4579c1.27211,1.27211 1.43211,3.6521 1.45222,5.71024c0.00285,0.29071 0.00282,6.37521 -0.00149,6.71275c-0.02597,2.03159 -0.20578,4.35369 -1.45073,5.59865c-1.23125,1.23125 -3.50412,1.40874 -5.51588,1.43426c-0.36035,0.00457 -6.45422,0.00446 -6.73728,0.00224c-2.05989,-0.01615 -4.43925,-0.1601 -5.71565,-1.4365c-1.26278,-1.26278 -1.44581,-3.63376 -1.47206,-5.68572c-0.00393,-0.30715 -0.00427,-6.45061 0.00063,-6.80372c0.02806,-2.02088 0.21429,-4.31818 1.45014,-5.55403c1.24003,-1.24003 3.53658,-1.41122 5.55887,-1.43478c0.34536,-0.00403 6.38063,-0.00363 6.64775,-0.00128z" fill="url(#color-1)" stroke="none" stroke-width="0.47449" stroke-linecap="butt" stroke-linejoin="miter"/><path d="M199.05907,173.24919l0.77348,-1.76794M204.00931,173.24919l-0.77348,-1.76794M199.83255,171.48125l1.70164,-3.88947l1.70164,3.88947M199.83255,171.48125h3.40328" fill="none" stroke="#313131" stroke-width="1.5" stroke-linecap="round" stroke-linejoin="round"/><path d="M196.58396,168.29895l-2.12153,0.70717c0.65522,-3.2279 3.50904,-5.65741 6.93029,-5.65741c3.42128,0 6.27509,2.42951 6.93032,5.65741" fill="none" stroke="#313131" stroke-width="1.5" stroke-linecap="round" stroke-linejoin="round"/><path d="M206.48442,172.54201l1.83862,-0.70717c-0.65523,3.2279 -3.50904,5.65741 -6.93032,5.65741c-3.42125,0 -6.27506,-2.42951 -6.93029,-5.65741" fill="none" stroke="#313131" stroke-width="1.5" stroke-linecap="round" stroke-linejoin="round"/></g></g></svg>