<svg version="1.1" xmlns="http://www.w3.org/2000/svg" xmlns:xlink="http://www.w3.org/1999/xlink" width="92.43472" height="41.17577" viewBox="0,0,92.43472,41.17577"><defs><linearGradient x1="105.90728" y1="391.79393" x2="105.90728" y2="432.96972" gradientUnits="userSpaceOnUse" id="color-1"><stop offset="0" stop-color="#fafafa"/><stop offset="1" stop-color="#e1e1e1"/></linearGradient></defs><g transform="translate(-59.68992,-391.79395)"><g stroke-miterlimit="10"><path d="M84.85252,407.87773c0,-7.09287 5.74991,-12.84278 12.84278,-12.84278c7.09287,0 12.84278,5.74991 12.84278,12.84278c0,7.09287 -5.74991,12.84278 -12.84278,12.84278c-7.09287,0 -12.84278,-5.74991 -12.84278,-12.84278z" fill="none" stroke="#404040" stroke-width="2" stroke-linecap="butt" stroke-linejoin="miter"/><path d="M106.52471,398.24563l2.40802,-2.40802" fill="none" stroke="#404040" stroke-width="2" stroke-linecap="round" stroke-linejoin="round"/><path d="M97.6953,407.87773v-4.81605" fill="none" stroke="#404040" stroke-width="2" stroke-linecap="round" stroke-linejoin="round"/><path d="M97.6953,407.87773h-4.81604" fill="none" stroke="#404040" stroke-width="2" stroke-linecap="round" stroke-linejoin="round"/><path d="M59.68992,399.67134c0,-4.6895 1.65824,-7.87738 4.11983,-7.87738c15.84776,0 75.14332,0 84.19506,0c2.25871,0 4.11983,4.19379 4.11983,7.87738c0,6.24207 0,15.19813 0,25.78045c0,4.08817 -2.05155,7.00917 -4.49626,7.00917c-9.42726,0 -68.89796,0.50877 -84.06959,0.50877c-2.22792,0 -3.86887,-4.0607 -3.86887,-7.66032c0,0 0,-14.76817 0,-25.63807z" fill="url(#color-1)" stroke="none" stroke-width="0" stroke-linecap="butt" stroke-linejoin="miter"/><path d="M93.05738,413.77848c0,-6.26451 5.0784,-11.34292 11.3429,-11.34292c6.26458,0 11.34297,5.07841 11.34297,11.34292c0,6.26451 -5.07839,11.34291 -11.34297,11.34291c-6.26451,0 -11.3429,-5.0784 -11.3429,-11.34291z" fill="none" stroke="#b3e09e" stroke-width="2" stroke-linecap="butt" stroke-linejoin="round"/><path d="M109.05957,418.81152l-4.80876,-4.80876l0.00074,-6.8112" fill="none" stroke="#b3e09e" stroke-width="2" stroke-linecap="round" stroke-linejoin="round"/><path d="M92.02631,403.26057l4.33094,-3.09352" fill="none" stroke="#b3e09e" stroke-width="2" stroke-linecap="round" stroke-linejoin="round"/><path d="M116.77451,403.26057l-4.33094,-3.09352" fill="none" stroke="#b3e09e" stroke-width="2" stroke-linecap="round" stroke-linejoin="round"/></g></g></svg>