<svg version="1.1" xmlns="http://www.w3.org/2000/svg" xmlns:xlink="http://www.w3.org/1999/xlink" width="31.64707" height="27.07961" viewBox="0,0,31.64707,27.07961"><g transform="translate(-463.68816,-134.50232)"><g stroke-miterlimit="10"><path d="M464.28277,159.57106c0,0 -0.0946,-0.01026 -0.0946,-2.26896c0,-5.39887 0,-15.01178 0,-18.13836c0,-1.93231 0.12614,-2.91332 0.12614,-2.91332c0,0 0.1249,-1.2481 0.4772,-1.2481c2.20712,0 24.17562,0 29.07738,0c0.61946,0 0.60977,1.1999 0.60977,1.1999c0,0 0.35658,1.49559 0.35658,3.702c0,3.16055 0,12.02296 0,17.22721c0,2.34736 -0.23315,3.17913 -0.23315,3.17913c0,0 -0.06276,0.77137 -0.59605,0.77137c-4.62784,0 -27.13202,0 -29.27035,0c-0.32163,0 -0.45291,-1.51086 -0.45291,-1.51086z" fill="#f4f4f4" stroke="#ffffff" stroke-width="1" stroke-linecap="butt" stroke-linejoin="miter"/><path d="M482.41282,157.96054l-2.40035,-9.58743l-9.59141,-1.85594l18.22368,-6.78032z" fill="none" stroke="#3f3f3f" stroke-width="1.5" stroke-linecap="butt" stroke-linejoin="round"/><path d="M483.10006,144.93507l-2.97726,2.97726" fill="none" stroke="#3f3f3f" stroke-width="1.5" stroke-linecap="round" stroke-linejoin="round"/></g></g></svg>