<svg version="1.1" xmlns="http://www.w3.org/2000/svg" xmlns:xlink="http://www.w3.org/1999/xlink" width="28.94737" height="16.64473" viewBox="0,0,28.94737,16.64473"><g transform="translate(-136.25776,-114.34192)"><g stroke-miterlimit="10"><path d="M136.25776,130.98666v-16.64473h28.94737v16.64473z" fill="#bafab2" stroke="none" stroke-width="0" stroke-linecap="butt" stroke-linejoin="miter"/><path d="M159.97898,121.66278c0,2.53753 -2.38984,4.59459 -5.33784,4.59459c-2.948,0 -5.33783,-2.05707 -5.33783,-4.59459c0,-2.53753 2.38983,-4.59459 5.33783,-4.59459c2.948,0 5.33784,2.05707 5.33784,4.59459z" fill="none" stroke="#ffffff" stroke-width="0" stroke-linecap="butt" stroke-linejoin="miter"/><path d="M144.84849,122.20374c0,-2.96239 2.40152,-5.36391 5.36391,-5.36391c2.96239,0 5.36391,2.40152 5.36391,5.36391c0,2.96239 -2.40152,5.36391 -5.36391,5.36391c-2.96239,0 -5.36391,-2.40152 -5.36391,-5.36391z" fill="none" stroke="#ffffff" stroke-width="1" stroke-linecap="butt" stroke-linejoin="round"/><path d="M148.42757,120.10333c0.45678,-0.45678 1.08783,-0.73931 1.78486,-0.73931c0.69706,0 1.32811,0.28252 1.78489,0.73931" fill="none" stroke="#ffffff" stroke-width="1" stroke-linecap="round" stroke-linejoin="round"/><path d="M154.06861,126.05998l2.67732,2.67732" fill="none" stroke="#ffffff" stroke-width="1" stroke-linecap="round" stroke-linejoin="round"/></g></g></svg>