<svg version="1.1" xmlns="http://www.w3.org/2000/svg" xmlns:xlink="http://www.w3.org/1999/xlink" width="411.27634" height="234.29815" viewBox="0,0,411.27634,234.29815"><g transform="translate(-33.42537,-55.35158)"><g stroke-miterlimit="10"><path d="M34.67706,288.21581c0,0 -1.25169,-0.23839 -1.25169,-3.29866c0,-31.38584 0,-208.76225 0,-225.37763c0,-2.46007 0.88935,-3.22674 0.88935,-3.22674c0,0 0.52569,-0.9612 3.18915,-0.9612c41.0316,0 378.34276,0 402.66256,0c2.73475,0 3.4977,1.10301 3.4977,1.10301c0,0 1.03758,0.69561 1.03758,3.2425c0,16.91945 0,194.71178 0,225.44066c0,2.91991 -1.13641,3.50351 -1.13641,3.50351c0,0 -0.59573,1.00847 -3.83395,1.00847c-44.38775,0 -371.75988,0 -399.88881,0c-3.79974,0 -5.1655,-1.43391 -5.1655,-1.43391z" fill-opacity="0.99216" fill="#ededed" stroke="none" stroke-width="0" stroke-linecap="butt" stroke-linejoin="miter"/><path d="M37.93703,286.47625v-216.09592h402.32104v216.09592z" fill="#ffffff" stroke="none" stroke-width="0" stroke-linecap="butt" stroke-linejoin="miter"/><text transform="translate(43.63475,64.78439) scale(0.18388,0.17592)" font-size="40" xml:space="preserve" fill-opacity="0.95294" fill="#333333" stroke="none" stroke-width="1" stroke-linecap="butt" stroke-linejoin="miter" font-family="Sans Serif" font-weight="normal" text-anchor="start"><tspan x="0" dy="0">文</tspan></text><path d="M40.32169,90.04029v-17.90013h398.31113v17.90013z" fill="#f4f4f4" stroke="none" stroke-width="0" stroke-linecap="butt" stroke-linejoin="miter"/><text transform="translate(46.04051,95.59305) scale(0.5,0.5)" font-size="40" xml:space="preserve" fill="#000000" stroke="#000000" stroke-width="1" stroke-linecap="butt" stroke-linejoin="miter" font-family="Sans Serif" font-weight="normal" text-anchor="start"><tspan x="0" dy="0">正式版0.5更新内容</tspan></text><text transform="translate(47.19855,99.9233) scale(0.41184,0.41184)" font-size="40" xml:space="preserve" fill="#000000" stroke="none" stroke-width="1" stroke-linecap="butt" stroke-linejoin="miter" font-family="Sans Serif" font-weight="normal" text-anchor="start"><tspan x="0" dy="0"> </tspan><tspan x="0" dy="46.150000000000006px">修改了一些图标，ui</tspan><tspan x="0" dy="46.150000000000006px">睡眠界面更改</tspan><tspan x="0" dy="46.150000000000006px">修复了一些bug</tspan><tspan x="0" dy="46.150000000000006px">添加了动画</tspan><tspan x="0" dy="46.150000000000006px">删除了一些无用的功能</tspan><tspan x="0" dy="46.150000000000006px"> </tspan></text><path d="M416.64732,76.8874v-18.875h22.40558v18.875z" fill="none" stroke="#000000" stroke-width="0" stroke-linecap="butt" stroke-linejoin="miter"/><path d="M436.30982,71.76782l-12.5,-12.5" fill="none" stroke="#000000" stroke-width="1.5" stroke-linecap="round" stroke-linejoin="round"/><path d="M424.02564,71.33615l12.5,-12.5" fill="none" stroke="#000000" stroke-width="1.5" stroke-linecap="round" stroke-linejoin="round"/><path d="M416.16848,75.93071v-18.8h22.08v18.8z" fill="none" stroke="#000000" stroke-width="0" stroke-linecap="butt" stroke-linejoin="miter"/></g></g></svg>