<svg version="1.1" xmlns="http://www.w3.org/2000/svg" xmlns:xlink="http://www.w3.org/1999/xlink" width="31.58988" height="31.58988" viewBox="0,0,31.58988,31.58988"><defs><linearGradient x1="398.49217" y1="213.63018" x2="398.49217" y2="229.0464" gradientUnits="userSpaceOnUse" id="color-1"><stop offset="0" stop-color="#418b2a"/><stop offset="1" stop-color="#2f924e" stop-opacity="0.72549"/></linearGradient></defs><g transform="translate(-382.65975,-200.21488)"><g stroke-miterlimit="10"><path d="M383.40976,208.48735h30.08988l-1.67166,22.56741h-26.74656z" fill="#97e083" fill-rule="evenodd" stroke="#4c4c4c" stroke-width="1.5" stroke-linecap="butt" stroke-linejoin="round"/><path d="M391.76806,211.83067v-10.86579h13.37328v10.86579" fill="none" fill-rule="nonzero" stroke="#4c4c4c" stroke-width="1.5" stroke-linecap="round" stroke-linejoin="round"/><path d="M405.79499,213.63018v1.62276c0,7.81115 -4.35955,11.35932 -9.73656,11.35932h-1.54324c0.17201,-2.44388 0.93309,-3.92302 2.91935,-5.68047c0.9769,-0.86412 0.89414,-1.36312 0.41299,-1.0767c-3.31368,1.97165 -4.95997,4.63623 -5.03299,8.8911l-0.00243,0.30021h-1.62276c0,-1.10591 0.09412,-2.10959 0.28074,-3.02807c-0.18608,-1.04992 -0.27938,-2.47471 -0.27992,-4.27435c0,-4.48125 3.63255,-8.1138 8.1138,-8.1138c1.62276,0 3.24552,0.81138 6.49104,0" fill="url(#color-1)" fill-rule="nonzero" stroke="none" stroke-width="1" stroke-linecap="butt" stroke-linejoin="miter"/></g></g></svg>