<svg version="1.1" xmlns="http://www.w3.org/2000/svg" xmlns:xlink="http://www.w3.org/1999/xlink" width="15.84056" height="14.63273" viewBox="0,0,15.84056,14.63273"><g transform="translate(-536.59535,-159.23948)"><g stroke="#000000" stroke-miterlimit="10"><path d="M536.59537,162.39018c0,-0.46539 0.06673,-1.578 0.76584,-2.28779c0.9748,-0.82575 1.51467,-0.86291 2.0001,-0.86291c3.14335,0 9.63961,0 9.79475,0c0.44618,0 1.48522,0.01354 2.32174,0.86542c0.99967,0.90559 0.95786,1.82793 0.95786,2.23222c0,1.73892 0,5.4835 0,8.54079c0,0.48593 -0.34002,1.41164 -1.02021,2.03309c-0.63713,0.61829 -1.72132,0.96121 -2.2594,0.96121c-3.44575,0 -7.46663,0 -9.34734,0c-0.42561,0 -1.52666,-0.26169 -2.25947,-0.9347c-0.72385,-0.59111 -0.95389,-1.61703 -0.95389,-2.11267c0,0 0,-6.6926 0,-8.43464z" fill-opacity="0.01569" fill="#ededed" stroke-width="0" stroke-linecap="butt" stroke-linejoin="miter"/><path d="M549.33637,162.97517l-4.90348,4.9435l-4.90348,-4.9435" fill="none" stroke-width="1" stroke-linecap="round" stroke-linejoin="round"/><path d="M549.33638,171.21432h-9.80697" fill="none" stroke-width="1" stroke-linecap="round" stroke-linejoin="round"/></g></g></svg>