<svg version="1.1" xmlns="http://www.w3.org/2000/svg" xmlns:xlink="http://www.w3.org/1999/xlink" width="160.38695" height="165.4555" viewBox="0,0,160.38695,165.4555"><g transform="translate(-342.55058,-163.72938)"><g stroke-miterlimit="10"><path d="M343.30059,322.90279c0,-26.36733 0,-138.60632 0,-153.07223c0,-3.01386 2.5102,-5.35118 5.59147,-5.35118c12.68606,0 124.47337,0 147.56286,0c3.64436,0 5.73261,2.39563 5.73261,5.47198c0,14.61288 0,126.89496 0,153.05039c0,3.47803 -2.58073,5.43313 -5.73261,5.43313c-12.84229,0 -124.84681,0 -147.61448,0c-1.73483,0 -2.87099,-0.55755 -3.8141,-1.46959c-0.97323,-0.94117 -1.72576,-2.26471 -1.72576,-4.06249z" fill-opacity="0.92157" fill="#f5f5f5" stroke-opacity="0.01176" stroke="#ffffff" stroke-width="1.5" stroke-linecap="butt"/><path d="M345.55926,304.98695c0,-2.63419 2.74199,-4.42489 6.81238,-4.42489c26.2052,0 124.25388,0 139.22146,0c3.73491,0 6.81238,2.35575 6.81238,4.42489c0,3.50631 0,8.53712 0,14.48145c0,2.29642 -3.39236,3.93721 -7.43483,3.93721c-15.58853,0 -113.9268,0.28579 -139.01398,0.28579c-3.68399,0 -6.3974,-2.28099 -6.3974,-4.30297c0,0 0,-8.2956 0,-14.40147z" fill="#fafafa" stroke="none" stroke-width="0" stroke-linecap="butt"/><path d="M351.597,311.61361l140.60587,-0.33719" fill="none" stroke="#c5c5c5" stroke-width="2" stroke-linecap="round"/><text transform="translate(352.00063,297.28263) scale(0.1755,0.1755)" font-size="40" xml:space="preserve" fill="#999999" stroke="none" stroke-width="1" stroke-linecap="butt" font-family="Sans Serif" font-weight="normal" text-anchor="start"><tspan x="0" dy="0"> 声音</tspan></text></g></g></svg>