<svg version="1.1" xmlns="http://www.w3.org/2000/svg" xmlns:xlink="http://www.w3.org/1999/xlink" width="49.6391" height="49.26596" viewBox="0,0,49.6391,49.26596"><defs><linearGradient x1="400.0004" y1="200.36705" x2="400.0004" y2="249.63301" gradientUnits="userSpaceOnUse" id="color-1"><stop offset="0" stop-color="#fafafa"/><stop offset="1" stop-color="#f0f0f0"/></linearGradient></defs><g transform="translate(-375.18085,-200.36704)"><g stroke-miterlimit="10"><path d="M375.18085,210.97497c0,-1.56689 0.20909,-5.31289 2.3999,-7.70262c3.0547,-2.78018 4.74647,-2.9053 6.26766,-2.9053c9.85021,0 30.2074,0 30.69355,0c1.39819,0 4.65417,0.04561 7.27557,2.91372c3.13265,3.04895 3.00164,6.15433 3.00164,7.5155c0,5.85464 0,18.46205 0,28.75544c0,1.63604 -1.06554,4.75276 -3.19701,6.8451c-1.99657,2.08172 -5.39405,3.2362 -7.0802,3.2362c-10.79785,0 -23.39799,0 -29.29151,0c-1.33371,0 -4.78405,-0.88107 -7.08043,-3.14696c-2.2683,-1.99017 -2.98917,-5.44425 -2.98917,-7.11303c0,0 0.00001,-22.53287 0.00001,-28.39806z" fill="url(#color-1)" stroke="#000000" stroke-width="0" stroke-linejoin="miter"/><path d="M383.375,237.60375v-24.20747h32.5v24.20747z" fill-opacity="0.01569" fill="#d9d9d9" stroke="none" stroke-width="0" stroke-linejoin="miter"/><path d="M394.16412,225.50553v-8.1246l7.03608,4.0623l7.03608,4.0623l-7.03608,4.0623l-7.03608,4.0623z" fill="#333333" stroke="#333333" stroke-width="3" stroke-linejoin="round"/><path d="M395.73068,224.98664v-6.46912l5.60243,3.23456l5.60243,3.23456l-5.60243,3.23456l-5.60243,3.23456z" fill="none" stroke="#333333" stroke-width="4" stroke-linejoin="round"/></g></g></svg>