<svg version="1.1" xmlns="http://www.w3.org/2000/svg" xmlns:xlink="http://www.w3.org/1999/xlink" width="728.76448" height="444.88053" viewBox="0,0,728.76448,444.88053"><defs><linearGradient x1="406.68784" y1="134.88659" x2="406.68784" y2="188.47358" gradientTransform="translate(-273.46701,-150.7794) scale(0.86116,0.86116)" gradientUnits="userSpaceOnUse" id="color-1"><stop offset="0" stop-color="#97e083"/><stop offset="1" stop-color="#d5efce"/></linearGradient><linearGradient x1="529.74034" y1="128.04463" x2="529.74034" y2="172.92929" gradientUnits="userSpaceOnUse" id="color-2"><stop offset="0" stop-color="#79dbe3"/><stop offset="1" stop-color="#60a8e3"/></linearGradient><linearGradient x1="529.74034" y1="128.04463" x2="529.74034" y2="172.92929" gradientUnits="userSpaceOnUse" id="color-3"><stop offset="0" stop-color="#245c7a"/><stop offset="1" stop-color="#5595ca"/></linearGradient><linearGradient x1="529.74036" y1="138.57822" x2="529.74036" y2="165.354" gradientUnits="userSpaceOnUse" id="color-4"><stop offset="0" stop-color="#1a4055"/><stop offset="1" stop-color="#5595ca"/></linearGradient><linearGradient x1="551.09833" y1="157.09504" x2="551.09833" y2="171.51315" gradientUnits="userSpaceOnUse" id="color-5"><stop offset="0" stop-color="#d2dbe3"/><stop offset="1" stop-color="#9bc3e3"/></linearGradient></defs><g transform="translate(-42.64482,-1.56977)"><g stroke-miterlimit="10"><path d="M44.86276,443.7276c0,0 -2.21794,-0.45266 -2.21794,-6.26343c0,-59.59479 0,-396.39349 0,-427.94243c0,-4.67114 1.5759,-6.12687 1.5759,-6.12687c0,0 0.93151,-1.8251 5.65104,-1.8251c72.70627,0 670.40754,0 713.50121,0c4.84586,0 6.19778,2.09437 6.19778,2.09437c0,0 1.83855,1.32081 1.83855,6.15679c0,32.12631 0,369.71474 0,428.06212c0,5.54427 -2.01366,6.65239 -2.01366,6.65239c0,0 -1.05562,1.91486 -6.7936,1.91486c-78.65324,0 -658.74295,0 -708.58624,0c-6.73298,0 -9.15304,-2.72268 -9.15304,-2.72268z" fill-opacity="0.99216" fill="#ededed" stroke="none" stroke-width="0" stroke-linecap="butt" stroke-linejoin="miter"/><path d="M49.80548,440.57283v-416.00662h712.89605v416.00662z" fill="#ffffff" stroke="none" stroke-width="0" stroke-linecap="butt" stroke-linejoin="miter"/><text transform="translate(55.59682,17.78953) scale(0.32582,0.32582)" font-size="40" xml:space="preserve" fill-opacity="0.95294" fill="#333333" stroke="none" stroke-width="1" stroke-linecap="butt" stroke-linejoin="miter" font-family="Sans Serif" font-weight="normal" text-anchor="start"><tspan x="0" dy="0">浏览器</tspan></text><path d="M52.95481,62.05378v-33.1521h705.79066v33.1521z" fill="#f4f4f4" stroke="none" stroke-width="0" stroke-linecap="butt" stroke-linejoin="miter"/><text transform="translate(243.91397,166.28464) rotate(7.55661) scale(1.52916,1.52916)" font-size="40" xml:space="preserve" fill="#ffca66" stroke="none" stroke-width="1" stroke-linecap="butt" stroke-linejoin="miter" font-family="&quot;Exo-Bold&quot;, Sans Serif" font-weight="normal" text-anchor="start"><tspan x="0" dy="0">zx</tspan></text><text transform="translate(317.55537,175.08806) scale(1.16122,1.16122)" font-size="40" xml:space="preserve" fill="url(#color-1)" stroke="none" stroke-width="1" stroke-linecap="butt" stroke-linejoin="miter" font-family="&quot;Exo-Bold&quot;, Sans Serif" font-weight="normal" text-anchor="start"><tspan x="0" dy="0">browser</tspan></text><path d="M708.15872,7.66828c0,-0.69865 0.10017,-2.36892 1.14969,-3.43447c1.46339,-1.23963 2.27384,-1.29542 3.00258,-1.29542c4.71884,0 14.47114,0 14.70403,0c0.66981,0 2.22963,0.02033 3.48543,1.29918c1.50072,1.35948 1.43796,2.74412 1.43796,3.35104c0,2.61049 0,8.23191 0,12.82157c0,0.72948 -0.51045,2.11917 -1.53156,3.0521c-0.95647,0.92819 -2.58407,1.44298 -3.39184,1.44298c-5.17281,0 -11.20902,0 -14.03237,0c-0.63893,0 -2.29185,-0.39285 -3.39195,-1.40318c-1.08665,-0.88739 -1.43199,-2.42751 -1.43199,-3.17158c0,0 0,-10.04703 0,-12.66222z" fill-opacity="0.01569" fill="#ededed" stroke="#000000" stroke-width="0" stroke-linecap="butt" stroke-linejoin="miter"/><path d="M732.71367,8.16324c0,-0.69865 0.10017,-2.36892 1.14969,-3.43447c1.46339,-1.23963 2.27384,-1.29542 3.00258,-1.29542c4.71884,0 14.47114,0 14.70403,0c0.66981,0 2.22963,0.02033 3.48543,1.29918c1.50072,1.35948 1.43796,2.74412 1.43796,3.35104c0,2.61049 0,8.23191 0,12.82157c0,0.72948 -0.51045,2.11917 -1.53156,3.0521c-0.95647,0.92819 -2.58407,1.44298 -3.39184,1.44298c-5.17281,0 -11.20902,0 -14.03237,0c-0.63893,0 -2.29185,-0.39285 -3.39195,-1.40318c-1.08665,-0.88739 -1.43199,-2.42751 -1.43199,-3.17158c0,0 0,-10.04703 0,-12.66222z" fill-opacity="0.01569" fill="#ededed" stroke="#000000" stroke-width="0" stroke-linecap="butt" stroke-linejoin="miter"/><path d="" fill="#131313" stroke="none" stroke-width="0.5" stroke-linecap="butt" stroke-linejoin="miter"/><path d="M56.59055,53.48218c0,-5.04073 0,-12.21553 0,-15.06329c0,-1.2084 0.60599,-2.62751 1.74096,-3.6707c1.05804,-0.97248 2.58273,-1.61218 4.31869,-1.61218c27.08564,0 347.49569,0 396.12343,0c4.00701,0 6.1686,2.97583 6.1686,5.32554c0,2.85611 0,10.03274 0,15.06108c0,1.52334 -0.79837,2.75357 -1.80741,3.70271c-1.02279,0.96207 -2.2696,1.63271 -4.2512,1.63271c-48.2523,0 -369.12729,0 -396.23342,0c-3.59815,0 -6.05964,-2.28735 -6.05964,-5.37586z" fill="#f4f4f4" stroke-opacity="0.01176" stroke="#000000" stroke-width="2.5" stroke-linecap="butt" stroke-linejoin="miter"/><path d="M472.95126,38.18079c0,-0.80496 0.10742,-2.72939 1.2329,-3.95706c1.56929,-1.42826 2.4384,-1.49254 3.21988,-1.49254c5.06034,0 15.51842,0 15.76817,0c0.71829,0 2.39098,0.02343 3.73767,1.49686c1.60933,1.56633 1.54203,3.16166 1.54203,3.86093c0,3.0077 0,9.48449 0,14.7725c0,0.84048 -0.5474,2.44163 -1.6424,3.51653c-1.0257,1.06944 -2.77108,1.66253 -3.6373,1.66253c-5.54717,0 -12.02023,0 -15.0479,0c-0.68517,0 -2.45771,-0.45263 -3.63742,-1.61668c-1.16529,-1.02241 -1.53562,-2.79687 -1.53562,-3.65417c0,0 0.00001,-11.57579 0.00001,-14.58891z" fill="#f4f4f4" stroke="#000000" stroke-width="0" stroke-linecap="butt" stroke-linejoin="miter"/><path d="M477.65874,45.08995c0,-4.27128 3.46255,-7.73383 7.73383,-7.73383c4.27128,0 7.73383,3.46255 7.73383,7.73383c0,4.27128 -3.46255,7.73383 -7.73383,7.73383c-4.27128,0 -7.73383,-3.46255 -7.73383,-7.73383z" fill="none" stroke="#f4f4f4" stroke-width="1.5" stroke-linecap="butt" stroke-linejoin="round"/><path d="M487.57996,42.90251l-4.37491,4.37491" fill="none" stroke="#f4f4f4" stroke-width="1.5" stroke-linecap="round" stroke-linejoin="round"/><path d="M487.58008,47.27742l-4.37491,-4.37491" fill="none" stroke="#f4f4f4" stroke-width="1.5" stroke-linecap="round" stroke-linejoin="round"/><path d="M503.94496,37.75048c0,-0.80496 0.10742,-2.72939 1.2329,-3.95706c1.56929,-1.42826 2.4384,-1.49254 3.21988,-1.49254c5.06034,0 15.51842,0 15.76817,0c0.71829,0 2.39098,0.02343 3.73767,1.49686c1.60933,1.56633 1.54203,3.16166 1.54203,3.86093c0,3.0077 0,9.48449 0,14.7725c0,0.84048 -0.5474,2.44163 -1.6424,3.51653c-1.0257,1.06944 -2.77108,1.66253 -3.6373,1.66253c-5.54717,0 -12.02023,0 -15.0479,0c-0.68517,0 -2.45771,-0.45263 -3.63742,-1.61668c-1.16529,-1.02241 -1.53562,-2.79687 -1.53562,-3.65417c0,0 0.00001,-11.57579 0.00001,-14.58891z" fill="#f4f4f4" stroke="#000000" stroke-width="0" stroke-linecap="butt" stroke-linejoin="miter"/><path d="M523.08261,38.84438v5.87727" fill="none" stroke="#f4f4f4" stroke-width="1.5" stroke-linecap="round" stroke-linejoin="round"/><path d="M508.7057,46.06689v5.87727" fill="none" stroke="#f4f4f4" stroke-width="1.5" stroke-linecap="round" stroke-linejoin="round"/><path d="M510.94436,40.32221c1.20245,-1.24563 2.88956,-2.02031 4.75761,-2.02031c3.65165,0 6.61193,2.96027 6.61193,6.61193M520.29359,49.67144c-1.18934,1.14808 -2.80801,1.85432 -4.59162,1.85432c-3.65165,0 -6.61193,-2.96027 -6.61193,-6.61193" fill="none" stroke="#f4f4f4" stroke-width="1.5" stroke-linecap="round" stroke-linejoin="round"/><path d="M729.31085,38.50849c0,-0.80496 0.10742,-2.72939 1.2329,-3.95706c1.56929,-1.42826 2.4384,-1.49254 3.21988,-1.49254c5.06034,0 15.51842,0 15.76817,0c0.71829,0 2.39098,0.02343 3.73767,1.49686c1.60933,1.56633 1.54203,3.16166 1.54203,3.86093c0,3.0077 0,9.48449 0,14.7725c0,0.84048 -0.5474,2.44163 -1.6424,3.51653c-1.0257,1.06944 -2.77108,1.66253 -3.6373,1.66253c-5.54717,0 -12.02023,0 -15.0479,0c-0.68517,0 -2.45771,-0.45263 -3.63742,-1.61668c-1.16529,-1.02241 -1.53562,-2.79687 -1.53562,-3.65417c0,0 0.00001,-11.57579 0.00001,-14.58891z" fill="#f4f4f4" stroke="#000000" stroke-width="0" stroke-linecap="butt" stroke-linejoin="miter"/><path d="M749.15818,40.50207h-14.31535" fill="none" stroke="#f4f4f4" stroke-width="1.5" stroke-linecap="round" stroke-linejoin="round"/><path d="M734.84283,45.87033h14.31535" fill="none" stroke="#f4f4f4" stroke-width="1.5" stroke-linecap="round" stroke-linejoin="round"/><path d="M734.84283,51.23858h14.31535" fill="none" stroke="#f4f4f4" stroke-width="1.5" stroke-linecap="round" stroke-linejoin="round"/><path d="M56.5465,86.38317v-21.72639h699.4894v21.72639z" fill="#f4f4f4" stroke="none" stroke-width="0" stroke-linecap="butt" stroke-linejoin="miter"/><text transform="translate(200.34443,79.97504) scale(0.33,0.33)" font-size="40" xml:space="preserve" fill="#f4f4f4" stroke="none" stroke-width="1" stroke-linecap="butt" stroke-linejoin="miter" font-family="Sans Serif" font-weight="normal" text-anchor="start"><tspan x="0" dy="0">我是多任务栏</tspan></text><text transform="translate(185.33229,114.7526) scale(0.5,0.5)" font-size="40" xml:space="preserve" fill="#f4f4f4" stroke="none" stroke-width="1" stroke-linecap="butt" stroke-linejoin="miter" font-family="Sans Serif" font-weight="normal" text-anchor="start"><tspan x="0" dy="0"> </tspan></text><path d="M507.298,150.48696c0,-12.39462 10.04771,-22.44233 22.44234,-22.44233c12.39462,0 22.44234,10.04771 22.44234,22.44233c0,12.39462 -10.04771,22.44234 -22.44234,22.44234c-12.39462,0 -22.44234,-10.04771 -22.44234,-22.44234z" fill="url(#color-2)" stroke="url(#color-3)" stroke-width="2" stroke-linecap="butt" stroke-linejoin="round"/><path d="M548.76597,138.57822c5.91804,0.51646 9.97926,2.33204 10.78116,5.32473c1.60393,5.98608 -10.44072,14.41457 -26.9026,18.82547c-16.46173,4.4109 -31.10696,3.13393 -32.71093,-2.85214c-0.84037,-3.13632 2.06585,-6.9431 7.39098,-10.49109" fill="none" stroke="url(#color-4)" stroke-width="2" stroke-linecap="round" stroke-linejoin="round"/><path d="M558.74168,164.3041c0,3.98146 -3.42203,7.20907 -7.64334,7.20907c-4.22131,0 -7.64334,-3.22761 -7.64334,-7.20907c0,-3.98146 3.42203,-7.20906 7.64334,-7.20906c4.22131,0 7.64334,3.22761 7.64334,7.20906z" fill="url(#color-5)" stroke="#1d3548" stroke-width="1" stroke-linecap="butt" stroke-linejoin="miter"/><path d="M558.90624,175.53599l-3.42853,-4.9371" fill="none" stroke="#1d3548" stroke-width="1" stroke-linecap="round" stroke-linejoin="miter"/></g></g></svg>