<svg version="1.1" xmlns="http://www.w3.org/2000/svg" xmlns:xlink="http://www.w3.org/1999/xlink" width="72.06024" height="91.69077" viewBox="0,0,72.06024,91.69077"><g transform="translate(-528.03873,-158.68299)"><g stroke-miterlimit="10"><path d="M599.59897,243.06328c0,3.71071 -3.00949,6.71941 -6.71941,6.71941h-57.6222c-3.71071,0 -6.71863,-3.00949 -6.71863,-6.71941v-55.16744h71.05946v55.16744z" fill="#ffffff" stroke="none"/><path d="M599.59897,235.08722c0,2.94812 0.20078,7.32775 -0.27794,9.88089c-0.19168,1.02225 -2.3228,3.27382 -2.745,3.69426c-0.18857,0.18777 1.35672,-1.52679 1.17072,-1.23407c-1.11991,1.76238 -3.36323,2.44547 -4.86719,2.44547l-57.74383,-0.36489c-2.18446,0 -4.78948,-0.30101 -6.01655,-3.7084c-0.85734,-2.38071 -0.58045,-7.49344 -0.58045,-10.71324v-61.7275c0,-7.82983 3.00792,-14.17674 6.71863,-14.17674h57.62142c3.71227,0 6.71941,6.3469 6.71941,14.17674v61.7275z" fill="#ffffff" stroke="#cccccc"/><text transform="translate(558.38222,212.08596) scale(0.48489,0.48489)" font-size="40" xml:space="preserve" fill="#000000" stroke="none" font-family="&quot;Exo-Bold&quot;, Sans Serif" font-weight="normal" text-anchor="start"><tspan x="0" dy="0">C</tspan></text></g></g></svg>