<svg version="1.1" xmlns="http://www.w3.org/2000/svg" xmlns:xlink="http://www.w3.org/1999/xlink" width="23.54778" height="23.57169" viewBox="0,0,23.54778,23.57169"><g transform="translate(-388.22611,-213.21415)"><g stroke-miterlimit="10"><path d="M403.61853,213.21613c2.3375,0.02059 5.06752,0.19349 6.51678,1.64276c1.43341,1.43341 1.61369,4.11515 1.63636,6.43425c0.00321,0.32757 0.00318,7.18354 -0.00167,7.56387c-0.02926,2.28918 -0.23187,4.90571 -1.63468,6.30852c-1.38737,1.38737 -3.94842,1.58736 -6.21526,1.61611c-0.40604,0.00515 -7.27257,0.00503 -7.59152,0.00252c-2.32107,-0.0182 -5.00211,-0.1804 -6.44035,-1.61863c-1.42289,-1.42289 -1.62912,-4.0945 -1.6587,-6.40663c-0.00443,-0.34609 -0.00481,-7.2685 0.00071,-7.66638c0.03162,-2.27712 0.24146,-4.8657 1.634,-6.25824c1.39726,-1.39726 3.985,-1.59016 6.26369,-1.6167c0.38915,-0.00454 7.18965,-0.00409 7.49063,-0.00144z" fill="#fffcfc" stroke="none" stroke-width="0.47449" stroke-linecap="butt" stroke-linejoin="miter"/><path d="M396.44963,226.1476l2.89216,-2.89216M398.52905,229.26674l3.41202,-3.41202M399.3418,223.25544l6.72579,-5.72465c0.17177,-0.14618 0.36609,-0.26344 0.57548,-0.3472l0.03067,-0.01225c0.84871,-0.3395 1.69088,0.50275 1.35142,1.35149l-0.01226,0.03061c-0.0837,0.2094 -0.20098,0.40377 -0.34717,0.57551l-5.72465,6.72577M399.3418,223.25544c0.86639,0.07569 2.59928,0.70149 2.59928,2.59928" fill="none" stroke="#1c274c" stroke-width="1" stroke-linecap="round" stroke-linejoin="round"/><path d="M392.79536,230.08613c-0.32995,-1.7777 1.03449,-3.41867 2.84257,-3.41867v0c1.59673,0 2.89112,1.29444 2.89112,2.89112v0.22801c0,1.7227 -1.39649,3.11914 -3.11914,3.11914h-3.19579c-0.30502,0 -0.43276,-0.38958 -0.18694,-0.57018l0.84419,-0.6203c0.1218,-0.08942 0.18167,-0.24069 0.1541,-0.38937z" fill="none" stroke="#1c274c" stroke-width="1" stroke-linecap="round" stroke-linejoin="round"/></g></g></svg>