<svg version="1.1" xmlns="http://www.w3.org/2000/svg" xmlns:xlink="http://www.w3.org/1999/xlink" width="442.05786" height="29.01652" viewBox="0,0,442.05786,29.01652"><g transform="translate(-31.35878,-400.84095)"><g stroke-miterlimit="10"><path d="M32.60878,423.06556c0,-5.19642 0,-12.59283 0,-15.52855c0,-1.24573 0.6523,-2.70867 1.87401,-3.78408c1.13889,-1.00252 2.78009,-1.66198 4.64872,-1.66198c29.15551,0 374.05125,0 426.39512,0c4.31323,0 6.64001,3.06775 6.64001,5.49003c0,2.94433 0,10.34263 0,15.52627c0,1.57039 -0.85938,2.83862 -1.94553,3.81708c-1.10096,0.99179 -2.44303,1.68314 -4.57607,1.68314c-51.93973,0 -397.33594,0 -426.51352,0c-3.87313,0 -6.52271,-2.358 -6.52271,-5.54191z" fill-opacity="0.8549" fill="#ffffff" stroke-opacity="0.01176" stroke="#000000" stroke-width="2.5" stroke-linecap="butt" stroke-linejoin="miter"/><path d="M59.55649,413.79975c0,3.09143 -2.91149,5.5975 -6.50299,5.5975c-3.59149,0 -6.50297,-2.50609 -6.50297,-5.5975c0,-3.09143 2.91149,-5.5975 6.50297,-5.5975c3.59149,0 6.50299,2.50609 6.50299,5.5975z" fill="none" stroke="#ffffff" stroke-width="0" stroke-linecap="butt" stroke-linejoin="miter"/><path d="M41.12331,414.45879c0,-3.60903 2.92573,-6.53475 6.53475,-6.53475c3.60903,0 6.53475,2.92573 6.53475,6.53475c0,3.60903 -2.92573,6.53475 -6.53475,6.53475c-3.60903,0 -6.53475,-2.92573 -6.53475,-6.53475z" fill="none" stroke="#717171" stroke-width="1" stroke-linecap="butt" stroke-linejoin="round"/><path d="M45.48363,411.89989c0.55649,-0.55649 1.32528,-0.90069 2.17446,-0.90069c0.84921,0 1.61801,0.34419 2.17449,0.90069" fill="none" stroke="#aeaeae" stroke-width="1" stroke-linecap="round" stroke-linejoin="round"/><path d="M52.356,419.15676l3.26173,3.26173" fill="none" stroke="#717171" stroke-width="1" stroke-linecap="round" stroke-linejoin="round"/></g></g></svg>