<svg version="1.1" xmlns="http://www.w3.org/2000/svg" xmlns:xlink="http://www.w3.org/1999/xlink" width="78.51628" height="17.35137" viewBox="0,0,78.51628,17.35137"><defs><linearGradient x1="373.14165" y1="218.3577" x2="373.14165" y2="231.68706" gradientUnits="userSpaceOnUse" id="color-1"><stop offset="0" stop-color="#3da2c4"/><stop offset="1" stop-color="#3bb9bf"/></linearGradient></defs><g transform="translate(-360.74186,-216.32432)"><g stroke-miterlimit="10"><path d="" fill="#e8be51" fill-rule="nonzero" stroke="#000000" stroke-width="1" stroke-linecap="butt" stroke-linejoin="miter"/><path d="" fill="#ffde00" fill-rule="nonzero" stroke="none" stroke-width="0" stroke-linecap="butt" stroke-linejoin="miter"/><path d="" fill="#000000" fill-rule="nonzero" stroke="none" stroke-width="0.5" stroke-linecap="butt" stroke-linejoin="miter"/><path d="" fill="#000000" fill-rule="nonzero" stroke="none" stroke-width="0.5" stroke-linecap="butt" stroke-linejoin="miter"/><path d="" fill="#000000" fill-rule="nonzero" stroke="none" stroke-width="0.5" stroke-linecap="butt" stroke-linejoin="miter"/><path d="" fill="#000000" fill-rule="nonzero" stroke="none" stroke-width="0.5" stroke-linecap="butt" stroke-linejoin="miter"/><path d="" fill="#949494" fill-rule="nonzero" stroke="none" stroke-width="0.5" stroke-linecap="butt" stroke-linejoin="miter"/><path d="M436.83622,233.47085l-73.53753,0.20485l-2.40736,-1.93378l-0.14947,-13.82757l2.58728,-1.38517l73.53753,-0.20485l2.242,1.9461l0.14947,13.82757z" fill="#ffffff" fill-rule="nonzero" stroke="none" stroke-width="0" stroke-linecap="round" stroke-linejoin="miter"/><text transform="translate(395.48146,227.33358) scale(0.20511,0.20511)" font-size="40" xml:space="preserve" fill="#515151" fill-rule="nonzero" stroke="none" stroke-width="1" stroke-linecap="butt" stroke-linejoin="miter" font-family="Sans Serif" font-weight="normal" text-anchor="start"><tspan x="0" dy="0">连接网络</tspan></text><path d="M375.18786,218.35882c1.32181,0.01164 2.86559,0.10942 3.68511,0.92895c0.81057,0.81057 0.91251,2.32704 0.92533,3.63845c0.00182,0.18524 0.0018,4.06216 -0.00095,4.27723c-0.01655,1.29449 -0.13112,2.77408 -0.92437,3.56735c-0.78453,0.78453 -2.23276,0.89763 -3.51461,0.91388c-0.22961,0.00292 -4.1125,0.00284 -4.29287,0.00142c-1.31252,-0.01029 -2.82859,-0.10201 -3.64189,-0.9153c-0.80462,-0.80462 -0.92124,-2.31536 -0.93797,-3.62283c-0.0025,-0.19571 -0.00272,-4.1102 0.0004,-4.33519c0.01788,-1.28767 0.13653,-2.75146 0.924,-3.53893c0.79012,-0.79012 2.25344,-0.8992 3.542,-0.91421c0.22006,-0.00257 4.06561,-0.00232 4.23582,-0.00082z" fill="url(#color-1)" fill-rule="nonzero" stroke="none" stroke-width="0.47449" stroke-linecap="butt" stroke-linejoin="miter"/><path d="M367.9272,223.35045c0.15267,-0.14469 0.3099,-0.28177 0.47123,-0.41126c2.90911,-2.33486 7.14713,-2.19778 9.90021,0.41126" fill="none" fill-rule="nonzero" stroke="#ffffff" stroke-width="1" stroke-linecap="round" stroke-linejoin="round"/><path d="M369.70386,225.48786c2.05027,-2.05027 5.37437,-2.05027 7.42463,0" fill="none" fill-rule="nonzero" stroke="#ffffff" stroke-width="1" stroke-linecap="round" stroke-linejoin="round"/><path d="M371.39389,227.3753c1.01351,-1.01351 2.65673,-1.01351 3.67024,0" fill="none" fill-rule="nonzero" stroke="#ffffff" stroke-width="1" stroke-linecap="round" stroke-linejoin="round"/><path d="M372.59946,228.73366c0,-0.2692 0.21823,-0.48744 0.48744,-0.48744c0.2692,0 0.48744,0.21823 0.48744,0.48744c0,0.2692 -0.21823,0.48744 -0.48744,0.48744c-0.2692,0 -0.48744,-0.21823 -0.48744,-0.48744z" fill="#ffffff" fill-rule="evenodd" stroke="none" stroke-width="1" stroke-linecap="butt" stroke-linejoin="miter"/></g></g></svg>