<svg version="1.1" xmlns="http://www.w3.org/2000/svg" xmlns:xlink="http://www.w3.org/1999/xlink" width="25.50105" height="25.30935" viewBox="0,0,25.50105,25.30935"><g transform="translate(-472.95126,-32.73119)"><g stroke-miterlimit="10"><path d="M472.95126,38.1808c0,-0.80496 0.10742,-2.72939 1.2329,-3.95706c1.56929,-1.42826 2.4384,-1.49254 3.21988,-1.49254c5.06034,0 15.51842,0 15.76817,0c0.71829,0 2.39098,0.02343 3.73767,1.49686c1.60933,1.56633 1.54203,3.16166 1.54203,3.86093c0,3.0077 0,9.48449 0,14.7725c0,0.84048 -0.5474,2.44163 -1.6424,3.51653c-1.0257,1.06944 -2.77108,1.66253 -3.6373,1.66253c-5.54717,0 -12.02023,0 -15.0479,0c-0.68517,0 -2.45771,-0.45263 -3.63742,-1.61668c-1.16529,-1.02241 -1.53562,-2.79687 -1.53562,-3.65417c0,0 0.00001,-11.57579 0.00001,-14.58891z" fill="#ffffff" stroke="#000000" stroke-width="0" stroke-linecap="butt" stroke-linejoin="miter"/><path d="M477.65874,45.08996c0,-4.27128 3.46255,-7.73383 7.73383,-7.73383c4.27128,0 7.73383,3.46255 7.73383,7.73383c0,4.27128 -3.46255,7.73383 -7.73383,7.73383c-4.27128,0 -7.73383,-3.46255 -7.73383,-7.73383z" fill="none" stroke="#696969" stroke-width="1.5" stroke-linecap="butt" stroke-linejoin="round"/><path d="M487.57996,42.90252l-4.37491,4.37491" fill="none" stroke="#696969" stroke-width="1.5" stroke-linecap="round" stroke-linejoin="round"/><path d="M483.20517,42.90252l4.37491,4.37491" fill="none" stroke="#696969" stroke-width="1.5" stroke-linecap="round" stroke-linejoin="round"/></g></g></svg>