<svg version="1.1" xmlns="http://www.w3.org/2000/svg" xmlns:xlink="http://www.w3.org/1999/xlink" width="22.56223" height="20.84187" viewBox="0,0,22.56223,20.84187"><g transform="translate(-710.34441,-3.06341)"><g stroke="#000000" stroke-miterlimit="10"><path d="M710.34444,7.55106c0,-0.66287 0.09504,-2.2476 1.09081,-3.25858c1.38845,-1.17615 2.15739,-1.22907 2.8488,-1.22907c4.47717,0 13.73002,0 13.95098,0c0.6355,0 2.11545,0.01929 3.30693,1.23265c1.42387,1.28985 1.36431,2.60359 1.36431,3.17942c0,2.4768 0,7.81032 0,12.16494c0,0.69212 -0.48431,2.01064 -1.45313,2.89579c-0.90748,0.88066 -2.45173,1.36908 -3.21813,1.36908c-4.90789,0 -10.63496,0 -13.31373,0c-0.60621,0 -2.17447,-0.37273 -3.21823,-1.33132c-1.031,-0.84195 -1.35866,-2.30319 -1.35866,-3.00915c0,0 0,-9.53248 0,-12.01375z" fill-opacity="0.01569" fill="#ededed" stroke-width="0" stroke-linecap="butt" stroke-linejoin="miter"/><path d="M728.49187,8.38426l-6.98419,7.04119l-6.98419,-7.04119" fill="none" stroke-width="1" stroke-linecap="round" stroke-linejoin="round"/><path d="M728.49188,20.11957h-13.96838" fill="none" stroke-width="1" stroke-linecap="round" stroke-linejoin="round"/></g></g></svg>