<svg version="1.1" xmlns="http://www.w3.org/2000/svg" xmlns:xlink="http://www.w3.org/1999/xlink" width="217.84383" height="65.10307" viewBox="0,0,217.84383,65.10307"><defs><linearGradient x1="511.37587" y1="219.76467" x2="511.37587" y2="275.90901" gradientUnits="userSpaceOnUse" id="color-1"><stop offset="0" stop-color="#96d2f4"/><stop offset="1" stop-color="#1384d0"/></linearGradient></defs><g transform="translate(-365.47953,-210.80593)"><g stroke="none" stroke-miterlimit="10"><path d="M365.47954,235.00836c0,-3.60815 0,-13.25955 0,-19.74624c0,-2.44072 1.68157,-4.45619 3.91142,-4.45619c12.41668,0 53.38708,0 60.96143,0c2.33803,0 4.1681,2.55196 4.1681,4.86193c0,3.81192 0,13.17098 0,19.34049c0,2.28499 -1.87486,4.18572 -3.78308,4.18572c-6.96424,0 -48.46349,0 -61.21811,0c-2.30883,0 -4.03976,-2.24436 -4.03976,-4.18572z" fill-opacity="0.01176" fill="#f2f2f2" stroke-width="0"/><path d="M439.42837,267.63075c0,-7.13598 0,-26.22393 0,-39.05291c0,-4.82711 3.50473,-8.81318 8.15217,-8.81318c25.87881,0 111.26924,0 127.05569,0c4.87293,0 8.68714,5.04711 8.68714,9.61564c0,7.53899 0,26.04876 0,38.25045c0,4.51912 -3.90758,8.27825 -7.88469,8.27825c-14.51486,0 -101.00751,0 -127.59066,0c-4.81207,0 -8.41966,-4.43876 -8.41966,-8.27825z" fill="url(#color-1)" stroke-width="0"/><path d="M450.98299,231.20842c0,-3.13794 2.54337,-5.68139 5.68198,-5.68145c2.96651,0 5.40101,2.27278 5.65787,5.17508c-1.3428,1.23327 -2.35536,2.82897 -2.88512,4.64532c-0.18808,-0.01202 -0.37729,-0.0177 -0.5653,-0.0177c-1.55956,0 -3.02048,0.42716 -4.27153,1.17196c-2.11687,-0.82447 -3.61789,-2.88221 -3.61789,-5.2932z" fill="#ffffff" stroke-width="1"/><path d="M484.80744,244.69144c0,1.86688 -0.75913,3.56511 -1.98388,4.78755c-1.22231,1.22409 -2.92066,1.98322 -4.78748,1.98322h-18.98721c-2.06976,0 -3.95158,-0.84171 -5.30813,-2.19879c-1.35648,-1.35542 -2.1982,-3.23776 -2.1982,-5.30813c0,-2.06983 0.84172,-3.95218 2.1982,-5.3076c1.35661,-1.35767 3.23836,-2.19938 5.30813,-2.19879c0.42201,0 0.83478,0.03785 1.23842,0.10491c0.41745,-1.97173 1.4454,-3.71758 2.88168,-5.02082c1.67074,-1.51708 3.89655,-2.44421 6.33099,-2.44362c2.59847,-0.00059 4.95839,1.05549 6.66011,2.75894c1.58704,1.58479 2.60019,3.74454 2.73265,6.1326c1.52567,0.19324 2.89886,0.88928 3.93091,1.92245c1.22468,1.22237 1.98382,2.92126 1.98382,4.78808zM483.04032,244.69123c0,-1.38463 -0.55843,-2.62998 -1.46548,-3.53875c-0.90474,-0.90355 -2.14495,-1.46093 -3.52382,-1.46548l-0.93803,0.0362l0.0333,-0.95006c0.00344,-0.102 0.00687,-0.1892 0.00687,-0.26372c0,-2.11628 -0.85545,-4.02438 -2.24186,-5.41191c-1.38753,-1.38693 -3.29564,-2.2418 -5.41132,-2.2418c-1.98256,0 -3.7818,0.75055 -5.1429,1.98494c-1.35998,1.23558 -2.27278,2.94927 -2.47005,4.87581l-0.11006,1.07221l-1.02973,-0.31823c-0.53663,-0.16628 -1.10544,-0.25573 -1.69829,-0.25573c-1.58704,0.00059 -3.01699,0.64161 -4.05821,1.68171c-1.04122,1.04122 -1.68105,2.47116 -1.68224,4.0588c0.00119,1.58817 0.64101,3.01758 1.68224,4.05881c1.04122,1.04063 2.47117,1.68105 4.05821,1.68164h18.98715c1.38528,-0.00059 2.63058,-0.55896 3.53875,-1.46608c0.90712,-0.90817 1.46555,-2.15354 1.46548,-3.53836z" fill="#ffffff" stroke-width="1"/></g></g></svg>