<svg version="1.1" xmlns="http://www.w3.org/2000/svg" xmlns:xlink="http://www.w3.org/1999/xlink" width="449.48521" height="267.64049" viewBox="0,0,449.48521,267.64049"><g transform="translate(-187.45667,-38.04186)"><g stroke-miterlimit="10"><path d="M188.14452,295.64383v-233.66028h342.29183v233.6603z" fill-opacity="0.96078" fill="#ededed" stroke="#000000" stroke-width="1" stroke-linecap="butt"/><path d="M488.58897,58.11616v-11.75805l37.19146,-0.01417l0.13863,12.04306" fill="none" stroke="#000000" stroke-width="1" stroke-linecap="round"/><text transform="translate(198.21592,55.36534) scale(0.2373,0.2373)" font-size="40" xml:space="preserve" fill-opacity="0.95294" fill="#e7e7e7" stroke="none" stroke-width="1" stroke-linecap="butt" font-family="Sans Serif" font-weight="normal" text-anchor="start"><tspan x="0" dy="0">执行命令..</tspan></text><path d="M506.88906,58.38695l-0.23494,-11.86439" fill="none" stroke="#000000" stroke-width="1" stroke-linecap="round"/><path d="M188.82464,304.04437c0,0 -1.36797,-0.27232 -1.36797,-3.76808c0,-35.85227 0,-238.47065 0,-257.45052c0,-2.81016 0.97198,-3.68593 0.97198,-3.68593c0,0 0.57453,-1.09798 3.48543,-1.09798c44.84356,0 413.49198,0 440.07117,0c2.98882,0 3.82265,1.25998 3.82265,1.25998c0,0 1.13398,0.7946 1.13398,3.70393c0,19.32721 0,222.42069 0,257.52252c0,3.33544 -1.24198,4.00208 -1.24198,4.00208c0,0 -0.65108,1.15198 -4.19014,1.15198c-48.51151,0 -406.29753,0 -437.03973,0c-4.15275,0 -5.64538,-1.63797 -5.64538,-1.63797z" fill-opacity="0.99216" fill="#ededed" stroke="none" stroke-width="0" stroke-linecap="butt"/><path d="M192.38748,302.05726v-246.84796h439.69792v246.84796z" fill="#ffffff" stroke="none" stroke-width="0" stroke-linecap="butt"/><text transform="translate(198.61454,48.81702) scale(0.20096,0.20096)" font-size="40" xml:space="preserve" fill-opacity="0.95294" fill="#333333" stroke="none" stroke-width="1" stroke-linecap="butt" font-family="Sans Serif" font-weight="normal" text-anchor="start"><tspan x="0" dy="0">终端</tspan></text><path d="M607.756,43.66619c0,-0.446 0.06395,-1.51224 0.73392,-2.19245c0.93418,-0.79134 1.45154,-0.82695 1.91675,-0.82695c3.01235,0 9.2379,0 9.38657,0c0.42758,0 1.42332,0.01298 2.22498,0.82935c0.95801,0.86785 0.91795,1.75176 0.91795,2.13919c0,1.66645 0,5.25498 0,8.18487c0,0.46568 -0.32585,1.35281 -0.9777,1.94836c-0.61058,0.59253 -1.64958,0.92115 -2.16524,0.92115c-3.30215,0 -7.15547,0 -8.9578,0c-0.40787,0 -1.46304,-0.25078 -2.16531,-0.89574c-0.69368,-0.56648 -0.91414,-1.54964 -0.91414,-2.02463c0,0 0,-6.41369 0,-8.08314z" fill-opacity="0.01569" fill="#ededed" stroke="#000000" stroke-width="0" stroke-linecap="butt"/><path d="" fill="#131313" stroke="none" stroke-width="0.5" stroke-linecap="butt"/></g></g></svg>