<svg version="1.1" xmlns="http://www.w3.org/2000/svg" xmlns:xlink="http://www.w3.org/1999/xlink" width="308.41127" height="20.92898" viewBox="0,0,308.41127,20.92898"><defs><radialGradient cx="331.36196" cy="149.4001" r="7.25382" gradientUnits="userSpaceOnUse" id="color-1"><stop offset="0" stop-color="#2287fd"/><stop offset="1" stop-color="#269afd"/></radialGradient><linearGradient x1="336.66418" y1="147.48296" x2="336.66418" y2="162.62187" gradientUnits="userSpaceOnUse" id="color-2"><stop offset="0" stop-color="#87b8d6"/><stop offset="1" stop-color="#9ed6d0"/></linearGradient></defs><g transform="translate(-321.81972,-145.12211)"><g stroke-miterlimit="10"><path d="M321.81972,160.34984c0,-3.09396 0,-7.85281 0,-9.69697c0,-2.50379 3.4799,-5.53076 9.31612,-5.53076c27.53257,0 239.91381,0 289.64614,0c6.73087,0 9.44901,3.31191 9.44901,5.92979c0,1.79999 0,6.35432 0,9.29794c0,3.37251 -2.79963,5.70125 -9.66563,5.70125c-50.07083,0 -261.49535,0 -289.2129,0c-5.94787,0 -9.53274,-2.31286 -9.53274,-5.70125z" fill="#f9f9f9" stroke="none" stroke-width="0" stroke-linecap="butt" stroke-linejoin="miter"/><text transform="translate(369.38116,158.38009) scale(0.23741,0.23741)" font-size="40" xml:space="preserve" fill="#515151" stroke="none" stroke-width="1" stroke-linecap="butt" stroke-linejoin="miter" font-family="Sans Serif" font-weight="normal" text-anchor="start"><tspan x="0" dy="0">时钟</tspan></text><path d="M338.95738,147.53398c1.43866,0.01267 3.1189,0.11909 4.01087,1.01106c0.88221,0.88221 0.99318,2.53275 1.00712,3.96008c0.00198,0.20161 0.00196,4.42124 -0.00103,4.65533c-0.01801,1.40892 -0.14271,3.01931 -1.00609,3.88269c-0.85388,0.85388 -2.43013,0.97697 -3.82529,0.99467c-0.2499,0.00317 -4.47604,0.00309 -4.67234,0.00155c-1.42854,-0.0112 -3.07864,-0.11103 -3.96383,-0.99622c-0.87574,-0.87574 -1.00268,-2.52003 -1.02088,-3.94308c-0.00273,-0.21301 -0.00296,-4.47353 0.00044,-4.71842c0.01946,-1.40149 0.14861,-2.99468 1.00568,-3.85175c0.85997,-0.85997 2.45264,-0.97869 3.85511,-0.99503c0.23951,-0.00279 4.425,-0.00252 4.61025,-0.00089z" fill="url(#color-1)" stroke="none" stroke-width="0.47449" stroke-linecap="butt" stroke-linejoin="miter"/><path d="M338.98817,147.48425c1.50126,0.01323 3.25461,0.12428 4.18539,1.05506c0.9206,0.9206 1.0364,2.64296 1.05095,4.13239c0.00206,0.21038 0.00204,4.61362 -0.00107,4.85789c-0.01879,1.47022 -0.14892,3.15068 -1.04987,4.05164c-0.89104,0.89104 -2.53586,1.01948 -3.99174,1.03795c-0.26079,0.00331 -4.6708,0.00322 -4.87565,0.00162c-1.4907,-0.01169 -3.21261,-0.11586 -4.13631,-1.03956c-0.91385,-0.91385 -1.0463,-2.62969 -1.0653,-4.11466c-0.00284,-0.22228 -0.00309,-4.66818 0.00046,-4.92373c0.02031,-1.46248 0.15507,-3.12499 1.04944,-4.01935c0.89738,-0.89738 2.55936,-1.02128 4.02285,-1.03832c0.24993,-0.00292 4.61755,-0.00262 4.81085,-0.00092z" fill="url(#color-2)" stroke="none" stroke-width="0.47449" stroke-linecap="butt" stroke-linejoin="miter"/><path d="M332.27325,155.45232c0,-2.43425 1.97335,-4.40761 4.4076,-4.40761c2.43427,0 4.40763,1.97336 4.40763,4.40761c0,2.43425 -1.97335,4.4076 -4.40763,4.4076c-2.43425,0 -4.4076,-1.97335 -4.4076,-4.4076z" fill="none" stroke="#ffffff" stroke-width="1.5" stroke-linecap="butt" stroke-linejoin="round"/><path d="M338.49135,157.40805l-1.86858,-1.86858l0.00029,-2.64668" fill="none" stroke="#ffffff" stroke-width="1.5" stroke-linecap="round" stroke-linejoin="round"/><path d="M331.8726,151.36529l1.68291,-1.20207" fill="none" stroke="#ffffff" stroke-width="1.5" stroke-linecap="round" stroke-linejoin="round"/><path d="M339.8063,150.16321l1.68291,1.20207" fill="none" stroke="#ffffff" stroke-width="1.5" stroke-linecap="round" stroke-linejoin="round"/></g></g></svg>