<svg version="1.1" xmlns="http://www.w3.org/2000/svg" xmlns:xlink="http://www.w3.org/1999/xlink" width="217.84383" height="65.10307" viewBox="0,0,217.84383,65.10307"><defs><linearGradient x1="511.37587" y1="219.76467" x2="511.37587" y2="275.90901" gradientUnits="userSpaceOnUse" id="color-1"><stop offset="0" stop-color="#96d2f4"/><stop offset="1" stop-color="#1384d0"/></linearGradient></defs><g transform="translate(-365.47954,-210.80593)"><g stroke-miterlimit="10"><path d="M365.47954,235.00836c0,-3.60815 0,-13.25955 0,-19.74624c0,-2.44072 1.68157,-4.45619 3.91142,-4.45619c12.41668,0 53.38708,0 60.96143,0c2.33803,0 4.1681,2.55196 4.1681,4.86193c0,3.81192 0,13.17098 0,19.34049c0,2.28499 -1.87486,4.18572 -3.78308,4.18572c-6.96424,0 -48.46349,0 -61.21811,0c-2.30883,0 -4.03976,-2.24436 -4.03976,-4.18572z" fill-opacity="0.01176" fill="#f2f2f2" stroke="none" stroke-width="0" stroke-linecap="butt" stroke-linejoin="miter"/><path d="M439.42837,267.63075c0,-7.13598 0,-26.22393 0,-39.05291c0,-4.82711 3.50473,-8.81318 8.15217,-8.81318c25.87881,0 111.26924,0 127.05569,0c4.87293,0 8.68714,5.04711 8.68714,9.61564c0,7.53899 0,26.04876 0,38.25045c0,4.51912 -3.90758,8.27825 -7.88469,8.27825c-14.51486,0 -101.00751,0 -127.59066,0c-4.81207,0 -8.41966,-4.43876 -8.41966,-8.27825z" fill="url(#color-1)" stroke="none" stroke-width="0" stroke-linecap="butt" stroke-linejoin="miter"/><path d="M452.28537,227.5642l-0.96579,-0.9658" fill="none" stroke="#ffffff" stroke-width="1.5" stroke-linecap="round" stroke-linejoin="round"/><path d="M448.65281,233.03689h1.36582" fill="none" stroke="#ffffff" stroke-width="1.5" stroke-linecap="round" stroke-linejoin="round"/><path d="M451.31958,239.47554l0.96579,-0.96579" fill="none" stroke="#ffffff" stroke-width="1.5" stroke-linecap="round" stroke-linejoin="round"/><path d="M464.19693,239.47554l-0.96579,-0.96579" fill="none" stroke="#ffffff" stroke-width="1.5" stroke-linecap="round" stroke-linejoin="round"/><path d="M466.86358,233.03689h-1.36582" fill="none" stroke="#ffffff" stroke-width="1.5" stroke-linecap="round" stroke-linejoin="round"/><path d="M463.23114,227.5642l0.96579,-0.9658" fill="none" stroke="#ffffff" stroke-width="1.5" stroke-linecap="round" stroke-linejoin="round"/><path d="M457.75828,225.29724v-1.36582" fill="none" stroke="#ffffff" stroke-width="1.5" stroke-linecap="round" stroke-linejoin="round"/><path d="M452.55515,233.03689c0,-2.8736 2.32953,-5.20313 5.20313,-5.20313c2.8736,0 5.20313,2.32953 5.20313,5.20313c0,2.8736 -2.32953,5.20313 -5.20313,5.20313c-2.8736,0 -5.20313,-2.32953 -5.20313,-5.20313z" fill="#ffffff" stroke="#ffffff" stroke-width="1.5" stroke-linecap="butt" stroke-linejoin="round"/><path d="M457.75828,242.14241v-1.36582" fill="none" stroke="#ffffff" stroke-width="1.5" stroke-linecap="round" stroke-linejoin="round"/></g></g></svg>