<svg version="1.1" xmlns="http://www.w3.org/2000/svg" xmlns:xlink="http://www.w3.org/1999/xlink" width="308.41127" height="20.92898" viewBox="0,0,308.41127,20.92898"><defs><linearGradient x1="338.21799" y1="148.33055" x2="338.21799" y2="163.10176" gradientUnits="userSpaceOnUse" id="color-1"><stop offset="0" stop-color="#2089fa"/><stop offset="1" stop-color="#67a4d6"/></linearGradient><linearGradient x1="338.35829" y1="153.58336" x2="338.35829" y2="158.91726" gradientUnits="userSpaceOnUse" id="color-2"><stop offset="0" stop-color="#ffffff"/><stop offset="1" stop-color="#efefef"/></linearGradient></defs><g transform="translate(-321.81972,-145.12211)"><g stroke="none" stroke-miterlimit="10"><path d="M321.81972,160.34984c0,-3.09396 0,-7.85281 0,-9.69697c0,-2.50379 3.4799,-5.53076 9.31612,-5.53076c27.53257,0 239.91381,0 289.64614,0c6.73087,0 9.44901,3.31191 9.44901,5.92979c0,1.79999 0,6.35432 0,9.29794c0,3.37251 -2.79963,5.70125 -9.66563,5.70125c-50.07083,0 -261.49535,0 -289.2129,0c-5.94787,0 -9.53274,-2.31286 -9.53274,-5.70125z" fill="#f9f9f9" stroke-width="0"/><text transform="translate(369.38116,158.38009) scale(0.23741,0.23741)" font-size="40" xml:space="preserve" fill="#515151" stroke-width="1" font-family="Sans Serif" font-weight="normal" text-anchor="start"><tspan x="0" dy="0">天气</tspan></text><path d="M340.48554,148.33179c1.46479,0.0129 3.17557,0.12125 4.08374,1.02943c0.89824,0.89824 1.01122,2.57877 1.02542,4.03203c0.00201,0.20527 0.00199,4.50157 -0.00105,4.73991c-0.01834,1.43452 -0.1453,3.07416 -1.02437,3.95323c-0.86939,0.86939 -2.47428,0.99472 -3.89479,1.01274c-0.25444,0.00323 -4.55736,0.00315 -4.75723,0.00158c-1.4545,-0.0114 -3.13458,-0.11305 -4.03585,-1.01432c-0.89166,-0.89166 -1.02089,-2.56582 -1.03943,-4.01471c-0.00277,-0.21688 -0.00302,-4.55481 0.00044,-4.80414c0.01981,-1.42695 0.15131,-3.04909 1.02395,-3.92173c0.87559,-0.87559 2.4972,-0.99647 3.92515,-1.01311c0.24386,-0.00285 4.50539,-0.00256 4.69401,-0.0009z" fill="url(#color-1)" stroke-width="0.47449"/><path d="M333.46822,153.71169c0,-0.9568 0.77551,-1.73233 1.73251,-1.73234c0.90453,0 1.64683,0.693 1.72516,1.57795c-0.40943,0.37604 -0.71818,0.86259 -0.87971,1.41642c-0.05734,-0.00366 -0.11504,-0.00539 -0.17237,-0.00539c-0.47553,0 -0.92099,0.13025 -1.30245,0.35735c-0.64546,-0.25139 -1.10314,-0.87883 -1.10314,-1.61397z" fill="#eeeeee" stroke-width="1"/><path d="M343.00019,157.45628c0,0.52538 -0.21363,1.00328 -0.5583,1.3473c-0.34398,0.34448 -0.82193,0.55812 -1.34728,0.55812h-5.34335c-0.58247,0 -1.11204,-0.23687 -1.4938,-0.61878c-0.38174,-0.38144 -0.61862,-0.91116 -0.61862,-1.49381c0,-0.58249 0.23688,-1.11221 0.61862,-1.49365c0.38178,-0.38207 0.91133,-0.61894 1.4938,-0.61878c0.11876,0 0.23492,0.01065 0.34851,0.02952c0.11747,-0.55489 0.40676,-1.04619 0.81095,-1.41294c0.47018,-0.42693 1.09656,-0.68784 1.78166,-0.68768c0.73126,-0.00017 1.39538,0.29704 1.87428,0.77642c0.44662,0.44599 0.73174,1.05378 0.76902,1.72583c0.42935,0.05438 0.81579,0.25026 1.10623,0.54102c0.34464,0.344 0.55828,0.8221 0.55828,1.34745zM342.50289,157.45621c0,-0.38966 -0.15716,-0.74012 -0.41241,-0.99587c-0.25461,-0.25428 -0.60363,-0.41114 -0.99167,-0.41241l-0.26398,0.01019l0.00937,-0.26737c0.00097,-0.0287 0.00193,-0.05325 0.00193,-0.07421c0,-0.59556 -0.24074,-1.13254 -0.6309,-1.52301c-0.39048,-0.39031 -0.92745,-0.63088 -1.52285,-0.63088c-0.55793,0 -1.06427,0.21122 -1.44731,0.5586c-0.38272,0.34771 -0.6396,0.82998 -0.69512,1.37215l-0.03098,0.30174l-0.28979,-0.08956c-0.15101,-0.04679 -0.31109,-0.07197 -0.47793,-0.07197c-0.44662,0.00017 -0.84903,0.18056 -1.14205,0.47327c-0.29302,0.29302 -0.47308,0.69543 -0.47342,1.14222c0.00033,0.44694 0.1804,0.8492 0.47342,1.14222c0.29302,0.29285 0.69543,0.47308 1.14205,0.47325h5.34334c0.38984,-0.00017 0.74029,-0.1573 0.99587,-0.41258c0.25528,-0.25557 0.41244,-0.60605 0.41241,-0.99576z" fill="#eeeeee" stroke-width="1"/><path d="M342.14541,158.50075c-0.25552,0.25523 -0.60855,0.41582 -0.99831,0.41599l-5.36971,0.00054c-0.44653,-0.00017 -0.85209,-0.18446 -1.14505,-0.47725c-0.29296,-0.29296 -0.47507,-0.70029 -0.47541,-1.14714c0.00033,-0.4467 0.1798,-0.85423 0.47275,-1.14719c0.29296,-0.29265 0.69575,-0.47671 1.14229,-0.47688c0.1668,0 0.36455,0.03401 0.51554,0.08079l0.25204,0.08058l0.03189,-0.30459c0.0555,-0.54206 0.32142,-1.03415 0.70406,-1.38179c0.38296,-0.3473 0.90074,-0.56043 1.45856,-0.56043c0.59527,0 1.14269,0.24558 1.53309,0.63581c0.39008,0.39039 0.63652,0.93764 0.63652,1.53308c0,0.02097 -0.00087,0.04605 -0.00184,0.07474l-0.00914,0.26931l0.26392,-0.01015c0.38796,0.00128 0.7369,0.16053 0.99146,0.41474c0.25521,0.25569 0.41157,0.61033 0.41157,0.99991c0.00002,0.38964 -0.15901,0.7444 -0.41424,0.99993z" fill="url(#color-2)" stroke-width="0.5"/></g></g></svg>