<svg version="1.1" xmlns="http://www.w3.org/2000/svg" xmlns:xlink="http://www.w3.org/1999/xlink" width="36.95915" height="29.28357" viewBox="0,0,36.95915,29.28357"><defs><linearGradient x1="267.16892" y1="110.18749" x2="267.16892" y2="136.44608" gradientUnits="userSpaceOnUse" id="color-1"><stop offset="0" stop-color="#79dbe3"/><stop offset="1" stop-color="#60a8e3"/></linearGradient><linearGradient x1="267.16892" y1="110.18749" x2="267.16892" y2="136.44608" gradientUnits="userSpaceOnUse" id="color-2"><stop offset="0" stop-color="#245c7a"/><stop offset="1" stop-color="#5595ca"/></linearGradient><linearGradient x1="267.16893" y1="116.34989" x2="267.16893" y2="132.01435" gradientUnits="userSpaceOnUse" id="color-3"><stop offset="0" stop-color="#1a4055"/><stop offset="1" stop-color="#5595ca"/></linearGradient><linearGradient x1="279.66385" y1="127.18266" x2="279.66385" y2="135.6176" gradientUnits="userSpaceOnUse" id="color-4"><stop offset="0" stop-color="#d2dbe3"/><stop offset="1" stop-color="#9bc3e3"/></linearGradient></defs><g transform="translate(-248.73127,-109.18749)"><g stroke-miterlimit="10"><path d="M254.03963,123.31678c0,-7.25115 5.87815,-13.12929 13.12929,-13.12929c7.25115,0 13.12929,5.87815 13.12929,13.12929c0,7.25115 -5.87815,13.12929 -13.12929,13.12929c-7.25115,0 -13.12929,-5.87815 -13.12929,-13.12929z" fill="url(#color-1)" stroke="url(#color-2)" stroke-width="2" stroke-linecap="butt" stroke-linejoin="round"/><path d="M278.29936,116.34989c3.46219,0.30214 5.8381,1.3643 6.30723,3.11509c0.93833,3.50199 -6.10808,8.43286 -15.73866,11.01334c-9.6305,2.58048 -18.1983,1.83342 -19.13666,-1.66857c-0.49163,-1.83482 1.20857,-4.06188 4.3239,-6.13753" fill="none" stroke="url(#color-3)" stroke-width="2" stroke-linecap="round" stroke-linejoin="round"/><path d="M284.13538,131.40013c0,2.32924 -2.00197,4.21747 -4.47153,4.21747c-2.46956,0 -4.47153,-1.88823 -4.47153,-4.21747c0,-2.32924 2.00197,-4.21747 4.47153,-4.21747c2.46956,0 4.47153,1.88823 4.47153,4.21747z" fill="url(#color-4)" stroke="#1d3548" stroke-width="1" stroke-linecap="butt" stroke-linejoin="miter"/><path d="M284.23166,137.97106l-2.00577,-2.88832" fill="none" stroke="#1d3548" stroke-width="1" stroke-linecap="round" stroke-linejoin="miter"/></g></g></svg>