<svg version="1.1" xmlns="http://www.w3.org/2000/svg" xmlns:xlink="http://www.w3.org/1999/xlink" width="308.41127" height="20.92898" viewBox="0,0,308.41127,20.92898"><defs><linearGradient x1="335.69525" y1="150.07226" x2="335.69525" y2="158.81434" gradientUnits="userSpaceOnUse" id="color-1"><stop offset="0" stop-color="#335bc2"/><stop offset="1" stop-color="#c2c2c2"/></linearGradient></defs><g transform="translate(-321.81972,-145.12211)"><g stroke-miterlimit="10"><path d="M321.81972,160.34984c0,-3.09396 0,-7.85281 0,-9.69697c0,-2.50379 3.4799,-5.53076 9.31612,-5.53076c27.53257,0 239.91381,0 289.64614,0c6.73087,0 9.44901,3.31191 9.44901,5.92979c0,1.79999 0,6.35432 0,9.29794c0,3.37251 -2.79963,5.70125 -9.66563,5.70125c-50.07083,0 -261.49535,0 -289.2129,0c-5.94787,0 -9.53274,-2.31286 -9.53274,-5.70125z" fill="#f9f9f9" stroke="none" stroke-width="0" stroke-linecap="butt" stroke-linejoin="miter"/><text transform="translate(369.38116,158.38009) scale(0.23741,0.23741)" font-size="40" xml:space="preserve" fill="#515151" stroke="none" stroke-width="1" stroke-linecap="butt" stroke-linejoin="miter" font-family="Sans Serif" font-weight="normal" text-anchor="start"><tspan x="0" dy="0">硬件占用</tspan></text><path d="M329.50293,158.81434c-0.40235,0 -0.72851,-0.32616 -0.72851,-0.72851v-7.28508c0,-0.40235 0.32616,-0.72851 0.72851,-0.72851h12.38463c0.40235,0 0.72851,0.32616 0.72851,0.72851v7.28508c0,0.40235 -0.32616,0.72851 -0.72851,0.72851z" fill="url(#color-1)" stroke="#172c45" stroke-width="1" stroke-linecap="butt" stroke-linejoin="miter"/><path d="M335.9609,156.5743h-1.36885" fill="none" stroke="#4a90e2" stroke-width="1" stroke-linecap="round" stroke-linejoin="round"/><path d="M331.89963,159.5541h7.52438" fill="none" stroke="#172c45" stroke-width="1" stroke-linecap="round" stroke-linejoin="round"/><path d="M345.37835,151.18047l-1.56627,7.83134l-0.88756,-4.95985l-1.72289,5.37751l-1.82731,-2.81929l-0.46988,2.9237" fill="none" stroke="#92fd39" stroke-width="1.5" stroke-linecap="round" stroke-linejoin="miter"/><text transform="translate(342.71568,160.20201) scale(0.07947,0.07947)" font-size="40" xml:space="preserve" fill="#000000" stroke="none" stroke-width="1" stroke-linecap="butt" stroke-linejoin="miter" font-family="Pixel" font-weight="normal" text-anchor="start"><tspan x="0" dy="0">%</tspan></text></g></g></svg>