<svg version="1.1" xmlns="http://www.w3.org/2000/svg" xmlns:xlink="http://www.w3.org/1999/xlink" width="111.09863" height="75.62783" viewBox="0,0,111.09863,75.62783"><g transform="translate(-161.18247,-149.52284)"><g stroke-miterlimit="10"><path d="M272.2811,180c0,16.83207 -14.02766,30.47716 -31.33166,30.47716c-17.304,0 -31.33166,-13.64509 -31.33166,-30.47716c0,-16.83207 14.02766,-30.47716 31.33166,-30.47716c17.304,0 31.33166,13.64509 31.33166,30.47716z" fill="#ffffff" stroke="none" stroke-width="0" stroke-linecap="butt" stroke-linejoin="miter"/><path d="M252.7279,192.7279c-3.2573,3.2574 -7.7573,5.2721 -12.7279,5.2721c-9.9411,0 -18,-8.0589 -18,-18c0,-9.9411 8.0589,-18 18,-18c4.9706,0 9.4706,2.01472 12.7279,5.2721c1.658,1.658 5.2721,5.7279 5.2721,5.7279" fill="none" stroke="#333333" stroke-width="3" stroke-linecap="round" stroke-linejoin="round"/><path d="M258,164v9h-9" fill="none" stroke="#333333" stroke-width="3" stroke-linecap="round" stroke-linejoin="round"/><path d="M161.18247,173.7594v0v0z" fill="#ffffff" stroke="none" stroke-width="0" stroke-linecap="butt" stroke-linejoin="miter"/><text transform="translate(232.3371,222.39766) scale(0.20227,0.22024)" font-size="40" xml:space="preserve" fill="#ffffff" stroke="none" stroke-width="1" stroke-linecap="butt" stroke-linejoin="miter" font-family="Sans Serif" font-weight="normal" text-anchor="start"><tspan x="0" dy="0">重启</tspan></text></g></g></svg>