<svg version="1.1" xmlns="http://www.w3.org/2000/svg" xmlns:xlink="http://www.w3.org/1999/xlink" width="25.91671" height="19.55627" viewBox="0,0,25.91671,19.55627"><g transform="translate(-115.25172,-110.44148)"><g stroke-miterlimit="10"><path d="M116.00173,129.24776v-18.05627h24.41671v18.05627z" fill-opacity="0.5098" fill="#b3ff6c" stroke="#000000" stroke-width="1.5" stroke-linecap="butt"/><path d="M121.4725,119.60474l0.24958,0.28263c0.00369,0.03017 0.0074,0.05939 0.01122,0.08774c0.10736,0.11935 0.20066,0.25511 0.29868,0.42529l0.03294,0.16191c0,0 0,0.06195 -0.03084,0.12417c0.04295,0.04156 0.09249,0.08274 0.14988,0.12443c0.02774,0.01913 0.05143,0.04373 0.06951,0.07223c0.04247,0.0617 0.07754,0.1617 -0.00807,0.27938c-0.00186,0.0026 -0.00378,0.00516 -0.00574,0.00768c-0.08883,0.11568 -0.19457,0.11052 -0.26588,0.08718c-0.03279,-0.00931 -0.06284,-0.02515 -0.08865,-0.04601c-0.3843,-0.29956 -0.53656,-0.58446 -0.61834,-1.00242c-0.07302,-0.06516 -0.15832,-0.12614 -0.26618,-0.19221c0,0 -0.212,-0.1325 -0.0795,-0.3445c0.09431,-0.1509 0.22891,-0.12726 0.29865,-0.1011c0.1269,-0.06078 0.25274,0.0336 0.25274,0.0336z" fill-opacity="0.5098" fill="#b3ff6c" stroke="none" stroke-width="0.5" stroke-linecap="butt"/><path d="M128.13995,125.29937c0,0.5 -0.5,0.5 -0.5,0.5h-0.33333c-1.90517,-0.00228 -3.12317,-1.07022 -4.49183,-2.28699c-2.27074,-3.58082 0.17223,-9.45736 4.72034,-9.4328c4.34593,-0.86919 7.16038,3.01042 7.16038,6.88645c0,0 0,0.5 -0.5,0.5c-0.5,0 -0.5,-0.5 -0.5,-0.5c0,-3.33764 -2.29056,-6.64558 -6.06185,-5.89132c-3.70895,0.01643 -5.9078,4.76224 -4.05744,7.78942c1.1647,0.9979 2.14088,1.93732 3.7304,1.93523h0.33333c0,0 0.5,0 0.5,0.5z" fill="#000000" stroke="none" stroke-width="0.5" stroke-linecap="butt"/><path d="M127.86217,124.77853l-1.92708,-1.97917" fill="none" stroke="#000000" stroke-width="1" stroke-linecap="round"/><path d="M127.96633,125.1952l-2.44792,1.92708" fill="none" stroke="#000000" stroke-width="1" stroke-linecap="round"/></g></g></svg>