<svg version="1.1" xmlns="http://www.w3.org/2000/svg" xmlns:xlink="http://www.w3.org/1999/xlink" width="585.94387" height="178.92288" viewBox="0,0,585.94387,178.92288"><g transform="translate(-178.18286,-44.05874)"><g stroke-miterlimit="10"><path d="M187.8581,220.9324c0,0 -9.17524,-2.97136 -9.17524,-10.52934c0,-34.48282 0,-132.19105 0,-152.2586c0,-7.03453 4.69748,-9.50006 4.69748,-9.50006c0,0 2.30062,-4.08566 11.58422,-4.08566c48.90868,0 462.51527,0 551.741,0c10.86592,0 11.85554,2.42557 11.85554,2.42557c0,0 5.06563,2.38466 5.06563,10.3873c0,35.87432 0,135.90221 0,154.34452c0,5.7243 -3.66234,7.29057 -3.66234,7.29057c0,0 -1.89968,3.47492 -11.92705,3.47492c-86.00364,0 -500.49096,0 -551.50694,0c-10.10557,0 -12.5237,-4.63039 -12.5237,-4.63039z" fill="#f7f7f7" stroke="#cccccc" stroke-width="1"/><path d="M183.95561,200.89875c0,0 -5.27276,0.09526 -5.27276,-6.46141c0,-29.9144 0,-114.67784 0,-132.08676c0,-6.10257 4.65245,-8.24145 4.65245,-8.24145c0,0 2.27856,-3.54438 11.47318,-3.54438c48.43988,0 458.08197,0 546.45245,0c10.76177,0 11.15322,4.01941 11.15322,4.01941c0,0 5.60575,0.15354 5.60575,7.09595c0,31.12154 0,117.89734 0,133.89633c0,4.96593 -3.62724,6.32469 -3.62724,6.32469c0,0 -1.88147,3.01455 -11.81272,3.01455c-85.17928,0 -495.69365,0 -546.22064,0c-10.00871,0 -12.40366,-4.01695 -12.40366,-4.01695z" fill="#f7f7f7" stroke="none" stroke-width="0"/><text transform="translate(250.00675,131.04427) rotate(-6.1989) scale(0.5,0.5)" font-size="40" xml:space="preserve" fill="#ff0f0f" stroke="#000000" stroke-width="1" font-family="Sans Serif" font-weight="normal" text-anchor="start"><tspan x="0" dy="0">只需2个三连</tspan><tspan x="0" dy="46.150000000000006px"> </tspan></text><path d="M182.8905,187.5263c0,0 -4.20765,0.08678 -4.20765,-5.88666c0,-27.25347 0,-104.47707 0,-120.33744c0,-5.55974 3.71265,-7.50836 3.71265,-7.50836c0,0 1.81829,-3.2291 9.15557,-3.2291c38.65493,0 365.54851,0 436.06798,0c8.58787,0 8.90025,3.66188 8.90025,3.66188c0,0 4.47338,0.13988 4.47338,6.46476c0,28.35323 0,107.41018 0,121.98604c0,4.5242 -2.89453,5.7621 -2.89453,5.7621c0,0 -1.50141,2.7464 -9.42653,2.7464c-67.9729,0 -395.56256,0 -435.88299,0c-7.98693,0 -9.89809,-3.65963 -9.89809,-3.65963z" fill="#f7f7f7" stroke="none" stroke-width="0"/><text transform="translate(198.70924,95.89609) rotate(-6.1989) scale(0.644,0.644)" font-size="40" xml:space="preserve" fill="#ff0f0f" stroke="#000000" stroke-width="1" font-family="Sans Serif" font-weight="normal" text-anchor="start"><tspan x="0" dy="0">我们需要你</tspan></text><text transform="translate(206.07831,109.68014) scale(0.28465,0.28465)" font-size="40" xml:space="preserve" fill="#000000" stroke="none" stroke-width="1" font-family="Sans Serif" font-weight="normal" text-anchor="start"><tspan x="0" dy="0">如果你擅长使用turbowarp</tspan><tspan x="0" dy="46.150000000000006px">可以加入我们，帮助我们一起开发zx leaf green或者其它的小游戏</tspan></text><text transform="translate(216.74087,174.25758) scale(0.41739,0.41739)" font-size="40" xml:space="preserve" fill="#000000" stroke="none" stroke-width="1" font-family="Sans Serif" font-weight="normal" text-anchor="start"><tspan x="0" dy="0">点击联系作者</tspan></text></g></g></svg>