<svg version="1.1" xmlns="http://www.w3.org/2000/svg" xmlns:xlink="http://www.w3.org/1999/xlink" width="21.80739" height="24.14536" viewBox="0,0,21.80739,24.14536"><defs><radialGradient cx="243.35179" cy="197.61154" r="10.45965" gradientUnits="userSpaceOnUse" id="color-1"><stop offset="0" stop-color="#2287fd"/><stop offset="1" stop-color="#269afd"/></radialGradient><linearGradient x1="250.99732" y1="194.84712" x2="250.99732" y2="216.67667" gradientUnits="userSpaceOnUse" id="color-2"><stop offset="0" stop-color="#87b8d6"/><stop offset="1" stop-color="#9ed6d0"/></linearGradient></defs><g transform="translate(-240.09362,-194.84713)"><g stroke-miterlimit="10"><path d="M246.94066,218.21566l8.36172,0.02683" fill="none" stroke="#0e100e" stroke-width="1.5" stroke-linecap="round" stroke-linejoin="miter"/><path d="M254.30401,194.92069c2.07447,0.01827 4.4973,0.17172 5.78348,1.4579c1.27211,1.27211 1.43211,3.6521 1.45222,5.71024c0.00285,0.29071 0.00282,6.37521 -0.00149,6.71275c-0.02597,2.03159 -0.20578,4.35369 -1.45073,5.59865c-1.23125,1.23125 -3.50412,1.40874 -5.51588,1.43426c-0.36035,0.00457 -6.45422,0.00446 -6.73728,0.00224c-2.05989,-0.01615 -4.43925,-0.1601 -5.71565,-1.4365c-1.26278,-1.26278 -1.44581,-3.63376 -1.47206,-5.68572c-0.00393,-0.30715 -0.00427,-6.45061 0.00063,-6.80372c0.02806,-2.02088 0.21429,-4.31818 1.45014,-5.55403c1.24003,-1.24003 3.53658,-1.41122 5.55887,-1.43478c0.34536,-0.00403 6.38063,-0.00363 6.64775,-0.00128z" fill="url(#color-1)" stroke="none" stroke-width="0.47449" stroke-linecap="butt" stroke-linejoin="miter"/><path d="M254.34841,194.84897c2.16474,0.01907 4.69299,0.1792 6.03513,1.52134c1.32746,1.32746 1.49443,3.81101 1.51542,5.9587c0.00297,0.30336 0.00294,6.65261 -0.00155,7.00484c-0.0271,2.11999 -0.21473,4.54313 -1.51386,5.84226c-1.28483,1.28483 -3.65659,1.47004 -5.75589,1.49667c-0.37604,0.00477 -6.73506,0.00465 -7.03044,0.00233c-2.14952,-0.01685 -4.63242,-0.16707 -5.96436,-1.499c-1.31773,-1.31773 -1.50871,-3.79188 -1.53611,-5.93313c-0.0041,-0.32051 -0.00446,-6.73129 0.00066,-7.09977c0.02928,-2.10882 0.22361,-4.50608 1.51324,-5.7957c1.29398,-1.29398 3.69047,-1.47263 5.80075,-1.49721c0.36039,-0.00421 6.65827,-0.00378 6.93701,-0.00133z" fill="url(#color-2)" stroke="none" stroke-width="0.47449" stroke-linecap="butt" stroke-linejoin="miter"/><path d="M244.66582,206.33853c0,-3.51007 2.84547,-6.35556 6.35554,-6.35556c3.5101,0 6.35558,2.84549 6.35558,6.35556c0,3.51007 -2.84547,6.35554 -6.35558,6.35554c-3.51007,0 -6.35554,-2.84547 -6.35554,-6.35554z" fill="none" stroke="#ffffff" stroke-width="1.5" stroke-linecap="butt" stroke-linejoin="round"/><path d="M253.63201,209.1586l-2.6944,-2.6944l0.00042,-3.81638" fill="none" stroke="#ffffff" stroke-width="1.5" stroke-linecap="round" stroke-linejoin="round"/><path d="M244.0881,200.44524l2.42667,-1.73333" fill="none" stroke="#ffffff" stroke-width="1.5" stroke-linecap="round" stroke-linejoin="round"/><path d="M255.5281,198.71191l2.42667,1.73333" fill="none" stroke="#ffffff" stroke-width="1.5" stroke-linecap="round" stroke-linejoin="round"/></g></g></svg>