<svg version="1.1" xmlns="http://www.w3.org/2000/svg" xmlns:xlink="http://www.w3.org/1999/xlink" width="25.50105" height="25.30935" viewBox="0,0,25.50105,25.30935"><g transform="translate(-503.94495,-32.30088)"><g stroke-miterlimit="10"><path d="M503.94496,37.75048c0,-0.80496 0.10742,-2.72939 1.2329,-3.95706c1.56929,-1.42826 2.4384,-1.49254 3.21988,-1.49254c5.06034,0 15.51842,0 15.76817,0c0.71829,0 2.39098,0.02343 3.73767,1.49686c1.60933,1.56633 1.54203,3.16166 1.54203,3.86093c0,3.0077 0,9.48449 0,14.7725c0,0.84048 -0.5474,2.44163 -1.6424,3.51653c-1.0257,1.06944 -2.77108,1.66253 -3.6373,1.66253c-5.54717,0 -12.02023,0 -15.0479,0c-0.68517,0 -2.45771,-0.45263 -3.63742,-1.61668c-1.16529,-1.02241 -1.53562,-2.79687 -1.53562,-3.65417c0,0 0.00001,-11.57579 0.00001,-14.58891z" fill="#ffffff" stroke="#000000" stroke-width="0" stroke-linecap="butt" stroke-linejoin="miter"/><path d="M523.0826,38.84438v5.87727" fill="none" stroke="#696969" stroke-width="1.5" stroke-linecap="round" stroke-linejoin="round"/><path d="M508.7057,51.94416v-5.87727" fill="none" stroke="#696969" stroke-width="1.5" stroke-linecap="round" stroke-linejoin="round"/><path d="M510.94436,40.32221c1.20245,-1.24563 2.88956,-2.02031 4.75761,-2.02031c3.65165,0 6.61193,2.96027 6.61193,6.61193M520.29359,49.67144c-1.18934,1.14808 -2.80801,1.85432 -4.59162,1.85432c-3.65165,0 -6.61193,-2.96027 -6.61193,-6.61193" fill="none" stroke="#696969" stroke-width="1.5" stroke-linecap="round" stroke-linejoin="round"/></g></g></svg>