<svg version="1.1" xmlns="http://www.w3.org/2000/svg" xmlns:xlink="http://www.w3.org/1999/xlink" width="484.89619" height="246.23924" viewBox="0,0,484.89619,246.23924"><defs><linearGradient x1="406.46673" y1="70.91525" x2="406.46673" y2="316.54865" gradientUnits="userSpaceOnUse" id="color-1"><stop offset="0" stop-color="#ffffff" stop-opacity="0.16863"/><stop offset="1" stop-color="#e8e8e8" stop-opacity="0.36078"/></linearGradient><linearGradient x1="406.46674" y1="70.91526" x2="406.46674" y2="316.54865" gradientUnits="userSpaceOnUse" id="color-2"><stop offset="0" stop-color="#8a8a8a" stop-opacity="0.63529"/><stop offset="1" stop-color="#d4d4d4"/></linearGradient><linearGradient x1="406.75024" y1="70.86701" x2="406.75024" y2="316.50041" gradientUnits="userSpaceOnUse" id="color-3"><stop offset="0" stop-color="#ffffff" stop-opacity="0.16863"/><stop offset="1" stop-color="#e8e8e8" stop-opacity="0.36078"/></linearGradient><linearGradient x1="405.11573" y1="70.55941" x2="405.11573" y2="316.19281" gradientUnits="userSpaceOnUse" id="color-4"><stop offset="0" stop-color="#ffffff" stop-opacity="0.86275"/><stop offset="1" stop-color="#e8e8e8"/></linearGradient></defs><g transform="translate(-163.48488,-70.55942)"><g stroke-miterlimit="10"><path d="M648.09758,282.59695c0,11.8831 0,17.82772 -3.15965,22.36568c-2.77877,3.99233 -7.21391,7.23897 -12.66776,9.27304c-6.20349,2.31298 -14.3201,2.31298 -30.55335,2.31298h-390.50016c-16.23744,0 -24.35405,-0.00005 -30.55335,-2.31298c-5.45388,-2.03412 -9.88906,-5.28071 -12.66776,-9.27304c-3.15965,-4.53804 -3.15965,-10.48261 -3.15965,-22.36568v-177.72997c0,-11.8831 -0.00007,-17.82772 3.15965,-22.36568c2.77877,-3.99235 7.21391,-7.23899 12.66776,-9.27306c6.19933,-2.31298 14.31594,-2.31298 30.55335,-2.31298h390.50016c16.23328,0 24.34996,0.00005 30.55335,2.31298c5.45388,2.03414 9.88906,5.28073 12.66776,9.27306c3.15965,4.53804 3.15965,10.48261 3.15965,22.36568z" fill="url(#color-1)" stroke="url(#color-2)" stroke-width="0.5"/><path d="M165.11939,104.81874c0,-11.88307 0,-17.82764 3.15965,-22.36568c2.7787,-3.99233 7.21388,-7.23892 12.66776,-9.27306c6.20339,-2.31293 14.32007,-2.31298 30.55335,-2.31298h390.50016c16.23741,0 24.35402,0 30.55335,2.31298c5.45385,2.03407 9.88899,5.28071 12.66776,9.27306c3.15972,4.53796 3.15965,10.48258 3.15965,22.36568v177.72997c0,11.88307 0,17.82764 -3.15965,22.36568c-2.7787,3.99233 -7.21388,7.23892 -12.66776,9.27304c-6.1993,2.31293 -14.31591,2.31298 -30.55335,2.31298h-390.50016c-16.23325,0 -24.34986,0 -30.55335,-2.31298c-5.45385,-2.03407 -9.88899,-5.28071 -12.66776,-9.27304c-3.15965,-4.53796 -3.15965,-10.48258 -3.15965,-22.36568z" fill="url(#color-3)" stroke="none" stroke-width="0"/><path d="M163.48488,104.51114c0,-11.88307 0,-17.82764 3.15965,-22.36568c2.7787,-3.99233 7.21388,-7.23892 12.66776,-9.27306c6.20339,-2.31293 14.32007,-2.31298 30.55335,-2.31298h390.50016c16.23741,0 24.35402,0 30.55335,2.31298c5.45385,2.03407 9.88899,5.28071 12.66776,9.27306c3.15972,4.53796 3.15965,10.48258 3.15965,22.36568v177.72997c0,11.88307 0,17.82764 -3.15965,22.36568c-2.7787,3.99233 -7.21388,7.23892 -12.66776,9.27304c-6.1993,2.31293 -14.31591,2.31298 -30.55335,2.31298h-390.50016c-16.23325,0 -24.34986,0 -30.55335,-2.31298c-5.45385,-2.03407 -9.88899,-5.28071 -12.66776,-9.27304c-3.15965,-4.53796 -3.15965,-10.48258 -3.15965,-22.36568z" fill="url(#color-4)" stroke="none" stroke-width="0"/></g></g></svg>