<svg version="1.1" xmlns="http://www.w3.org/2000/svg" xmlns:xlink="http://www.w3.org/1999/xlink" width="71.396" height="71.396" viewBox="0,0,71.396,71.396"><defs><linearGradient x1="370.91014" y1="210.64409" x2="370.91014" y2="280.04008" gradientUnits="userSpaceOnUse" id="color-1"><stop offset="0" stop-color="#f5f5f5" stop-opacity="0.8549"/><stop offset="1" stop-color="#8cc1d4"/></linearGradient></defs><g transform="translate(-335.21213,-209.64408)"><g stroke="#ffffff" stroke-width="2" stroke-linejoin="round" stroke-miterlimit="10"><path d="M336.21214,245.34209c0,-19.1632 15.53483,-34.698 34.698,-34.698c19.1632,0 34.698,15.53483 34.698,34.698c0,19.1632 -15.53483,34.698 -34.698,34.698c-19.1632,0 -34.698,-15.53483 -34.698,-34.698z" fill="url(#color-1)" fill-rule="evenodd" stroke-linecap="round"/><path d="M361.26818,240.22144c0,-5.32505 4.31691,-9.64196 9.64196,-9.64196c5.32505,0 9.64196,4.31691 9.64196,9.64196c0,5.32505 -4.31691,9.64194 -9.64196,9.64194c-5.32505,0 -9.64196,-4.31689 -9.64196,-9.64194z" fill="none" fill-rule="nonzero" stroke-linecap="butt"/><path d="M346.96498,268.90554c0.60776,-9.21508 8.27473,-16.50136 17.64363,-16.50136h14.14603c9.35654,0 17.01575,7.267 17.64135,16.46475" fill="none" fill-rule="nonzero" stroke-linecap="round"/></g></g></svg>