<svg version="1.1" xmlns="http://www.w3.org/2000/svg" xmlns:xlink="http://www.w3.org/1999/xlink" width="352.99696" height="20.95556" viewBox="0,0,352.99696,20.95556"><g transform="translate(-223.50152,-214.52222)"><g data-paper-data="{&quot;isPaintingLayer&quot;:true}" fill-rule="nonzero" stroke-miterlimit="10" stroke-dasharray="" stroke-dashoffset="0" style="mix-blend-mode: normal"><path d="M223.50152,231.88169c0,-4.19108 0,-10.8568 0,-13.31832c0,-1.80958 1.22064,-4.04115 3.12279,-4.04115c18.87391,0 309.81354,0 346.15628,0c2.42635,0 3.71789,2.27323 3.71789,5.18464c0,3.99644 0,9.19535 0,11.36767c0,1.93664 -1.48018,4.40325 -4.24834,4.40325c-38.65995,0 -328.53668,0 -346.06787,0c-1.64339,0 -2.68075,-1.48374 -2.68075,-3.59609z" fill="#e9eef0" stroke="none" stroke-width="NaN" stroke-linecap="butt" stroke-linejoin="miter"/><path d="M240.13491,230.07838v2.21738h-10.34779v-2.21738" fill="none" stroke="#e1ccb1" stroke-width="1.5" stroke-linecap="round" stroke-linejoin="round"/><path d="M229.78713,223.42623v-5.91302h7.39128l2.95651,3.69564v2.21738" fill="none" stroke="#e1ccb1" stroke-width="1.5" stroke-linecap="round" stroke-linejoin="round"/><path d="M240.13491,221.20885h-3.69564v-3.69564" fill="none" stroke="#e1ccb1" stroke-width="1.5" stroke-linecap="round" stroke-linejoin="round"/><path d="M233.48276,220.46972h-1.47826" fill="none" stroke="#e1ccb1" stroke-width="1.5" stroke-linecap="round" stroke-linejoin="miter"/><path d="M228.30887,230.07838c-0.40821,0 -0.73913,-0.33092 -0.73913,-0.73913v-5.17389c0,-0.40821 0.33092,-0.73913 0.73913,-0.73913h13.3043c0.40821,0 0.73913,0.33092 0.73913,0.73913v5.17389c0,0.40821 -0.33092,0.73913 -0.73913,0.73913z" fill="none" stroke="#e1ccb1" stroke-width="1.5" stroke-linecap="butt" stroke-linejoin="round"/><path d="M232.37407,228.23056h-2.21738l2.21738,-2.95651h-2.21738" fill="none" stroke="#e1ccb1" stroke-width="1.5" stroke-linecap="round" stroke-linejoin="round"/><path d="M234.96102,228.23056v-2.95651" fill="none" stroke="#e1ccb1" stroke-width="1.5" stroke-linecap="round" stroke-linejoin="miter"/><path d="M237.54797,228.23056v-2.95651" fill="none" stroke="#e1ccb1" stroke-width="1.5" stroke-linecap="round" stroke-linejoin="miter"/><path d="M237.54797,225.27405h1.29348c0.51026,0 0.92391,0.41365 0.92391,0.92391v0c0,0.51026 -0.41365,0.92391 -0.92391,0.92391h-1.29348" fill="none" stroke="#e1ccb1" stroke-width="1.5" stroke-linecap="round" stroke-linejoin="round"/></g></g></svg>