<svg version="1.1" xmlns="http://www.w3.org/2000/svg" xmlns:xlink="http://www.w3.org/1999/xlink" width="49.22364" height="36.46317" viewBox="0,0,49.22364,36.46317"><g transform="translate(-381.51321,-206.76847)"><g stroke-width="2" stroke-miterlimit="10"><path d="M382.51322,238.37175c0,-7.21711 0,-22.39711 0,-26.5c0,-2.00018 2.03654,-4.10328 5.23826,-4.10328c9.37104,0 36.25712,0 36.71961,0c2.60166,0 5.26577,2.02993 5.26577,3.97828c0,4.09551 0,19.54943 0,26.75c0,2.28187 -2.04756,3.73489 -5.26577,3.73489c-10.27258,0 -31.28278,0 -36.88961,0c-2.51786,0 -5.06826,-1.50665 -5.06826,-3.85989z" fill-opacity="0.05098" fill="#262626" stroke-opacity="0.01176" stroke="#000000" stroke-linecap="butt" stroke-linejoin="miter"/><path d="M395.01878,231.05789c0,-1.75031 1.41891,-3.16924 3.16924,-3.16924c1.75031,0 3.16924,1.41893 3.16924,3.16924c0,1.75031 -1.41893,3.16924 -3.16924,3.16924c-1.75031,0 -3.16924,-1.41893 -3.16924,-3.16924z" fill="none" stroke="#57605b" stroke-linecap="butt" stroke-linejoin="round"/><path d="M414.06665,216.26813c-8.48375,10.79288 -12.81257,16.2056 -13.63767,17.03072c-1.23765,1.23769 -3.24432,1.23769 -4.48196,0" fill="none" stroke="#57605b" stroke-linecap="round" stroke-linejoin="round"/><path d="M409.80852,231.05789c0,-1.75031 1.41893,-3.16924 3.16924,-3.16924c1.75031,0 3.16924,1.41893 3.16924,3.16924c0,1.75031 -1.41893,3.16924 -3.16924,3.16924c-1.75031,0 -3.16924,-1.41893 -3.16924,-3.16924z" fill="none" stroke="#57605b" stroke-linecap="butt" stroke-linejoin="round"/><path d="M415.21861,233.29885c-1.23765,1.23769 -3.2443,1.23769 -4.48196,0c-0.8251,-0.8251 -5.15386,-6.23103 -13.60477,-17.03072" fill="none" stroke="#57605b" stroke-linecap="round" stroke-linejoin="round"/></g></g></svg>