<svg version="1.1" xmlns="http://www.w3.org/2000/svg" xmlns:xlink="http://www.w3.org/1999/xlink" width="22.95119" height="25.4388" viewBox="0,0,22.95119,25.4388"><defs><linearGradient x1="252.52664" y1="194.74475" x2="252.52664" y2="217.71927" gradientUnits="userSpaceOnUse" id="color-1"><stop offset="0" stop-color="#aef2df"/><stop offset="1" stop-color="#d2f7ec"/></linearGradient><linearGradient x1="251.87767" y1="200.87723" x2="251.87767" y2="210.26314" gradientUnits="userSpaceOnUse" id="color-2"><stop offset="0" stop-color="#335bc2"/><stop offset="1" stop-color="#c2c2c2"/></linearGradient></defs><g transform="translate(-241.05104,-194.74475)"><g stroke-miterlimit="10"><path d="M256.05349,194.74668c2.27828,0.02006 4.93914,0.18859 6.35168,1.60114c1.39709,1.39709 1.57281,4.0109 1.5949,6.27124c0.00312,0.31927 0.0031,7.00155 -0.00163,7.37225c-0.02852,2.23119 -0.22599,4.78142 -1.59326,6.1487c-1.35222,1.35222 -3.84839,1.54715 -6.05779,1.57517c-0.39576,0.00502 -7.08832,0.0049 -7.39919,0.00246c-2.26226,-0.01774 -4.87539,-0.17583 -6.27719,-1.57763c-1.38684,-1.38684 -1.58785,-3.99077 -1.61668,-6.24432c-0.00431,-0.33732 -0.00469,-7.08435 0.0007,-7.47216c0.03082,-2.21943 0.23534,-4.74242 1.59261,-6.09969c1.36186,-1.36186 3.88404,-1.54987 6.10501,-1.57574c0.37929,-0.00442 7.0075,-0.00399 7.30086,-0.0014z" fill="url(#color-1)" stroke="none" stroke-width="0.47449" stroke-linecap="butt" stroke-linejoin="miter"/><path d="M255.64947,212.11188h-7.66867" fill="none" stroke="#172c45" stroke-width="1" stroke-linecap="round" stroke-linejoin="round"/><path d="M245.2293,210.26314c-0.43198,0 -0.78216,-0.35018 -0.78216,-0.78216v-7.8216c0,-0.43198 0.35018,-0.78216 0.78216,-0.78216h13.29671c0.43198,0 0.78216,0.35018 0.78216,0.78216v7.8216c0,0.43198 -0.35018,0.78216 -0.78216,0.78216z" fill="url(#color-2)" stroke="#172c45" stroke-width="1" stroke-linecap="butt" stroke-linejoin="miter"/><path d="M250.69321,207.85812h1.46966" fill="none" stroke="#4a90e2" stroke-width="1" stroke-linecap="round" stroke-linejoin="round"/><path d="M262.27388,202.06706l-1.68162,8.40809l-0.95292,-5.32512l-1.84978,5.77355l-1.96188,-3.02692l-0.50448,3.13901" fill="none" stroke="#65d0fc" stroke-width="1.5" stroke-linecap="round" stroke-linejoin="miter"/><text transform="translate(257.18216,213.85355) scale(0.11887,0.11887)" font-size="40" xml:space="preserve" fill="#000000" stroke="none" stroke-width="1" stroke-linecap="butt" stroke-linejoin="miter" font-family="&quot;Exo-Bold&quot;, Sans Serif" font-weight="normal" text-anchor="start"><tspan x="0" dy="0">%</tspan></text><path d="M256.38621,219.43356l-8.36172,-0.02683" fill="none" stroke="#0e100e" stroke-width="1.5" stroke-linecap="round" stroke-linejoin="miter"/></g></g></svg>