<svg version="1.1" xmlns="http://www.w3.org/2000/svg" xmlns:xlink="http://www.w3.org/1999/xlink" width="72.06025" height="91.69076" viewBox="0,0,72.06025,91.69076"><g transform="translate(-527.25342,-254.08239)"><g stroke-miterlimit="10"><path d="M598.81367,330.48663c0,2.94812 0.20078,7.32775 -0.27795,9.88089c-0.19168,1.02224 -2.3228,3.27382 -2.745,3.69425c-0.18857,0.18777 1.35672,-1.52679 1.17072,-1.23408c-1.11991,1.76238 -3.36323,2.44547 -4.86719,2.44547l-57.74383,-0.36489c-2.18445,0 -4.78948,-0.30101 -6.01654,-3.7084c-0.85734,-2.38071 -0.58046,-7.49344 -0.58046,-10.71324v-61.7275c0,-7.82984 3.00792,-14.17673 6.71863,-14.17673h57.62142c3.71227,0 6.71941,6.3469 6.71941,14.17673v61.7275z" fill="#ffffff" stroke="#cccccc" stroke-width="1"/><path d="M550.97942,290.89788c0,-0.79582 0.1141,-2.69837 1.30958,-3.91212c1.6669,-1.41203 2.59005,-1.47557 3.42014,-1.47557c5.37509,0 16.48365,0 16.74893,0c0.76297,0 2.53973,0.02314 3.97017,1.47985c1.70943,1.54855 1.63795,3.12575 1.63795,3.81709c0,2.97354 0,9.37674 0,14.60467c0,0.83092 -0.58143,2.41389 -1.74456,3.47656c-1.08949,1.05728 -2.94345,1.64365 -3.86355,1.64365c-5.8922,0 -12.76786,0 -15.98387,0c-0.72778,0 -2.61059,-0.4475 -3.86368,-1.59833c-1.23777,-1.0108 -1.63113,-2.7651 -1.63113,-3.61265c0,0 0,-11.44429 0,-14.42317z" fill-opacity="0.01569" fill="#ededed" stroke="#000000" stroke-width="0"/><text transform="translate(559.87295,300.73582) scale(0.5,0.5)" font-size="40" xml:space="preserve" fill="none" stroke="none" stroke-width="1" font-family="&quot;Exo-Bold&quot;, Sans Serif" font-weight="normal" text-anchor="start"><tspan x="0" dy="0">啊</tspan></text><text transform="translate(547.79168,310.87354) scale(0.84354,0.84354)" font-size="40" xml:space="preserve" fill="#000000" stroke="none" stroke-width="1" font-family="&quot;Exo-Bold&quot;, Sans Serif" font-weight="normal" text-anchor="start"><tspan x="0" dy="0">﹦</tspan></text></g></g></svg>