<svg version="1.1" xmlns="http://www.w3.org/2000/svg" xmlns:xlink="http://www.w3.org/1999/xlink" width="134" height="55" viewBox="0,0,134,55"><defs><linearGradient x1="198.48766" y1="159.72027" x2="198.48766" y2="180.49919" gradientUnits="userSpaceOnUse" id="color-1"><stop offset="0" stop-color="#000000"/><stop offset="1" stop-color="#434343"/></linearGradient><linearGradient x1="198.73925" y1="165.47303" x2="198.73925" y2="175.49685" gradientUnits="userSpaceOnUse" id="color-2"><stop offset="0" stop-color="#919191"/><stop offset="1" stop-color="#d9d9d9"/></linearGradient><linearGradient x1="196.07668" y1="168.60547" x2="196.07668" y2="172.3644" gradientUnits="userSpaceOnUse" id="color-3"><stop offset="0" stop-color="#919191"/><stop offset="1" stop-color="#d9d9d9"/></linearGradient><linearGradient x1="200.46209" y1="172.57895" x2="200.46209" y2="173.40282" gradientUnits="userSpaceOnUse" id="color-4"><stop offset="0" stop-color="#919191"/><stop offset="1" stop-color="#d9d9d9"/></linearGradient></defs><g transform="translate(-168.87782,-144.80001)"><g stroke-miterlimit="10"><path d="M168.87782,199.80002v-55h134v55z" fill="none" stroke="none" stroke-width="0" stroke-linecap="butt" stroke-linejoin="miter"/><g stroke="none" stroke-width="1" stroke-linecap="butt" stroke-linejoin="miter"><path d="M190.60039,185.00104c-4.14213,0 -7.5,-4.06467 -7.5,-8.79379c0,-4.72754 0,-10.11909 0,-12.77778c0,-3.12088 3.35787,-7.42843 7.5,-7.42843h94c4.14213,0 7.5,4.11109 7.5,7.14003c0,2.5099 0,8.91269 0,13.51852c0,5.11981 -3.35787,8.34145 -7.5,8.34145z" fill="#ffffff"/><path d="M284.60038,156.54377h-94c-3.86418,0.00437 -6.99563,3.13582 -7,7v14c0.00437,3.86418 3.13582,6.99563 7,7h94c3.86418,-0.00438 6.99563,-3.13582 7,-7v-14c-0.00437,-3.86418 -3.13582,-6.99562 -7,-7M292.60038,163.54377v14c0,4.41828 -3.58172,8 -8,8h-94c-4.41828,0 -8,-3.58172 -8,-8v-14c0,-4.41828 3.58172,-8 8,-8h94c4.41828,0 8,3.58172 8,8z" fill="#cccccc"/></g><path d="M202.7098,160.41291M208.25085,165.26132v9.69682c0,3.06024 -2.48081,5.54105 -5.54104,5.54105h-8.44429c-3.06024,0 -5.54104,-2.48081 -5.54104,-5.54105v-9.69682c0,-3.06024 2.4808,-5.54105 5.54104,-5.54105h8.44429c3.06024,0 5.54104,2.48081 5.54104,5.54105z" fill="url(#color-1)" stroke="none" stroke-width="1" stroke-linecap="butt" stroke-linejoin="miter"/><text transform="translate(216.76562,173.11691) scale(0.22047,0.22047)" font-size="40" xml:space="preserve" fill-opacity="0.9098" fill="#000000" stroke="none" stroke-width="0" stroke-linecap="butt" stroke-linejoin="miter" font-family="&quot;Exo-Bold&quot;, Sans Serif" font-weight="normal" text-anchor="start"><tspan x="0" dy="0">终端</tspan></text><path d="M193.10086,175.49685c-0.346,0 -0.62649,-0.28049 -0.62649,-0.62649v-8.77083c0,-0.346 0.28049,-0.62649 0.62649,-0.62649h11.27679c0.346,0 0.62649,0.28049 0.62649,0.62649v8.77083c0,0.346 -0.28049,0.62649 -0.62649,0.62649z" fill="none" stroke="url(#color-2)" stroke-width="1" stroke-linecap="butt" stroke-linejoin="round"/><path d="M194.98032,168.60547l2.19271,1.87946l-2.19271,1.87946" fill="none" stroke="url(#color-3)" stroke-width="1" stroke-linecap="round" stroke-linejoin="round"/><path d="M202.49818,172.99089h-4.07217" fill="none" stroke="url(#color-4)" stroke-width="1" stroke-linecap="round" stroke-linejoin="round"/></g></g></svg>