<svg version="1.1" xmlns="http://www.w3.org/2000/svg" xmlns:xlink="http://www.w3.org/1999/xlink" width="131.98545" height="33.86111" viewBox="0,0,131.98545,33.86111"><g transform="translate(-308.67433,-188.45517)"><g stroke-miterlimit="10"><path d="M308.67433,214.1252c0,-6.28592 0,-14.54436 0,-18.10263c0,-3.31153 3.48244,-7.55269 8.64415,-7.55269c14.63976,0 87.92307,-0.01471 114.36808,-0.01471c6.20202,0 8.97322,4.44794 8.97322,7.85476c0,3.56994 0,11.71401 0,17.91106c0,4.46783 -4.10817,8.09529 -10.31039,8.09529c-26.47713,0 -99.00258,-0.2608 -113.58547,-0.2608c-5.10693,0 -8.08959,-3.41072 -8.08959,-7.93028z" fill="#f7f7f7" stroke="none" stroke-width="0" stroke-linecap="butt" stroke-linejoin="miter"/><path d="M319.61284,204.28681c0,-4.2499 3.44525,-7.69514 7.69514,-7.69514c4.24989,0 7.69515,3.44525 7.69515,7.69514c0,4.2499 -3.44525,7.69515 -7.69515,7.69515c-4.24989,0 -7.69514,-3.44526 -7.69514,-7.69515z" fill="none" stroke="#696969" stroke-width="1.5" stroke-linecap="butt" stroke-linejoin="round"/><path d="M324.74745,201.27353c0.65531,-0.65531 1.56062,-1.06062 2.56058,-1.06062c1,0 1.90533,0.40531 2.56063,1.06062" fill="none" stroke="#696969" stroke-width="1.5" stroke-linecap="round" stroke-linejoin="round"/><path d="M332.84016,209.81904l3.84093,3.84091" fill="none" stroke="#696969" stroke-width="1.5" stroke-linecap="round" stroke-linejoin="round"/></g></g></svg>