<svg version="1.1" xmlns="http://www.w3.org/2000/svg" xmlns:xlink="http://www.w3.org/1999/xlink" width="728.76448" height="433.93394" viewBox="0,0,728.76448,433.93394"><defs><linearGradient x1="105.90728" y1="391.7939" x2="105.90728" y2="432.96969" gradientUnits="userSpaceOnUse" id="color-1"><stop offset="0" stop-color="#fafafa"/><stop offset="1" stop-color="#f0f0f0"/></linearGradient><linearGradient x1="393.87982" y1="391.64913" x2="393.87982" y2="432.82492" gradientUnits="userSpaceOnUse" id="color-2"><stop offset="0" stop-color="#fafafa"/><stop offset="1" stop-color="#f0f0f0"/></linearGradient><linearGradient x1="711.10454" y1="390.64467" x2="711.10454" y2="431.82046" gradientUnits="userSpaceOnUse" id="color-3"><stop offset="0" stop-color="#fafafa"/><stop offset="1" stop-color="#f0f0f0"/></linearGradient></defs><g transform="translate(-41.81102,-12.51637)"><g stroke-miterlimit="10"><path d="M44.02896,443.7946c0,0 -2.21794,-0.44152 -2.21794,-6.10931c0,-58.12842 0,-386.63996 0,-417.41262c0,-4.5562 1.5759,-5.97611 1.5759,-5.97611c0,0 0.93151,-1.78019 5.65104,-1.78019c72.70627,0 670.40754,0 713.50121,0c4.84586,0 6.19778,2.04284 6.19778,2.04284c0,0 1.83855,1.28831 1.83855,6.0053c0,31.33582 0,360.61766 0,417.52936c0,5.40785 -2.01366,6.4887 -2.01366,6.4887c0,0 -1.05562,1.86774 -6.7936,1.86774c-78.65324,0 -658.74295,0 -708.58624,0c-6.73298,0 -9.15304,-2.65569 -9.15304,-2.65569z" fill-opacity="0.99216" fill="#ededed" stroke="none" stroke-width="0" stroke-linecap="butt" stroke-linejoin="miter"/><path d="M49.80548,440.57283v-400.22235h712.89605v400.22235z" fill="#ffffff" stroke="none" stroke-width="0" stroke-linecap="butt" stroke-linejoin="miter"/><text transform="translate(59.90162,29.98647) scale(0.32582,0.32582)" font-size="40" xml:space="preserve" fill-opacity="0.95294" fill="#333333" stroke="none" stroke-width="1" stroke-linecap="butt" stroke-linejoin="miter" font-family="Sans Serif" font-weight="normal" text-anchor="start"><tspan x="0" dy="0">时钟</tspan></text><path d="M84.85252,407.8777c0,-7.09287 5.74991,-12.84278 12.84278,-12.84278c7.09287,0 12.84278,5.74991 12.84278,12.84278c0,7.09287 -5.74991,12.84278 -12.84278,12.84278c-7.09287,0 -12.84278,-5.74991 -12.84278,-12.84278z" fill="none" stroke="#404040" stroke-width="2" stroke-linecap="butt" stroke-linejoin="miter"/><path d="M106.52471,398.24561l2.40802,-2.40802" fill="none" stroke="#404040" stroke-width="2" stroke-linecap="round" stroke-linejoin="round"/><path d="M97.6953,407.8777v-4.81605" fill="none" stroke="#404040" stroke-width="2" stroke-linecap="round" stroke-linejoin="round"/><path d="M92.87926,407.8777h4.81604" fill="none" stroke="#404040" stroke-width="2" stroke-linecap="round" stroke-linejoin="round"/><path d="M59.68992,399.67131c0,-4.6895 1.65824,-7.87738 4.11983,-7.87738c15.84776,0 75.14332,0 84.19506,0c2.25871,0 4.11983,4.19379 4.11983,7.87738c0,6.24207 0,15.19813 0,25.78045c0,4.08817 -2.05155,7.00917 -4.49626,7.00917c-9.42726,0 -68.89796,0.50877 -84.06959,0.50877c-2.22792,0 -3.86887,-4.0607 -3.86887,-7.66032c0,0 0,-14.76817 0,-25.63807z" fill="url(#color-1)" stroke="none" stroke-width="0" stroke-linecap="butt" stroke-linejoin="miter"/><path d="M93.05738,413.77845c0,-6.26451 5.0784,-11.34292 11.3429,-11.34292c6.26458,0 11.34297,5.07841 11.34297,11.34292c0,6.26451 -5.07839,11.34291 -11.34297,11.34291c-6.26451,0 -11.3429,-5.0784 -11.3429,-11.34291z" fill="none" stroke="#000000" stroke-width="2" stroke-linecap="butt" stroke-linejoin="round"/><path d="M109.05957,418.81149l-4.80876,-4.80876l0.00074,-6.8112" fill="none" stroke="#000000" stroke-width="2" stroke-linecap="round" stroke-linejoin="round"/><path d="M96.35725,400.16702l-4.33094,3.09352" fill="none" stroke="#000000" stroke-width="2" stroke-linecap="round" stroke-linejoin="round"/><path d="M116.77451,403.26054l-4.33094,-3.09352" fill="none" stroke="#000000" stroke-width="2" stroke-linecap="round" stroke-linejoin="round"/><path d="M347.66246,399.52654c0,-4.6895 1.65824,-7.87738 4.11983,-7.87738c15.84776,0 75.14332,0 84.19506,0c2.25871,0 4.11983,4.19379 4.11983,7.87738c0,6.24207 0,15.19813 0,25.78045c0,4.08817 -2.05155,7.00917 -4.49626,7.00917c-9.42726,0 -68.89796,0.50877 -84.06959,0.50877c-2.22792,0 -3.86887,-4.0607 -3.86887,-7.66032c0,0 0,-14.76817 0,-25.63807z" fill="url(#color-2)" stroke="none" stroke-width="0" stroke-linecap="butt" stroke-linejoin="miter"/><path d="M664.88718,398.52208c0,-4.6895 1.65824,-7.87738 4.11983,-7.87738c15.84776,0 75.14332,0 84.19506,0c2.25871,0 4.11983,4.19379 4.11983,7.87738c0,6.24207 0,15.19813 0,25.78045c0,4.08817 -2.05155,7.00917 -4.49626,7.00917c-9.42726,0 -68.89796,0.50877 -84.06959,0.50877c-2.22792,0 -3.86887,-4.0607 -3.86887,-7.66032c0,0 0,-14.76817 0,-25.63807z" fill="url(#color-3)" stroke="none" stroke-width="0" stroke-linecap="butt" stroke-linejoin="miter"/><path d="M381.35226,414.23635c0,-6.57171 5.32747,-11.89918 11.89918,-11.89918c6.57171,0 11.89918,5.32747 11.89918,11.89918c0,6.57171 -5.32747,11.89918 -11.89918,11.89918c-6.57171,0 -11.89918,-5.32747 -11.89918,-11.89918z" fill="none" stroke="#000000" stroke-width="2" stroke-linecap="butt" stroke-linejoin="round"/><path d="M389.05173,398.13746h8.39942" fill="none" stroke="#000000" stroke-width="2" stroke-linecap="round" stroke-linejoin="round"/><path d="M393.25144,408.63674v5.59962" fill="none" stroke="#000000" stroke-width="2" stroke-linecap="round" stroke-linejoin="round"/><path d="M398.85106,414.23635h-5.59962" fill="none" stroke="#000000" stroke-width="2" stroke-linecap="round" stroke-linejoin="round"/><path d="M393.25144,398.13746v2.79981" fill="none" stroke="#000000" stroke-width="2" stroke-linecap="round" stroke-linejoin="round"/><path d="M699.12605,413.38113c0,-6.88709 5.58309,-12.47017 12.47017,-12.47017c6.88709,0 12.47017,5.58309 12.47017,12.47017c0,6.88709 -5.58309,12.47017 -12.47017,12.47017c-6.88709,0 -12.47017,-5.58309 -12.47017,-12.47017z" fill="none" stroke="#000000" stroke-width="2" stroke-linecap="butt" stroke-linejoin="miter"/><path d="M708.47868,394.67587h6.23509" fill="none" stroke="#000000" stroke-width="2" stroke-linecap="round" stroke-linejoin="round"/><path d="M711.59623,394.67587v6.23509" fill="none" stroke="#000000" stroke-width="2" stroke-linecap="round" stroke-linejoin="round"/><path d="M720.16947,404.0285l2.33816,-2.33816" fill="none" stroke="#000000" stroke-width="2" stroke-linecap="round" stroke-linejoin="round"/><path d="M711.59623,413.38113v-4.67631" fill="none" stroke="#000000" stroke-width="2" stroke-linecap="round" stroke-linejoin="round"/><path d="M711.59623,413.38113h-4.67631" fill="none" stroke="#000000" stroke-width="2" stroke-linecap="round" stroke-linejoin="round"/></g></g></svg>