<svg version="1.1" xmlns="http://www.w3.org/2000/svg" xmlns:xlink="http://www.w3.org/1999/xlink" width="26.17128" height="22.10518" viewBox="0,0,26.17128,22.10518"><g transform="translate(-663.46523,-49.24589)"><g stroke="none" stroke-miterlimit="10"><path d="M663.46523,71.35107v-22.10518h26.17128v22.10518z" fill="#fafafa" stroke-width="NaN"/><path d="M684.63394,65.17165l-3.19291,3.19291c-0.34264,0.34265 -0.80737,0.53514 -1.29194,0.53515h-10.20572c-1.00909,0 -1.82709,-0.818 -1.82709,-1.82709v-13.39818c0,-1.00909 0.818,-1.82709 1.82709,-1.82709h13.39863c1.00909,0 1.82709,0.818 1.82709,1.82709v10.20527c0,0.48457 -0.1925,0.9493 -0.53515,1.29194zM683.19424,64.02747h-2.89738v2.89738zM669.94337,53.67444v13.39818h8.5264v-3.95869c0,-0.50454 0.409,-0.91354 0.91354,-0.91354h3.95869v-8.52595z" fill="#2b2b2b" stroke-width="1"/></g></g></svg>