<svg version="1.1" xmlns="http://www.w3.org/2000/svg" xmlns:xlink="http://www.w3.org/1999/xlink" width="648.69834" height="33.70538" viewBox="0,0,648.69834,33.70538"><defs><linearGradient x1="355.53876" y1="402.76181" x2="355.53876" y2="436.27833" gradientUnits="userSpaceOnUse" id="color-1"><stop offset="0" stop-color="#9fbacc" stop-opacity="0.52549"/><stop offset="1" stop-color="#155aa3" stop-opacity="0.47451"/></linearGradient><linearGradient x1="355.64195" y1="402.95067" x2="355.64195" y2="436.46719" gradientUnits="userSpaceOnUse" id="color-2"><stop offset="0" stop-color="#155aa3" stop-opacity="0.47451"/><stop offset="1" stop-color="#acbfcc" stop-opacity="0.52549"/></linearGradient></defs><g transform="translate(-31.24119,-402.76181)"><g stroke="none" stroke-width="0" stroke-miterlimit="10"><path d="M31.24119,429.27344c0,-6.56821 0,-15.91717 0,-19.62788c0,-1.57458 0.96251,-3.42372 2.76522,-4.78303c1.6805,-1.26717 4.1022,-2.10072 6.85948,-2.10072c43.02078,0 551.93604,0 629.1727,0c6.36444,0 9.79775,3.87759 9.79775,6.93932c0,3.72159 0,13.07294 0,19.625c0,1.98495 -1.26808,3.58798 -2.87075,4.82474c-1.62454,1.25361 -3.60485,2.12746 -6.75228,2.12746c-76.64032,0 -586.29406,0 -629.34741,0c-5.71504,0 -9.62467,-2.98048 -9.62467,-7.0049z" fill="url(#color-1)"/><path d="M31.34438,429.4623c0,-6.56821 0,-15.91717 0,-19.62788c0,-1.57458 0.96251,-3.42372 2.76522,-4.78303c1.6805,-1.26717 4.1022,-2.10072 6.85948,-2.10072c43.02078,0 551.93604,0 629.1727,0c6.36444,0 9.79775,3.87759 9.79775,6.93932c0,3.72159 0,13.07294 0,19.625c0,1.98495 -1.26808,3.58798 -2.87075,4.82474c-1.62454,1.25361 -3.60485,2.12746 -6.75228,2.12746c-76.64032,0 -586.29406,0 -629.34741,0c-5.71504,0 -9.62467,-2.98048 -9.62467,-7.0049z" fill="url(#color-2)"/></g></g></svg>