<svg version="1.1" xmlns="http://www.w3.org/2000/svg" xmlns:xlink="http://www.w3.org/1999/xlink" width="20.89806" height="23.62749" viewBox="0,0,20.89806,23.62749"><defs><linearGradient x1="248.41698" y1="195.32741" x2="248.41698" y2="216.2467" gradientUnits="userSpaceOnUse" id="color-1"><stop offset="0" stop-color="#2089fa"/><stop offset="1" stop-color="#67a4d6"/></linearGradient><linearGradient x1="248.61567" y1="202.76655" x2="248.61567" y2="210.32053" gradientUnits="userSpaceOnUse" id="color-2"><stop offset="0" stop-color="#ffffff"/><stop offset="1" stop-color="#efefef"/></linearGradient></defs><g transform="translate(-237.96795,-195.32742)"><g stroke-miterlimit="10"><path d="M244.04592,218.17808l8.36172,0.02683" fill="none" stroke="#0e100e" stroke-width="1.5" stroke-linecap="round"/><path d="M251.62833,195.32917c2.07447,0.01827 4.4973,0.17172 5.78348,1.4579c1.27211,1.27211 1.43211,3.6521 1.45222,5.71024c0.00285,0.29071 0.00282,6.37521 -0.00149,6.71275c-0.02597,2.03159 -0.20578,4.35369 -1.45073,5.59865c-1.23125,1.23125 -3.50412,1.40874 -5.51588,1.43426c-0.36035,0.00457 -6.45422,0.00446 -6.73728,0.00224c-2.05989,-0.01615 -4.43925,-0.1601 -5.71565,-1.4365c-1.26278,-1.26278 -1.44581,-3.63376 -1.47206,-5.68572c-0.00393,-0.30715 -0.00427,-6.45061 0.00063,-6.80372c0.02806,-2.02088 0.21429,-4.31818 1.45014,-5.55403c1.24003,-1.24003 3.53658,-1.41122 5.55887,-1.43478c0.34536,-0.00403 6.38063,-0.00363 6.64775,-0.00128z" fill="url(#color-1)" stroke="none" stroke-width="0.47449" stroke-linecap="butt"/><path d="M241.69026,202.94829c0,-1.35504 1.09829,-2.45336 2.45362,-2.45338c1.28101,0 2.33228,0.98144 2.44321,2.23472c-0.57985,0.53256 -1.0171,1.22162 -1.24586,2.00596c-0.08121,-0.00519 -0.16292,-0.00764 -0.24411,-0.00764c-0.67345,0 -1.30432,0.18446 -1.84455,0.50608c-0.91412,-0.35602 -1.56229,-1.24461 -1.56229,-2.28573z" fill="#eeeeee" stroke="none" stroke-width="1" stroke-linecap="butt"/><path d="M255.18962,208.25145c0,0.74405 -0.30255,1.42087 -0.79068,1.90808c-0.48715,0.48786 -1.16403,0.79042 -1.90805,0.79042h-7.56736c-0.8249,0 -1.5749,-0.33546 -2.11555,-0.87633c-0.54063,-0.5402 -0.8761,-1.29041 -0.8761,-2.11556c0,-0.82493 0.33547,-1.57514 0.8761,-2.11534c0.54068,-0.5411 1.29065,-0.87656 2.11555,-0.87633c0.16819,0 0.3327,0.01508 0.49357,0.0418c0.16637,-0.78584 0.57606,-1.48164 1.14849,-2.00104c0.66588,-0.60463 1.55297,-0.97414 2.52322,-0.97391c1.03562,-0.00024 1.97617,0.42067 2.65439,1.09958c0.63251,0.63162 1.03631,1.49239 1.0891,2.44415c0.60806,0.07701 1.15534,0.35443 1.56667,0.7662c0.48809,0.48718 0.79065,1.16427 0.79065,1.90829zM254.48534,208.25136c0,-0.55184 -0.22257,-1.04818 -0.58407,-1.41037c-0.36059,-0.36011 -0.85487,-0.58226 -1.40442,-0.58407l-0.37386,0.01443l0.01327,-0.37865c0.00137,-0.04065 0.00274,-0.07541 0.00274,-0.1051c0,-0.84345 -0.34094,-1.60392 -0.89349,-2.15692c-0.553,-0.55276 -1.31348,-0.89347 -2.15669,-0.89347c-0.79015,0 -1.50724,0.29913 -2.04971,0.7911c-0.54202,0.49244 -0.90582,1.17543 -0.98444,1.94326l-0.04387,0.42733l-0.4104,-0.12683c-0.21387,-0.06627 -0.44057,-0.10192 -0.67685,-0.10192c-0.63251,0.00024 -1.20242,0.25571 -1.6174,0.67025c-0.41498,0.41498 -0.66998,0.98488 -0.67046,1.61764c0.00047,0.63297 0.25548,1.20266 0.67046,1.61764c0.41498,0.41474 0.98488,0.66998 1.6174,0.67022h7.56734c0.5521,-0.00024 1.04842,-0.22277 1.41037,-0.58431c0.36153,-0.36195 0.5841,-0.8583 0.58407,-1.41022z" fill="#eeeeee" stroke="none" stroke-width="1" stroke-linecap="butt"/><path d="M253.97906,209.73065c-0.36187,0.36146 -0.86184,0.58889 -1.41383,0.58913l-7.60469,0.00076c-0.63239,-0.00024 -1.20675,-0.26123 -1.62164,-0.67589c-0.41489,-0.41489 -0.67281,-0.99176 -0.67329,-1.6246c0.00047,-0.63262 0.25463,-1.20978 0.66952,-1.62468c0.41489,-0.41445 0.98534,-0.67513 1.61773,-0.67537c0.23623,0 0.51629,0.04816 0.73012,0.11442l0.35695,0.11412l0.04516,-0.43137c0.0786,-0.76767 0.4552,-1.46458 0.99711,-1.95692c0.54236,-0.49186 1.27565,-0.79369 2.06564,-0.79369c0.84303,0 1.6183,0.3478 2.17119,0.90044c0.55244,0.55288 0.90145,1.32791 0.90145,2.17118c0,0.0297 -0.00123,0.06521 -0.0026,0.10585l-0.01294,0.3814l0.37377,-0.01437c0.54944,0.00181 1.04361,0.22734 1.40412,0.58737c0.36143,0.36212 0.58287,0.86436 0.58287,1.41609c0.00003,0.55181 -0.22519,1.05424 -0.58666,1.41612z" fill="url(#color-2)" stroke="none" stroke-width="0.5" stroke-linecap="butt"/></g></g></svg>