<svg version="1.1" xmlns="http://www.w3.org/2000/svg" xmlns:xlink="http://www.w3.org/1999/xlink" width="411.27635" height="234.29815" viewBox="0,0,411.27635,234.29815"><g transform="translate(-33.42538,-55.3516)"><g stroke-miterlimit="10"><path d="M416.64732,76.8874v-18.875h22.40558v18.875z" fill="none" stroke="#000000" stroke-width="0"/><path d="M416.16848,75.93071v-18.8h22.08v18.8z" fill="none" stroke="#000000" stroke-width="0"/><path d="M34.67706,288.21582c0,0 -1.25168,-0.2384 -1.25168,-3.29866c0,-31.38584 0,-208.76225 0,-225.37763c0,-2.46008 0.88935,-3.22673 0.88935,-3.22673c0,0 0.52569,-0.9612 3.18915,-0.9612c41.0316,0 378.34277,0 402.66257,0c2.73474,0 3.4977,1.10301 3.4977,1.10301c0,0 1.03758,0.69561 1.03758,3.2425c0,16.91946 0,194.71178 0,225.44066c0,2.91992 -1.13641,3.50351 -1.13641,3.50351c0,0 -0.59573,1.00847 -3.83394,1.00847c-44.38776,0 -371.75987,0 -399.88881,0c-3.79974,0 -5.1655,-1.43392 -5.1655,-1.43392z" fill-opacity="0.99216" fill="#ededed" stroke="none" stroke-width="0"/><path d="M37.93703,286.47625v-216.09592h402.32104v216.09592z" fill="#ffffff" stroke="none" stroke-width="0"/><text transform="translate(43.63476,64.7844) scale(0.18388,0.17593)" font-size="40" xml:space="preserve" fill-opacity="0.95294" fill="#333333" stroke="none" stroke-width="1" font-family="Sans Serif" font-weight="normal" text-anchor="start"><tspan x="0" dy="0">更新内容</tspan></text><text transform="translate(47.6532,122.65598) scale(0.41184,0.41184)" font-size="40" xml:space="preserve" fill="#000000" stroke="none" stroke-width="1" font-family="&quot;Exo-Bold&quot;, Sans Serif" font-weight="normal" text-anchor="start"><tspan x="0" dy="0"> </tspan><tspan x="0" dy="46.150000000000006px">修改了一些图标，ui</tspan><tspan x="0" dy="46.150000000000006px">睡眠界面更改</tspan><tspan x="0" dy="46.150000000000006px">修复了一些bug</tspan><tspan x="0" dy="46.150000000000006px">添加了动画</tspan><tspan x="0" dy="46.150000000000006px">删除了一些无用的功能</tspan><tspan x="0" dy="46.150000000000006px"> 加入了2048小游戏</tspan></text><text transform="translate(43.76724,116.96177) scale(0.5,0.5)" font-size="40" xml:space="preserve" fill="#000000" stroke="#000000" stroke-width="1" font-family="&quot;Exo-Bold&quot;, Sans Serif" font-weight="normal" text-anchor="start"><tspan x="0" dy="0">正式版0.75 v2更新内容</tspan></text></g></g></svg>