<svg version="1.1" xmlns="http://www.w3.org/2000/svg" xmlns:xlink="http://www.w3.org/1999/xlink" width="567.36991" height="337.83349" viewBox="0,0,567.36991,337.83349"><g transform="translate(-142.78203,-71.84272)"><g stroke="none" stroke-miterlimit="10"><path d="M144.50879,407.60865c0,0 -1.72675,-0.34374 -1.72675,-4.75632c0,-45.2551 0,-301.0134 0,-324.97104c0,-3.54717 1.2269,-4.65262 1.2269,-4.65262c0,0 0.72521,-1.38594 4.39955,-1.38594c56.6045,0 521.93688,0 555.48688,0c3.77268,0 4.8252,1.59042 4.8252,1.59042c0,0 1.43138,1.003 1.43138,4.67535c0,24.39609 0,280.75408 0,325.06193c0,4.21021 -1.56771,5.05169 -1.56771,5.05169c0,0 -0.82183,1.4541 -5.28906,1.4541c-61.23443,0 -512.85557,0 -551.6604,0c-5.24187,0 -7.12597,-2.06756 -7.12597,-2.06756z" fill-opacity="0.99216" fill="#ededed" stroke-width="0"/><path d="M149.00605,405.10038v-311.58779h555.01574v311.58779z" fill="#ffffff" stroke-width="0"/><text transform="translate(156.86626,85.44384) scale(0.25367,0.25367)" font-size="40" xml:space="preserve" fill-opacity="0.95294" fill="#333333" stroke-width="1" font-family="Sans Serif" font-weight="normal" text-anchor="start"><tspan x="0" dy="0">写字薄</tspan></text></g></g></svg>