<svg version="1.1" xmlns="http://www.w3.org/2000/svg" xmlns:xlink="http://www.w3.org/1999/xlink" width="11.25005" height="9.75005" viewBox="0,0,11.25005,9.75005"><g transform="translate(-394.37497,-220.12497)"><g data-paper-data="{&quot;isPaintingLayer&quot;:true}" fill="#e1ccb1" fill-rule="nonzero" stroke="none" stroke-width="1" stroke-linecap="butt" stroke-linejoin="miter" stroke-miterlimit="10" stroke-dasharray="" stroke-dashoffset="0" style="mix-blend-mode: normal"><path d="M395.5,229.875c-0.15095,0.00107 -0.30052,-0.02885 -0.43945,-0.08789c-0.26969,-0.11343 -0.48423,-0.32797 -0.59766,-0.59766c-0.05904,-0.13893 -0.08895,-0.2885 -0.08789,-0.43945v-7.5c-0.00106,-0.15095 0.02885,-0.30052 0.08789,-0.43945c0.11343,-0.26969 0.32797,-0.48424 0.59766,-0.59766c0.13893,-0.05904 0.2885,-0.08895 0.43945,-0.08789h2.8125c0.35465,0.00155 0.68831,0.16837 0.90234,0.45117c0.13282,0.17578 0.26368,0.35059 0.39258,0.52442c0.1289,0.17383 0.25976,0.34864 0.39258,0.52441h4.5c0.15095,-0.00107 0.30052,0.02885 0.43945,0.08789c0.26969,0.11343 0.48424,0.32797 0.59766,0.59766c0.05904,0.13893 0.08895,0.2885 0.08789,0.43945v6c0.00106,0.15095 -0.02885,0.30052 -0.08789,0.43945c-0.11343,0.26969 -0.32797,0.48424 -0.59766,0.59766c-0.13893,0.05904 -0.2885,0.08895 -0.43945,0.08789z"/></g></g></svg>