<svg version="1.1" xmlns="http://www.w3.org/2000/svg" xmlns:xlink="http://www.w3.org/1999/xlink" width="265.28596" height="36.01652" viewBox="0,0,265.28596,36.01652"><g transform="translate(-160.48789,-166.60671)"><g fill="#f4f1f1" stroke-opacity="0.01176" stroke="#000000" stroke-width="2.5" stroke-miterlimit="10"><path d="M161.73789,194.36834c0,-6.56821 0,-15.91717 0,-19.62788c0,-1.57458 0.38997,-3.42372 1.12036,-4.78303c0.68087,-1.26717 1.66206,-2.10072 2.7792,-2.10072c17.43037,0 223.62338,0 254.91673,0c2.57862,0 3.96967,3.87759 3.96967,6.93932c0,3.72159 0,13.07294 0,19.625c0,1.98495 -0.51377,3.58798 -1.16311,4.82474c-0.6582,1.25361 -1.46055,2.12746 -2.73576,2.12746c-31.05173,0 -237.54394,0 -254.98751,0c-2.31552,0 -3.89954,-2.98048 -3.89954,-7.0049z"/></g></g></svg>