<svg version="1.1" xmlns="http://www.w3.org/2000/svg" xmlns:xlink="http://www.w3.org/1999/xlink" width="23.54778" height="23.57169" viewBox="0,0,23.54778,23.57169"><g transform="translate(-388.22611,-213.21415)"><g stroke-miterlimit="10"><path d="M403.61853,213.21613c2.3375,0.02059 5.06752,0.19349 6.51678,1.64276c1.43341,1.43341 1.61369,4.11515 1.63636,6.43425c0.00321,0.32757 0.00318,7.18354 -0.00167,7.56387c-0.02926,2.28918 -0.23187,4.90571 -1.63468,6.30852c-1.38737,1.38737 -3.94842,1.58736 -6.21526,1.61611c-0.40604,0.00515 -7.27257,0.00503 -7.59152,0.00252c-2.32107,-0.0182 -5.00211,-0.1804 -6.44035,-1.61863c-1.42289,-1.42289 -1.62912,-4.0945 -1.6587,-6.40663c-0.00443,-0.34609 -0.00481,-7.2685 0.00071,-7.66638c0.03162,-2.27712 0.24146,-4.8657 1.634,-6.25824c1.39726,-1.39726 3.985,-1.59016 6.26369,-1.6167c0.38915,-0.00454 7.18965,-0.00409 7.49063,-0.00144z" fill="#fffcfc" fill-rule="nonzero" stroke="none" stroke-width="0.47449" stroke-linecap="butt" stroke-linejoin="miter"/><path d="M398.22369,217.43157h3.55263v3.55265h6.66119v3.55263h-16.875v-3.55263h6.66119z" fill="none" fill-rule="evenodd" stroke="#1c274c" stroke-width="1" stroke-linecap="round" stroke-linejoin="round"/><path d="M392.89474,224.575h14.21053v7.99342h-14.21053z" fill="none" fill-rule="nonzero" stroke="#1c274c" stroke-width="1" stroke-linecap="butt" stroke-linejoin="round"/><path d="M396.44737,231.77295v-2.65715" fill="none" fill-rule="nonzero" stroke="#525252" stroke-width="1" stroke-linecap="round" stroke-linejoin="round"/><path d="M400,231.77299v-2.66447" fill="none" fill-rule="nonzero" stroke="#525252" stroke-width="1" stroke-linecap="round" stroke-linejoin="round"/><path d="M403.55263,231.77295v-2.65715" fill="none" fill-rule="nonzero" stroke="#525252" stroke-width="1" stroke-linecap="round" stroke-linejoin="round"/></g></g></svg>