<svg version="1.1" xmlns="http://www.w3.org/2000/svg" xmlns:xlink="http://www.w3.org/1999/xlink" width="324.5" height="221.65947" viewBox="0,0,324.5,221.65947"><g transform="translate(-48.5,-41.34055)"><g stroke-miterlimit="10"><path d="M50,68.00001v-24h322v24z" fill="#f2eaa3" stroke="#000000" stroke-width="2" stroke-linecap="butt"/><path d="M49.5,262.00002v-194h322v194z" fill-opacity="0.5098" fill="#f2f2f2" stroke="#000000" stroke-width="2" stroke-linecap="butt"/><path d="M329,60.50002l-0.5,-16.5" fill="none" stroke="none" stroke-width="0" stroke-linecap="round"/><path d="M337,44.00002l0.5,23" fill="none" stroke="#000000" stroke-width="1.5" stroke-linecap="round"/><path d="M309.5,66.00001l-0.5,-22.5" fill="none" stroke="#000000" stroke-width="1.5" stroke-linecap="round"/><path d="M284.5,44.50002v22" fill="none" stroke="#000000" stroke-width="1.5" stroke-linecap="round"/><path d="M288,56.00002h17" fill="none" stroke="#000000" stroke-width="1.5" stroke-linecap="round"/><path d="M314.5,64.00001v-15.5h19v15.5z" fill="#f2eaa3" stroke="#000000" stroke-width="1.5" stroke-linecap="butt"/><text transform="translate(65,61.09389) scale(0.45938,0.45938)" font-size="40" xml:space="preserve" fill="#000000" stroke="none" stroke-width="1" stroke-linecap="butt" font-family="Sans Serif" font-weight="normal" text-anchor="start"><tspan x="0" dy="0">壁纸选择</tspan></text><path d="M344.5,48.00001l16.5,14.5" fill="none" stroke="#000000" stroke-width="1.5" stroke-linecap="round"/><path d="M359.5,49.00001l-16.5,13" fill="none" stroke="#000000" stroke-width="1.5" stroke-linecap="round"/><text transform="translate(55.5,93.50302) scale(0.52898,0.52898)" font-size="40" xml:space="preserve" fill="#000000" stroke="none" stroke-width="1" stroke-linecap="butt" font-family="Pixel" font-weight="normal" text-anchor="start"><tspan x="0" dy="0">请先选择一个壁纸</tspan></text><path d="M369.75,58c0,4.14214 -3.35786,7.5 -7.5,7.5c-3.09017,0 -5.74384,-1.86887 -6.89241,-4.53801c-0.68014,3.44228 -3.71573,6.03801 -7.35759,6.03801c-4.14214,0 -7.5,-3.35786 -7.5,-7.5c0,-0.29592 0.01714,-0.58783 0.05048,-0.87481c-1.12248,-1.31105 -1.80048,-3.01394 -1.80048,-4.87519c0,-4.14214 3.35786,-7.5 7.5,-7.5c2.51028,0 4.73251,1.23327 6.09386,3.12697c1.37293,-1.75152 3.5081,-2.87697 5.90614,-2.87697c3.10896,0 5.7761,1.89167 6.9132,4.5868c2.69513,1.13711 4.5868,3.80424 4.5868,6.9132z" fill="#f2eaa3" stroke="none" stroke-width="0.5" stroke-linecap="butt"/></g></g></svg>