<svg version="1.1" xmlns="http://www.w3.org/2000/svg" xmlns:xlink="http://www.w3.org/1999/xlink" width="22.56472" height="24.73655" viewBox="0,0,22.56472,24.73655"><defs><linearGradient x1="252.52125" y1="194.322" x2="252.52125" y2="216.90965" gradientUnits="userSpaceOnUse" id="color-1"><stop offset="0" stop-color="#fcbb4c"/><stop offset="1" stop-color="#cb811a"/></linearGradient></defs><g transform="translate(-241.23888,-194.32201)"><g stroke-miterlimit="10"><path d="M255.98871,194.32391c2.23991,0.01973 4.85597,0.18542 6.24473,1.57417c1.37356,1.37356 1.54632,3.94336 1.56804,6.16564c0.00308,0.31389 0.00304,6.88365 -0.00161,7.24811c-0.02804,2.19361 -0.22219,4.70091 -1.56643,6.04515c-1.32944,1.32944 -3.78358,1.52109 -5.95578,1.54865c-0.38909,0.00493 -6.96896,0.00482 -7.27459,0.00242c-2.22417,-0.01744 -4.79329,-0.17287 -6.17149,-1.55106c-1.36349,-1.36349 -1.56112,-3.92356 -1.58946,-6.13917c-0.00424,-0.33165 -0.00461,-6.96506 0.00068,-7.34633c0.0303,-2.18205 0.23138,-4.66256 1.56579,-5.99698c1.33893,-1.33893 3.81863,-1.52377 6.0022,-1.54921c0.3729,-0.00435 6.8895,-0.00392 7.17792,-0.00138z" fill="url(#color-1)" stroke="none" stroke-width="0.47449" stroke-linecap="butt" stroke-linejoin="miter"/><path d="M254.152,201.62897h-4.36714" fill="none" stroke="#000000" stroke-width="1.5" stroke-linecap="round" stroke-linejoin="round"/><path d="M251.96842,201.99289v4.73107" fill="none" stroke="#000000" stroke-width="1.5" stroke-linecap="round" stroke-linejoin="round"/><path d="M250.92864,211.81897h-4.41916c-0.40198,0 -0.72786,-0.32586 -0.72786,-0.72786v-12.00965c0,-0.40198 0.32587,-0.72786 0.72786,-0.72786h11.64572c0.40199,0 0.72786,0.32587 0.72786,0.72786v3.53619" fill="none" stroke="#000000" stroke-width="1.5" stroke-linecap="round" stroke-linejoin="round"/><path d="M253.42413,210.36325l3.82125,-5.27697l1.63768,1.27375l-4.00321,5.45894h-1.45571z" fill="#f9f9f9" stroke="#000000" stroke-width="1.5" stroke-linecap="round" stroke-linejoin="round"/><path d="M248.77448,218.28173l8.36172,0.02683" fill="none" stroke="#0e100e" stroke-width="1.5" stroke-linecap="round" stroke-linejoin="miter"/></g></g></svg>