<svg version="1.1" xmlns="http://www.w3.org/2000/svg" xmlns:xlink="http://www.w3.org/1999/xlink" width="178.34306" height="80.58983" viewBox="0,0,178.34306,80.58983"><defs><linearGradient x1="97.46262" y1="87.51397" x2="97.46262" y2="129.4513" gradientUnits="userSpaceOnUse" id="color-1"><stop offset="0" stop-color="#e6fcf1"/><stop offset="1" stop-color="#99ffcf"/></linearGradient></defs><g transform="translate(-75.49395,-86.51397)"><g stroke-miterlimit="10"><text transform="translate(123.43537,121.07823) scale(0.48257,0.48257)" font-size="40" xml:space="preserve" fill-opacity="0.98431" fill="#737373" fill-rule="nonzero" stroke-opacity="0.98431" stroke="#ffffff" stroke-width="1" stroke-linecap="butt" stroke-linejoin="miter" font-family="Pixel" font-weight="normal" text-anchor="start"><tspan x="0" dy="0">你好，新用户</tspan></text><text transform="translate(76.60019,146.46564) scale(0.36431,0.36431)" font-size="40" xml:space="preserve" fill-opacity="0.98431" fill="#737373" fill-rule="nonzero" stroke="none" stroke-width="1" stroke-linecap="butt" stroke-linejoin="miter" font-family="Pixel" font-weight="normal" text-anchor="start"><tspan x="0" dy="0">欢迎使用zx Leaf Green </tspan><tspan x="0" dy="46.15px"> 注册一个账号吧！</tspan></text><path d="M76.49395,108.48264c0,-11.58069 9.38799,-20.96867 20.96867,-20.96867c11.58069,0 20.96867,9.38799 20.96867,20.96867c0,11.58069 -9.38799,20.96867 -20.96867,20.96867c-11.58069,0 -20.96867,-9.38799 -20.96867,-20.96867z" fill="url(#color-1)" fill-rule="evenodd" stroke="#ffffff" stroke-width="2" stroke-linecap="round" stroke-linejoin="round"/><path d="M91.6358,105.38813c0,-3.21803 2.60879,-5.82682 5.82682,-5.82682c3.21803,0 5.82682,2.60879 5.82682,5.82682c0,3.21803 -2.60879,5.82681 -5.82682,5.82681c-3.21803,0 -5.82682,-2.60878 -5.82682,-5.82681z" fill="none" fill-rule="nonzero" stroke="#ffffff" stroke-width="2" stroke-linecap="butt" stroke-linejoin="round"/><path d="M82.9921,122.64524c0.36444,-5.52571 4.96185,-9.89485 10.5798,-9.89485h8.48251c5.61054,0 10.2033,4.35757 10.57843,9.8729" fill="none" fill-rule="nonzero" stroke="#ffffff" stroke-width="2" stroke-linecap="round" stroke-linejoin="round"/></g></g></svg>