<svg version="1.1" xmlns="http://www.w3.org/2000/svg" xmlns:xlink="http://www.w3.org/1999/xlink" width="18.34605" height="16.51075" viewBox="0,0,18.34605,16.51075"><g transform="translate(-171.68625,-155.78506)"><g stroke-miterlimit="10"><path d="M172.08337,172.04581v-15.24335c0.87856,0.06704 1.75081,0.04874 2.44981,0.0105c0.30978,-0.01695 0.65817,-0.07705 1.02967,-0.16574c2.93057,0.5283 6.3379,0.78806 7.36227,-0.28085c0.05953,-0.06212 0.11652,-0.12607 0.17128,-0.19168c1.37849,-0.0601 2.85075,-0.12654 5.74058,-0.05227c0.32297,0.0083 0.63703,0.03835 0.94533,0.08168v15.84171z" fill="#e6e6e6" stroke="#f2f2f2" stroke-width="0.5" stroke-linecap="butt" stroke-linejoin="miter"/><path d="M189.34921,156.28506l-17.16295,0.32527" fill="none" stroke="#e6e6e6" stroke-width="1" stroke-linecap="round" stroke-linejoin="miter"/><path d="M176.37687,156.79742l8.54878,-0.0417" fill="none" stroke="#e6e6e6" stroke-width="1" stroke-linecap="round" stroke-linejoin="miter"/><path d="M178.21173,157.42295l3.71142,-0.62552" fill="none" stroke="#e6e6e6" stroke-width="1" stroke-linecap="round" stroke-linejoin="miter"/><path d="M175.44459,156.98939l-2.93324,0.08713" fill="none" stroke="#e6e6e6" stroke-width="1" stroke-linecap="round" stroke-linejoin="miter"/><path d="M174.73278,163.97223h12.16668" fill="none" stroke="#4e4e4e" stroke-width="1" stroke-linecap="round" stroke-linejoin="round"/><path d="M178.7883,168.02779l-4.05555,-4.05556l4.05555,-4.05556" fill="none" stroke="#4e4e4e" stroke-width="1" stroke-linecap="round" stroke-linejoin="round"/></g></g></svg>