<svg version="1.1" xmlns="http://www.w3.org/2000/svg" xmlns:xlink="http://www.w3.org/1999/xlink" width="192.52207" height="27.07961" viewBox="0,0,192.52207,27.07961"><g transform="translate(-275.96939,-111.28355)"><g stroke-miterlimit="10"><path d="M277.06059,136.35229c0,0 -0.5912,-0.01026 -0.5912,-2.26896c0,-5.39887 0,-15.01178 0,-18.13836c0,-1.93231 0.78827,-2.91332 0.78827,-2.91332c0,0 0.78052,-1.2481 2.98213,-1.2481c13.7929,0 151.08016,0 181.71267,0c3.87117,0 3.81061,1.1999 3.81061,1.1999c0,0 2.22839,1.49559 2.22839,3.702c0,3.16055 0,12.02296 0,17.22721c0,2.34736 -1.45703,3.17913 -1.45703,3.17913c0,0 -0.39219,0.77137 -3.72491,0.77137c-28.92069,0 -169.55556,0 -182.91856,0c-2.00997,0 -2.83038,-1.51086 -2.83038,-1.51086z" fill-opacity="0.89412" fill="#f7f7f7" stroke="#ffffff"/><text transform="translate(279.20716,126.28264) scale(0.26797,0.26797)" font-size="40" xml:space="preserve" fill-opacity="0.8549" fill="#e2e2e2" stroke="none" font-family="Sans Serif" font-weight="normal" text-anchor="start"><tspan x="0" dy="0">输入用户名</tspan></text></g></g></svg>