<svg version="1.1" xmlns="http://www.w3.org/2000/svg" xmlns:xlink="http://www.w3.org/1999/xlink" width="17.38274" height="17.38273" viewBox="0,0,17.38274,17.38273"><g transform="translate(-391.30863,-216.30863)"><g data-paper-data="{&quot;isPaintingLayer&quot;:true}" fill="none" fill-rule="nonzero" stroke="#e1ccb1" stroke-width="1.5" stroke-linecap="round" stroke-miterlimit="10" stroke-dasharray="" stroke-dashoffset="0" style="mix-blend-mode: normal"><g><path d="M405.55896,228.97068v2.77948h-5.16189" stroke-linejoin="round"/><path d="M400.39707,218.24984h5.16189v2.77948" stroke-linejoin="round"/><path d="M400.39707,229.06725v3.87412l-5.95602,-2.13674v-1.83394" stroke-linejoin="round"/><path d="M394.44104,221.0186v-1.82324l5.95602,-2.13672v3.95996" stroke-linejoin="round"/><path d="M392.85277,228.97068c-0.43859,0 -0.79414,-0.35555 -0.79414,-0.79414v-6.35309c0,-0.43859 0.35555,-0.79414 0.79414,-0.79414h14.29446c0.43859,0 0.79414,0.35555 0.79414,0.79414v6.35309c0,0.43859 -0.35555,0.79414 -0.79414,0.79414z" stroke-linejoin="round"/><path d="M394.44104,223.01466v3.97068" stroke-linejoin="miter"/><path d="M398.80879,223.01466v3.97068" stroke-linejoin="miter"/><path d="M404.36775,223.41172v3.17655" stroke-linejoin="round"/><path d="M405.55896,223.41173h-1.1912h-1.1912" stroke-linejoin="round"/><path d="M394.44104,223.01466h1.1912c0.6579,0 1.1912,0.5333 1.1912,1.1912v0c0,0.6579 -0.5333,1.1912 -1.1912,1.1912h-1.1912" stroke-linejoin="round"/><path d="M398.80879,223.01466h1.1912c0.6579,0 1.1912,0.5333 1.1912,1.1912v0c0,0.6579 -0.5333,1.1912 -1.1912,1.1912h-1.1912" stroke-linejoin="round"/></g></g></g></svg>