<svg version="1.1" xmlns="http://www.w3.org/2000/svg" xmlns:xlink="http://www.w3.org/1999/xlink" width="289.69417" height="26.75" viewBox="0,0,289.69417,26.75"><g transform="translate(-40.39693,-164.42747)"><g stroke-miterlimit="10"><path d="M149.90893,187.09048c0,-4.96121 0,-11.00794 0,-13.93637c0,-1.63502 2.01579,-4.19162 4.36188,-4.19162c23.95642,0 158.1292,0 171.9476,0c2.24855,0 3.87269,2.12381 3.87269,3.94703c0,2.80615 0,9.17156 0,14.18096c0,2.33352 -1.84965,3.94703 -4.36188,3.94703c-14.98979,0 -155.384,0 -172.43678,0c-1.09217,0 -3.38351,-2.1507 -3.38351,-3.94703z" fill="#ffffff" stroke="#000000" stroke-width="0" stroke-linecap="butt" stroke-linejoin="miter"/><text transform="translate(257.07343,182.71232) scale(0.2487,0.2487)" font-size="40" xml:space="preserve" fill="#505050" stroke="none" stroke-width="1" stroke-linecap="butt" stroke-linejoin="miter" font-family="&quot;Microsoft YaHei&quot;, &quot;微软雅黑&quot;, STXihei, &quot;华文细黑&quot;" font-weight="normal" text-anchor="start"><tspan x="0" dy="0">修改账户名称</tspan></text><text transform="translate(40.64693,185.92747) scale(0.5,0.5)" font-size="40" xml:space="preserve" fill="#505050" stroke="none" stroke-width="1" stroke-linecap="butt" stroke-linejoin="miter" font-family="&quot;Microsoft YaHei&quot;, &quot;微软雅黑&quot;, STXihei, &quot;华文细黑&quot;" font-weight="normal" text-anchor="start"><tspan x="0" dy="0"> </tspan></text><path d="M168.33959,180.46032v4.79646c0,0.37844 -0.30676,0.6852 -0.6852,0.6852h-10.96333c-0.37843,0 -0.68521,-0.30676 -0.68521,-0.6852v-10.96333c0,-0.37843 0.30678,-0.68521 0.68521,-0.68521h4.79646" fill="none" stroke="#000000" stroke-width="1" stroke-linecap="round" stroke-linejoin="round"/><path d="M165.8369,173.60823l2.50269,2.50378l-7.08601,7.08913h-2.5069v-2.49419z" fill="none" stroke="#000000" stroke-width="1" stroke-linecap="butt" stroke-linejoin="round"/></g></g></svg>