<svg version="1.1" xmlns="http://www.w3.org/2000/svg" xmlns:xlink="http://www.w3.org/1999/xlink" width="27.07455" height="19.55844" viewBox="0,0,27.07455,19.55844"><g transform="translate(-194.63111,-93.84956)"><g stroke="#000000" stroke-miterlimit="10"><path d="M195.38111,112.658v-18.05844h25.57455v18.05844z" fill-opacity="0.5098" fill="#b3ff6c" stroke-width="1.5" stroke-linecap="butt" stroke-linejoin="miter"/><path d="M210.05643,108.30754h4.30634M215.22403,110.19156l-0.86126,-1.88402zM209.19517,110.19156l0.86126,-1.88402zM210.05643,108.30754l2.15317,-4.89845l2.15317,4.89845z" fill="none" stroke-width="1" stroke-linecap="round" stroke-linejoin="round"/><path d="M205.42713,96.62662l0.3768,1.13041" fill="none" stroke-width="1" stroke-linecap="round" stroke-linejoin="round"/><path d="M201.65909,98.51064h8.28968" fill="none" stroke-width="1" stroke-linecap="round" stroke-linejoin="round"/><path d="M209.94877,106.42352c0,0 -2.7368,-1.04849 -4.42247,-2.35913c-1.68571,-1.3106 -2.36,-3.66973 -2.36,-3.66973" fill="none" stroke-width="1" stroke-linecap="round" stroke-linejoin="round"/><path d="M208.44156,98.51064c0,0 -0.67429,3.09635 -2.36,4.81653c-1.68567,1.72018 -4.42247,3.09635 -4.42247,3.09635" fill="none" stroke-width="1" stroke-linecap="round" stroke-linejoin="round"/></g></g></svg>