<svg version="1.1" xmlns="http://www.w3.org/2000/svg" xmlns:xlink="http://www.w3.org/1999/xlink" width="308.41127" height="24.03555" viewBox="0,0,308.41127,24.03555"><defs><linearGradient x1="338.75954" y1="147.54348" x2="338.75954" y2="162.57981" gradientUnits="userSpaceOnUse" id="color-1"><stop offset="0" stop-color="#fab321"/><stop offset="1" stop-color="#fcd751"/></linearGradient></defs><g transform="translate(-321.81973,-141.90577)"><g stroke-miterlimit="10"><path d="M321.81973,160.24007c0,-3.09396 0,-7.85281 0,-9.69697c0,-2.50379 3.4799,-5.53076 9.31612,-5.53076c27.53257,0 239.91381,0 289.64614,0c6.73087,0 9.44901,3.31191 9.44901,5.92979c0,1.79999 0,6.35432 0,9.29794c0,3.37251 -2.79963,5.70125 -9.66563,5.70125c-50.07083,0 -261.49535,0 -289.2129,0c-5.94787,0 -9.53274,-2.31286 -9.53274,-5.70125z" fill="#f9f9f9" stroke="none" stroke-width="0" stroke-linecap="butt" stroke-linejoin="miter"/><text transform="translate(369.38117,158.38009) scale(0.23741,0.23741)" font-size="40" xml:space="preserve" fill="#515151" stroke="none" stroke-width="1" stroke-linecap="butt" stroke-linejoin="miter" font-family="Sans Serif" font-weight="normal" text-anchor="start"><tspan x="0" dy="0">视频</tspan></text><path d="M351.2663,144.98206c0.90541,1.10441 2.40474,0.29421 2.40474,2.74082c0,2.16203 -2.24225,2.63594 -3.75675,2.25731c-2.68632,-0.67158 -2.27651,-3.50046 -6.45307,-3.55474c-0.97968,-0.01273 -4.84712,1.25421 -7.2799,1.83886c-0.3546,0.21953 -0.7727,0.34626 -1.22041,0.34626c-0.17848,0 -0.35226,-0.02014 -0.51918,-0.05827c-1.03228,-0.23581 -1.80251,-1.15967 -1.80251,-2.26342c0,-1.18976 0.89494,-2.17051 2.04837,-2.30577c4.3884,-3.00028 13.44683,-2.82132 16.5787,0.99895z" fill-opacity="0.00784" fill="#9966ff" stroke="none" stroke-width="0.5" stroke-linecap="butt" stroke-linejoin="miter"/><path d="M341.06779,147.54475c1.49108,0.01313 3.23256,0.12343 4.15704,1.04791c0.91436,0.91436 1.02937,2.62505 1.04382,4.10439c0.00205,0.20896 0.00203,4.58236 -0.00107,4.82498c-0.01867,1.46026 -0.14791,3.12934 -1.04275,4.02419c-0.885,0.885 -2.51868,1.01257 -3.96469,1.03091c-0.25901,0.00328 -4.63915,0.00321 -4.84261,0.00161c-1.4806,-0.01161 -3.19083,-0.11508 -4.10828,-1.03252c-0.90766,-0.90766 -1.03922,-2.61187 -1.05808,-4.08677c-0.00282,-0.22077 -0.00307,-4.63656 0.00045,-4.89036c0.02017,-1.45256 0.15403,-3.10381 1.04233,-3.99211c0.89131,-0.89131 2.54202,-1.01435 3.99559,-1.03129c0.24824,-0.0029 4.58626,-0.00261 4.77826,-0.00092z" fill="url(#color-1)" stroke="none" stroke-width="0.47449" stroke-linecap="butt" stroke-linejoin="miter"/><path d="M343.70223,150.88857v8.20938c0,0.45341 -0.36753,0.82094 -0.82094,0.82094h-8.20938c-0.45339,0 -0.82094,-0.36753 -0.82094,-0.82094v-8.20938c0,-0.45339 0.36755,-0.82094 0.82094,-0.82094h8.20938c0.45341,0 0.82094,0.36755 0.82094,0.82094z" fill-opacity="0.92549" fill="#ffdc69" stroke="#fcfcfc" stroke-width="1" stroke-linecap="round" stroke-linejoin="round"/><path d="M337.81885,156.08784v-1.6589l1.43664,0.82945l1.43664,0.82945l-1.43664,0.82945l-1.43664,0.82945z" fill="#fcfcfc" stroke-opacity="0.92549" stroke="#fff8e2" stroke-width="1" stroke-linecap="round" stroke-linejoin="round"/><path d="M333.85098,152.53044h9.85125" fill="none" stroke="#fcfcfc" stroke-width="1" stroke-linecap="round" stroke-linejoin="round"/><path d="M341.23942,150.06763l-1.64188,2.46281" fill="none" stroke="#fcfcfc" stroke-width="1" stroke-linecap="round" stroke-linejoin="round"/><path d="M337.95567,150.06763l-1.64188,2.46281" fill="none" stroke="#fcfcfc" stroke-width="1" stroke-linecap="round" stroke-linejoin="round"/></g></g></svg>