<svg version="1.1" xmlns="http://www.w3.org/2000/svg" xmlns:xlink="http://www.w3.org/1999/xlink" width="308.41127" height="20.92898" viewBox="0,0,308.41127,20.92898"><defs><linearGradient x1="339.85859" y1="147.01262" x2="339.85859" y2="163.91919" gradientUnits="userSpaceOnUse" id="color-1"><stop offset="0" stop-color="#fcbb4c"/><stop offset="1" stop-color="#cb811a"/></linearGradient></defs><g transform="translate(-321.81972,-145.01234)"><g stroke-miterlimit="10"><path d="M321.81972,160.24007c0,-3.09396 0,-7.85281 0,-9.69697c0,-2.50379 3.4799,-5.53076 9.31612,-5.53076c27.53257,0 239.91381,0 289.64614,0c6.73087,0 9.44901,3.31191 9.44901,5.92979c0,1.79999 0,6.35432 0,9.29794c0,3.37251 -2.79963,5.70125 -9.66563,5.70125c-50.07083,0 -261.49535,0 -289.2129,0c-5.94787,0 -9.53274,-2.31286 -9.53274,-5.70125z" fill="#f9f9f9" stroke="none" stroke-width="0" stroke-linecap="butt" stroke-linejoin="miter"/><text transform="translate(369.38116,158.38009) scale(0.23741,0.23741)" font-size="40" xml:space="preserve" fill="#515151" stroke="none" stroke-width="1" stroke-linecap="butt" stroke-linejoin="miter" font-family="Sans Serif" font-weight="normal" text-anchor="start"><tspan x="0" dy="0">写字薄</tspan></text><path d="M342.45395,147.01403c1.67655,0.01477 3.63463,0.13878 4.6741,1.17825c1.0281,1.0281 1.1574,2.95156 1.17366,4.61491c0.0023,0.23495 0.00228,5.15232 -0.0012,5.42512c-0.02099,1.64189 -0.16631,3.51857 -1.17245,4.52472c-0.99507,0.99507 -2.83196,1.13852 -4.45783,1.15914c-0.29123,0.00369 -5.21618,0.0036 -5.44494,0.00181c-1.66476,-0.01305 -3.58772,-0.12939 -4.61928,-1.16095c-1.02055,-1.02055 -1.16848,-2.93674 -1.18969,-4.59509c-0.00318,-0.24823 -0.00345,-5.21326 0.00051,-5.49864c0.02268,-1.63324 0.17319,-3.48987 1.17198,-4.48866c1.00217,-1.00217 2.8582,-1.14052 4.49257,-1.15956c0.27911,-0.00326 5.1567,-0.00293 5.37259,-0.00103z" fill="url(#color-1)" stroke="none" stroke-width="0.47449" stroke-linecap="butt" stroke-linejoin="miter"/><path d="M341.07919,152.48178h-3.26875" fill="none" stroke="#000000" stroke-width="1" stroke-linecap="round" stroke-linejoin="round"/><path d="M339.44481,156.29533v-3.54115" fill="none" stroke="#000000" stroke-width="1" stroke-linecap="round" stroke-linejoin="round"/><path d="M338.66655,160.10888h-3.30768c-0.30088,0 -0.54479,-0.2439 -0.54479,-0.54479v-8.98907c0,-0.30088 0.24391,-0.54479 0.54479,-0.54479h8.71668c0.30089,0 0.54479,0.24391 0.54479,0.54479v2.64679" fill="none" stroke="#000000" stroke-width="1" stroke-linecap="round" stroke-linejoin="round"/><path d="M340.53439,159.01929l2.86016,-3.94974l1.22578,0.95339l-2.99636,4.08595h-1.08958z" fill="#f9f9f9" stroke="#000000" stroke-width="1" stroke-linecap="round" stroke-linejoin="round"/></g></g></svg>