<svg version="1.1" xmlns="http://www.w3.org/2000/svg" xmlns:xlink="http://www.w3.org/1999/xlink" width="94.19417" height="89.7898" viewBox="0,0,94.19417,89.7898"><g transform="translate(-40.39693,-101.38767)"><g stroke-miterlimit="10"><path d="M56.90893,119.52798c0,-4.96121 0,-11.00794 0,-13.93637c0,-1.63502 0.86907,-4.19162 1.88054,-4.19162c10.32836,0 68.17444,0 74.13199,0c0.96942,0 1.66964,2.12381 1.66964,3.94703c0,2.80615 0,9.17156 0,14.18096c0,2.33352 -0.79744,3.94703 -1.88054,3.94703c-6.46256,0 -66.99091,0 -74.34289,0c-0.47087,0 -1.45873,-2.1507 -1.45873,-3.94703z" fill="#ffffff" stroke="#000000" stroke-width="0"/><text transform="translate(83.66075,116.26497) scale(0.2946,0.2946)" font-size="40" xml:space="preserve" fill-opacity="0.98431" fill="#000000" stroke="none" stroke-width="1" font-family="Pixel" font-weight="normal" text-anchor="start"><tspan x="0" dy="0">注销</tspan></text><text transform="translate(40.64693,185.92747) scale(0.5,0.5)" font-size="40" xml:space="preserve" fill="#505050" stroke="none" stroke-width="1" font-family="&quot;Microsoft YaHei&quot;, &quot;微软雅黑&quot;, STXihei, &quot;华文细黑&quot;" font-weight="normal" text-anchor="start"><tspan x="0" dy="0"> </tspan></text></g></g></svg>