<svg version="1.1" xmlns="http://www.w3.org/2000/svg" xmlns:xlink="http://www.w3.org/1999/xlink" width="92.43472" height="41.17577" viewBox="0,0,92.43472,41.17577"><defs><linearGradient x1="711.10454" y1="390.64469" x2="711.10454" y2="431.82048" gradientUnits="userSpaceOnUse" id="color-1"><stop offset="0" stop-color="#fafafa"/><stop offset="1" stop-color="#f0f0f0"/></linearGradient></defs><g transform="translate(-664.88718,-390.64471)"><g stroke-miterlimit="10"><path d="M664.88718,398.5221c0,-4.6895 1.65824,-7.87738 4.11983,-7.87738c15.84776,0 75.14332,0 84.19506,0c2.25871,0 4.11983,4.19379 4.11983,7.87738c0,6.24207 0,15.19813 0,25.78045c0,4.08817 -2.05155,7.00917 -4.49626,7.00917c-9.42726,0 -68.89796,0.50877 -84.06959,0.50877c-2.22792,0 -3.86887,-4.0607 -3.86887,-7.66032c0,0 0,-14.76817 0,-25.63807z" fill="url(#color-1)" stroke="none" stroke-width="0" stroke-linecap="butt" stroke-linejoin="miter"/><path d="M699.12605,413.38115c0,-6.88709 5.58309,-12.47017 12.47017,-12.47017c6.88709,0 12.47017,5.58309 12.47017,12.47017c0,6.88709 -5.58309,12.47017 -12.47017,12.47017c-6.88709,0 -12.47017,-5.58309 -12.47017,-12.47017z" fill="none" stroke="#000000" stroke-width="2" stroke-linecap="butt" stroke-linejoin="miter"/><path d="M708.47868,394.67588h6.23509" fill="none" stroke="#000000" stroke-width="2" stroke-linecap="round" stroke-linejoin="round"/><path d="M711.59623,394.67588v6.23509" fill="none" stroke="#000000" stroke-width="2" stroke-linecap="round" stroke-linejoin="round"/><path d="M722.50763,401.69036l-2.33816,2.33816" fill="none" stroke="#000000" stroke-width="2" stroke-linecap="round" stroke-linejoin="round"/><path d="M711.59623,413.38115v-4.67631" fill="none" stroke="#000000" stroke-width="2" stroke-linecap="round" stroke-linejoin="round"/><path d="M711.59623,413.38115h-4.67631" fill="none" stroke="#000000" stroke-width="2" stroke-linecap="round" stroke-linejoin="round"/></g></g></svg>