<svg version="1.1" xmlns="http://www.w3.org/2000/svg" xmlns:xlink="http://www.w3.org/1999/xlink" width="49.6391" height="49.26596" viewBox="0,0,49.6391,49.26596"><g transform="translate(-375.18045,-200.36702)"><g stroke-miterlimit="10"><path d="M375.18045,210.97494c0,-1.56689 0.20909,-5.31289 2.3999,-7.70262c3.0547,-2.78018 4.74647,-2.9053 6.26766,-2.9053c9.85021,0 30.2074,0 30.69355,0c1.39819,0 4.65417,0.04561 7.27557,2.91372c3.13265,3.04895 3.00164,6.15433 3.00164,7.5155c0,5.85464 0,18.46205 0,28.75544c0,1.63604 -1.06554,4.75276 -3.19701,6.8451c-1.99657,2.08172 -5.39405,3.2362 -7.0802,3.2362c-10.79785,0 -23.39799,0 -29.29151,0c-1.33371,0 -4.78405,-0.88107 -7.08043,-3.14696c-2.2683,-1.99017 -2.98917,-5.44425 -2.98917,-7.11303c0,0 0.00001,-22.53287 0.00001,-28.39806z" fill="#f4f4f4" stroke="#000000" stroke-width="0" stroke-linecap="butt" stroke-linejoin="miter"/><path d="M404.53925,239.36185l-3.78337,-15.11145l-15.11772,-2.92528l28.72368,-10.68696z" fill="none" stroke="#3f3f3f" stroke-width="2" stroke-linecap="butt" stroke-linejoin="round"/><path d="M400.92978,223.52413l4.69268,-4.69268" fill="none" stroke="#3f3f3f" stroke-width="2" stroke-linecap="round" stroke-linejoin="round"/></g></g></svg>