<svg version="1.1" xmlns="http://www.w3.org/2000/svg" xmlns:xlink="http://www.w3.org/1999/xlink" width="410.85168" height="28.22204" viewBox="0,0,410.85168,28.22204"><g transform="translate(-55.34056,-31.88601)"><g fill="#ffffff" stroke-opacity="0.01176" stroke="#000000" stroke-width="2.5" stroke-miterlimit="10"><path d="M56.59056,53.48218c0,-5.04073 0,-12.21553 0,-15.06329c0,-1.2084 0.60599,-2.62751 1.74096,-3.6707c1.05804,-0.97248 2.58273,-1.61218 4.31869,-1.61218c27.08564,0 347.49569,0 396.12343,0c4.00701,0 6.1686,2.97583 6.1686,5.32554c0,2.85611 0,10.03274 0,15.06108c0,1.52334 -0.79837,2.75357 -1.80741,3.70271c-1.02279,0.96207 -2.2696,1.63271 -4.2512,1.63271c-48.2523,0 -369.12729,0 -396.23342,0c-3.59815,0 -6.05964,-2.28735 -6.05964,-5.37586z"/></g></g></svg>