<svg version="1.1" xmlns="http://www.w3.org/2000/svg" xmlns:xlink="http://www.w3.org/1999/xlink" width="16.28256" height="16.28255" viewBox="0,0,16.28256,16.28255"><g transform="translate(-391.85872,-216.85872)"><g data-paper-data="{&quot;isPaintingLayer&quot;:true}" fill="none" fill-rule="nonzero" stroke="#e1ccb1" stroke-width="1.5" stroke-miterlimit="10" stroke-dasharray="" stroke-dashoffset="0" style="mix-blend-mode: normal"><path d="M405.17389,230.1739v2.21738h-10.34779v-2.21738" stroke-linecap="round" stroke-linejoin="round"/><path d="M394.82611,223.52175v-5.91302h7.39128l2.95651,3.69564v2.21738" stroke-linecap="round" stroke-linejoin="round"/><path d="M405.17389,221.30437h-3.69564v-3.69564" stroke-linecap="round" stroke-linejoin="round"/><path d="M397.04348,220.56523h1.47826" stroke-linecap="round" stroke-linejoin="miter"/><path d="M393.34785,230.1739c-0.40821,0 -0.73913,-0.33092 -0.73913,-0.73913v-5.17389c0,-0.40821 0.33092,-0.73913 0.73913,-0.73913h13.3043c0.40821,0 0.73913,0.33092 0.73913,0.73913v5.17389c0,0.40821 -0.33092,0.73913 -0.73913,0.73913z" stroke-linecap="butt" stroke-linejoin="round"/><path d="M397.41305,228.32607h-2.21738l2.21738,-2.95651h-2.21738" stroke-linecap="round" stroke-linejoin="round"/><path d="M400,228.32607v-2.95651" stroke-linecap="round" stroke-linejoin="miter"/><path d="M402.58695,225.36956v2.95651" stroke-linecap="round" stroke-linejoin="miter"/><path d="M402.58695,225.36956h1.29348c0.51026,0 0.92391,0.41365 0.92391,0.92391v0c0,0.51026 -0.41365,0.92391 -0.92391,0.92391h-1.29348" stroke-linecap="round" stroke-linejoin="round"/></g></g></svg>