<svg version="1.1" xmlns="http://www.w3.org/2000/svg" xmlns:xlink="http://www.w3.org/1999/xlink" width="13.51655" height="12.48593" viewBox="0,0,13.51655,12.48593"><g transform="translate(-739.20102,-16.81354)"><g stroke-miterlimit="10"><path d="" fill="#131313" stroke="none" stroke-width="0.5" stroke-linecap="butt" stroke-linejoin="miter"/><path d="M739.20103,19.502c0,-0.39711 0.05694,-1.34649 0.65348,-1.95215c0.83179,-0.7046 1.29245,-0.73631 1.70666,-0.73631c2.68218,0 8.22537,0 8.35774,0c0.38072,0 1.26732,0.01156 1.98111,0.73845c0.85301,0.77273 0.81733,1.55975 0.81733,1.90472c0,1.4838 0,4.679 0,7.28776c0,0.41464 -0.29014,1.20453 -0.87054,1.73481c-0.54366,0.52758 -1.46878,0.82019 -1.92792,0.82019c-2.94022,0 -6.37119,0 -7.97597,0c-0.36317,0 -1.30268,-0.2233 -1.92798,-0.79756c-0.61765,-0.50439 -0.81394,-1.37979 -0.81394,-1.80272c0,0 0,-5.71071 0,-7.19718z" fill-opacity="0.01569" fill="#ededed" stroke="#000000" stroke-width="0" stroke-linecap="butt" stroke-linejoin="miter"/><path d="M741.76916,17.86705l8.71349,8.71349" fill="none" stroke="#000000" stroke-width="1" stroke-linecap="round" stroke-linejoin="round"/><path d="M741.76916,26.58053l8.71349,-8.71349" fill="none" stroke="#000000" stroke-width="1" stroke-linecap="round" stroke-linejoin="round"/></g></g></svg>