<svg version="1.1" xmlns="http://www.w3.org/2000/svg" xmlns:xlink="http://www.w3.org/1999/xlink" width="449.48521" height="267.64049" viewBox="0,0,449.48521,267.64049"><g transform="translate(-175.2574,-91.17977)"><g stroke-miterlimit="10"><path d="M175.94526,348.78174v-233.66028h342.29183v233.6603z" fill-opacity="0.96078" fill="#ededed" stroke="#000000" stroke-width="1" stroke-linecap="butt"/><path d="M476.38969,111.25408v-11.75805l37.19146,-0.01417l0.13863,12.04306" fill="none" stroke="#000000" stroke-width="1" stroke-linecap="round"/><text transform="translate(186.01666,108.50326) scale(0.2373,0.2373)" font-size="40" xml:space="preserve" fill-opacity="0.95294" fill="#e7e7e7" stroke="none" stroke-width="1" stroke-linecap="butt" font-family="Sans Serif" font-weight="normal" text-anchor="start"><tspan x="0" dy="0">执行命令..</tspan></text><path d="M494.45486,99.66048l0.23494,11.86439" fill="none" stroke="#000000" stroke-width="1" stroke-linecap="round"/><path d="M176.62538,357.18229c0,0 -1.36797,-0.27232 -1.36797,-3.76808c0,-35.85227 0,-238.47065 0,-257.45052c0,-2.81016 0.97198,-3.68593 0.97198,-3.68593c0,0 0.57453,-1.09798 3.48543,-1.09798c44.84356,0 413.49198,0 440.07117,0c2.98882,0 3.82265,1.25998 3.82265,1.25998c0,0 1.13398,0.7946 1.13398,3.70393c0,19.32721 0,222.42069 0,257.52252c0,3.33544 -1.24198,4.00208 -1.24198,4.00208c0,0 -0.65108,1.15198 -4.19014,1.15198c-48.51151,0 -406.29753,0 -437.03973,0c-4.15275,0 -5.64538,-1.63797 -5.64538,-1.63797z" fill-opacity="0.99216" fill="#ededed" stroke="none" stroke-width="0" stroke-linecap="butt"/><path d="M180.18822,355.19518v-246.84796h439.69792v246.84796z" fill="#ffffff" stroke="none" stroke-width="0" stroke-linecap="butt"/><text transform="translate(186.41528,101.95494) scale(0.20096,0.20096)" font-size="40" xml:space="preserve" fill-opacity="0.95294" fill="#333333" stroke="none" stroke-width="1" stroke-linecap="butt" font-family="Sans Serif" font-weight="normal" text-anchor="start"><tspan x="0" dy="0">计算器</tspan></text><path d="M595.55674,96.80411c0,-0.446 0.06395,-1.51224 0.73392,-2.19245c0.93418,-0.79134 1.45154,-0.82695 1.91675,-0.82695c3.01235,0 9.2379,0 9.38657,0c0.42758,0 1.42332,0.01298 2.22498,0.82935c0.95801,0.86785 0.91795,1.75176 0.91795,2.13919c0,1.66645 0,5.25498 0,8.18487c0,0.46568 -0.32585,1.35281 -0.9777,1.94836c-0.61058,0.59253 -1.64958,0.92115 -2.16524,0.92115c-3.30215,0 -7.15547,0 -8.9578,0c-0.40787,0 -1.46304,-0.25078 -2.16531,-0.89574c-0.69368,-0.56648 -0.91414,-1.54964 -0.91414,-2.02463c0,0 0,-6.41369 0,-8.08314z" fill-opacity="0.01569" fill="#ededed" stroke="#000000" stroke-width="0" stroke-linecap="butt"/><path d="M581.7808,95.7822c0,-0.46539 0.06673,-1.578 0.76584,-2.28779c0.9748,-0.82575 1.51467,-0.86291 2.0001,-0.86291c3.14335,0 9.63961,0 9.79475,0c0.44618,0 1.48522,0.01354 2.32174,0.86542c0.99967,0.90559 0.95786,1.82793 0.95786,2.23222c0,1.73892 0,5.4835 0,8.54079c0,0.48593 -0.34002,1.41164 -1.02021,2.03309c-0.63713,0.61829 -1.72132,0.96121 -2.2594,0.96121c-3.44575,0 -7.46663,0 -9.34734,0c-0.42561,0 -1.52666,-0.26169 -2.25947,-0.9347c-0.72385,-0.59111 -0.95389,-1.61703 -0.95389,-2.11267c0,0 0,-6.6926 0,-8.43464z" fill-opacity="0.01569" fill="#ededed" stroke="#000000" stroke-width="0" stroke-linecap="butt"/><path d="M600.60771,97.15382c0,-0.446 0.06394,-1.51224 0.73392,-2.19246c0.93418,-0.79134 1.45154,-0.82695 1.91674,-0.82695c3.01235,0 9.23789,0 9.38656,0c0.42759,0 1.42333,0.01297 2.22499,0.82935c0.95801,0.86785 0.91795,1.75176 0.91795,2.1392c0,1.66645 0,5.25498 0,8.18486c0,0.46567 -0.32585,1.35281 -0.9777,1.94836c-0.61058,0.59253 -1.64959,0.92115 -2.16524,0.92115c-3.30215,0 -7.15546,0 -8.9578,0c-0.40787,0 -1.46305,-0.25079 -2.16531,-0.89575c-0.69368,-0.56648 -0.91413,-1.54964 -0.91413,-2.02463c0,0 0,-6.41369 0,-8.08314z" fill-opacity="0.01569" fill="#ededed" stroke="#000000" stroke-width="0" stroke-linecap="butt"/></g></g></svg>