<svg version="1.1" xmlns="http://www.w3.org/2000/svg" xmlns:xlink="http://www.w3.org/1999/xlink" width="15.18042" height="14.02292" viewBox="0,0,15.18042,14.02292"><g transform="translate(-607.756,-40.64679)"><g stroke-miterlimit="10"><path d="" fill="#131313" stroke="none" stroke-width="0.5" stroke-linecap="butt" stroke-linejoin="miter"/><path d="M607.75602,43.6662c0,-0.446 0.06394,-1.51224 0.73392,-2.19246c0.93418,-0.79134 1.45154,-0.82695 1.91674,-0.82695c3.01235,0 9.23789,0 9.38656,0c0.42759,0 1.42333,0.01297 2.22499,0.82935c0.95801,0.86785 0.91795,1.75176 0.91795,2.1392c0,1.66645 0,5.25498 0,8.18486c0,0.46567 -0.32585,1.35281 -0.9777,1.94836c-0.61058,0.59253 -1.64959,0.92115 -2.16524,0.92115c-3.30215,0 -7.15546,0 -8.9578,0c-0.40787,0 -1.46305,-0.25079 -2.16531,-0.89575c-0.69368,-0.56648 -0.91413,-1.54964 -0.91413,-2.02463c0,0 0,-6.41369 0,-8.08314z" fill-opacity="0.01569" fill="#ededed" stroke="#000000" stroke-width="0" stroke-linecap="butt" stroke-linejoin="miter"/><path d="" fill="#131313" stroke="none" stroke-width="0.5" stroke-linecap="butt" stroke-linejoin="miter"/><path d="M610.64028,41.82998l9.78611,9.78611" fill="none" stroke="#000000" stroke-width="1" stroke-linecap="round" stroke-linejoin="round"/><path d="M610.64028,51.61609l9.78611,-9.7861" fill="none" stroke="#000000" stroke-width="1" stroke-linecap="round" stroke-linejoin="round"/></g></g></svg>