<svg version="1.1" xmlns="http://www.w3.org/2000/svg" xmlns:xlink="http://www.w3.org/1999/xlink" width="728.76448" height="433.93394" viewBox="0,0,728.76448,433.93394"><g transform="translate(-41.81102,-12.51635)"><g stroke-miterlimit="10"><path d="M44.02896,443.79458c0,0 -2.21794,-0.44152 -2.21794,-6.10931c0,-58.12842 0,-386.63996 0,-417.41262c0,-4.5562 1.5759,-5.97611 1.5759,-5.97611c0,0 0.93151,-1.78019 5.65104,-1.78019c72.70627,0 670.40754,0 713.50121,0c4.84586,0 6.19778,2.04284 6.19778,2.04284c0,0 1.83855,1.28831 1.83855,6.0053c0,31.33582 0,360.61766 0,417.52936c0,5.40785 -2.01366,6.4887 -2.01366,6.4887c0,0 -1.05562,1.86774 -6.7936,1.86774c-78.65324,0 -658.74295,0 -708.58624,0c-6.73298,0 -9.15304,-2.65569 -9.15304,-2.65569z" fill-opacity="0.99216" fill="#ededed" stroke="none" stroke-width="0"/><path d="M49.80548,440.57281v-400.22235h712.89605v400.22235z" fill="#ffffff" stroke="none" stroke-width="0"/><text transform="translate(59.90162,29.98645) scale(0.32582,0.32582)" font-size="40" xml:space="preserve" fill-opacity="0.95294" fill="#333333" stroke="none" stroke-width="1" font-family="Sans Serif" font-weight="normal" text-anchor="start"><tspan x="0" dy="0">外语翻译</tspan></text><path d="M52.6631,435.83777v-33.1521h705.79066v33.1521z" fill="#f4f4f4" stroke="none" stroke-width="0"/><path d="M97.7329,426.75833c0,-5.04073 0,-12.21553 0,-15.06329c0,-1.2084 0.68135,-2.62751 1.95745,-3.6707c1.18961,-0.97248 2.9039,-1.61218 4.85573,-1.61218c30.45382,0 390.70787,0 445.38262,0c4.50529,0 6.93568,2.97583 6.93568,5.32554c0,2.85611 0,10.03274 0,15.06108c0,1.52334 -0.89765,2.75357 -2.03217,3.70271c-1.14998,0.96207 -2.55183,1.63271 -4.77985,1.63271c-54.25262,0 -415.02943,0 -445.50629,0c-4.04559,0 -6.81318,-2.28735 -6.81318,-5.37586z" fill="#ffffff" stroke-opacity="0.01176" stroke="#000000" stroke-width="2.5"/></g></g></svg>