<svg version="1.1" xmlns="http://www.w3.org/2000/svg" xmlns:xlink="http://www.w3.org/1999/xlink" width="19.33579" height="17.86145" viewBox="0,0,19.33579,17.86145"><g transform="translate(-317.0751,-168.95246)"><g stroke="#000000" stroke-miterlimit="10"><path d="M317.07513,172.79836c0,-0.56808 0.08146,-1.92619 0.93482,-2.79259c1.18989,-1.00796 1.84888,-1.05331 2.44142,-1.05331c3.83693,0 11.7666,0 11.95597,0c0.54463,0 1.81294,0.01653 2.83404,1.05637c1.22025,1.10541 1.16922,2.23127 1.16922,2.72476c0,2.12261 0,6.69344 0,10.42532c0,0.59315 -0.41505,1.72312 -1.24532,2.4817c-0.77771,0.75472 -2.10113,1.1733 -2.75794,1.1733c-4.20606,0 -9.11415,0 -11.40984,0c-0.51952,0 -1.86352,-0.31943 -2.75802,-1.14094c-0.88356,-0.72154 -1.16437,-1.97383 -1.16437,-2.57883c0,0 0,-8.16933 0,-10.29575z" fill-opacity="0.01569" fill="#ededed" stroke-width="0" stroke-linecap="butt" stroke-linejoin="miter"/><path d="M332.62743,173.51242l-5.98543,6.03429l-5.98543,-6.03429" fill="none" stroke-width="1" stroke-linecap="round" stroke-linejoin="round"/><path d="M332.62745,183.56955h-11.97088" fill="none" stroke-width="1" stroke-linecap="round" stroke-linejoin="round"/></g></g></svg>