<svg version="1.1" xmlns="http://www.w3.org/2000/svg" xmlns:xlink="http://www.w3.org/1999/xlink" width="728.76448" height="433.93394" viewBox="0,0,728.76448,433.93394"><g transform="translate(-41.81102,-12.51634)"><g stroke-miterlimit="10"><path d="M44.02896,443.79458c0,0 -2.21794,-0.44152 -2.21794,-6.10931c0,-58.12842 0,-386.63996 0,-417.41262c0,-4.5562 1.5759,-5.97611 1.5759,-5.97611c0,0 0.93151,-1.78019 5.65104,-1.78019c72.70627,0 670.40754,0 713.50121,0c4.84586,0 6.19778,2.04284 6.19778,2.04284c0,0 1.83855,1.28831 1.83855,6.0053c0,31.33582 0,360.61766 0,417.52936c0,5.40785 -2.01366,6.4887 -2.01366,6.4887c0,0 -1.05562,1.86774 -6.7936,1.86774c-78.65324,0 -658.74295,0 -708.58624,0c-6.73298,0 -9.15304,-2.65569 -9.15304,-2.65569z" fill="#f7f7f7" stroke="none" stroke-width="0"/><path d="M49.80548,440.57281v-400.22235h712.89605v400.22235z" fill="#ffffff" stroke="none" stroke-width="0"/><text transform="translate(59.90162,29.98646) scale(0.32582,0.32582)" font-size="40" xml:space="preserve" fill-opacity="0.95294" fill="#333333" stroke="none" stroke-width="1" font-family="Sans Serif" font-weight="normal" text-anchor="start"><tspan x="0" dy="0">更多应用</tspan></text><path d="M182.8905,187.52628c0,0 -4.20765,0.08678 -4.20765,-5.88666c0,-27.25347 0,-104.47707 0,-120.33744c0,-5.55974 3.71265,-7.50836 3.71265,-7.50836c0,0 1.81829,-3.2291 9.15557,-3.2291c38.65493,0 365.54851,0 436.06798,0c8.58787,0 8.90025,3.66188 8.90025,3.66188c0,0 4.47338,0.13988 4.47338,6.46476c0,28.35323 0,107.41018 0,121.98604c0,4.5242 -2.89453,5.7621 -2.89453,5.7621c0,0 -1.50141,2.7464 -9.42653,2.7464c-67.9729,0 -395.56256,0 -435.88299,0c-7.98693,0 -9.89809,-3.65963 -9.89809,-3.65963z" fill="#f7f7f7" stroke="none" stroke-width="0"/><text transform="translate(241.458,110.12412) scale(0.41739,0.41739)" font-size="40" xml:space="preserve" fill="#000000" stroke="none" stroke-width="1" font-family="Sans Serif" font-weight="normal" text-anchor="start"><tspan x="0" dy="0">你就有机会将你的广告放在这里</tspan><tspan x="0" dy="46.15px">机会有限，点击咨询作者~</tspan></text><text transform="translate(229.28712,85.78704) rotate(-6.1989) scale(0.5,0.5)" font-size="40" xml:space="preserve" fill="#ff0f0f" stroke="#000000" stroke-width="1" font-family="Sans Serif" font-weight="normal" text-anchor="start"><tspan x="0" dy="0">只需2个三连</tspan><tspan x="0" dy="46.15px"> </tspan></text></g></g></svg>