<svg version="1.1" xmlns="http://www.w3.org/2000/svg" xmlns:xlink="http://www.w3.org/1999/xlink" width="21.80739" height="24.26498" viewBox="0,0,21.80739,24.26498"><defs><linearGradient x1="254.4259" y1="196.91857" x2="254.4259" y2="218.74811" gradientUnits="userSpaceOnUse" id="color-1"><stop offset="0" stop-color="#000000"/><stop offset="1" stop-color="#434343"/></linearGradient><linearGradient x1="254.27085" y1="201.69444" x2="254.27085" y2="213.86111" gradientUnits="userSpaceOnUse" id="color-2"><stop offset="0" stop-color="#919191"/><stop offset="1" stop-color="#d9d9d9"/></linearGradient><linearGradient x1="251.03908" y1="205.49652" x2="251.03908" y2="210.05902" gradientUnits="userSpaceOnUse" id="color-3"><stop offset="0" stop-color="#919191"/><stop offset="1" stop-color="#d9d9d9"/></linearGradient><linearGradient x1="256.36199" y1="210.31944" x2="256.36199" y2="211.31944" gradientUnits="userSpaceOnUse" id="color-4"><stop offset="0" stop-color="#919191"/><stop offset="1" stop-color="#d9d9d9"/></linearGradient></defs><g transform="translate(-243.5222,-196.91858)"><g stroke-miterlimit="10"><path d="M249.89948,220.40673l8.36172,0.02683" fill="none" stroke="#0e100e" stroke-width="1.5" stroke-linecap="round" stroke-linejoin="miter"/><path d="M257.77698,196.92041c2.16474,0.01906 4.69299,0.17919 6.03514,1.52134c1.32747,1.32747 1.49442,3.81101 1.51541,5.9587c0.00297,0.30336 0.00295,6.65261 -0.00155,7.00484c-0.0271,2.11999 -0.21473,4.54313 -1.51386,5.84226c-1.28483,1.28483 -3.6566,1.47004 -5.75589,1.49667c-0.37603,0.00477 -6.73506,0.00466 -7.03044,0.00234c-2.14952,-0.01685 -4.63241,-0.16707 -5.96435,-1.499c-1.31773,-1.31773 -1.50872,-3.79188 -1.53611,-5.93312c-0.0041,-0.32051 -0.00446,-6.73129 0.00066,-7.09977c0.02928,-2.10882 0.22361,-4.50608 1.51324,-5.7957c1.29399,-1.29399 3.69047,-1.47263 5.80075,-1.49721c0.36039,-0.0042 6.65827,-0.00379 6.93701,-0.00133z" fill="url(#color-1)" stroke="none" stroke-width="0.47449" stroke-linecap="butt" stroke-linejoin="miter"/><path d="M247.4271,213.86111c-0.41997,0 -0.76042,-0.34045 -0.76042,-0.76042v-10.64583c0,-0.41997 0.34045,-0.76042 0.76042,-0.76042h13.6875c0.41997,0 0.76042,0.34045 0.76042,0.76042v10.64583c0,0.41997 -0.34045,0.76042 -0.76042,0.76042z" fill="none" stroke="url(#color-2)" stroke-width="1" stroke-linecap="butt" stroke-linejoin="round"/><path d="M249.70835,205.49652l2.66146,2.28125l-2.66146,2.28125" fill="none" stroke="url(#color-3)" stroke-width="1" stroke-linecap="round" stroke-linejoin="round"/><path d="M253.89063,210.81944h4.94271" fill="none" stroke="url(#color-4)" stroke-width="1" stroke-linecap="round" stroke-linejoin="round"/></g></g></svg>