<svg version="1.1" xmlns="http://www.w3.org/2000/svg" xmlns:xlink="http://www.w3.org/1999/xlink" width="75.09148" height="21.02724" viewBox="0,0,75.09148,21.02724"><defs><linearGradient x1="375.35221" y1="217.60609" x2="375.35221" y2="231.92609" gradientUnits="userSpaceOnUse" id="color-1"><stop offset="0" stop-color="#fcb621"/><stop offset="1" stop-color="#fce08f"/></linearGradient></defs><g transform="translate(-362.45425,-214.48638)"><g stroke-miterlimit="10"><path d="M362.70426,232.23696c0,-2.60903 0,-9.58787 0,-14.27835c0,-1.76486 1.81676,-3.22223 4.22587,-3.22223c13.41491,0 57.67912,0 65.86241,0c2.526,0 4.50319,1.8453 4.50319,3.51563c0,2.75637 0,9.52383 0,13.98495c0,1.65226 -2.02559,3.02666 -4.08722,3.02666c-7.52413,0 -52.3597,0 -66.13973,0c-2.49445,0 -4.36453,-1.62288 -4.36453,-3.02666z" fill="#fafafa" stroke="#cccccc" stroke-width="0.5"/><text transform="translate(392.89417,226.7628) scale(0.15092,0.15092)" font-size="40" xml:space="preserve" fill-opacity="0.9098" fill="#000000" stroke="none" stroke-width="0" font-family="&quot;Exo-Bold&quot;, Sans Serif" font-weight="normal" text-anchor="start"><tspan x="0" dy="0">中转英模式</tspan></text><path d="M377.5505,217.60729c1.42005,0.01251 3.07856,0.11755 3.959,0.99799c0.87081,0.87081 0.98033,2.49999 0.9941,3.90886c0.00195,0.199 0.00193,4.36406 -0.00102,4.59512c-0.01778,1.3907 -0.14086,2.98026 -0.99308,3.83248c-0.84283,0.84283 -2.3987,0.96433 -3.77582,0.9818c-0.24667,0.00313 -4.41815,0.00305 -4.61191,0.00153c-1.41007,-0.01106 -3.03883,-0.10959 -3.91257,-0.98334c-0.86442,-0.86442 -0.98971,-2.48744 -1.00768,-3.89208c-0.00269,-0.21026 -0.00292,-4.41567 0.00043,-4.65739c0.01921,-1.38337 0.14669,-2.95595 0.99267,-3.80193c0.84885,-0.84885 2.42092,-0.96603 3.80525,-0.98216c0.23641,-0.00276 4.36777,-0.00248 4.55062,-0.00088z" fill="url(#color-1)" stroke="none" stroke-width="0.47449"/><text transform="translate(371.06579,227.37116) scale(0.21132,0.21132)" font-size="40" xml:space="preserve" fill-opacity="0.9098" fill="#ffffff" stroke="none" stroke-width="1" font-family="Serif" font-weight="normal" text-anchor="start"><tspan x="0" dy="0">中</tspan></text></g></g></svg>