<svg version="1.1" xmlns="http://www.w3.org/2000/svg" xmlns:xlink="http://www.w3.org/1999/xlink" width="728.76448" height="433.93394" viewBox="0,0,728.76448,433.93394"><g transform="translate(-41.81102,-12.51635)"><g stroke-miterlimit="10"><path d="M44.02896,443.79458c0,0 -2.21794,-0.44152 -2.21794,-6.10931c0,-58.12842 0,-386.63996 0,-417.41262c0,-4.5562 1.5759,-5.97611 1.5759,-5.97611c0,0 0.93151,-1.78019 5.65104,-1.78019c72.70627,0 670.40754,0 713.50121,0c4.84586,0 6.19778,2.04284 6.19778,2.04284c0,0 1.83855,1.28831 1.83855,6.0053c0,31.33582 0,360.61766 0,417.52936c0,5.40785 -2.01366,6.4887 -2.01366,6.4887c0,0 -1.05562,1.86774 -6.7936,1.86774c-78.65324,0 -658.74295,0 -708.58624,0c-6.73298,0 -9.15304,-2.65569 -9.15304,-2.65569z" fill-opacity="0.99216" fill="#ededed" fill-rule="nonzero" stroke="none" stroke-width="0" stroke-linecap="butt" stroke-linejoin="miter"/><path d="M49.80548,440.57281v-400.22235h712.89605v400.22235z" fill="#ffffff" fill-rule="nonzero" stroke="none" stroke-width="0" stroke-linecap="butt" stroke-linejoin="miter"/><text transform="translate(59.90162,29.98645) scale(0.32582,0.32582)" font-size="40" xml:space="preserve" fill-opacity="0.95294" fill="#333333" fill-rule="nonzero" stroke="none" stroke-width="1" stroke-linecap="butt" stroke-linejoin="miter" font-family="Sans Serif" font-weight="normal" text-anchor="start"><tspan x="0" dy="0">任务管理</tspan></text><path d="M55.22836,116.31908c0,-14.91128 0,-46.27471 0,-54.7517c0,-4.13258 3.78547,-8.47779 9.73676,-8.47779c17.4187,0 67.39397,0 68.25363,0c4.83589,0 9.7879,4.19405 9.7879,8.21954c0,8.46174 0,40.39112 0,55.26822c0,4.71457 -3.80597,7.71666 -9.7879,7.71666c-19.09446,0 -58.14777,0 -68.56962,0c-4.68015,0 -9.42077,-3.11289 -9.42077,-7.97493z" fill="#f9f9f9" fill-rule="nonzero" stroke-opacity="0.01176" stroke="#000000" stroke-width="2" stroke-linecap="butt" stroke-linejoin="miter"/><text transform="translate(61.99104,70.09411) scale(0.38916,0.38916)" font-size="40" xml:space="preserve" fill="#000000" fill-rule="nonzero" stroke="none" stroke-width="1" stroke-linecap="butt" stroke-linejoin="miter" font-family="Pixel" font-weight="normal" text-anchor="start"><tspan x="0" dy="0">CPU</tspan></text><path d="M113.7441,49.66179v-1.81729z" fill="none" fill-rule="evenodd" stroke="none" stroke-width="1" stroke-linecap="butt" stroke-linejoin="miter"/><path d="M116.49755,47.8445v1.81729z" fill="none" fill-rule="evenodd" stroke="none" stroke-width="1" stroke-linecap="butt" stroke-linejoin="miter"/><path d="M119.25098,47.8445v1.81729z" fill="none" fill-rule="evenodd" stroke="none" stroke-width="1" stroke-linecap="butt" stroke-linejoin="miter"/><path d="M109.83417,45.75183h1.81729z" fill="none" fill-rule="evenodd" stroke="none" stroke-width="1" stroke-linecap="butt" stroke-linejoin="miter"/><path d="M121.34365,45.75183h1.81729z" fill="none" fill-rule="evenodd" stroke="none" stroke-width="1" stroke-linecap="butt" stroke-linejoin="miter"/><path d="M133.74988,60.39683v8.48067c0,0.33456 -0.2712,0.60576 -0.60576,0.60576h-8.48067c-0.33455,0 -0.60576,-0.2712 -0.60576,-0.60576v-8.48067c0,-0.33455 0.27121,-0.60576 0.60576,-0.60576h8.48067c0.33456,0 0.60576,0.27121 0.60576,0.60576z" fill="none" fill-rule="nonzero" stroke="#000000" stroke-width="1" stroke-linecap="butt" stroke-linejoin="round"/><path d="M130.72106,66.45446h-3.63457v-3.63457h3.63457z" fill="none" fill-rule="nonzero" stroke="#000000" stroke-width="1" stroke-linecap="butt" stroke-linejoin="round"/><path d="M126.15033,57.97379v1.81729z" fill="none" fill-rule="evenodd" stroke="none" stroke-width="1" stroke-linecap="butt" stroke-linejoin="miter"/><path d="M126.15033,57.97379v1.81729" fill="none" fill-rule="nonzero" stroke="#000000" stroke-width="1" stroke-linecap="round" stroke-linejoin="round"/><path d="M126.15033,71.30056v-1.81729z" fill="none" fill-rule="evenodd" stroke="none" stroke-width="1" stroke-linecap="butt" stroke-linejoin="miter"/><path d="M126.02053,69.48328v1.81729" fill="none" fill-rule="nonzero" stroke="#000000" stroke-width="1" stroke-linecap="round" stroke-linejoin="round"/><path d="M128.90378,57.97379v1.81729z" fill="none" fill-rule="evenodd" stroke="none" stroke-width="1" stroke-linecap="butt" stroke-linejoin="miter"/><path d="M128.90378,57.97379v1.81729" fill="none" fill-rule="nonzero" stroke="#000000" stroke-width="1" stroke-linecap="round" stroke-linejoin="round"/><path d="M128.90378,71.30056v-1.81729z" fill="none" fill-rule="evenodd" stroke="none" stroke-width="1" stroke-linecap="butt" stroke-linejoin="miter"/><path d="M128.90378,71.30056v-1.81729" fill="none" fill-rule="nonzero" stroke="#000000" stroke-width="1" stroke-linecap="round" stroke-linejoin="round"/><path d="M131.65721,59.79108v-1.81729z" fill="none" fill-rule="evenodd" stroke="none" stroke-width="1" stroke-linecap="butt" stroke-linejoin="miter"/><path d="M131.65721,59.79108v-1.81729" fill="none" fill-rule="nonzero" stroke="#000000" stroke-width="1" stroke-linecap="round" stroke-linejoin="round"/><path d="M131.65721,71.30057v-1.81729z" fill="none" fill-rule="evenodd" stroke="none" stroke-width="1" stroke-linecap="butt" stroke-linejoin="miter"/><path d="M131.65721,71.30057v-1.81729" fill="none" fill-rule="nonzero" stroke="#000000" stroke-width="1" stroke-linecap="round" stroke-linejoin="round"/><path d="M124.05769,61.88374h-1.81729z" fill="none" fill-rule="evenodd" stroke="none" stroke-width="1" stroke-linecap="butt" stroke-linejoin="miter"/><path d="M124.05769,61.88374h-1.81729" fill="none" fill-rule="nonzero" stroke="#000000" stroke-width="1" stroke-linecap="round" stroke-linejoin="round"/><path d="M135.56717,61.88374h-1.81729z" fill="none" fill-rule="evenodd" stroke="none" stroke-width="1" stroke-linecap="butt" stroke-linejoin="miter"/><path d="M133.74988,61.75392h1.81729" fill="none" fill-rule="nonzero" stroke="#000000" stroke-width="1" stroke-linecap="round" stroke-linejoin="round"/><path d="M122.2404,64.63717h1.81729z" fill="none" fill-rule="evenodd" stroke="none" stroke-width="1" stroke-linecap="butt" stroke-linejoin="miter"/><path d="M122.2404,64.63717h1.81729" fill="none" fill-rule="nonzero" stroke="#000000" stroke-width="1" stroke-linecap="round" stroke-linejoin="round"/><path d="M135.56717,64.63717h-1.81729z" fill="none" fill-rule="evenodd" stroke="none" stroke-width="1" stroke-linecap="butt" stroke-linejoin="miter"/><path d="M135.56717,64.63717h-1.81729" fill="none" fill-rule="nonzero" stroke="#000000" stroke-width="1" stroke-linecap="round" stroke-linejoin="round"/><path d="M124.05769,67.3906h-1.81729z" fill="none" fill-rule="evenodd" stroke="none" stroke-width="1" stroke-linecap="butt" stroke-linejoin="miter"/><path d="M124.05769,67.3906h-1.81729" fill="none" fill-rule="nonzero" stroke="#000000" stroke-width="1" stroke-linecap="round" stroke-linejoin="round"/><path d="M135.56717,67.3906h-1.81729z" fill="none" fill-rule="evenodd" stroke="none" stroke-width="1" stroke-linecap="butt" stroke-linejoin="miter"/><path d="M135.56717,67.3906h-1.81729" fill="none" fill-rule="nonzero" stroke="#000000" stroke-width="1" stroke-linecap="round" stroke-linejoin="round"/><path d="M54.59964,197.1155c0,-14.91128 0,-46.27471 0,-54.7517c0,-4.13258 3.78547,-8.47779 9.73676,-8.47779c17.4187,0 67.39397,0 68.25363,0c4.83589,0 9.7879,4.19405 9.7879,8.21954c0,8.46174 0,40.39112 0,55.26822c0,4.71457 -3.80597,7.71666 -9.7879,7.71666c-19.09446,0 -58.14777,0 -68.56962,0c-4.68015,0 -9.42077,-3.11289 -9.42077,-7.97493z" fill="#f9f9f9" fill-rule="nonzero" stroke-opacity="0.01176" stroke="#000000" stroke-width="2" stroke-linecap="butt" stroke-linejoin="miter"/><text transform="translate(59.15579,153.09705) scale(0.38916,0.38916)" font-size="40" xml:space="preserve" fill="#000000" fill-rule="nonzero" stroke="none" stroke-width="1" stroke-linecap="butt" stroke-linejoin="miter" font-family="Pixel" font-weight="normal" text-anchor="start"><tspan x="0" dy="0">GPU</tspan></text><path d="M134.99133,142.75224v9.6364c0,0.88547 -0.7204,1.60586 -1.60586,1.60586h-19.67383v0.00051c0,0.66389 -0.54012,1.204 -1.20401,1.204h-0.80351v0.40151c0,0.22173 -0.17977,0.4015 -0.4015,0.4015c-0.22173,0 -0.40151,-0.17977 -0.40151,-0.4015v-14.45414c0,-0.66419 -0.54032,-1.2045 -1.20451,-1.2045c-0.22173,0 -0.4015,-0.17978 -0.4015,-0.40151c0,-0.22173 0.17977,-0.4015 0.4015,-0.4015c1.10695,0 2.00752,0.90056 2.00752,2.00751h21.68135c0.88547,0 1.60586,0.7204 1.60586,1.60586zM134.18832,142.75224c0,-0.44271 -0.36014,-0.80285 -0.80285,-0.80285h-21.68135v12.44662h0.80351c0.22113,0 0.401,-0.17987 0.401,-0.40099v-0.40201c0,-0.22173 0.17978,-0.4015 0.40151,-0.4015h20.07534c0.44271,0 0.80285,-0.36015 0.80285,-0.80286z" fill="#000000" fill-rule="nonzero" stroke="none" stroke-width="1" stroke-linecap="butt" stroke-linejoin="miter"/><path d="M124.10455,145.93738c0.0125,0.01817 0.02353,0.03724 0.03292,0.05721c0.26354,0.46595 0.41475,1.00341 0.41475,1.57585c0,1.77113 -1.4409,3.21204 -3.21203,3.21204c-1.17511,0 -2.20435,-0.63468 -2.76435,-1.57897c-0.0125,-0.01817 -0.02354,-0.03724 -0.03293,-0.05721c-0.26354,-0.46595 -0.41475,-1.00341 -0.41475,-1.57586c0,-0.55935 0.14403,-1.08556 0.39648,-1.54408c0.01797,-0.05511 0.04784,-0.10565 0.08718,-0.14826c0.56742,-0.91142 1.57796,-1.51969 2.72837,-1.51969c1.17511,0 2.20435,0.63467 2.76435,1.57896zM119.1516,148.57521c0.17786,-0.03579 0.49742,-0.14424 0.92146,-0.38906c0.21185,-0.12226 0.38073,-0.23889 0.51232,-0.34233c-0.22414,-0.07699 -0.49345,-0.19729 -0.81345,-0.38203c-0.33033,-0.19072 -0.5741,-0.36898 -0.75457,-0.52848c-0.0558,0.20311 -0.08617,0.41656 -0.08617,0.63714c0,0.35854 0.07929,0.69872 0.22042,1.00477zM123.52879,146.56569c-0.17786,0.03579 -0.49751,0.14434 -0.92145,0.38906c-0.18856,0.10886 -0.34318,0.2133 -0.4678,0.30791c0.21506,0.07729 0.46981,0.19358 0.76893,0.36628c0.33711,0.19463 0.58428,0.37635 0.76582,0.53831c0.04883,-0.19091 0.07493,-0.39087 0.07493,-0.59679c0,-0.35854 -0.0793,-0.69871 -0.22043,-1.00476zM121.56449,145.17222c-0.05796,0.17184 -0.12391,0.50298 -0.12391,0.99297c0,0.23674 0.01557,0.43574 0.03809,0.5986c0.17756,-0.15328 0.41345,-0.32327 0.72723,-0.50444c0.33184,-0.19157 0.60912,-0.31383 0.83808,-0.39031c-0.38664,-0.3872 -0.90409,-0.64341 -1.47949,-0.69681zM119.38197,146.16994c0.12241,0.13672 0.37475,0.35584 0.79141,0.59639c0.20376,0.11764 0.38283,0.20326 0.5345,0.26509c-0.04235,-0.2278 -0.07031,-0.51212 -0.07031,-0.86624c0,-0.38374 0.03287,-0.68536 0.08125,-0.9221c-0.54605,0.14595 -1.01594,0.47944 -1.33685,0.92686zM121.11591,149.96867c0.05796,-0.17184 0.12392,-0.50298 0.12392,-0.99297c0,-0.23674 -0.01556,-0.43574 -0.03809,-0.5986c-0.17756,0.15328 -0.41345,0.32327 -0.72723,0.50445c-0.33204,0.19172 -0.60918,0.31368 -0.83824,0.39016c0.38664,0.3873 0.90418,0.64356 1.47964,0.69696zM123.31821,148.94313c-0.11398,-0.1344 -0.37135,-0.36487 -0.81119,-0.61882c-0.20854,-0.12035 -0.39131,-0.20732 -0.54519,-0.26941c0.04823,0.23649 0.081,0.53772 0.081,0.9208c0,0.38374 -0.03287,0.68537 -0.08125,0.9221c0.55734,-0.14896 1.03543,-0.4932 1.35664,-0.95468z" fill="#000000" fill-rule="nonzero" stroke="none" stroke-width="1" stroke-linecap="butt" stroke-linejoin="miter"/><path d="M132.98381,144.75992v5.62105c0,0.88557 -0.72045,1.60602 -1.60602,1.60602h-10.03759c-2.43527,0 -4.41654,-1.98128 -4.41654,-4.41655c0,-2.43527 1.98127,-4.41654 4.41654,-4.41654h8.43158c0.22173,0 0.40151,0.17978 0.40151,0.40151c0,0.22173 -0.17978,0.4015 -0.40151,0.4015h-8.43158c-1.99251,0 -3.61353,1.62102 -3.61353,3.61353c0,1.99251 1.62102,3.61354 3.61353,3.61354h10.03759c0.44276,0 0.80301,-0.36025 0.80301,-0.80301v-5.62105c0,-0.44276 -0.36025,-0.80301 -0.80301,-0.80301c-0.22173,0 -0.4015,-0.17977 -0.4015,-0.4015c0,-0.22173 0.17977,-0.40151 0.4015,-0.40151c0.88557,0 1.60602,0.72045 1.60602,1.60602z" fill="#000000" fill-rule="nonzero" stroke="none" stroke-width="1" stroke-linecap="butt" stroke-linejoin="miter"/><path d="M115.71915,147.16894v0.80301c0,0.44276 -0.36025,0.803 -0.80301,0.803h-1.20451c-0.44276,0 -0.80301,-0.36024 -0.80301,-0.803v-0.80301c0,-0.44276 0.36025,-0.803 0.80301,-0.803h1.20451c0.44276,0 0.80301,0.36024 0.80301,0.803zM114.91618,147.97195l-0.00005,-0.80301h-1.20451v0.80301z" fill="#000000" fill-rule="nonzero" stroke="none" stroke-width="1" stroke-linecap="butt" stroke-linejoin="miter"/><path d="M115.71915,144.35842v0.803c0,0.44276 -0.36025,0.80301 -0.80301,0.80301h-1.20451c-0.44276,0 -0.80301,-0.36025 -0.80301,-0.80301v-0.803c0,-0.44276 0.36025,-0.80301 0.80301,-0.80301h1.20451c0.44276,0 0.80301,0.36025 0.80301,0.80301zM114.91618,145.16143l-0.00005,-0.803h-1.20451v0.803z" fill="#000000" fill-rule="nonzero" stroke="none" stroke-width="1" stroke-linecap="butt" stroke-linejoin="miter"/><path d="M115.71915,149.97947v0.80301c0,0.44276 -0.36025,0.803 -0.80301,0.803h-1.20451c-0.44276,0 -0.80301,-0.36024 -0.80301,-0.803v-0.80301c0,-0.44276 0.36025,-0.80301 0.80301,-0.80301h1.20451c0.44276,0 0.80301,0.36025 0.80301,0.80301zM114.91618,150.78248l-0.00005,-0.80301h-1.20451v0.80301z" fill="#000000" fill-rule="nonzero" stroke="none" stroke-width="1" stroke-linecap="butt" stroke-linejoin="miter"/><path d="M131.37779,145.16143c0,0.22173 -0.17977,0.40151 -0.4015,0.40151h-1.20451c-0.22173,0 -0.4015,-0.17978 -0.4015,-0.40151c0,-0.22173 0.17977,-0.4015 0.4015,-0.4015h1.20451c0.22173,0 0.4015,0.17977 0.4015,0.4015z" fill="#000000" fill-rule="nonzero" stroke="none" stroke-width="1" stroke-linecap="butt" stroke-linejoin="miter"/><path d="M131.37779,149.97947c0,0.22173 -0.17977,0.4015 -0.4015,0.4015h-1.20451c-0.22173,0 -0.4015,-0.17977 -0.4015,-0.4015c0,-0.22173 0.17977,-0.40151 0.4015,-0.40151h1.20451c0.22173,0 0.4015,0.17978 0.4015,0.40151z" fill="#000000" fill-rule="nonzero" stroke="none" stroke-width="1" stroke-linecap="butt" stroke-linejoin="miter"/><path d="M131.37779,146.36594c0,0.22173 -0.17977,0.4015 -0.4015,0.4015h-1.20451c-0.22173,0 -0.4015,-0.17977 -0.4015,-0.4015c0,-0.22173 0.17977,-0.40151 0.4015,-0.40151h1.20451c0.22173,0 0.4015,0.17978 0.4015,0.40151z" fill="#000000" fill-rule="nonzero" stroke="none" stroke-width="1" stroke-linecap="butt" stroke-linejoin="miter"/><path d="M131.37779,147.57045c0,0.22173 -0.17977,0.40151 -0.4015,0.40151h-1.20451c-0.22173,0 -0.4015,-0.17978 -0.4015,-0.40151c0,-0.22173 0.17977,-0.4015 0.4015,-0.4015h1.20451c0.22173,0 0.4015,0.17977 0.4015,0.4015z" fill="#000000" fill-rule="nonzero" stroke="none" stroke-width="1" stroke-linecap="butt" stroke-linejoin="miter"/><path d="M131.37779,148.77496c0,0.22173 -0.17977,0.40151 -0.4015,0.40151h-1.20451c-0.22173,0 -0.4015,-0.17978 -0.4015,-0.40151c0,-0.22173 0.17977,-0.4015 0.4015,-0.4015h1.20451c0.22173,0 0.4015,0.17977 0.4015,0.4015z" fill="#000000" fill-rule="nonzero" stroke="none" stroke-width="1" stroke-linecap="butt" stroke-linejoin="miter"/><path d="M54.35437,276.52112c0,-14.91128 0,-46.27471 0,-54.7517c0,-4.13258 3.78547,-8.47779 9.73676,-8.47779c17.4187,0 67.39397,0 68.25363,0c4.83589,0 9.7879,4.19405 9.7879,8.21954c0,8.46174 0,40.39112 0,55.26822c0,4.71457 -3.80597,7.71666 -9.7879,7.71666c-19.09446,0 -58.14777,0 -68.56962,0c-4.68015,0 -9.42077,-3.11289 -9.42077,-7.97493z" fill="#f9f9f9" fill-rule="nonzero" stroke-opacity="0.01176" stroke="#000000" stroke-width="2" stroke-linecap="butt" stroke-linejoin="miter"/><text transform="translate(60.03482,228.99729) scale(0.32953,0.32953)" font-size="40" xml:space="preserve" fill="#000000" fill-rule="nonzero" stroke="none" stroke-width="1" stroke-linecap="butt" stroke-linejoin="miter" font-family="Pixel" font-weight="normal" text-anchor="start"><tspan x="0" dy="0">FPS</tspan></text><path d="M125.91398,215.74398h6.3354c0.67196,0 1.21668,0.54472 1.21668,1.21668v10.95015c0,0.67196 -0.54473,1.21668 -1.21668,1.21668h-8.51678c-0.67196,0 -1.21668,-0.54473 -1.21668,-1.21668v-8.76876zM123.73259,219.64601v8.2648h8.51678v-10.95015h-5.83143zM130.42436,217.56901h1.21668v3.65005h-1.21668zM128.59933,217.56901h1.21668v3.65005h-1.21668zM126.77431,217.56901h1.21668v3.65005h-1.21668zM124.94928,219.39403h1.21668v2.43337h-1.21668z" fill="#000000" fill-rule="evenodd" stroke="none" stroke-width="1" stroke-linecap="butt" stroke-linejoin="miter"/></g></g></svg>