<svg version="1.1" xmlns="http://www.w3.org/2000/svg" xmlns:xlink="http://www.w3.org/1999/xlink" width="226.49887" height="120.47894" viewBox="0,0,226.49887,120.47894"><g transform="translate(-100.16479,-188.43495)"><g stroke-miterlimit="10"><path d="M100.66479,195.33028c0,-3.53209 5.23789,-6.39533 11.69912,-6.39533h202.1007c3.10276,0 6.07837,0.67379 8.27257,1.8732c2.19399,1.19934 3.42648,2.82603 3.42648,4.52215c0,0 0,1.63202 0,3.71164c0,10.95389 0,102.97664 0,102.97664c0,3.5321 -5.23789,6.39531 -11.69912,6.39531h-202.10056c-6.46134,0 -11.69911,-2.86322 -11.69911,-6.39531z" fill="#fcfff9" fill-rule="evenodd" stroke="#f2f5f0" stroke-width="1" stroke-linecap="square" stroke-linejoin="miter"/><text transform="translate(136.56849,266.77378) scale(0.43897,0.43897)" font-size="40" xml:space="preserve" fill="#565656" fill-rule="nonzero" stroke="none" stroke-width="1" stroke-linecap="butt" stroke-linejoin="miter" font-family="Sans Serif" font-weight="400" text-anchor="start"><tspan x="0" dy="0">你确定要重置账号？</tspan></text><text transform="translate(113.24966,204.47196) scale(0.26775,0.26775)" font-size="40" xml:space="preserve" fill="#4c4c4c" fill-rule="nonzero" stroke="none" stroke-width="1" stroke-linecap="butt" stroke-linejoin="miter" font-family="Sans Serif" font-weight="normal" text-anchor="start"><tspan x="0" dy="0">警告</tspan></text><path d="M308.71026,196.52065l10,10" fill="none" fill-rule="nonzero" stroke="#626262" stroke-width="1.5" stroke-linecap="round" stroke-linejoin="round"/><path d="M318.71026,196.52065l-10,10" fill="none" fill-rule="nonzero" stroke="#626262" stroke-width="1.5" stroke-linecap="round" stroke-linejoin="round"/></g></g></svg>