<svg version="1.1" xmlns="http://www.w3.org/2000/svg" xmlns:xlink="http://www.w3.org/1999/xlink" width="352.99696" height="20.95556" viewBox="0,0,352.99696,20.95556"><g transform="translate(-223.50152,-214.52222)"><g data-paper-data="{&quot;isPaintingLayer&quot;:true}" fill-rule="nonzero" stroke-miterlimit="10" stroke-dasharray="" stroke-dashoffset="0" style="mix-blend-mode: normal"><path d="M223.50152,231.88169c0,-4.19108 0,-10.8568 0,-13.31832c0,-1.80958 1.22064,-4.04115 3.12279,-4.04115c18.87391,0 309.81354,0 346.15628,0c2.42635,0 3.71789,2.27323 3.71789,5.18464c0,3.99644 0,9.19535 0,11.36767c0,1.93664 -1.48018,4.40325 -4.24834,4.40325c-38.65995,0 -328.53668,0 -346.06787,0c-1.64339,0 -2.68075,-1.48374 -2.68075,-3.59609z" fill="#e9eef0" stroke="none" stroke-width="NaN" stroke-linecap="butt" stroke-linejoin="miter"/><path d="M243.81045,229.25816v2.77948h-5.16189" fill="none" stroke="#e1ccb1" stroke-width="1.5" stroke-linecap="round" stroke-linejoin="round"/><path d="M238.64856,218.53732h5.16189v11.4852" fill="none" stroke="#e1ccb1" stroke-width="1.5" stroke-linecap="round" stroke-linejoin="round"/><path d="M238.64856,229.35473v3.87412l-8.18857,-2.13674v-1.83394" fill="none" stroke="#e1ccb1" stroke-width="1.5" stroke-linecap="round" stroke-linejoin="round"/><path d="M230.45997,229.7257v-10.24286l8.18857,-2.13672v12.91091" fill="none" stroke="#e1ccb1" stroke-width="1.5" stroke-linecap="round" stroke-linejoin="round"/><path d="M234.59727,222.83217c0,0 0.19308,5.19019 -1.10836,5.24655c-1.30144,0.05636 -1.17987,-5.3147 -1.17987,-5.3147" fill="none" stroke="#e1ccb1" stroke-width="1.5" stroke-linecap="round" stroke-linejoin="miter"/><path d="M236.95701,222.83217c0,0 0.19308,5.19019 -1.10837,5.24655c-1.30144,0.05636 -1.17986,-5.3147 -1.17986,-5.3147" fill="none" stroke="#e1ccb1" stroke-width="1.5" stroke-linecap="round" stroke-linejoin="miter"/></g></g></svg>