<svg version="1.1" xmlns="http://www.w3.org/2000/svg" xmlns:xlink="http://www.w3.org/1999/xlink" width="31.64707" height="27.07961" viewBox="0,0,31.64707,27.07961"><g transform="translate(-303.68815,-89.5023)"><g stroke-miterlimit="10"><path d="M304.28276,114.57105c0,0 -0.0946,-0.01026 -0.0946,-2.26896c0,-5.39887 0,-15.01178 0,-18.13836c0,-1.93231 0.12614,-2.91332 0.12614,-2.91332c0,0 0.1249,-1.2481 0.4772,-1.2481c2.20712,0 24.17562,0 29.07738,0c0.61946,0 0.60977,1.1999 0.60977,1.1999c0,0 0.35658,1.49559 0.35658,3.702c0,3.16055 0,12.02296 0,17.22721c0,2.34736 -0.23315,3.17913 -0.23315,3.17913c0,0 -0.06276,0.77137 -0.59605,0.77137c-4.62784,0 -27.13202,0 -29.27035,0c-0.32163,0 -0.45291,-1.51086 -0.45291,-1.51086z" fill-opacity="0.8549" fill="#ffffff" stroke="#ffffff" stroke-width="1" stroke-linecap="butt" stroke-linejoin="miter"/><path d="M322.41281,112.96053l-2.40034,-9.58743l-9.59142,-1.85594l18.22369,-6.78032z" fill="none" stroke="#3f3f3f" stroke-width="1.5" stroke-linecap="butt" stroke-linejoin="round"/><path d="M323.10005,99.93506l-2.97726,2.97726" fill="none" stroke="#3f3f3f" stroke-width="1.5" stroke-linecap="round" stroke-linejoin="round"/></g></g></svg>