<svg version="1.1" xmlns="http://www.w3.org/2000/svg" xmlns:xlink="http://www.w3.org/1999/xlink" width="131.98545" height="33.7786" viewBox="0,0,131.98545,33.7786"><defs><linearGradient x1="374.66705" y1="188.36602" x2="374.66705" y2="222.14462" gradientUnits="userSpaceOnUse" id="color-1"><stop offset="0" stop-color="#e6f1e3"/><stop offset="1" stop-color="#a7f296"/></linearGradient></defs><g transform="translate(-308.67433,-188.36602)"><g stroke-miterlimit="10"><path d="M308.67433,214.1252c0,-6.28592 0,-14.54436 0,-18.10263c0,-3.31153 4.7921,-7.65655 9.95381,-7.65655c14.63976,0 85.63282,0 112.07783,0c6.20202,0 9.95381,4.53708 9.95381,7.9439c0,3.56994 0,11.71401 0,17.91106c0,4.46783 -3.75159,7.82786 -9.95381,7.82786c-26.47713,0 -97.61481,0.09578 -112.1977,0.09578c-5.10693,0 -9.83394,-3.49986 -9.83394,-8.01942z" fill="url(#color-1)" stroke="none" stroke-width="0" stroke-linecap="butt" stroke-linejoin="miter"/><path d="M319.61283,204.28681c0,-4.24989 3.44525,-7.69515 7.69515,-7.69515c4.24989,0 7.69515,3.44525 7.69515,7.69515c0,4.24989 -3.44525,7.69515 -7.69515,7.69515c-4.24989,0 -7.69515,-3.44525 -7.69515,-7.69515z" fill="none" stroke="#ffffff" stroke-width="1.5" stroke-linecap="butt" stroke-linejoin="round"/><path d="M324.74745,201.27353c0.65531,-0.65531 1.56062,-1.06062 2.56058,-1.06062c1,0 1.90532,0.40531 2.56063,1.06062" fill="none" stroke="#ffffff" stroke-width="1.5" stroke-linecap="round" stroke-linejoin="round"/><path d="M332.84016,209.81903l3.84092,3.84092" fill="none" stroke="#ffffff" stroke-width="1.5" stroke-linecap="round" stroke-linejoin="round"/></g></g></svg>