<svg version="1.1" xmlns="http://www.w3.org/2000/svg" xmlns:xlink="http://www.w3.org/1999/xlink" width="46.41797" height="42.93214" viewBox="0,0,46.41797,42.93214"><g transform="translate(-376.79101,-203.53393)"><g fill="#000000" stroke="none" stroke-miterlimit="10"><path d="M392.4596,238.34377c2.24291,0 4.06116,1.81823 4.06116,4.06114c0,2.24291 -1.81824,4.06116 -4.06116,4.06116c-2.24291,0 -4.06115,-1.81824 -4.06115,-4.06116c0,-2.24291 1.81823,-4.06114 4.06115,-4.06114zM392.4596,241.24459c-0.64084,0 -1.16032,0.51947 -1.16032,1.16031c0,0.64084 0.51949,1.16033 1.16032,1.16033c0.64084,0 1.16033,-0.5195 1.16033,-1.16033c0,-0.64084 -0.5195,-1.16031 -1.16033,-1.16031zM416.26856,218.03803c3.83279,0 6.94043,3.10479 6.94043,6.93539c0,3.82883 -3.13866,6.95168 -6.97328,6.95168l0.03806,0.00106c-0.05663,0.01281 -0.11451,0.02232 -0.17341,0.02832l-0.14831,0.00748l-3.51984,-0.00033c0.65639,0.99893 1.03801,2.19186 1.03801,3.47404c0,3.55301 -2.66677,6.39028 -6.19085,6.39028c-3.5021,0 -5.59453,-2.02605 -6.16255,-4.85991c-0.15744,-0.7854 0.35166,-1.54976 1.13707,-1.70717c0.78541,-0.15744 1.54975,0.35166 1.70717,1.13707c0.3138,1.56553 1.30904,2.52921 3.31832,2.52921c1.88043,0 3.29002,-1.49973 3.29002,-3.48946c0,-1.84632 -1.46639,-3.36187 -3.32284,-3.46779l-0.20782,-0.0059h-28.79732c-0.80104,0 -1.45041,-0.64939 -1.45041,-1.45042c0,-0.75096 0.57075,-1.36863 1.30211,-1.4429l0.1483,-0.00748l37.67025,-0.00052c0.1042,-0.02378 0.21268,-0.03634 0.32405,-0.03634c2.23581,0 4.07244,-1.82742 4.07244,-4.05085c0,-2.22793 -1.80831,-4.03456 -4.03962,-4.03456c-2.13921,0 -3.90425,1.66621 -4.03216,3.78681c-0.04823,0.79959 -0.73552,1.40868 -1.5351,1.36046c-0.79959,-0.04824 -1.40868,-0.73552 -1.36046,-1.53509c0.22019,-3.65041 3.25259,-6.51299 6.92773,-6.51299zM398.82744,204.69426c5.12124,0 9.27282,4.15159 9.27282,9.27283c0,5.03392 -4.01122,9.13098 -9.01173,9.2692l-0.12375,0.0175l-0.12751,0.00571h-20.59582c-0.80104,0 -1.45042,-0.64937 -1.45042,-1.45041c0,-0.75096 0.57076,-1.36867 1.30212,-1.44294l0.1483,-0.00748l20.35352,-0.00107l0.11496,-0.01384l0.11754,-0.00469c3.51918,0 6.37199,-2.85284 6.37199,-6.37199c0,-3.51917 -2.85284,-6.37199 -6.37199,-6.37199c-3.51918,0 -6.37199,2.85283 -6.37199,6.37199c0,0.80104 -0.64938,1.45042 -1.45042,1.45042c-0.80104,0 -1.45042,-0.64938 -1.45042,-1.45042c0,-5.12124 4.15157,-9.27282 9.27281,-9.27282zM416.82649,205.87071c2.24291,0 4.06114,1.81824 4.06114,4.06116c0,2.24291 -1.81824,4.06116 -4.06114,4.06116c-2.24291,0 -4.06116,-1.81824 -4.06116,-4.06116c0,-2.24291 1.81824,-4.06116 4.06116,-4.06116zM380.85487,203.53393c2.24212,0 4.05967,1.81759 4.05967,4.05971c0,2.24212 -1.81757,4.05971 -4.05967,4.05971c-2.24212,0 -4.05971,-1.81759 -4.05971,-4.05971c0,-2.24212 1.81759,-4.05971 4.05971,-4.05971zM416.82649,208.77154c-0.64084,0 -1.16033,0.5195 -1.16033,1.16033c0,0.64084 0.5195,1.16033 1.16033,1.16033c0.64084,0 1.1603,-0.5195 1.1603,-1.16033c0,-0.64084 -0.51946,-1.16033 -1.1603,-1.16033zM380.85487,206.43477c-0.64002,0 -1.15887,0.51886 -1.15887,1.15887c0,0.64002 0.51885,1.15887 1.15887,1.15887c0.64002,0 1.15886,-0.51885 1.15886,-1.15887c0,-0.64002 -0.51882,-1.15887 -1.15886,-1.15887z"/></g></g></svg>