<svg version="1.1" xmlns="http://www.w3.org/2000/svg" xmlns:xlink="http://www.w3.org/1999/xlink" width="134" height="55" viewBox="0,0,134,55"><defs><radialGradient cx="193.53038" cy="162.43299" r="10.45965" gradientUnits="userSpaceOnUse" id="color-1"><stop offset="0" stop-color="#2287fd"/><stop offset="1" stop-color="#269afd"/></radialGradient><linearGradient x1="201.17591" y1="159.66858" x2="201.17591" y2="181.49813" gradientUnits="userSpaceOnUse" id="color-2"><stop offset="0" stop-color="#53afe9"/><stop offset="1" stop-color="#71d3e3"/></linearGradient></defs><g transform="translate(-168.87782,-144.80005)"><g stroke-miterlimit="10"><path d="M168.87782,199.80005v-55h134v55z" fill="none" stroke="none" stroke-width="0" stroke-linecap="butt" stroke-linejoin="miter"/><g stroke="none" stroke-width="1" stroke-linecap="butt" stroke-linejoin="miter"><path d="M190.60039,185.00107c-4.14213,0 -7.5,-4.06467 -7.5,-8.79379c0,-4.72754 0,-10.11909 0,-12.77778c0,-3.12088 3.35787,-7.42843 7.5,-7.42843h94c4.14213,0 7.5,4.11109 7.5,7.14003c0,2.5099 0,8.91269 0,13.51852c0,5.11981 -3.35787,8.34145 -7.5,8.34145z" fill="#ffffff"/><path d="M284.60038,156.5438h-94c-3.86418,0.00437 -6.99563,3.13582 -7,7v14c0.00437,3.86418 3.13582,6.99563 7,7h94c3.86418,-0.00438 6.99563,-3.13582 7,-7v-14c-0.00437,-3.86418 -3.13582,-6.99562 -7,-7M292.60038,163.5438v14c0,4.41828 -3.58172,8 -8,8h-94c-4.41828,0 -8,-3.58172 -8,-8v-14c0,-4.41828 3.58172,-8 8,-8h94c4.41828,0 8,3.58172 8,8z" fill="#cccccc"/></g><text transform="translate(226.8973,173.11691) scale(0.22047,0.22047)" font-size="40" xml:space="preserve" fill-opacity="0.9098" fill="#000000" stroke="none" stroke-width="0" stroke-linecap="butt" stroke-linejoin="miter" font-family="&quot;Exo-Bold&quot;, Sans Serif" font-weight="normal" text-anchor="start"><tspan x="0" dy="0">时钟</tspan></text><path d="M204.48259,159.74213c2.07447,0.01827 4.4973,0.17172 5.78348,1.4579c1.27211,1.27211 1.43211,3.6521 1.45222,5.71024c0.00285,0.29071 0.00282,6.37521 -0.00149,6.71275c-0.02597,2.03159 -0.20578,4.35369 -1.45073,5.59865c-1.23125,1.23125 -3.50412,1.40874 -5.51588,1.43426c-0.36035,0.00457 -6.45422,0.00446 -6.73728,0.00224c-2.05989,-0.01615 -4.43925,-0.1601 -5.71565,-1.4365c-1.26278,-1.26278 -1.44581,-3.63376 -1.47206,-5.68572c-0.00393,-0.30715 -0.00427,-6.45061 0.00063,-6.80372c0.02806,-2.02088 0.21429,-4.31818 1.45014,-5.55403c1.24003,-1.24003 3.53658,-1.41122 5.55887,-1.43478c0.34536,-0.00403 6.38063,-0.00363 6.64775,-0.00128z" fill="url(#color-1)" stroke="none" stroke-width="0.47449" stroke-linecap="butt" stroke-linejoin="miter"/><path d="M204.527,159.67041c2.16474,0.01907 4.69299,0.1792 6.03513,1.52134c1.32746,1.32746 1.49443,3.81101 1.51542,5.9587c0.00297,0.30336 0.00294,6.65261 -0.00155,7.00484c-0.0271,2.11999 -0.21473,4.54313 -1.51386,5.84226c-1.28483,1.28483 -3.65659,1.47004 -5.75589,1.49667c-0.37604,0.00477 -6.73506,0.00465 -7.03044,0.00233c-2.14952,-0.01685 -4.63242,-0.16707 -5.96436,-1.499c-1.31773,-1.31773 -1.50871,-3.79188 -1.53611,-5.93313c-0.0041,-0.32051 -0.00446,-6.73129 0.00066,-7.09977c0.02928,-2.10882 0.22361,-4.50608 1.51324,-5.7957c1.29398,-1.29398 3.69047,-1.47263 5.80075,-1.49721c0.36039,-0.00421 6.65827,-0.00378 6.93701,-0.00133z" fill="url(#color-2)" stroke="none" stroke-width="0.47449" stroke-linecap="butt" stroke-linejoin="miter"/><path d="M194.84441,171.15998c0,-3.51007 2.84547,-6.35556 6.35554,-6.35556c3.5101,0 6.35558,2.84549 6.35558,6.35556c0,3.51007 -2.84547,6.35554 -6.35558,6.35554c-3.51007,0 -6.35554,-2.84547 -6.35554,-6.35554z" fill="none" stroke="#ffffff" stroke-width="1.5" stroke-linecap="butt" stroke-linejoin="round"/><path d="M203.81059,173.98006l-2.6944,-2.6944l0.00042,-3.81638" fill="none" stroke="#ffffff" stroke-width="1.5" stroke-linecap="round" stroke-linejoin="round"/><path d="M194.26669,165.2667l2.42667,-1.73333" fill="none" stroke="#ffffff" stroke-width="1.5" stroke-linecap="round" stroke-linejoin="round"/><path d="M208.13336,165.2667l-2.42667,-1.73333" fill="none" stroke="#ffffff" stroke-width="1.5" stroke-linecap="round" stroke-linejoin="round"/></g></g></svg>