<svg version="1.1" xmlns="http://www.w3.org/2000/svg" xmlns:xlink="http://www.w3.org/1999/xlink" width="308.41127" height="20.92898" viewBox="0,0,308.41127,20.92898"><defs><linearGradient x1="338.89114" y1="147.52194" x2="338.89114" y2="163.25312" gradientUnits="userSpaceOnUse" id="color-1"><stop offset="0" stop-color="#000000"/><stop offset="1" stop-color="#434343"/></linearGradient><linearGradient x1="338.77941" y1="150.96361" x2="338.77941" y2="159.73137" gradientUnits="userSpaceOnUse" id="color-2"><stop offset="0" stop-color="#919191"/><stop offset="1" stop-color="#d9d9d9"/></linearGradient><linearGradient x1="336.45047" y1="153.70353" x2="336.45047" y2="156.99144" gradientUnits="userSpaceOnUse" id="color-3"><stop offset="0" stop-color="#919191"/><stop offset="1" stop-color="#d9d9d9"/></linearGradient><linearGradient x1="340.28636" y1="157.17911" x2="340.28636" y2="157.89975" gradientUnits="userSpaceOnUse" id="color-4"><stop offset="0" stop-color="#919191"/><stop offset="1" stop-color="#d9d9d9"/></linearGradient></defs><g transform="translate(-321.81971,-145.01234)"><g stroke-miterlimit="10"><path d="M321.81971,160.24007c0,-3.09396 0,-7.85281 0,-9.69697c0,-2.50379 3.4799,-5.53076 9.31612,-5.53076c27.53257,0 239.91381,0 289.64614,0c6.73087,0 9.44901,3.31191 9.44901,5.92979c0,1.79999 0,6.35432 0,9.29794c0,3.37251 -2.79963,5.70125 -9.66563,5.70125c-50.07083,0 -261.49535,0 -289.2129,0c-5.94787,0 -9.53274,-2.31286 -9.53274,-5.70125z" fill="#f9f9f9" stroke="none" stroke-width="0" stroke-linecap="butt" stroke-linejoin="miter"/><text transform="translate(369.38118,158.38009) scale(0.23741,0.23741)" font-size="40" xml:space="preserve" fill="#515151" stroke="none" stroke-width="1" stroke-linecap="butt" stroke-linejoin="miter" font-family="Sans Serif" font-weight="normal" text-anchor="start"><tspan x="0" dy="0">执行命令</tspan></text><path d="M341.30605,147.52326c1.55999,0.01374 3.38194,0.12913 4.34915,1.09633c0.95662,0.95662 1.07694,2.74636 1.09206,4.29406c0.00214,0.21861 0.00213,4.79412 -0.00112,5.04795c-0.01953,1.52774 -0.15474,3.27395 -1.09094,4.21015c-0.9259,0.9259 -2.63508,1.05937 -4.14791,1.07856c-0.27098,0.00344 -4.85354,0.00336 -5.0664,0.00169c-1.54902,-0.01214 -3.33829,-0.1204 -4.29813,-1.08024c-0.94961,-0.94961 -1.08724,-2.73257 -1.10698,-4.27563c-0.00295,-0.23097 -0.00321,-4.85082 0.00048,-5.11636c0.0211,-1.51969 0.16114,-3.24725 1.0905,-4.1766c0.9325,-0.9325 2.65949,-1.06123 4.18024,-1.07895c0.25971,-0.00303 4.7982,-0.00273 4.99907,-0.00096z" fill="url(#color-1)" stroke="none" stroke-width="0.47449" stroke-linecap="butt" stroke-linejoin="miter"/><path d="M333.84754,159.73137c-0.30265,0 -0.54799,-0.24534 -0.54799,-0.54799v-7.67179c0,-0.30265 0.24534,-0.54799 0.54799,-0.54799h9.86373c0.30265,0 0.54799,0.24534 0.54799,0.54799v7.67179c0,0.30265 -0.24534,0.54799 -0.54799,0.54799z" fill="none" stroke="url(#color-2)" stroke-width="1" stroke-linecap="butt" stroke-linejoin="round"/><path d="M335.4915,153.70353l1.91795,1.64395l-1.91795,1.64395" fill="none" stroke="url(#color-3)" stroke-width="1" stroke-linecap="round" stroke-linejoin="round"/><path d="M338.5054,157.53943h3.5619" fill="none" stroke="url(#color-4)" stroke-width="1" stroke-linecap="round" stroke-linejoin="round"/></g></g></svg>