<svg version="1.1" xmlns="http://www.w3.org/2000/svg" xmlns:xlink="http://www.w3.org/1999/xlink" width="874.85135" height="562.24123" viewBox="0,0,874.85135,562.24123"><defs><linearGradient x1="418.02103" y1="-4.65369" x2="418.02103" y2="556.08755" gradientUnits="userSpaceOnUse" id="color-1"><stop offset="0" stop-color="#9aede2"/><stop offset="1" stop-color="#c5ede8"/></linearGradient><linearGradient x1="240.34073" y1="380.28283" x2="240.34073" y2="389.99844" gradientUnits="userSpaceOnUse" id="color-2"><stop offset="0" stop-color="#9aede2"/><stop offset="1" stop-color="#c5ede8"/></linearGradient><linearGradient x1="363.40323" y1="24.86844" x2="363.40323" y2="74.89172" gradientUnits="userSpaceOnUse" id="color-3"><stop offset="0" stop-color="#335bc2"/><stop offset="1" stop-color="#c2c2c2"/></linearGradient></defs><g transform="translate(19.40466,5.40369)"><g stroke-miterlimit="10"><path d="M-18.65466,556.08755v-560.74123h873.35135v560.74123zM173.69035,176.62623c-0.2885,0.59837 -0.57703,1.19673 -0.86556,1.79509l-0.37579,0.6128c0,0 -0.74822,1.24144 0.74822,1.86216c0.49061,0.20352 0.90082,0.20685 1.23059,0.11941c0.11682,0.01756 0.24424,0.02712 0.38318,0.02712c1.67308,0 1.67308,-1.38797 1.67308,-1.38797l-0.04995,-0.38141c0.31072,-1.04123 0.74631,-2.05707 1.22859,-3.05234c0,0 0.62137,-1.2887 -0.93206,-1.80418c-1.55343,-0.51548 -2.17478,0.77323 -2.17478,0.77323c-0.14303,0.298 -0.28222,0.59758 -0.41617,0.89886c-0.31053,0.24924 -0.44938,0.53722 -0.44938,0.53722z" fill="url(#color-1)" fill-rule="nonzero" stroke="#afeba3" stroke-width="1.5" stroke-linecap="butt" stroke-linejoin="miter"/><text transform="translate(17.81427,78.36473) scale(0.78169,0.78169)" font-size="40" xml:space="preserve" fill-opacity="0.9451" fill="#f9f9f9" fill-rule="nonzero" stroke="none" stroke-width="1" stroke-linecap="butt" stroke-linejoin="miter" font-family="Sans Serif" font-weight="normal" text-anchor="start"><tspan x="0" dy="0">你的电脑出现了错误</tspan></text><text transform="translate(636.78608,441.40661) scale(0.41817,0.41817)" font-size="40" xml:space="preserve" fill="#b8b8b8" fill-rule="nonzero" stroke="none" stroke-width="1" stroke-linecap="butt" stroke-linejoin="miter" font-family="Sans Serif" font-weight="normal" text-anchor="start"><tspan x="0" dy="0">请稍后，正在重启....</tspan></text><path d="M216.11553,385.50472l52,-1" fill="none" fill-rule="nonzero" stroke="#ffffff" stroke-width="2" stroke-linecap="round" stroke-linejoin="miter"/><path d="M201.76311,199.53756v-31.89493h56.28518v31.89493z" fill-opacity="0.9451" fill="#f9f9f9" fill-rule="nonzero" stroke="#000000" stroke-width="1.5" stroke-linecap="butt" stroke-linejoin="miter"/><path d="M227.98823,199.92755v8.79462" fill="none" fill-rule="nonzero" stroke="#000000" stroke-width="1.5" stroke-linecap="round" stroke-linejoin="miter"/><path d="M230.57488,199.92756l-0.25867,8.79462" fill="none" fill-rule="nonzero" stroke="#000000" stroke-width="1.5" stroke-linecap="round" stroke-linejoin="miter"/><path d="M241.95616,210.01548h-25.09054" fill="none" fill-rule="nonzero" stroke="#000000" stroke-width="1.5" stroke-linecap="round" stroke-linejoin="miter"/><path d="M216.86562,171.99172l23.79721,22.76255" fill="none" fill-rule="nonzero" stroke="#b10000" stroke-width="1.5" stroke-linecap="round" stroke-linejoin="miter"/><path d="M215.05496,194.75427l25.09053,-23.27988" fill="none" fill-rule="nonzero" stroke="#b10000" stroke-width="1.5" stroke-linecap="round" stroke-linejoin="miter"/><path d="M246.61212,194.75426l-1.81066,-0.776" fill="none" fill-rule="nonzero" stroke="#b10000" stroke-width="1.5" stroke-linecap="round" stroke-linejoin="miter"/><path d="M199.11578,160.04764c4.28354,-0.20056 15.54337,5.06159 18.12697,5.63229c4.12468,0.91112 10.50835,-5.63229 15.56204,-5.63229c4.84409,0 9.44294,2.65876 13.97068,3.98336c6.04679,1.76901 12.19467,2.44986 18.19297,4.1119c2.85855,0.79206 10.05115,2.80595 9.96936,6.65038c-0.1075,5.05223 -0.50684,6.78449 -4.52976,9.35087c-0.05164,0.03295 -0.87866,3.56149 -0.9375,3.7548c-0.59297,1.94833 -2.08937,2.55602 -3.10829,4.14648c-0.17158,0.26783 1.26032,1.72949 1.29763,1.80411c0.54305,1.0861 0.67423,2.56527 0.9375,3.75c0.61079,2.74856 -1.46473,5.27299 -3.07345,7.14984c-9.26901,10.81384 -31.24682,8.92045 -43.49332,9.40344c-9.89039,0.39006 -13.18636,2.2167 -23.42891,1.54045c-8.17966,-0.54005 -18.96335,-2.90035 -14.68243,-13.82511c1.04369,-2.66344 10.97905,-6.85316 14.3675,-8.87157c0.1811,-0.10788 -0.40352,-0.12219 -0.60609,-0.18053c-0.89434,-0.25759 -1.88643,-0.31163 -2.67162,-0.81129c-1.18359,-0.75319 -3.64514,-6.03823 -3.75,-6.5625c-0.18172,-0.90857 3.73945,-6.55306 3.75,-6.5625c0.74561,-0.66712 2.90526,0.15851 2.88106,-0.8417c-0.02468,-1.02017 -0.10036,-2.03861 -0.16981,-3.05671c-0.00267,-0.03922 -0.01566,-0.07837 -0.03794,-0.11758c-1.18487,-0.30106 -2.25718,-0.8842 -3.14121,-1.67371c-1.53791,-1.37347 -2.50609,-3.37152 -2.50609,-5.59571c0,-3.68327 2.65512,-6.74641 6.1558,-7.37987c0.29068,-0.09392 0.59808,-0.15155 0.92495,-0.16685z" fill="#aaede4" fill-rule="nonzero" stroke="none" stroke-width="0.5" stroke-linecap="butt" stroke-linejoin="miter"/><path d="M219.203,389.34251c-1.06066,1.06066 -2.12132,0 -2.12132,0l-1.40105,-1.40175c-1.65407,-1.49484 -3.44317,-2.7338 -5.02752,-4.31254c0,0 -1.06066,-1.06066 0,-2.12132c1.06066,-1.06066 2.12132,0 2.12132,0c1.25676,1.26173 2.65734,2.29985 4.01095,3.42843c0.23805,-0.39828 0.65553,-0.67694 1.14081,-0.72436l1.64868,-0.18319l0.00031,0.00279l0.00788,-0.00368c0.91505,-0.08783 1.81673,-0.23367 2.71404,-0.40096c0.66633,-0.80396 1.44407,-0.5638 1.83413,-0.36092c1.63774,-0.32836 3.28135,-0.64502 4.98576,-0.72635c6.9066,-0.3296 14.00309,-0.01466 20.93992,-0.00193c0.24886,-0.3065 0.61623,-0.51288 1.03233,-0.54937l1.83535,-0.18353l0.00195,0.01946c0.59618,-0.12441 1.25893,-0.074 2.38325,0.20829c0.94987,0.23849 1.77397,1.27188 2.73367,1.07667c1.1389,-0.23166 1.96581,-1.24079 2.96235,-1.83885l0.45182,-0.51516c0,0 1.06066,-1.06066 2.12132,0c1.06066,1.06066 0,2.12132 0,2.12132l-0.72985,0.68495c0.31221,-0.01869 0.62445,-0.03598 0.93673,-0.0517c1.78023,-0.29671 3.5423,-0.59522 5.21394,-0.60132c0,0 1.5,0 1.5,1.5c0,1.5 -1.5,1.5 -1.5,1.5c-5.18707,-0.02222 -10.19548,2.08868 -15.19769,0.41365c-3.30055,0.30241 -6.60848,0.5638 -9.93219,0.5663c-5.40476,0.60053 -10.80446,-0.15148 -16.19708,-0.18266c0.86935,3.74672 -4.15013,3.69097 -6.70723,2.76918c-0.49939,-0.18002 -0.93989,-0.45677 -1.34503,-0.79155c-0.06494,0.21343 -0.19422,0.43676 -0.41755,0.66009zM223.36795,386.44658c-0.41873,0.08349 -0.83795,0.165 -1.25868,0.24077c0.03348,0.02506 0.06986,0.0458 0.10988,0.06108c0.55321,0.21123 1.18973,-0.03646 1.77585,0.04796c0.00246,0.00035 0.00492,0.00071 0.00739,0.00107c-0.1854,-0.08013 -0.35277,-0.15708 -0.46429,-0.21597z" fill="url(#color-2)" fill-rule="nonzero" stroke="none" stroke-width="0.5" stroke-linecap="butt" stroke-linejoin="miter"/><text transform="translate(23.20639,41.63611) scale(0.81048,0.83433)" font-size="40" xml:space="preserve" fill-opacity="0.9451" fill="#f9f9f9" fill-rule="nonzero" stroke="none" stroke-width="1" stroke-linecap="butt" stroke-linejoin="miter" font-family="&quot;Exo-Bold&quot;, Sans Serif" font-weight="normal" text-anchor="start"><tspan x="0" dy="0">system:Error...</tspan></text><text transform="translate(28.61947,443.91989) scale(0.38206,0.38206)" font-size="40" xml:space="preserve" fill-opacity="0.9451" fill="#f9f9f9" fill-rule="nonzero" stroke="none" stroke-width="1" stroke-linecap="butt" stroke-linejoin="miter" font-family="&quot;Exo-Bold&quot;, Sans Serif" font-weight="normal" text-anchor="start"><tspan x="0" dy="0">Error reason: There is a problem with the system</tspan></text><path d="M182.322,132.77819c0,0.10705 -0.00458,0.20951 -0.01336,0.30758c0.05696,0.00759 0.11395,0.0151 0.17096,0.02253c3.57774,0.30514 7.2301,0.44133 10.83223,0.54548c0.79646,-0.08829 1.5866,-0.1524 2.32996,0.06449c0.74145,0.02006 1.47957,0.04001 2.21325,0.06108h2.97395c1.38071,0 2.5,1.11929 2.5,2.5c0,1.38071 -1.11929,2.5 -2.5,2.5h-5c-1.64521,0.33943 -7.05802,-0.18588 -9.19576,-0.37995c-2.87641,-0.14985 -5.7391,-0.36857 -8.52801,-0.72189c-5.00908,-0.63458 -10.00775,-2.25252 -14.89491,-3.47431c0,0 -1.60266,-0.40067 -1.8767,-1.85339c-0.93629,-0.74861 -1.99117,-1.58386 -2.7016,-2.50069l-2.78986,-0.62529c-1.14188,-0.23105 -2.00152,-1.24028 -2.00152,-2.4503c0,-1.30615 1.00167,-2.37835 2.27874,-2.49034l4.94768,-0.49477l0.00373,0.03734l0.12049,-0.04664c0.28872,-0.00025 1.49039,-0.00141 2.90936,-0.00255c3.11863,-0.31634 6.55829,-0.00056 8.21884,-0.00056h2.50083c1.14839,0 2.11593,0.77431 2.40902,1.82933c0.45809,0.01277 0.91455,0.06737 1.36897,0.17574c0.07445,-0.00086 0.1489,-0.00161 0.22335,-0.00223v-0.00217h4.00133c1.38071,0 2.5,1.11929 2.5,2.5c0,1.38071 -1.11929,2.5 -2.5,2.5h-1.43817c0.50498,0.35478 0.93717,0.96205 0.93717,2.0015z" fill="#aaede4" fill-rule="nonzero" stroke="none" stroke-width="0.5" stroke-linecap="butt" stroke-linejoin="miter"/><path d="M161.73956,163.19993c0.79057,-2.37171 3.16228,-1.58114 3.16228,-1.58114l3.17887,1.11757c2.77883,2.49353 5.08356,4.68926 7.26578,7.14067l0.27643,-0.30156l3.61459,3.31337c0.55362,0.08179 1.09928,0.18205 1.63369,0.30868h4.85305c0.4719,0 0.91325,0.13075 1.28983,0.35799c2.54879,0.12906 5.09155,0.30441 7.62287,0.54255c0.16532,0 0.33063,0 0.49595,0h5c1.38071,0 2.5,1.11929 2.5,2.5c0,1.38071 -1.11929,2.5 -2.5,2.5c-0.16577,0 -4.83423,0 -5,0c-4.7443,0 -9.48861,0 -14.23291,0c-1.30122,0.03051 -2.66704,0.09979 -4.05521,0.14889c1.37768,0.73118 2.67382,1.65967 4.15092,2.14717l3.48308,0.87077c1.1133,0.25265 1.9444,1.24829 1.9444,2.43804c0,1.38071 -1.11929,2.5 -2.5,2.5c-0.20502,0 -0.40428,-0.02468 -0.59496,-0.07123l-4.8283,-1.07296c-5.34857,0.02091 -12.14278,-3.3495 -17.0325,-5.3053l-2.59471,-0.8649c-1.02156,-0.31417 -1.76412,-1.26534 -1.76412,-2.38994c0,-0.5124 0.15416,-0.9888 0.41862,-1.38535c-1.39359,-0.49319 -2.73839,-1.15018 -3.40875,-2.37912c-0.10609,-0.1945 -0.20358,-0.39239 -0.29355,-0.59325l-0.07294,0.03496l-2.0033,-4.17996c-0.17141,-0.33871 -0.26798,-0.72173 -0.26798,-1.12729c0,-1.38071 1.11929,-2.5 2.5,-2.5c0.35441,0 0.6916,0.07375 0.99706,0.20674l3.21823,1.31384c1.26272,-0.28031 2.27984,0.73681 2.27984,0.73681c0.15557,0.1564 0.31362,0.31502 0.47405,0.47517c2.45958,1.20061 4.86493,2.53796 7.4595,3.39411c0.87162,0.28761 1.78022,0.48423 2.71038,0.62698c-1.98453,-1.34277 -3.57185,-3.19105 -5.57465,-5.07652l-2.22437,-0.68351c0,0 -2.37171,-0.79057 -1.58114,-3.16228z" fill="#aaede4" fill-rule="nonzero" stroke="none" stroke-width="0.5" stroke-linecap="butt" stroke-linejoin="miter"/><path d="M327.97009,74.89172c-2.30224,0 -4.1686,-1.86634 -4.1686,-4.1686v-41.68607c0,-2.30224 1.86634,-4.1686 4.1686,-4.1686h70.86631c2.30224,0 4.1686,1.86634 4.1686,4.1686v41.68607c0,2.30224 -1.86634,4.1686 -4.1686,4.1686z" fill="url(#color-3)" fill-rule="nonzero" stroke="#172c45" stroke-width="2.5" stroke-linecap="butt" stroke-linejoin="miter"/><path d="M359.23464,64.47022h8.33722" fill="none" fill-rule="nonzero" stroke="#4a90e2" stroke-width="2.5" stroke-linecap="round" stroke-linejoin="round"/><path d="M342.83601,82.89356h41.68607" fill="none" fill-rule="nonzero" stroke="#172c45" stroke-width="2.5" stroke-linecap="round" stroke-linejoin="round"/><path d="M416.58673,79.30791h-29.25677l14.62838,-25.26721z" fill="none" fill-rule="evenodd" stroke="#ff0000" stroke-width="2.5" stroke-linecap="butt" stroke-linejoin="round"/><path d="M401.56647,73.40069v0.66493" fill="none" fill-rule="nonzero" stroke="#ff0000" stroke-width="2.5" stroke-linecap="round" stroke-linejoin="miter"/><path d="M401.57199,69.41114l-0.00552,-6.64893" fill="none" fill-rule="nonzero" stroke="#ff0000" stroke-width="2.5" stroke-linecap="round" stroke-linejoin="miter"/></g></g></svg>