<svg version="1.1" xmlns="http://www.w3.org/2000/svg" xmlns:xlink="http://www.w3.org/1999/xlink" width="18.7353" height="15.28824" viewBox="0,0,18.7353,15.28824"><g transform="translate(-390.63235,-217.35588)"><g stroke-miterlimit="10"><path d="M392.84344,230.12716v-10.66106h14.31311v10.66106z" fill-opacity="0.01569" fill="#d9d9d9" stroke="none" stroke-width="0" stroke-linecap="butt" stroke-linejoin="miter"/><path d="M396.55294,231.89412h-4.30883c-0.47594,0 -0.86176,-0.38581 -0.86176,-0.86177v-12.06471c0,-0.47594 0.38583,-0.86176 0.86176,-0.86176h15.51177c0.47595,0 0.86176,0.38582 0.86176,0.86176v2.5853" fill="none" stroke="#ffffff" stroke-width="1.5" stroke-linecap="round" stroke-linejoin="round"/><path d="M408.61765,225.86176v5.17059c0,0.47595 -0.38581,0.86176 -0.86176,0.86176h-6.89411c-0.47595,0 -0.86176,-0.38581 -0.86176,-0.86176v-5.17059c0,-0.47595 0.38581,-0.86176 0.86176,-0.86176h6.89411c0.47595,0 0.86176,0.38581 0.86176,0.86176z" fill="none" stroke="#ffffff" stroke-width="1.5" stroke-linecap="butt" stroke-linejoin="round"/></g></g></svg>