<svg version="1.1" xmlns="http://www.w3.org/2000/svg" xmlns:xlink="http://www.w3.org/1999/xlink" width="173.1084" height="48.00104" viewBox="0,0,173.1084,48.00104"><defs><linearGradient x1="269.3262" y1="155.54818" x2="269.3262" y2="203.04922" gradientUnits="userSpaceOnUse" id="color-1"><stop offset="0" stop-color="#ffffff" stop-opacity="0.92157"/><stop offset="1" stop-color="#dedede" stop-opacity="0.90196"/></linearGradient></defs><g transform="translate(-182.77199,-155.29818)"><g stroke-miterlimit="10"><path d="M183.022,196.04539c0,-6.03742 0,-22.18681 0,-33.0408c0,-4.08398 4.20407,-7.45641 9.77888,-7.45641c31.04278,0 133.47236,0 152.4089,0c5.84529,0 10.42061,4.27012 10.42061,8.13533c0,6.37837 0,22.03861 0,32.36188c0,3.82341 -4.68732,7.00383 -9.45803,7.00383c-17.41122,0 -121.16295,0 -153.05062,0c-5.77228,0 -10.09975,-3.75542 -10.09975,-7.00383z" fill="url(#color-1)" stroke="#cccccc" stroke-width="0.5"/><text transform="translate(189.21846,172.47193) scale(0.28751,0.28751)" font-size="40" xml:space="preserve" fill-opacity="0.92157" fill="#616161" stroke="none" stroke-width="1" font-family="Sans Serif" font-weight="normal" text-anchor="start"><tspan x="0" dy="0">你的截图已保存</tspan></text><text transform="translate(189.86904,184.38382) scale(0.2111,0.2111)" font-size="40" xml:space="preserve" fill="#a4a4a4" stroke="none" stroke-width="1" font-family="Sans Serif" font-weight="normal" text-anchor="start"><tspan x="0" dy="0">点击查看</tspan></text></g></g></svg>