<svg version="1.1" xmlns="http://www.w3.org/2000/svg" xmlns:xlink="http://www.w3.org/1999/xlink" width="23.91639" height="26.46172" viewBox="0,0,23.91639,26.46172"><defs><linearGradient x1="250.98242" y1="204.61957" x2="250.98242" y2="213.57695" gradientUnits="userSpaceOnUse" id="color-1"><stop offset="0" stop-color="#326327"/><stop offset="1" stop-color="#66c34c"/></linearGradient><linearGradient x1="254.24649" y1="201.24484" x2="254.24649" y2="213.84229" gradientUnits="userSpaceOnUse" id="color-2"><stop offset="0" stop-color="#326327"/><stop offset="1" stop-color="#66c34c"/></linearGradient></defs><g transform="translate(-241.38184,-193.22183)"><g stroke-miterlimit="10"><path d="M242.13185,199.57594h22.41639l-1.24535,16.8123h-19.92568z" fill="#97e083" fill-rule="evenodd" stroke="#4c4c4c" stroke-width="1.5" stroke-linecap="butt" stroke-linejoin="round"/><path d="M258.2577,207.86023c0.07644,0.14174 -0.0653,0.21818 -0.0653,0.21818l-0.11749,0.06333c-0.40636,0.22965 -0.7827,0.47339 -1.17013,0.73071c-0.55332,0.40676 -1.30057,0.59497 -1.93641,0.83108c-0.91508,0.33982 -1.79303,0.69008 -2.74642,0.9132c-0.62536,1.13736 -1.46187,2.19771 -2.36936,3.10081c-0.02029,0.02807 -0.04079,0.05599 -0.06152,0.08381c0.03748,0.01586 0.0805,0.02753 0.13151,0.03565c0.03619,-0.09586 0.15014,-0.09586 0.15014,-0.09586l0.0166,0.0015c1.11363,-0.15247 2.18872,-0.5132 3.29971,-0.66179c0.39117,-0.14076 0.78519,-0.2748 1.18592,-0.38655c0.20084,-0.05602 0.39433,-0.04611 0.57691,-0.1457c0.53589,-0.29233 1.02996,-0.69563 1.45824,-1.12509c0.21309,-0.21368 0.35361,-0.4651 0.58412,-0.66831c0.19525,-0.29467 0.45198,-0.53009 0.6452,-0.82552c0.14578,-0.22287 0.22764,-0.46809 0.35858,-0.69734c0.09934,-0.17392 0.24939,-0.27722 0.35495,-0.44062c0.2161,-0.3345 0.14492,-0.70877 0.08723,-1.07094c-0.04045,-0.25393 -0.00622,-0.51462 -0.1082,-0.75328c-0.32953,-0.70183 -0.48477,-1.46008 -0.81135,-2.16706c-0.14858,-0.32165 -0.43816,-0.48902 -0.66185,-0.7511c-0.30691,-0.35957 -0.47399,-0.71106 -0.87519,-1.00162c-0.34685,-0.27843 -0.55598,-0.74704 -0.94525,-0.96447c-0.6999,-0.39089 -1.50309,-0.47917 -2.20722,-0.83206c0.15976,0.27088 0.22914,0.51587 0.32304,0.86013c0.27692,1.0152 0.47707,1.96028 0.47721,3.02034c-0.00008,0.0835 -0.00098,0.16693 -0.00276,0.2503c0.37973,-0.27091 0.64062,-0.62797 1.02081,-0.91515c0.3446,-0.26027 0.72837,-0.45511 1.07031,-0.71931l0.10107,-0.11173c0,0 0.1085,-0.119 0.2275,-0.01051c0.119,0.1085 0.01051,0.2275 0.01051,0.2275l-0.12055,0.13133c-0.34911,0.2718 -0.74023,0.47196 -1.09264,0.73814c-0.42604,0.32178 -0.7061,0.72578 -1.16323,1.01088c0.01897,0.03122 0.02813,0.07387 0.00927,0.13052c-0.01968,0.05912 -0.05461,0.08774 -0.09005,0.10063c-0.06394,0.88188 -0.23493,1.75048 -0.55331,2.58352c-0.16898,0.44213 -0.44999,0.81139 -0.62041,1.25134c-0.06474,0.14618 -0.13328,0.29145 -0.20538,0.43564c0.83484,-0.22508 1.6198,-0.53077 2.43406,-0.83321c0.60721,-0.22554 1.33735,-0.40066 1.86343,-0.79281c0.39616,-0.26222 0.78151,-0.51277 1.19648,-0.74735l0.12307,-0.06642c0,0 0.14173,-0.07644 0.21818,0.0653zM251.44471,210.60152c-0.50764,-0.15551 -0.79474,-0.65996 -1.11523,-1.03606c-0.219,-0.25701 -0.50214,-0.45046 -0.72838,-0.70021c-0.19196,-0.2119 -0.33807,-0.44406 -0.53942,-0.64997c0,0 -0.11241,-0.11531 0.00291,-0.22772c0.11531,-0.11241 0.22772,0.00291 0.22772,0.00291c0.20366,0.20952 0.35301,0.44402 0.54752,0.65859c0.22774,0.25126 0.51154,0.44642 0.73259,0.70495c0.27728,0.32428 0.53375,0.80313 0.97227,0.94135c0.12949,0.04081 0.32053,0.02404 0.47809,0.01546c0.11051,-0.20903 0.21335,-0.4208 0.3075,-0.63493c0.16948,-0.43784 0.4497,-0.8041 0.61708,-1.243c0.31186,-0.81777 0.47813,-1.6713 0.53696,-2.53758c-0.48177,-0.15477 -1.00435,-0.14442 -1.46805,-0.37171c-0.45362,-0.22234 -0.77997,-0.63899 -1.20875,-0.89761c-0.30915,0.30896 -0.66955,0.54887 -0.98153,0.85783c-0.67878,0.67214 -1.17195,1.75073 -1.30135,2.68865c-0.1014,1.73723 -0.09488,3.61131 0.8729,5.10117c0.06803,0.12118 0.1178,0.21895 0.16412,0.29717c0.01548,-0.02074 0.03084,-0.04157 0.04609,-0.06244c0.84158,-0.84536 1.63102,-1.8193 2.23446,-2.87005c-0.14052,0.00319 -0.28239,-0.00153 -0.39746,-0.03679zM250.60282,204.33709c0.03158,-0.06315 0.077,-0.08477 0.11805,-0.08914c0.00836,-0.00945 0.01667,-0.01897 0.02496,-0.02856c0.20774,-0.16377 0.45747,-0.27874 0.65274,-0.45799c0.27367,-0.25123 0.43276,-0.59104 0.68448,-0.8607c0.44613,-0.47792 0.89768,-0.98275 0.56983,-1.63318c0,0 -0.00339,-0.00678 -0.00723,-0.01815c-0.0035,-0.00488 -0.00704,-0.00979 -0.01062,-0.01472c0,0 -0.09458,-0.13033 0.03576,-0.2249c0.03513,-0.02549 0.06767,-0.03464 0.09644,-0.03441c0.00413,-0.01472 0.01073,-0.03026 0.0204,-0.04658c0.08204,-0.13857 0.22061,-0.05652 0.22061,-0.05652c0.74078,0.43915 1.63094,0.49948 2.38803,0.93029c0.41558,0.23647 0.61369,0.69876 0.9822,0.98873c0.41977,0.30518 0.60654,0.67797 0.92886,1.05324c0.24506,0.28532 0.53985,0.4669 0.70499,0.81938c0.33151,0.70759 0.48382,1.47031 0.81439,2.17376c0.21296,0.53117 0.29419,1.40115 0.09128,1.94481c-0.09395,0.25176 -0.3143,0.38396 -0.4408,0.61037c-0.31838,0.56986 -0.67788,1.03847 -1.0402,1.57394c-0.23497,0.21098 -0.38108,0.46487 -0.60075,0.686c-0.4456,0.44852 -0.96946,0.88563 -1.53401,1.18059c-0.21508,0.11237 -0.41204,0.10644 -0.64103,0.1712c-0.40396,0.11424 -0.79984,0.25022 -1.19586,0.38915c-0.99321,0.14111 -1.95677,0.43463 -2.94561,0.60739c0.00019,0.00386 0.00029,0.0078 0.00029,0.01187c0,0.16103 -0.16103,0.16103 -0.16103,0.16103h-0.19507c-0.26265,-0.00001 -0.43629,-0.0363 -0.57118,-0.11739c-0.39669,0.49155 -0.84758,0.95031 -1.26573,1.42058c-0.00116,0.04851 -0.01978,0.13174 -0.12999,0.15294c-0.15813,0.03043 -0.18856,-0.1277 -0.18856,-0.1277l0.02842,-0.18341c0.43549,-0.49375 0.90714,-0.97301 1.32223,-1.4876c-0.07557,-0.10356 -0.14851,-0.23297 -0.23729,-0.39133c-1.00446,-1.55208 -1.02391,-3.49114 -0.91771,-5.29922c0.14256,-1.02256 0.66484,-2.14942 1.39663,-2.88727c0.31056,-0.31315 0.67213,-0.55319 0.98382,-0.86188c0.00271,-0.01689 0.00851,-0.03511 0.01827,-0.05466zM252.15417,205.23257c0.42198,0.20588 0.90031,0.21216 1.34737,0.33368c0.00537,-0.14463 0.0079,-0.28955 0.00776,-0.43463c0.00014,-1.03178 -0.19573,-1.94672 -0.46552,-2.93438c-0.00951,-0.03481 -0.01862,-0.06833 -0.02749,-0.10074c-0.15055,0.40754 -0.5073,0.76052 -0.81943,1.15232c-0.20279,0.25456 -0.3419,0.53017 -0.58562,0.75446c-0.16988,0.15634 -0.38083,0.26201 -0.56916,0.39451c0.3832,0.2607 0.69482,0.6312 1.11212,0.8348z" fill="#000000" fill-rule="nonzero" stroke-opacity="0.96078" stroke="#1f371a" stroke-width="0.5" stroke-linecap="butt" stroke-linejoin="miter"/><path d="M252.15362,205.23899c-0.4173,-0.20361 -0.73422,-0.57783 -1.11741,-0.83854c0.18833,-0.13249 0.39891,-0.23924 0.56879,-0.39558c0.24372,-0.22428 0.38819,-0.50791 0.591,-0.76246c0.31215,-0.3918 0.67228,-0.74433 0.82283,-1.15185c0.00888,0.03242 0.01819,0.06602 0.0277,0.10083c0.2698,0.98765 0.46736,1.9131 0.46722,2.94489c0.00014,0.14508 -0.0031,0.29058 -0.00847,0.43521c-0.44706,-0.12153 -0.92965,-0.12663 -1.35164,-0.33252z" fill="#326327" fill-rule="nonzero" stroke="none" stroke-width="0.25" stroke-linecap="butt" stroke-linejoin="miter"/><path d="M251.44282,210.59538c0.11507,0.03525 0.26196,0.05176 0.40248,0.04856c-0.60343,1.05074 -1.39793,2.02522 -2.2395,2.87058c-0.01524,0.0209 -0.03064,0.04168 -0.04612,0.06243c-0.0463,-0.07822 -0.09642,-0.17611 -0.16444,-0.29728c-0.96777,-1.48986 -0.97803,-3.37223 -0.87663,-5.10945c0.1294,-0.93791 0.62666,-2.02036 1.30542,-2.6925c0.31199,-0.30894 0.6741,-0.54916 0.98326,-0.85814c0.42878,0.25863 0.75717,0.67552 1.21079,0.89785c0.46369,0.22729 0.98845,0.21806 1.47023,0.37282c-0.05883,0.86629 -0.22296,1.72282 -0.53482,2.54059c-0.16737,0.43888 -0.44778,0.80975 -0.61726,1.24759c-0.09414,0.21413 -0.19871,0.42826 -0.30922,0.63729c-0.15757,0.00858 -0.35007,0.02631 -0.47956,-0.01451c-0.43851,-0.13823 -0.70321,-0.6195 -0.98048,-0.94378c-0.22105,-0.25853 -0.50538,-0.45945 -0.73312,-0.7107c-0.1945,-0.21457 -0.34325,-0.45024 -0.54691,-0.65976c0,0 -0.10144,-0.10855 -0.21675,0.00386c-0.11531,0.11241 -0.00262,0.22718 -0.00262,0.22718c0.20136,0.20593 0.34796,0.43645 0.53993,0.64835c0.22623,0.24975 0.50826,0.43838 0.72727,0.69538c0.32048,0.37611 0.60046,0.87813 1.1081,1.03364z" fill="url(#color-1)" fill-rule="nonzero" stroke="none" stroke-width="0.25" stroke-linecap="butt" stroke-linejoin="miter"/><path d="M258.25127,207.85974c-0.07644,-0.14174 -0.20532,-0.06435 -0.20532,-0.06435l-0.12308,0.06654c-0.41498,0.23458 -0.80083,0.48712 -1.197,0.74934c-0.52607,0.39216 -1.26013,0.57086 -1.86732,0.79639c-0.81426,0.30244 -1.60486,0.60736 -2.4397,0.83243c0.0721,-0.1442 0.1405,-0.28957 0.20525,-0.43575c0.17041,-0.43995 0.45063,-0.80987 0.61962,-1.25201c0.31838,-0.83304 0.49218,-1.71242 0.55611,-2.59429c0.03545,-0.01289 0.0708,-0.04162 0.09046,-0.10073c0.01886,-0.05666 0.00977,-0.09932 -0.00919,-0.13055c0.45715,-0.28509 0.74022,-0.68898 1.16627,-1.01076c0.35239,-0.26616 0.7448,-0.46584 1.0939,-0.73763l0.12062,-0.13131c0,0 0.10247,-0.1076 -0.01652,-0.2161c-0.119,-0.1085 -0.22723,0.01063 -0.22723,0.01063l-0.10101,0.11176c-0.34193,0.2642 -0.72434,0.45946 -1.06893,0.71974c-0.38019,0.28717 -0.63861,0.64423 -1.01834,0.91515c0.00178,-0.08336 0.00038,-0.17947 0.00045,-0.26297c-0.00014,-1.06006 -0.19815,-1.99242 -0.47506,-3.00764c-0.0939,-0.34424 -0.16554,-0.60193 -0.3253,-0.8728c0.70413,0.35289 1.50968,0.44116 2.20959,0.83205c0.38928,0.2174 0.5998,0.68646 0.94665,0.96489c0.4012,0.29057 0.56975,0.64295 0.87666,1.00252c0.2237,0.26207 0.51428,0.43047 0.66287,0.75213c0.32657,0.70698 0.48316,1.46838 0.81266,2.17019c0.10198,0.23865 0.0678,0.50046 0.10824,0.75439c0.0577,0.36219 0.12861,0.73797 -0.08748,1.07248c-0.10556,0.16342 -0.25588,0.26743 -0.35521,0.44135c-0.13092,0.22924 -0.21335,0.47549 -0.35912,0.69837c-0.19323,0.29543 -0.45096,0.53202 -0.64621,0.8267c-0.23051,0.2032 -0.37204,0.45538 -0.58512,0.66906c-0.42828,0.42946 -0.92457,0.83362 -1.46045,1.12594c-0.18258,0.0996 -0.37679,0.08978 -0.57765,0.14579c-0.40071,0.11175 -0.79615,0.24574 -1.18731,0.38649c-1.11099,0.14859 -2.18869,0.50831 -3.3023,0.66078l-0.0166,-0.0015c0,0 -0.11401,-0.00004 -0.15019,0.09584c-0.05101,-0.00811 -0.09412,-0.01984 -0.1316,-0.0357c0.02071,-0.02781 0.04871,-0.06623 0.06899,-0.09431c0.90749,-0.9031 1.74382,-1.96358 2.36917,-3.10094c0.9534,-0.2231 1.82575,-0.57409 2.74083,-0.91392c0.63584,-0.23613 1.37937,-0.42109 1.9327,-0.82786c0.38743,-0.25732 0.76317,-0.49916 1.16953,-0.72883l0.11746,-0.0632c0,0 0.14169,-0.07608 0.06525,-0.21782z" fill="url(#color-2)" fill-rule="nonzero" stroke="none" stroke-width="0.25" stroke-linecap="butt" stroke-linejoin="miter"/><path d="M248.35862,202.06665v-8.09481h9.96284v8.09481" fill="none" fill-rule="nonzero" stroke="#4c4c4c" stroke-width="1.5" stroke-linecap="round" stroke-linejoin="round"/><path d="M248.77447,218.90673l8.36172,0.02683" fill="none" fill-rule="nonzero" stroke="#0e100e" stroke-width="1.5" stroke-linecap="round" stroke-linejoin="miter"/></g></g></svg>