<svg version="1.1" xmlns="http://www.w3.org/2000/svg" xmlns:xlink="http://www.w3.org/1999/xlink" width="60.76544" height="58.18182" viewBox="0,0,60.76544,58.18182"><g transform="translate(-119.77876,-75.8226)"><g stroke="none" stroke-miterlimit="10"><path d="M119.77876,134.00442v-58.18182h57.71901v58.18182z" fill="none" stroke-width="0"/><path d="M161.82422,119.9135c0,2.5 -2.5,2.5 -2.5,2.5l-1.14135,-0.09619c-4.17561,-1.19382 -8.19668,-2.31584 -12.47598,-3.12385c-1.76532,-0.33333 -6.5741,-0.64276 -7.49307,-0.99409c-0.05053,-0.01932 -0.10092,-0.03895 -0.15117,-0.05887l-0.00596,0.02235l-4.77918,-1.27445c-1.09489,-0.26594 -1.90784,-1.25276 -1.90784,-2.42945c0,-1.27327 0.95187,-2.32422 2.18283,-2.48007l2.93085,-0.41869c0.86818,-0.34221 1.73726,-0.68214 2.60665,-1.02128l-4.07795,-0.40779c-1.27708,-0.11199 -2.27874,-1.18419 -2.27874,-2.49034c0,-1.1246 0.74256,-2.07576 1.76412,-2.38994l3.98389,-1.32796c5.27074,-2.10958 10.56351,-4.17471 15.81055,-6.34338c-4.03747,0.29831 -8.81197,0.91155 -12.69492,0.28856h-5c-1.38071,0 -2.5,-1.11929 -2.5,-2.5c0,-1.05134 0.64897,-1.9511 1.56816,-2.32056l3.12886,-1.34094l0.05829,0.136l0.30248,-0.25901c2.8399,-0.30081 5.67995,-0.60244 8.52414,-0.8596c1.53541,-0.13882 3.11081,-0.03374 4.60734,-0.40411c1.46868,-0.36347 2.79184,-1.16736 4.17943,-1.77047c0.40467,-0.17589 0.79435,-0.38958 1.19148,-0.58359c-1.62992,-0.46103 -3.16516,-1.3834 -4.8525,-1.46623c-3.04845,-0.14965 -6.10795,0.04512 -9.15556,-0.12083c-4.38736,-0.2389 -8.57966,-1.25048 -12.9612,-1.23794c0,0 -2.5,0 -2.5,-2.5c0,-2.5 2.5,-2.5 2.5,-2.5c4.48274,0.01127 8.75102,1.00491 13.2311,1.24523c4.33218,0.23238 9.16267,-0.50549 13.40245,0.68022c0.92286,0.25809 7.05039,3.63814 7.09477,3.85412c0.72421,3.52452 -2.0634,5.34628 -4.52794,6.54978c1.77261,-0.03517 3.61691,-0.09572 4.36744,1.26374c1.01312,1.8351 -0.98589,4.26666 -2.40283,5.81142c-1.29359,1.41027 -3.43525,1.69017 -5.18628,2.46226c-2.67951,1.18149 -5.40532,2.27901 -8.14114,3.35254c0.11581,-0.0207 0.23171,-0.04059 0.34771,-0.05943l3.65243,-0.5767c0.14128,-0.02479 0.28664,-0.03772 0.43503,-0.03772c1.38071,0 2.5,1.11929 2.5,2.5c0,0.94657 -0.52607,1.77027 -1.30179,2.19469l-3.13968,1.7941l-0.01389,-0.0243c-0.04608,0.03544 -0.09256,0.07044 -0.13944,0.105c-1.39038,1.02482 -3.21896,1.82894 -5.16318,2.52668c4.82162,0.71685 9.86332,2.58791 13.85387,3.72729l-0.23226,-0.09619c0,0 2.5,0 2.5,2.5z" fill-opacity="0.00784" fill="#efe8ff" stroke-width="0.5"/><path d="M137.71502,76.50441c7.89632,-0.88009 23.53589,-0.88325 31.72284,3.21023c0.84797,0.42398 2.65055,2.17851 2.75366,2.22924c0.26492,0.13036 0.49997,-0.56098 0.76907,-0.43947c2.29622,1.03684 4.78098,1.96848 6.5625,3.75c1.53448,1.53448 0.94828,5.4664 0.71357,7.373c-0.50027,4.06371 -3.36114,12.11629 -3.41243,15.42024c-0.05403,3.48029 0.26106,6.44427 -0.38488,9.69211c-0.54106,2.72052 -0.98972,5.65577 -2.47876,8.03738c-1.00163,1.60203 -2.70621,3.46121 -4.36364,4.25568c-0.50099,0.24014 -1.10779,-0.30912 -1.65385,-0.20673c-0.50796,0.09524 -0.83333,0.83333 -1.34615,0.76923c-0.85222,-0.10653 -1.44163,-1.45216 -2.26882,-1.2211c-6.22453,1.73872 -10.7334,3.97575 -17.73202,2.81535c-2.17994,-0.36144 -4.08331,-2.69405 -5.66179,-2.9565c-4.07566,-0.67764 -8.55803,1.23136 -12.63283,-0.48435c-4.94205,-2.08086 -10.98522,-11.85916 -5.61277,-16.24481c0.16904,-0.13799 -1.77682,-5.49915 -1.84326,-6.1278c-0.54671,-5.17325 0.3539,-9.64462 3.58869,-13.95768c-1.59804,-1.37542 -2.60993,-3.41292 -2.60993,-5.68676c0,-3.20233 2.00699,-5.93589 4.83175,-7.01148c2.84486,-2.02676 6.54793,-2.713 11.05905,-3.21579z" fill-opacity="0.01569" fill="#eee6ff" stroke-width="0.5"/></g></g></svg>