<svg version="1.1" xmlns="http://www.w3.org/2000/svg" xmlns:xlink="http://www.w3.org/1999/xlink" width="26.17128" height="22.10518" viewBox="0,0,26.17128,22.10518"><g transform="translate(-572.58854,-49.2459)"><g data-paper-data="{&quot;isPaintingLayer&quot;:true}" fill-rule="nonzero" stroke-linecap="butt" stroke-linejoin="miter" stroke-miterlimit="10" stroke-dasharray="" stroke-dashoffset="0" style="mix-blend-mode: normal"><path d="M572.58854,71.35108v-22.10518h26.17128v22.10518z" fill="#fafafa" stroke="none" stroke-width="NaN"/><path d="M583.7348,65.40124v1.03442h-4.1377c-0.27095,0.00079 -0.53918,-0.05424 -0.78795,-0.16163c-0.2445,-0.10376 -0.46777,-0.25169 -0.65864,-0.43639c-0.18934,-0.18428 -0.34279,-0.40213 -0.45255,-0.64247c-0.11356,-0.24706 -0.1715,-0.51605 -0.16971,-0.78795v-8.31582c-0.00078,-0.27096 0.05423,-0.53918 0.16163,-0.78794c0.10375,-0.2445 0.25169,-0.46777 0.43639,-0.65864c0.18428,-0.18934 0.40214,-0.34279 0.64247,-0.45255c0.24706,-0.11356 0.51604,-0.1715 0.78794,-0.16972h4.17811v1.03442h-4.1377c-0.13884,-0.00135 -0.27646,0.02618 -0.40412,0.08081c-0.24649,0.10645 -0.44304,0.303 -0.5495,0.5495c-0.05463,0.12765 -0.08216,0.26527 -0.08081,0.40412v8.27541c-0.00242,0.27508 0.10578,0.5396 0.3003,0.73412c0.19452,0.19452 0.45904,0.30273 0.73412,0.30031zM587.8725,67.9873c-0.00388,0.28403 -0.23318,0.51333 -0.51721,0.51721h-4.1377c-0.28565,0 -0.51722,-0.23157 -0.51722,-0.51721c0,-0.28564 0.23157,-0.51721 0.51722,-0.51721h1.55163v-14.48196h-1.55163c-0.13722,0.00122 -0.26884,-0.05436 -0.36367,-0.15355c-0.09919,-0.09483 -0.15476,-0.22644 -0.15355,-0.36366c-0.00122,-0.13722 0.05436,-0.26884 0.15355,-0.36367c0.09483,-0.09919 0.22645,-0.15476 0.36367,-0.15355h4.1377c0.13722,-0.00122 0.26883,0.05436 0.36366,0.15355c0.09919,0.09483 0.15476,0.22645 0.15355,0.36367c0.00122,0.13722 -0.05436,0.26883 -0.15355,0.36366c-0.09483,0.09919 -0.22644,0.15477 -0.36366,0.15355h-1.55164v14.48196h1.55164c0.28403,0.00388 0.51333,0.23319 0.51721,0.51721zM592.05061,54.02256c0.26616,-0.00069 0.52936,0.05581 0.77178,0.16568c0.48587,0.21649 0.87448,0.6051 1.09097,1.09098c0.10987,0.24243 0.16638,0.50563 0.16569,0.77179v8.31582c0.00078,0.27096 -0.05424,0.53918 -0.16164,0.78794c-0.10375,0.2445 -0.25169,0.46778 -0.43639,0.65864c-0.18428,0.18934 -0.40214,0.34279 -0.64247,0.45255c-0.24707,0.11354 -0.51605,0.17145 -0.78794,0.16965h-5.21254v-1.03436h5.17213c0.13884,0.00135 0.27646,-0.02618 0.40412,-0.08081c0.24652,-0.10646 0.44308,-0.30303 0.54954,-0.54954c0.05461,-0.12765 0.08212,-0.26524 0.08077,-0.40408v-8.27541c0.00053,-0.13744 -0.02697,-0.27353 -0.08081,-0.39998c-0.10464,-0.25012 -0.30352,-0.449 -0.55364,-0.55364c-0.12645,-0.05384 -0.26254,-0.08134 -0.39998,-0.08081h-5.17213v-1.03442z" fill="#000000" stroke="none" stroke-width="1"/><path d="M583.7348,65.40124v1.03442h-4.1377c-0.27095,0.00079 -0.53918,-0.05424 -0.78795,-0.16163c-0.2445,-0.10376 -0.46777,-0.25169 -0.65864,-0.43639c-0.18934,-0.18428 -0.34279,-0.40213 -0.45255,-0.64247c-0.11356,-0.24706 -0.1715,-0.51605 -0.16971,-0.78795v-8.31582c-0.00078,-0.27096 0.05423,-0.53918 0.16163,-0.78794c0.10375,-0.2445 0.25169,-0.46777 0.43639,-0.65864c0.18428,-0.18934 0.40214,-0.34279 0.64247,-0.45255c0.24706,-0.11356 0.51604,-0.1715 0.78794,-0.16972h4.17811v1.03442h-4.1377c-0.13884,-0.00135 -0.27646,0.02618 -0.40412,0.08081c-0.24649,0.10645 -0.44304,0.303 -0.5495,0.5495c-0.05463,0.12765 -0.08216,0.26527 -0.08081,0.40412v8.27541c-0.00242,0.27508 0.10578,0.5396 0.3003,0.73412c0.19452,0.19452 0.45904,0.30273 0.73412,0.30031zM587.8725,67.9873c-0.00388,0.28403 -0.23318,0.51333 -0.51721,0.51721h-4.1377c-0.28565,0 -0.51722,-0.23157 -0.51722,-0.51721c0,-0.28564 0.23157,-0.51721 0.51722,-0.51721h1.55163v-14.48196h-1.55163c-0.13722,0.00122 -0.26884,-0.05436 -0.36367,-0.15355c-0.09919,-0.09483 -0.15476,-0.22644 -0.15355,-0.36366c-0.00122,-0.13722 0.05436,-0.26884 0.15355,-0.36367c0.09483,-0.09919 0.22645,-0.15476 0.36367,-0.15355h4.1377c0.13722,-0.00122 0.26883,0.05436 0.36366,0.15355c0.09919,0.09483 0.15476,0.22645 0.15355,0.36367c0.00122,0.13722 -0.05436,0.26883 -0.15355,0.36366c-0.09483,0.09919 -0.22644,0.15477 -0.36366,0.15355h-1.55164v14.48196h1.55164c0.28403,0.00388 0.51333,0.23319 0.51721,0.51721zM592.05061,54.02256c0.26616,-0.00069 0.52936,0.05581 0.77178,0.16568c0.48587,0.21649 0.87448,0.6051 1.09097,1.09098c0.10987,0.24243 0.16638,0.50563 0.16569,0.77179v8.31582c0.00078,0.27096 -0.05424,0.53918 -0.16164,0.78794c-0.10375,0.2445 -0.25169,0.46778 -0.43639,0.65864c-0.18428,0.18934 -0.40214,0.34279 -0.64247,0.45255c-0.24707,0.11354 -0.51605,0.17145 -0.78794,0.16965h-5.21254v-1.03436h5.17213c0.13884,0.00135 0.27646,-0.02618 0.40412,-0.08081c0.24652,-0.10646 0.44308,-0.30303 0.54954,-0.54954c0.05461,-0.12765 0.08212,-0.26524 0.08077,-0.40408v-8.27541c0.00053,-0.13744 -0.02697,-0.27353 -0.08081,-0.39998c-0.10464,-0.25012 -0.30352,-0.449 -0.55364,-0.55364c-0.12645,-0.05384 -0.26254,-0.08134 -0.39998,-0.08081h-5.17213v-1.03442z" fill="#2b2b2b" stroke="#2b2b2b" stroke-width="0.5"/></g></g></svg>