<svg version="1.1" xmlns="http://www.w3.org/2000/svg" xmlns:xlink="http://www.w3.org/1999/xlink" width="23.86906" height="25.43137" viewBox="0,0,23.86906,25.43137"><defs><linearGradient x1="253.49396" y1="196.3772" x2="253.49396" y2="217.4073" gradientUnits="userSpaceOnUse" id="color-1"><stop offset="0" stop-color="#79dbe3"/><stop offset="1" stop-color="#60a8e3"/></linearGradient><linearGradient x1="261.30485" y1="207.60831" x2="261.30485" y2="215.0743" gradientUnits="userSpaceOnUse" id="color-2"><stop offset="0" stop-color="#d2dbe3"/><stop offset="1" stop-color="#9bc3e3"/></linearGradient></defs><g transform="translate(-241.97889,-195.37719)"><g stroke-miterlimit="10"><path d="M242.9789,206.89224c0,-5.80732 4.70775,-10.51505 10.51507,-10.51505c5.80732,0 10.51507,4.70774 10.51507,10.51505c0,5.80732 -4.70775,10.51507 -10.51507,10.51507c-5.80732,0 -10.51507,-4.70775 -10.51507,-10.51507z" fill="url(#color-1)" stroke="#2e779e" stroke-width="2" stroke-linecap="butt"/><path d="M256.10085,196.76356c-0.20814,0.05979 -0.20814,0.66823 0,1.82532c0.31214,1.73565 1.93888,0.93906 1.65176,2.77575c-0.28711,1.83672 -1.92968,0.59788 -3.19285,1.69635c-1.26318,1.09845 0.72854,3.80797 -1.09167,4.82415c-1.82027,1.01613 -3.76776,-2.07205 -5.04597,-1.37537c-1.27827,0.69668 -0.49069,3.22276 -1.40339,4.05509c-0.60845,0.55488 -1.60459,0.55488 -2.98833,0" fill="none" stroke="#2e779e" stroke-width="2" stroke-linecap="round"/><path d="M256.13372,217.06573c-0.98532,-1.00839 -1.34004,-1.94571 -1.06413,-2.81205c0.41387,-1.29945 1.09657,-1.22264 1.39424,-2.0261c0.29763,-0.80351 -0.54321,-1.94787 1.32254,-2.92613c1.24383,-0.6522 2.95405,0.10347 5.13056,2.26695" fill="none" stroke="#2e779e" stroke-width="2" stroke-linecap="round"/><path d="M265.26273,211.3413c0,2.06168 -1.772,3.73299 -3.95787,3.73299c-2.18587,0 -3.95787,-1.67132 -3.95787,-3.73299c0,-2.06168 1.772,-3.73299 3.95787,-3.73299c2.18587,0 3.95787,1.67132 3.95787,3.73299z" fill="url(#color-2)" stroke="#1d3548" stroke-width="1" stroke-linecap="butt"/><path d="M265.34796,217.15739l-1.77536,-2.55652" fill="none" stroke="#1d3548" stroke-width="1" stroke-linecap="round"/><path d="M249.64948,220.03173l8.36172,0.02683" fill="none" stroke="#0e100e" stroke-width="1.5" stroke-linecap="round"/></g></g></svg>