<svg version="1.1" xmlns="http://www.w3.org/2000/svg" xmlns:xlink="http://www.w3.org/1999/xlink" width="21.96083" height="24.43419" viewBox="0,0,21.96083,24.43419"><defs><linearGradient x1="251.22821" y1="194.64761" x2="251.22821" y2="216.63077" gradientUnits="userSpaceOnUse" id="color-1"><stop offset="0" stop-color="#fc9f21"/><stop offset="1" stop-color="#fc62d2"/></linearGradient></defs><g transform="translate(-240.2478,-194.64763)"><g stroke-miterlimit="10"><path d="M246.56808,218.30499l8.36172,0.02683" fill="none" fill-rule="nonzero" stroke="#0e100e" stroke-width="1.5" stroke-linecap="round" stroke-linejoin="miter"/><path d="M254.60288,194.64947c2.17997,0.0192 4.72601,0.18045 6.0776,1.53205c1.33681,1.33681 1.50494,3.83782 1.52608,6.00063c0.00299,0.3055 0.00297,6.69942 -0.00156,7.05413c-0.02729,2.13491 -0.21624,4.5751 -1.52451,5.88337c-1.29387,1.29387 -3.68233,1.48039 -5.79639,1.5072c-0.37868,0.0048 -6.78245,0.00469 -7.07991,0.00235c-2.16464,-0.01697 -4.66501,-0.16824 -6.00632,-1.50955c-1.327,-1.327 -1.51933,-3.81856 -1.54692,-5.97487c-0.00413,-0.32277 -0.00449,-6.77866 0.00067,-7.14973c0.02949,-2.12366 0.22518,-4.53778 1.52388,-5.83648c1.30309,-1.30309 3.71644,-1.48299 5.84157,-1.50775c0.36293,-0.00423 6.70512,-0.00381 6.98582,-0.00134z" fill="url(#color-1)" fill-rule="nonzero" stroke="none" stroke-width="0.47449" stroke-linecap="butt" stroke-linejoin="miter"/><path d="M251.9393,198.48216v11.51375" fill="none" fill-rule="nonzero" stroke="#ededed" stroke-width="2" stroke-linecap="round" stroke-linejoin="round"/><path d="M246.38094,210.40881c0,-1.10512 0.89589,-2.00101 2.00101,-2.00101h3.55735v2.36628c0,1.10512 -0.89589,2.001 -2.00101,2.001h-1.55634c-1.10512,0 -2.00101,-0.89588 -2.00101,-2.001z" fill="#ededed" fill-rule="nonzero" stroke="#ededed" stroke-width="2" stroke-linecap="butt" stroke-linejoin="round"/><path d="M251.9393,198.48217l5.11504,1.19639v3.21912l-5.11504,-1.21295z" fill="#ededed" fill-rule="evenodd" stroke="#ededed" stroke-width="2" stroke-linecap="round" stroke-linejoin="round"/></g></g></svg>