<svg version="1.1" xmlns="http://www.w3.org/2000/svg" xmlns:xlink="http://www.w3.org/1999/xlink" width="49.22364" height="38.23158" viewBox="0,0,49.22364,38.23158"><g transform="translate(-375.38818,-205.00001)"><g stroke-miterlimit="10"><path d="M393.40948,205.22905c-3.04949,0.79506 -5.3003,3.56789 -5.3003,6.86647c0,3.91875 3.17671,7.09547 7.09547,7.09547c3.29858,0 6.07144,-2.25081 6.86644,-5.3003c0.15019,0.72961 0.22908,1.4853 0.22908,2.2594c0,6.15802 -4.99206,11.15008 -11.15008,11.15008c-6.15802,0 -11.15008,-4.99206 -11.15008,-11.15008c0,-6.15802 4.99206,-11.15008 11.15008,-11.15008c0.77409,0 1.52979,0.07888 2.2594,0.22905z" fill="none" stroke="#000000" stroke-width="0" stroke-linejoin="round"/><path d="M376.38818,238.37171c0,-7.21711 0,-22.39711 0,-26.5c0,-2.00018 2.03654,-4.10328 5.23826,-4.10328c9.37104,0 36.25712,0 36.71961,0c2.60166,0 5.26577,2.02993 5.26577,3.97828c0,4.09551 0,19.54943 0,26.75c0,2.28187 -2.04756,3.73489 -5.26577,3.73489c-10.27258,0 -31.28278,0 -36.88961,0c-2.51786,0 -5.06826,-1.50665 -5.06826,-3.85989z" fill-opacity="0.05098" fill="#262626" stroke-opacity="0.01176" stroke="#000000" stroke-width="2" stroke-linejoin="miter"/><path d="M402.25939,214.07896c-3.04949,0.79506 -5.3003,3.56789 -5.3003,6.86647c0,3.91875 3.17671,7.09547 7.09547,7.09547c3.29858,0 6.07144,-2.25081 6.86644,-5.3003c0.15019,0.72961 0.22908,1.4853 0.22908,2.2594c0,6.15802 -4.99206,11.15008 -11.15008,11.15008c-6.15802,0 -11.15008,-4.99206 -11.15008,-11.15008c0,-6.15802 4.99206,-11.15008 11.15008,-11.15008c0.77409,0 1.52979,0.07888 2.2594,0.22905z" fill="#1e2220" stroke="#505955" stroke-width="1.5" stroke-linejoin="round"/></g></g></svg>