<svg version="1.1" xmlns="http://www.w3.org/2000/svg" xmlns:xlink="http://www.w3.org/1999/xlink" width="213.91708" height="52.72726" viewBox="0,0,213.91708,52.72726"><defs><linearGradient x1="240" y1="155.13636" x2="240" y2="204.86364" gradientUnits="userSpaceOnUse" id="color-1"><stop offset="0" stop-color="#e7e7e7"/><stop offset="1" stop-color="#a1a1a1"/></linearGradient></defs><g transform="translate(-133.04147,-153.63637)"><g stroke-miterlimit="10"><path d="M345.45855,158.24432v43.51136c0,1.71652 -4.72138,3.10795 -10.54585,3.10795h-189.82538c-5.82432,0 -10.54585,-1.39143 -10.54585,-3.10795v-43.51136c0,-1.71648 4.72154,-3.10795 10.54585,-3.10795h189.82538c5.82448,0 10.54585,1.39148 10.54585,3.10795z" fill="url(#color-1)" stroke="#112134" stroke-width="3" stroke-linecap="butt" stroke-linejoin="miter"/><path d="M221,164c0,-1.10457 0.89543,-2 2,-2h12l5,6h17c1.1046,0 2,0.8954 2,2v26c0,1.1046 -0.8954,2 -2,2h-34c-1.10457,0 -2,-0.8954 -2,-2z" fill="none" stroke="#4a90e2" stroke-width="3" stroke-linecap="butt" stroke-linejoin="round"/><path d="M234,182l6,-6l6,5.9867" fill="none" stroke="#4a90e2" stroke-width="3" stroke-linecap="round" stroke-linejoin="round"/><path d="M240,190v-14" fill="none" stroke="#4a90e2" stroke-width="3" stroke-linecap="round" stroke-linejoin="round"/><text transform="translate(262.26404,198.39381) scale(0.16401,0.16401)" font-size="40" xml:space="preserve" fill="#2e2e2e" stroke="none" stroke-width="1" stroke-linecap="butt" stroke-linejoin="miter" font-family="Pixel" font-weight="normal" text-anchor="start"><tspan x="0" dy="0">传送文件时，保证对方在线</tspan></text></g></g></svg>