<svg version="1.1" xmlns="http://www.w3.org/2000/svg" xmlns:xlink="http://www.w3.org/1999/xlink" width="171.41813" height="91.29796" viewBox="0,0,171.41813,91.29796"><defs><linearGradient x1="439.42839" y1="247.83683" x2="583.3234" y2="247.83683" gradientUnits="userSpaceOnUse" id="color-1"><stop offset="0" stop-color="#ebebeb"/><stop offset="1" stop-color="#d7d7d7"/></linearGradient><radialGradient cx="462.12118" cy="248.09519" r="22.90734" gradientUnits="userSpaceOnUse" id="color-2"><stop offset="0" stop-color="#dad3c6"/><stop offset="1" stop-color="#d69d3a"/></radialGradient></defs><g transform="translate(-411.90527,-184.61103)"><g stroke-miterlimit="10"><path d="M439.4284,267.63075c0,-7.13598 0,-26.22393 0,-39.05291c0,-4.82711 3.50473,-8.81318 8.15217,-8.81318c25.87881,0 111.26924,0 127.05569,0c4.87293,0 8.68714,5.04711 8.68714,9.61564c0,7.53899 0,26.04876 0,38.25045c0,4.51912 -3.90758,8.27825 -7.88469,8.27825c-14.51486,0 -101.00751,0 -127.59066,0c-4.81207,0 -8.41966,-4.43876 -8.41966,-8.27825z" fill="url(#color-1)" stroke="none" stroke-width="0" stroke-linecap="butt" stroke-linejoin="miter"/><path d="M446.98672,269.60652c0,-7.03583 0,-39.55257 0,-43.21302c0,-0.65649 0.58889,-1.20565 1.20565,-1.20565c2.17292,0 23.24439,0 27.60379,0c0.91456,0 1.45947,0.60548 1.45947,1.39602c0,3.96008 -0.00071,35.91823 -0.00071,43.02266c0,0.89541 -0.59469,1.39602 -1.58567,1.39602c-4.5215,0 -25.52809,0 -27.54034,0c-0.52304,0 -1.14219,-0.54037 -1.14219,-1.39602z" fill="url(#color-2)" stroke="none" stroke-width="0" stroke-linecap="butt" stroke-linejoin="miter"/><text transform="translate(473.15612,242.22587) scale(0.12691,0.12691)" font-size="40" xml:space="preserve" fill="#000000" stroke="none" stroke-width="1" stroke-linecap="butt" stroke-linejoin="miter" font-family="Sans Serif" font-weight="normal" text-anchor="start"><tspan x="0" dy="0"> </tspan></text><path d="M455.39582,255.28897v-16.80243h9.6614l3.78055,4.41064v12.39179z" fill="#d68f1e" stroke="#333333" stroke-width="1.5" stroke-linecap="round" stroke-linejoin="round"/><path d="M462.95692,250.03821v-6.10399l2.52036,-1.24708" fill="none" stroke="#4a4a4a" stroke-width="1.5" stroke-linecap="round" stroke-linejoin="round"/><path d="M458.33625,250.03821c0,-1.27596 1.03437,-2.31033 2.31033,-2.31033c1.27596,0 2.31033,1.03437 2.31033,2.31033c0,1.27596 -1.03437,2.31033 -2.31033,2.31033c-1.27596,0 -2.31033,-1.03437 -2.31033,-2.31033z" fill="#f6d00e" stroke="#4a4a4a" stroke-width="1.5" stroke-linecap="round" stroke-linejoin="round"/><text transform="translate(483.90202,235.25635) scale(0.23415,0.23415)" font-size="40" xml:space="preserve" fill="#686868" stroke="none" stroke-width="1" stroke-linecap="butt" stroke-linejoin="miter" font-family="Sans Serif" font-weight="normal" text-anchor="start"><tspan x="0" dy="0">未播放音乐</tspan></text><text transform="translate(412.15527,206.19437) scale(0.5,0.5)" font-size="40" xml:space="preserve" fill="#686868" stroke="none" stroke-width="1" stroke-linecap="butt" stroke-linejoin="miter" font-family="Sans Serif" font-weight="normal" text-anchor="start"><tspan x="0" dy="0"> </tspan></text><path d="M482.01639,249.22478h95.65326" fill="none" stroke="#ffffff" stroke-width="1.5" stroke-linecap="round" stroke-linejoin="miter"/></g></g></svg>