<svg version="1.1" xmlns="http://www.w3.org/2000/svg" xmlns:xlink="http://www.w3.org/1999/xlink" width="359.11084" height="36.01652" viewBox="0,0,359.11084,36.01652"><g transform="translate(-319.93673,-206.99174)"><g fill="#f4f1f1" stroke-opacity="0.01176" stroke="#000000" stroke-width="2.5" stroke-miterlimit="10"><path d="M321.18673,234.75337c0,-6.56821 0,-15.91717 0,-19.62788c0,-1.57458 0.52921,-3.42372 1.52037,-4.78303c0.92397,-1.26717 2.25547,-2.10072 3.77148,-2.10072c23.6537,0 303.46569,0 345.93198,0c3.4993,0 5.387,3.87759 5.387,6.93932c0,3.72159 0,13.07294 0,19.625c0,1.98495 -0.69721,3.58798 -1.5784,4.82474c-0.8932,1.25361 -1.98202,2.12746 -3.71254,2.12746c-42.13841,0 -322.35643,0 -346.02804,0c-3.14225,0 -5.29184,-2.98048 -5.29184,-7.0049z"/></g></g></svg>