<svg version="1.1" xmlns="http://www.w3.org/2000/svg" xmlns:xlink="http://www.w3.org/1999/xlink" width="134" height="55" viewBox="0,0,134,55"><defs><linearGradient x1="201.27125" y1="159.89422" x2="201.27125" y2="180.81351" gradientUnits="userSpaceOnUse" id="color-1"><stop offset="0" stop-color="#99dc7c"/><stop offset="1" stop-color="#c4eab4"/></linearGradient></defs><g transform="translate(-168.87782,-144.80003)"><g stroke-miterlimit="10"><path d="M168.87782,199.80004v-55h134v55z" fill="none" stroke="none" stroke-width="0" stroke-linecap="butt" stroke-linejoin="miter"/><g stroke="none" stroke-width="1" stroke-linecap="butt" stroke-linejoin="miter"><path d="M190.60039,185.00106c-4.14213,0 -7.5,-4.06467 -7.5,-8.79379c0,-4.72754 0,-10.11909 0,-12.77778c0,-3.12088 3.35787,-7.42843 7.5,-7.42843h94c4.14213,0 7.5,4.11109 7.5,7.14003c0,2.5099 0,8.91269 0,13.51852c0,5.11981 -3.35787,8.34145 -7.5,8.34145z" fill="#ffffff"/><path d="M284.60038,156.54379h-94c-3.86418,0.00437 -6.99563,3.13582 -7,7v14c0.00437,3.86418 3.13582,6.99563 7,7h94c3.86418,-0.00438 6.99563,-3.13582 7,-7v-14c-0.00437,-3.86418 -3.13582,-6.99562 -7,-7M292.60038,163.54379v14c0,4.41828 -3.58172,8 -8,8h-94c-4.41828,0 -8,-3.58172 -8,-8v-14c0,-4.41828 3.58172,-8 8,-8h94c4.41828,0 8,3.58172 8,8z" fill="#cccccc"/></g><text transform="translate(226.8973,173.1169) scale(0.22047,0.22047)" font-size="40" xml:space="preserve" fill-opacity="0.9098" fill="#000000" stroke="none" stroke-width="0" stroke-linecap="butt" stroke-linejoin="miter" font-family="&quot;Exo-Bold&quot;, Sans Serif" font-weight="normal" text-anchor="start"><tspan x="0" dy="0">外语翻译</tspan></text><path d="M204.48259,159.89596c2.07447,0.01827 4.4973,0.17172 5.78348,1.4579c1.27211,1.27211 1.43211,3.6521 1.45222,5.71024c0.00285,0.29071 0.00282,6.37521 -0.00149,6.71275c-0.02597,2.03159 -0.20578,4.35369 -1.45073,5.59865c-1.23125,1.23125 -3.50412,1.40874 -5.51588,1.43426c-0.36035,0.00457 -6.45422,0.00446 -6.73728,0.00224c-2.05989,-0.01615 -4.43925,-0.1601 -5.71565,-1.4365c-1.26278,-1.26278 -1.44581,-3.63376 -1.47206,-5.68572c-0.00393,-0.30715 -0.00427,-6.45061 0.00063,-6.80372c0.02806,-2.02088 0.21429,-4.31818 1.45014,-5.55403c1.24003,-1.24003 3.53658,-1.41122 5.55887,-1.43478c0.34536,-0.00403 6.38063,-0.00363 6.64775,-0.00128z" fill="url(#color-1)" stroke="none" stroke-width="0.47449" stroke-linecap="butt" stroke-linejoin="miter"/><path d="M199.05909,173.2492l0.77348,-1.76794M204.00933,173.2492l-0.77348,-1.76794M199.83257,171.48125l1.70164,-3.88947l1.70164,3.88947M199.83257,171.48125h3.40328" fill="none" stroke="#313131" stroke-width="1.5" stroke-linecap="round" stroke-linejoin="round"/><path d="M196.58397,168.29895l-2.12153,0.70717c0.65522,-3.2279 3.50904,-5.65741 6.93029,-5.65741c3.42128,0 6.27509,2.42951 6.93032,5.65741" fill="none" stroke="#313131" stroke-width="1.5" stroke-linecap="round" stroke-linejoin="round"/><path d="M206.48444,172.54202l1.83862,-0.70717c-0.65523,3.2279 -3.50904,5.65741 -6.93032,5.65741c-3.42125,0 -6.27506,-2.42951 -6.93029,-5.65741" fill="none" stroke="#313131" stroke-width="1.5" stroke-linecap="round" stroke-linejoin="round"/></g></g></svg>