<svg version="1.1" xmlns="http://www.w3.org/2000/svg" xmlns:xlink="http://www.w3.org/1999/xlink" width="134" height="55" viewBox="0,0,134,55"><g transform="translate(-168.87782,-144.80005)"><g stroke-miterlimit="10"><path d="M168.87782,199.80005v-55h134v55z" fill="none" stroke="none" stroke-width="0" stroke-linecap="butt" stroke-linejoin="miter"/><g stroke="none" stroke-width="1" stroke-linecap="butt" stroke-linejoin="miter"><path d="M190.60039,185.00107c-4.14213,0 -7.5,-4.06467 -7.5,-8.79379c0,-4.72754 0,-10.11909 0,-12.77778c0,-3.12088 3.35787,-7.42843 7.5,-7.42843h94c4.14213,0 7.5,4.11109 7.5,7.14003c0,2.5099 0,8.91269 0,13.51852c0,5.11981 -3.35787,8.34145 -7.5,8.34145z" fill="#ffffff"/><path d="M284.60038,156.5438h-94c-3.86418,0.00437 -6.99563,3.13582 -7,7v14c0.00437,3.86418 3.13582,6.99563 7,7h94c3.86418,-0.00438 6.99563,-3.13582 7,-7v-14c-0.00437,-3.86418 -3.13582,-6.99562 -7,-7M292.60038,163.5438v14c0,4.41828 -3.58172,8 -8,8h-94c-4.41828,0 -8,-3.58172 -8,-8v-14c0,-4.41828 3.58172,-8 8,-8h94c4.41828,0 8,3.58172 8,8z" fill="#cccccc"/></g><text transform="translate(226.89731,173.11691) scale(0.22047,0.22047)" font-size="40" xml:space="preserve" fill-opacity="0.9098" fill="#000000" stroke="none" stroke-width="0" stroke-linecap="butt" stroke-linejoin="miter" font-family="&quot;Exo-Bold&quot;, Sans Serif" font-weight="normal" text-anchor="start"><tspan x="0" dy="0">zx聊天</tspan></text><path d="M204.48259,159.74213c2.07447,0.01827 4.4973,0.17172 5.78348,1.4579c1.27211,1.27211 1.43211,3.6521 1.45222,5.71024c0.00285,0.29071 0.00282,6.37521 -0.00149,6.71275c-0.02597,2.03159 -0.20578,4.35369 -1.45073,5.59865c-1.23125,1.23125 -3.50412,1.40874 -5.51588,1.43426c-0.36035,0.00457 -6.45422,0.00446 -6.73728,0.00224c-2.05989,-0.01615 -4.43925,-0.1601 -5.71565,-1.4365c-1.26278,-1.26278 -1.44581,-3.63376 -1.47206,-5.68572c-0.00393,-0.30715 -0.00427,-6.45061 0.00063,-6.80372c0.02806,-2.02088 0.21429,-4.31818 1.45014,-5.55403c1.24003,-1.24003 3.53658,-1.41122 5.55887,-1.43478c0.34536,-0.00403 6.38063,-0.00363 6.64775,-0.00128z" fill="#54a2fc" stroke="none" stroke-width="0.47449" stroke-linecap="butt" stroke-linejoin="miter"/><path d="M208.27879,175.14799h-7.7009l-3.34822,1.6741v-1.6741h-2.34375v-10.04465h13.39285z" fill="none" stroke="#ffffff" stroke-width="1.5" stroke-linecap="round" stroke-linejoin="round"/><path d="M203.92613,168.11674v0.33482" fill="none" stroke="#ffffff" stroke-width="1.5" stroke-linecap="round" stroke-linejoin="round"/><path d="M199.23863,168.11674v0.33482" fill="none" stroke="#ffffff" stroke-width="1.5" stroke-linecap="round" stroke-linejoin="round"/><path d="M203.92613,171.13014c0,0 -0.66965,1.33928 -2.34375,1.33928c-1.6741,0 -2.34375,-1.33928 -2.34375,-1.33928" fill="none" stroke="#ffffff" stroke-width="1.5" stroke-linecap="round" stroke-linejoin="round"/></g></g></svg>