<svg version="1.1" xmlns="http://www.w3.org/2000/svg" xmlns:xlink="http://www.w3.org/1999/xlink" width="812.16583" height="489.28661" viewBox="0,0,812.16583,489.28661"><defs><linearGradient x1="398.78279" y1="-8.50564" x2="398.78279" y2="480.78097" gradientUnits="userSpaceOnUse" id="color-1"><stop offset="0" stop-color="#050504" stop-opacity="0.9451"/><stop offset="1" stop-color="#282828" stop-opacity="0.81569"/></linearGradient><linearGradient x1="397.19443" y1="74.43402" x2="397.19443" y2="428.43402" gradientUnits="userSpaceOnUse" id="color-2"><stop offset="0" stop-color="#f5f5f5" stop-opacity="0.91765"/><stop offset="1" stop-color="#ffffff" stop-opacity="0.78039"/></linearGradient></defs><g transform="translate(7.30012,8.50564)"><g stroke-miterlimit="10"><path d="M-7.30012,480.78097v-489.28661h812.16583v489.28661z" fill="url(#color-1)" stroke="none" stroke-width="0"/><text transform="translate(3.19443,36.43402) scale(0.5,0.5)" font-size="40" xml:space="preserve" fill-opacity="0.9451" fill="#ffffff" stroke="none" stroke-width="1" font-family="Sans Serif" font-weight="normal" text-anchor="start"><tspan x="0" dy="0">填写一些数据【尽量全部填写，也可以在选择一个你刚才选择的服务商】</tspan></text><path d="M15.19443,428.43402v-354h764v354z" fill="url(#color-2)" stroke="#ffffff" stroke-width="0.5"/><path d="M32.19443,131.71499v-24h693v24z" fill-opacity="0.91765" fill="#f5f5f5" stroke="#ffffff" stroke-width="0.5"/><path d="M31.19443,176.71499v-24h361v24z" fill-opacity="0.91765" fill="#f5f5f5" stroke="#ffffff" stroke-width="0.5"/><path d="M27.19443,264.71499v-24h693v24z" fill-opacity="0.91765" fill="#f5f5f5" stroke="#ffffff" stroke-width="0.5"/><path d="M27.3709,314.95028v-24h693v24z" fill-opacity="0.91765" fill="#f5f5f5" stroke="#ffffff" stroke-width="0.5"/><path d="M25.42972,359.36205v-24h693v24z" fill-opacity="0.91765" fill="#f5f5f5" stroke="#ffffff" stroke-width="0.5"/><text transform="translate(32.19443,230.71499) scale(0.5,0.5)" font-size="40" xml:space="preserve" fill-opacity="0.9451" fill="#5f5f5f" stroke="none" stroke-width="1" font-family="Sans Serif" font-weight="normal" text-anchor="start"><tspan x="0" dy="0">和风天气</tspan></text><text transform="translate(34.1105,96.22413) scale(0.5,0.5)" font-size="40" xml:space="preserve" fill="#676767" stroke="none" stroke-width="1" font-family="Sans Serif" font-weight="normal" text-anchor="start"><tspan x="0" dy="0">至乐天气</tspan></text></g></g></svg>