<svg version="1.1" xmlns="http://www.w3.org/2000/svg" xmlns:xlink="http://www.w3.org/1999/xlink" width="728.76448" height="433.93394" viewBox="0,0,728.76448,433.93394"><defs><radialGradient cx="167.03629" cy="197.02505" r="124.30575" gradientUnits="userSpaceOnUse" id="color-1"><stop offset="0" stop-color="#ffbb46"/><stop offset="1" stop-color="#ffe5b9"/></radialGradient></defs><g transform="translate(-41.81102,-12.51637)"><g stroke-miterlimit="10"><path d="M44.02896,443.7946c0,0 -2.21794,-0.44152 -2.21794,-6.10931c0,-58.12842 0,-386.63996 0,-417.41262c0,-4.5562 1.5759,-5.97611 1.5759,-5.97611c0,0 0.93151,-1.78019 5.65104,-1.78019c72.70627,0 670.40754,0 713.50121,0c4.84586,0 6.19778,2.04284 6.19778,2.04284c0,0 1.83855,1.28831 1.83855,6.0053c0,31.33582 0,360.61766 0,417.52936c0,5.40785 -2.01366,6.4887 -2.01366,6.4887c0,0 -1.05562,1.86774 -6.7936,1.86774c-78.65324,0 -658.74295,0 -708.58624,0c-6.73298,0 -9.15304,-2.65569 -9.15304,-2.65569z" fill-opacity="0.99216" fill="#ededed" stroke="none" stroke-width="0" stroke-linecap="butt" stroke-linejoin="miter"/><path d="M49.80548,440.57283v-400.22235h712.89605v400.22235z" fill="#ffffff" stroke="none" stroke-width="0" stroke-linecap="butt" stroke-linejoin="miter"/><text transform="translate(59.90162,29.98647) scale(0.32582,0.32582)" font-size="40" xml:space="preserve" fill-opacity="0.95294" fill="#333333" stroke="none" stroke-width="1" stroke-linecap="butt" stroke-linejoin="miter" font-family="Sans Serif" font-weight="normal" text-anchor="start"><tspan x="0" dy="0">音乐</tspan></text><text transform="translate(178.01159,206.84547) scale(0.5,0.5)" font-size="40" xml:space="preserve" fill="#000000" stroke="none" stroke-width="1" stroke-linecap="butt" stroke-linejoin="miter" font-family="Sans Serif" font-weight="normal" text-anchor="start"><tspan x="0" dy="0"> </tspan></text><path d="M50.76389,352.05876h712.39227" fill="none" stroke="#636363" stroke-width="3" stroke-linecap="round" stroke-linejoin="miter"/><path d="M236.40182,420.45182c0,0 -2.02342,-0.95731 -2.02342,-6.76902c0,-11.32596 -0.18395,-29.21205 -0.18395,-36.21254c0,-5.56943 2.54284,-9.28408 2.54284,-9.28408c0,0 3.51323,-3.46253 10.99225,-3.46253c31.67443,0 250.71595,0 305.18198,0c7.81404,0 9.1136,2.02342 9.1136,2.02342c0,0 3.1271,2.0701 3.1271,7.93892c0,12.104 0,31.7594 0,38.62891c0,4.68805 -2.94316,7.32086 -2.94316,7.32086c0,0 -2.39218,2.94316 -11.68885,2.94316c-58.37822,0 -272.95907,0 -303.52646,0c-7.10733,0 -10.59193,-3.1271 -10.59193,-3.1271z" fill="#f4f4f4" stroke="none" stroke-width="0" stroke-linecap="butt" stroke-linejoin="miter"/><path d="M84.90979,313.75538c0,-38.17965 0,-214.63035 0,-234.49367c0,-3.56242 3.19559,-6.54241 6.54241,-6.54241c11.79126,0 126.13473,0 149.79084,0c4.9628,0 7.91976,3.28564 7.91976,7.57542c0,21.48923 -0.00386,194.90879 -0.00386,233.46066c0,4.85889 -3.22706,7.57542 -8.60457,7.57542c-24.53575,0 -138.52711,0 -149.4465,0c-2.83825,0 -6.19807,-2.93231 -6.19807,-7.57542z" fill="url(#color-1)" stroke="none" stroke-width="0" stroke-linecap="butt" stroke-linejoin="miter"/><text transform="translate(226.91695,165.17543) scale(0.68867,0.68867)" font-size="40" xml:space="preserve" fill="#000000" stroke="none" stroke-width="1" stroke-linecap="butt" stroke-linejoin="miter" font-family="Sans Serif" font-weight="normal" text-anchor="start"><tspan x="0" dy="0"> </tspan></text><path d="M130.54143,236.06179v-91.17767h52.42716l20.51498,23.93414v67.24353z" fill="#f5a623" stroke="#333333" stroke-width="3" stroke-linecap="round" stroke-linejoin="round"/><path d="M171.57139,207.56877v-33.12303l13.67665,-6.7672" fill="none" stroke="#4a4a4a" stroke-width="3" stroke-linecap="round" stroke-linejoin="round"/><path d="M146.49752,207.56877c0,-6.92395 5.61297,-12.53693 12.53693,-12.53693c6.92395,0 12.53693,5.61297 12.53693,12.53693c0,6.92395 -5.61297,12.53693 -12.53693,12.53693c-6.92395,0 -12.53693,-5.61297 -12.53693,-12.53693z" fill="#f6d00e" stroke="#4a4a4a" stroke-width="3" stroke-linecap="round" stroke-linejoin="round"/></g></g></svg>