<svg version="1.1" xmlns="http://www.w3.org/2000/svg" xmlns:xlink="http://www.w3.org/1999/xlink" width="20.52027" height="20.52027" viewBox="0,0,20.52027,20.52027"><defs><linearGradient x1="231.76014" y1="162" x2="231.76014" y2="181.52027" gradientUnits="userSpaceOnUse" id="color-1"><stop offset="0" stop-color="#585858"/><stop offset="1" stop-color="#c3c3c3"/></linearGradient></defs><g transform="translate(-221.5,-161.5)"><g stroke-miterlimit="10"><path d="M222.71546,181.05602v-17.31735h17.83863v17.31735z" fill-opacity="0.00392" fill="#4b92e3" fill-rule="nonzero" stroke="none" stroke-width="0" stroke-linecap="butt" stroke-linejoin="miter"/><path d="M241.52027,163.62669v16.26689c0,0.89842 -0.72827,1.62669 -1.62669,1.62669h-16.26689c-0.89839,0 -1.62669,-0.72827 -1.62669,-1.62669v-16.26689c0,-0.89839 0.7283,-1.62669 1.62669,-1.62669h16.26689c0.89842,0 1.62669,0.7283 1.62669,1.62669z" fill="url(#color-1)" fill-rule="nonzero" stroke="#ffffff" stroke-width="1" stroke-linecap="butt" stroke-linejoin="round"/><path d="M228.50676,168.84565c0,-1.79679 1.45659,-3.25338 3.25338,-3.25338c1.79679,0 3.25338,1.45659 3.25338,3.25338c0,1.79679 -1.45659,3.25338 -3.25338,3.25338v2.16892" fill="none" fill-rule="nonzero" stroke="#ffffff" stroke-width="1" stroke-linecap="round" stroke-linejoin="round"/><path d="M231.27638,176.36425c0,-0.28075 0.22759,-0.50834 0.50834,-0.50834c0.28075,0 0.50834,0.22759 0.50834,0.50834c0,0.28075 -0.22759,0.50834 -0.50834,0.50834c-0.28075,0 -0.50834,-0.22759 -0.50834,-0.50834z" fill="#ffffff" fill-rule="evenodd" stroke="none" stroke-width="1" stroke-linecap="butt" stroke-linejoin="miter"/></g></g></svg>