<svg version="1.1" xmlns="http://www.w3.org/2000/svg" xmlns:xlink="http://www.w3.org/1999/xlink" width="211.97542" height="231.67524" viewBox="0,0,211.97542,231.67524"><defs><linearGradient x1="308.00209" y1="98.45069" x2="308.00209" y2="330.12593" gradientUnits="userSpaceOnUse" id="color-1"><stop offset="0" stop-color="#ebebeb" stop-opacity="0.58039"/><stop offset="1" stop-color="#d9d9d9" stop-opacity="0.64314"/></linearGradient></defs><g transform="translate(-202.01438,-98.45069)"><g stroke-miterlimit="10"><path d="M202.01438,108.89392c0,-6.21699 3.80275,-10.44323 9.44778,-10.44323c36.34279,0 172.32201,0 193.07986,0c5.17977,0 9.44778,5.55981 9.44778,10.44323c0,8.27526 0,197.23604 0,211.26529c0,5.41979 -4.70471,9.29223 -10.31102,9.29223c-21.61901,0 -157.99987,0.67449 -192.79213,0.67449c-5.10917,0 -8.87226,-5.38337 -8.87226,-10.15547c0,0 0,-196.66603 0,-211.07653z" fill="url(#color-1)" stroke="none" stroke-width="0" stroke-linecap="butt" stroke-linejoin="miter"/><text transform="translate(280.14948,315.59167) scale(0.44641,0.44641)" font-size="40" xml:space="preserve" fill="#7a7a7a" stroke="none" stroke-width="1" stroke-linecap="butt" stroke-linejoin="miter" font-family="Sans Serif" font-weight="normal" text-anchor="start"><tspan x="0" dy="0">文件夹</tspan></text><path d="M253.86115,153.70823c0,-3.07557 2.49324,-5.56881 5.56881,-5.56881h33.41286l13.92202,16.70643h47.33488c3.07565,0 5.56881,2.49316 5.56881,5.56881v72.39453c0,3.07565 -2.49316,5.56881 -5.56881,5.56881h-94.66977c-3.07557,0 -5.56881,-2.49316 -5.56881,-5.56881z" fill="none" stroke="#000000" stroke-width="4" stroke-linecap="butt" stroke-linejoin="round"/><path d="M359.66854,192.6899h-105.80739" fill="none" stroke="#000000" stroke-width="4" stroke-linecap="butt" stroke-linejoin="round"/><path d="M253.86115,175.98347v33.41286" fill="none" stroke="#000000" stroke-width="4" stroke-linecap="round" stroke-linejoin="round"/><path d="M359.66854,175.98347v33.41286" fill="none" stroke="#000000" stroke-width="4" stroke-linecap="round" stroke-linejoin="round"/></g></g></svg>