<svg version="1.1" xmlns="http://www.w3.org/2000/svg" xmlns:xlink="http://www.w3.org/1999/xlink" width="131.85878" height="246.30509" viewBox="0,0,131.85878,246.30509"><defs><radialGradient cx="89.53629" cy="160.96931" r="90.25" gradientUnits="userSpaceOnUse" id="color-1"><stop offset="0" stop-color="#ffbb46"/><stop offset="1" stop-color="#ffe5b9"/></radialGradient></defs><g transform="translate(-17.30401,-4.91422)"><g stroke-miterlimit="10"><text transform="translate(17.46692,19.08739) scale(0.32582,0.32582)" font-size="40" xml:space="preserve" fill-opacity="0.95294" fill="#e7e7e7" stroke="none" stroke-width="1" stroke-linecap="butt" stroke-linejoin="miter" font-family="Sans Serif" font-weight="normal" text-anchor="start"><tspan x="0" dy="0"> 音乐</tspan></text><path d="M29.90979,245.71931c0,-27.71966 0,-155.82859 0,-170.25c0,-2.58643 2.3201,-4.75 4.75,-4.75c8.56084,0 91.5779,0 108.753,0c3.60315,0 5.75,2.38548 5.75,5.5c0,15.60188 -0.0028,141.5101 -0.0028,169.5c0,3.52771 -2.34295,5.5 -6.2472,5.5c-17.81375,0 -100.57517,0 -108.503,0c-2.06066,0 -4.5,-2.12895 -4.5,-5.5z" fill="url(#color-1)" stroke="none" stroke-width="0" stroke-linecap="butt" stroke-linejoin="miter"/><text transform="translate(133.01159,137.84545) scale(0.5,0.5)" font-size="40" xml:space="preserve" fill="#000000" stroke="none" stroke-width="1" stroke-linecap="butt" stroke-linejoin="miter" font-family="Sans Serif" font-weight="normal" text-anchor="start"><tspan x="0" dy="0"> </tspan></text><path d="M63.03984,189.31125v-66.19794h38.06382l14.89454,17.37696v48.82098z" fill="#f5a623" stroke="#333333" stroke-width="3" stroke-linecap="round" stroke-linejoin="round"/><path d="M92.82892,168.62439v-24.04839l9.92969,-4.91321" fill="none" stroke="#4a4a4a" stroke-width="3" stroke-linecap="round" stroke-linejoin="round"/><path d="M74.62448,168.62439c0,-5.02701 4.0752,-9.10222 9.10222,-9.10222c5.02701,0 9.10222,4.0752 9.10222,9.10222c0,5.02701 -4.0752,9.10222 -9.10222,9.10222c-5.02701,0 -9.10222,-4.0752 -9.10222,-9.10222z" fill="#f6d00e" stroke="#4a4a4a" stroke-width="3" stroke-linecap="round" stroke-linejoin="round"/></g></g></svg>