<svg version="1.1" xmlns="http://www.w3.org/2000/svg" xmlns:xlink="http://www.w3.org/1999/xlink" width="128.06292" height="71.53846" viewBox="0,0,128.06292,71.53846"><g transform="translate(-89.0537,-111.00653)"><g stroke-miterlimit="10"><text transform="translate(132.86237,141.82323) scale(0.2764,0.2764)" font-size="40" xml:space="preserve" fill="#464646" fill-rule="nonzero" stroke="none" stroke-width="1" stroke-linecap="butt" stroke-linejoin="miter" font-family="Sans Serif" font-weight="normal" text-anchor="start"><tspan x="0" dy="0">网络1</tspan></text><text transform="translate(124.7104,162.01153) scale(0.44231,0.44231)" font-size="40" xml:space="preserve" fill="#000000" fill-rule="nonzero" stroke="none" stroke-width="1" stroke-linecap="butt" stroke-linejoin="miter" font-family="Pixel" font-weight="normal" text-anchor="start"><tspan x="0" dy="0">连接断开</tspan></text><path d="M91.73197,182.54499v-71.53846h125.38462v71.53846z" fill="none" fill-rule="nonzero" stroke="none" stroke-width="0" stroke-linecap="butt" stroke-linejoin="miter"/><path d="M100.99092,136.21227c0.12782,0.03392 0.25969,0.09013 0.3951,0.16683c-0.35643,0.14613 -0.70803,0.30793 -1.05418,0.48351z" fill="#55ba4a" fill-rule="nonzero" stroke="none" stroke-width="0.5" stroke-linecap="butt" stroke-linejoin="miter"/><path d="M128.90217,142.32583c0.08913,-0.08774 0.23428,-0.16924 0.42306,-0.24522c-0.28346,0.38842 -0.5711,0.77484 -0.86212,1.15969c0.21964,-0.51152 0.37953,-0.85587 0.43906,-0.91447z" fill="#55ba4a" fill-rule="nonzero" stroke="none" stroke-width="0.5" stroke-linecap="butt" stroke-linejoin="miter"/><path d="M91.732,182.54499v-71.53846h125.38462v71.53846z" fill="none" fill-rule="nonzero" stroke="none" stroke-width="0" stroke-linecap="butt" stroke-linejoin="miter"/><path d="M103.46662,139.52522c6.9023,-1.07488 14.19501,0.95852 19.62042,6.10011" fill="none" fill-rule="nonzero" stroke="#4a4a4a" stroke-width="4" stroke-linecap="round" stroke-linejoin="round"/><path d="M110.67412,146.86671c2.7881,0.64779 5.43494,2.05822 7.60792,4.23128" fill="none" fill-rule="nonzero" stroke="#4a4a4a" stroke-width="4" stroke-linecap="round" stroke-linejoin="round"/><path d="M95.8587,151.09799c1.06319,-1.06319 2.23985,-1.94386 3.49091,-2.64195" fill="none" fill-rule="nonzero" stroke="#4a4a4a" stroke-width="4" stroke-linecap="round" stroke-linejoin="round"/><path d="M100.6637,156.31526c1.15224,-1.15224 2.53752,-1.92921 4.00417,-2.33099" fill="none" fill-rule="nonzero" stroke="#4a4a4a" stroke-width="4" stroke-linecap="round" stroke-linejoin="round"/><path d="M105.06829,160.46854c0,-1.10571 0.89637,-2.00208 2.00208,-2.00208c1.10571,0 2.00208,0.89637 2.00208,2.00208c0,1.10571 -0.89637,2.00208 -2.00208,2.00208c-1.10571,0 -2.00208,-0.89637 -2.00208,-2.00208z" fill="#4a4a4a" fill-rule="evenodd" stroke="none" stroke-width="1" stroke-linecap="butt" stroke-linejoin="miter"/><path d="M94.25704,136.84396l25.62667,25.62667" fill="none" fill-rule="nonzero" stroke="#4a4a4a" stroke-width="4" stroke-linecap="round" stroke-linejoin="round"/><path d="M91.0537,145.62525c0.47153,-0.44687 0.95717,-0.87027 1.45544,-1.27012c0.43967,-0.35293 0.88917,-0.68752 1.34747,-1.00384" fill="none" fill-rule="nonzero" stroke="#4a4a4a" stroke-width="4" stroke-linecap="round" stroke-linejoin="round"/></g></g></svg>