<svg version="1.1" xmlns="http://www.w3.org/2000/svg" xmlns:xlink="http://www.w3.org/1999/xlink" width="352.99696" height="20.95556" viewBox="0,0,352.99696,20.95556"><g transform="translate(-223.50152,-214.52222)"><g data-paper-data="{&quot;isPaintingLayer&quot;:true}" fill-rule="nonzero" stroke-miterlimit="10" stroke-dasharray="" stroke-dashoffset="0" style="mix-blend-mode: normal"><path d="M224.42983,234.06522c0,0 -0.92831,-0.07118 -0.92831,-2.18353c0,-4.19108 0,-10.8568 0,-13.31832c0,-1.80958 1.10513,-2.76312 1.10513,-2.76312c0,0 0.11551,-1.27803 2.01766,-1.27803c18.87391,0 309.81354,0 346.15628,0c2.42635,0 2.61276,1.21076 2.61276,1.21076c0,0 1.10513,1.06247 1.10513,3.97388c0,3.99644 0,9.19535 0,11.36767c0,1.93664 -1.59138,2.92344 -1.59138,2.92344c0,0 0.1112,1.47981 -2.65696,1.47981c-38.65995,0 -328.53668,0 -346.06787,0c-1.64339,0 -1.75243,-1.41256 -1.75243,-1.41256z" fill="#e9eef0" stroke="none" stroke-width="NaN" stroke-linecap="butt" stroke-linejoin="miter"/><path d="M231.68989,231.42416c-0.59643,0 -1.07994,-0.4835 -1.07994,-1.07994v-10.79939c0,-0.59643 0.4835,-1.07994 1.07994,-1.07994h10.79939c0.59643,0 1.07994,0.4835 1.07994,1.07994v10.79939c0,0.59643 -0.4835,1.07994 -1.07994,1.07994z" fill="none" stroke="#e1ccb1" stroke-width="1.5" stroke-linecap="round" stroke-linejoin="round"/><path d="M235.19644,231.41027h-3.89314l1.94657,-3.37157l1.94657,-3.37157l1.94657,3.37157l1.94656,3.37157z" fill="none" stroke="#e1ccb1" stroke-width="1.5" stroke-linecap="butt" stroke-linejoin="round"/><path d="M239.15082,231.41027l-1.94656,-3.37157l1.78528,-4.28554l3.89313,7.65711z" fill="none" stroke="#e1ccb1" stroke-width="1.5" stroke-linecap="butt" stroke-linejoin="round"/><path d="M239.69655,221.29142c0,-0.71263 0.5777,-1.29032 1.29032,-1.29032c0.71263,0 1.29032,0.5777 1.29032,1.29032c0,0.71263 -0.5777,1.29032 -1.29032,1.29032c-0.71263,0 -1.29032,-0.5777 -1.29032,-1.29032z" fill="#e1ccb1" stroke="none" stroke-width="0" stroke-linecap="butt" stroke-linejoin="miter"/></g></g></svg>