<svg version="1.1" xmlns="http://www.w3.org/2000/svg" xmlns:xlink="http://www.w3.org/1999/xlink" width="134" height="55" viewBox="0,0,134,55"><defs><linearGradient x1="201.27128" y1="159.89421" x2="201.27128" y2="180.8135" gradientUnits="userSpaceOnUse" id="color-1"><stop offset="0" stop-color="#fc9f21"/><stop offset="1" stop-color="#fc62d2"/></linearGradient></defs><g transform="translate(-168.87782,-144.80005)"><g stroke-miterlimit="10"><path d="M168.87782,199.80005v-55h134v55z" fill="none" fill-rule="nonzero" stroke="none" stroke-width="0" stroke-linecap="butt" stroke-linejoin="miter"/><g fill-rule="nonzero" stroke="none" stroke-width="1" stroke-linecap="butt" stroke-linejoin="miter"><path d="M190.60039,185.00107c-4.14213,0 -7.5,-4.06467 -7.5,-8.79379c0,-4.72754 0,-10.11909 0,-12.77778c0,-3.12088 3.35787,-7.42843 7.5,-7.42843h94c4.14213,0 7.5,4.11109 7.5,7.14003c0,2.5099 0,8.91269 0,13.51852c0,5.11981 -3.35787,8.34145 -7.5,8.34145z" fill="#ffffff"/><path d="M284.60038,156.5438h-94c-3.86418,0.00437 -6.99563,3.13582 -7,7v14c0.00437,3.86418 3.13582,6.99563 7,7h94c3.86418,-0.00438 6.99563,-3.13582 7,-7v-14c-0.00437,-3.86418 -3.13582,-6.99562 -7,-7M292.60038,163.5438v14c0,4.41828 -3.58172,8 -8,8h-94c-4.41828,0 -8,-3.58172 -8,-8v-14c0,-4.41828 3.58172,-8 8,-8h94c4.41828,0 8,3.58172 8,8z" fill="#cccccc"/></g><text transform="translate(226.89733,173.11693) scale(0.22047,0.22047)" font-size="40" xml:space="preserve" fill-opacity="0.9098" fill="#000000" fill-rule="nonzero" stroke="none" stroke-width="0" stroke-linecap="butt" stroke-linejoin="miter" font-family="&quot;Exo-Bold&quot;, Sans Serif" font-weight="normal" text-anchor="start"><tspan x="0" dy="0">音乐</tspan></text><path d="M204.48264,159.89596c2.07447,0.01827 4.4973,0.17172 5.78348,1.4579c1.27211,1.27211 1.43211,3.6521 1.45222,5.71024c0.00285,0.29071 0.00282,6.37521 -0.00149,6.71275c-0.02597,2.03159 -0.20578,4.35369 -1.45073,5.59865c-1.23125,1.23125 -3.50412,1.40874 -5.51588,1.43426c-0.36035,0.00457 -6.45422,0.00446 -6.73728,0.00224c-2.05989,-0.01615 -4.43925,-0.1601 -5.71565,-1.4365c-1.26278,-1.26278 -1.44581,-3.63376 -1.47206,-5.68572c-0.00393,-0.30715 -0.00427,-6.45061 0.00063,-6.80372c0.02806,-2.02088 0.21429,-4.31818 1.45014,-5.55403c1.24003,-1.24003 3.53658,-1.41122 5.55887,-1.43478c0.34536,-0.00403 6.38063,-0.00363 6.64775,-0.00128z" fill="url(#color-1)" fill-rule="nonzero" stroke="none" stroke-width="0.47449" stroke-linecap="butt" stroke-linejoin="miter"/><path d="M200.93613,163.03543v11.51375" fill="none" fill-rule="nonzero" stroke="#ededed" stroke-width="2" stroke-linecap="round" stroke-linejoin="round"/><path d="M195.37777,174.96208c0,-1.10512 0.89589,-2.00101 2.00101,-2.00101h3.55735v2.36628c0,1.10512 -0.89589,2.001 -2.00101,2.001h-1.55634c-1.10512,0 -2.00101,-0.89588 -2.00101,-2.001z" fill="#ededed" fill-rule="nonzero" stroke="#ededed" stroke-width="2" stroke-linecap="butt" stroke-linejoin="round"/><path d="M200.93613,163.03543l5.11504,1.19639v3.21912l-5.11504,-1.21295z" fill="#ededed" fill-rule="evenodd" stroke="#ededed" stroke-width="2" stroke-linecap="round" stroke-linejoin="round"/></g></g></svg>