<svg version="1.1" xmlns="http://www.w3.org/2000/svg" xmlns:xlink="http://www.w3.org/1999/xlink" width="143.89501" height="56.14434" viewBox="0,0,143.89501,56.14434"><defs><linearGradient x1="511.64533" y1="219.76466" x2="511.64533" y2="275.909" gradientUnits="userSpaceOnUse" id="color-1"><stop offset="0" stop-color="#7a4912"/><stop offset="1" stop-color="#dac094"/></linearGradient></defs><g transform="translate(-439.69782,-219.76466)"><g stroke="none" stroke-miterlimit="10"><path d="M439.69783,267.63075c0,-7.13598 0,-26.22393 0,-39.05291c0,-4.82711 3.50473,-8.81318 8.15217,-8.81318c25.87881,0 111.26924,0 127.05569,0c4.87293,0 8.68714,5.04711 8.68714,9.61564c0,7.53899 0,26.04876 0,38.25045c0,4.51912 -3.90758,8.27825 -7.88469,8.27825c-14.51486,0 -101.00751,0 -127.59066,0c-4.81207,0 -8.41966,-4.43876 -8.41966,-8.27825z" fill="url(#color-1)" stroke-width="0"/><path d="M446.31629,248.07421c0,-2.42526 0,-8.91256 0,-13.27266c0,-1.64056 1.13029,-2.99528 2.62911,-2.99528c8.34601,0 35.88473,0 40.97592,0c1.57153,0 2.80164,1.71533 2.80164,3.268c0,2.56223 0,8.85302 0,12.99993c0,1.53588 -1.26021,2.81348 -2.54284,2.81348c-4.68109,0 -32.57529,0 -41.14845,0c-1.55191,0 -2.71537,-1.50857 -2.71537,-2.81348z" fill-opacity="0.01176" fill="#f2f2f2" stroke-width="0"/><path d="M457.61715,240.88795c0.93827,0 1.6989,0.76062 1.6989,1.69889c0,0.93827 -0.76062,1.6989 -1.6989,1.6989c-0.93827,0 -1.6989,-0.76062 -1.6989,-1.6989c0,-0.93827 0.76062,-1.69889 1.6989,-1.69889zM457.61715,242.10145c-0.26808,0 -0.4854,0.21731 -0.4854,0.48539c0,0.26808 0.21732,0.4854 0.4854,0.4854c0.26808,0 0.4854,-0.21732 0.4854,-0.4854c0,-0.26808 -0.21732,-0.48539 -0.4854,-0.48539zM467.57712,232.39348c1.60337,0 2.90338,1.29882 2.90338,2.90127c0,1.60171 -1.31299,2.90809 -2.91712,2.90809l0.01592,0.00044c-0.02369,0.00536 -0.0479,0.00934 -0.07254,0.01185l-0.06204,0.00313l-1.47245,-0.00014c0.27459,0.41788 0.43423,0.91692 0.43423,1.45329c0,1.48632 -1.11559,2.67324 -2.58981,2.67324c-1.46503,0 -2.34035,-0.84756 -2.57797,-2.03304c-0.06586,-0.32856 0.14711,-0.64831 0.47567,-0.71416c0.32856,-0.06586 0.6483,0.14711 0.71416,0.47567c0.13127,0.6549 0.54761,1.05804 1.38815,1.05804c0.78664,0 1.37631,-0.62738 1.37631,-1.45974c0,-0.77237 -0.61343,-1.40637 -1.39004,-1.45068l-0.08694,-0.00247h-12.04674c-0.3351,0 -0.60675,-0.27166 -0.60675,-0.60675c0,-0.31415 0.23876,-0.57254 0.54471,-0.60361l0.06204,-0.00313l15.75854,-0.00022c0.04359,-0.00995 0.08897,-0.0152 0.13556,-0.0152c0.9353,0 1.70362,-0.76446 1.70362,-1.69459c0,-0.93201 -0.75647,-1.68777 -1.68989,-1.68777c-0.89489,0 -1.63326,0.69702 -1.68677,1.58413c-0.02018,0.33449 -0.30769,0.58929 -0.64218,0.56912c-0.33449,-0.02018 -0.58929,-0.30769 -0.56912,-0.64217c0.09211,-1.52707 1.36065,-2.72457 2.89807,-2.72457zM460.281,226.8114c2.14236,0 3.87909,1.73673 3.87909,3.87909c0,2.10583 -1.67801,3.81975 -3.76987,3.87757l-0.05177,0.00732l-0.05334,0.00239h-8.61582c-0.3351,0 -0.60675,-0.27165 -0.60675,-0.60675c0,-0.31415 0.23876,-0.57255 0.54471,-0.60362l0.06204,-0.00313l8.51446,-0.00045l0.04809,-0.00579l0.04917,-0.00196c1.47217,0 2.66559,-1.19342 2.66559,-2.66559c0,-1.47217 -1.19342,-2.66559 -2.66559,-2.66559c-1.47217,0 -2.66559,1.19342 -2.66559,2.66559c0,0.3351 -0.27165,0.60675 -0.60675,0.60675c-0.3351,0 -0.60675,-0.27165 -0.60675,-0.60675c0,-2.14236 1.73672,-3.87909 3.87908,-3.87909zM467.81052,227.30354c0.93827,0 1.69889,0.76062 1.69889,1.6989c0,0.93827 -0.76062,1.6989 -1.69889,1.6989c-0.93827,0 -1.6989,-0.76062 -1.6989,-1.6989c0,-0.93827 0.76062,-1.6989 1.6989,-1.6989zM452.76256,226.326c0.93794,0 1.69828,0.76035 1.69828,1.69829c0,0.93794 -0.76034,1.69829 -1.69828,1.69829c-0.93794,0 -1.69829,-0.76035 -1.69829,-1.69829c0,-0.93794 0.76035,-1.69829 1.69829,-1.69829zM467.81052,228.51704c-0.26808,0 -0.4854,0.21732 -0.4854,0.4854c0,0.26808 0.21732,0.4854 0.4854,0.4854c0.26808,0 0.48539,-0.21732 0.48539,-0.4854c0,-0.26808 -0.21731,-0.4854 -0.48539,-0.4854zM452.76256,227.5395c-0.26774,0 -0.48479,0.21705 -0.48479,0.48479c0,0.26774 0.21705,0.48479 0.48479,0.48479c0.26774,0 0.48478,-0.21705 0.48478,-0.48479c0,-0.26774 -0.21704,-0.48479 -0.48478,-0.48479z" fill="#ffffff" stroke-width="1"/></g></g></svg>