<svg version="1.1" xmlns="http://www.w3.org/2000/svg" xmlns:xlink="http://www.w3.org/1999/xlink" width="28.87517" height="19.85596" viewBox="0,0,28.87517,19.85596"><defs><linearGradient x1="212.04475" y1="164.66928" x2="212.04475" y2="183.52525" gradientUnits="userSpaceOnUse" id="color-1"><stop offset="0" stop-color="#d8e9eb"/><stop offset="1" stop-color="#afdceb" stop-opacity="0.72549"/></linearGradient></defs><g transform="translate(-197.60717,-164.16928)"><g stroke-miterlimit="10"><path d="M198.19322,182.43286c0,0 -0.08605,-0.00742 -0.08605,-1.64049c0,-3.90347 0,-10.85375 0,-13.11431c0,-1.39709 0.11473,-2.10638 0.11473,-2.10638c0,0 0.1136,-0.9024 0.43404,-0.9024c2.00749,0 21.98903,0 26.44745,0c0.56343,0 0.55462,0.86755 0.55462,0.86755c0,0 0.32433,1.08133 0.32433,2.6766c0,2.28513 0,8.69279 0,12.45554c0,1.69718 -0.21206,2.29856 -0.21206,2.29856c0,0 -0.05708,0.55771 -0.54214,0.55771c-4.20927,0 -24.67804,0 -26.62296,0c-0.29254,0 -0.41195,-1.09238 -0.41195,-1.09238z" fill="url(#color-1)" stroke="#ffffff" stroke-linecap="butt" stroke-linejoin="miter"/><path d="M215.9012,178.00139c-1.00051,1.00054 -2.38271,1.61937 -3.90947,1.61937c-3.05348,0 -5.52883,-2.47536 -5.52883,-5.52884c0,-3.05348 2.47535,-5.52883 5.52883,-5.52883c1.52676,0 2.90897,0.61883 3.90947,1.61936c0.50927,0.50927 1.61937,1.75937 1.61937,1.75937" fill="none" stroke="#4c4c4c" stroke-linecap="round" stroke-linejoin="round"/><path d="M217.52057,169.1774v2.76442h-2.76442" fill="none" stroke="#4c4c4c" stroke-linecap="round" stroke-linejoin="round"/></g></g></svg>