<svg version="1.1" xmlns="http://www.w3.org/2000/svg" xmlns:xlink="http://www.w3.org/1999/xlink" width="698.19819" height="66.60148" viewBox="0,0,698.19819,66.60148"><defs><linearGradient x1="372.62115" y1="367.23751" x2="372.62115" y2="433.83898" gradientUnits="userSpaceOnUse" id="color-1"><stop offset="0" stop-color="#2b2b2b" stop-opacity="0.83922"/><stop offset="1" stop-color="#292929" stop-opacity="0.89804"/></linearGradient></defs><g transform="translate(-23.52205,-367.23751)"><g stroke-miterlimit="10"><path d="M28.15197,429.93699c0,0 -4.62992,-5.22489 -4.62992,-15.80258c0,-10.17754 0,-21.69821 0,-27.72457c0,-7.81368 3.51874,-14.24352 3.51874,-14.24352c0,0 3.78799,-4.51808 14.84218,-4.51808c100.083,0 604.82679,-0.41073 661.89117,-0.41073c10.29234,0 13.27048,6.26506 13.27048,6.26506c0,0 4.67562,6.47606 4.67562,14.84783c0,5.5399 0,15.32997 0,24.41211c0,11.06349 -4.67562,14.81143 -4.67562,14.81143c0,0 -3.20626,6.26506 -13.75753,6.26506c-57.85717,0 -563.16162,-0.20537 -661.12633,-0.20537c-10.52704,0 -14.0088,-3.69661 -14.0088,-3.69661z" fill="url(#color-1)" stroke="none" stroke-width="0" stroke-linecap="butt"/><path d="M34.66718,383.4824h670.64255" fill="none" stroke="#b7b7b7" stroke-width="2.5" stroke-linecap="round"/></g></g></svg>