<svg version="1.1" xmlns="http://www.w3.org/2000/svg" xmlns:xlink="http://www.w3.org/1999/xlink" width="27.98619" height="27.87634" viewBox="0,0,27.98619,27.87634"><defs><linearGradient x1="400.00001" y1="211.06184" x2="400.00001" y2="238.93818" gradientUnits="userSpaceOnUse" id="color-1"><stop offset="0" stop-color="#023160"/><stop offset="1" stop-color="#6e93ac"/></linearGradient><linearGradient x1="400.12452" y1="217.10088" x2="400.12452" y2="233.03213" gradientUnits="userSpaceOnUse" id="color-2"><stop offset="0" stop-color="#ffffff"/><stop offset="1" stop-color="#8dbcdd"/></linearGradient><linearGradient x1="400.12452" y1="223.17858" x2="400.12452" y2="224.67858" gradientUnits="userSpaceOnUse" id="color-3"><stop offset="0" stop-color="#ffffff"/><stop offset="1" stop-color="#8dbcdd"/></linearGradient></defs><g transform="translate(-386.00691,-211.06184)"><g stroke-miterlimit="10"><path d="M395.89384,222.35727l10.375,-0.125l1.875,0.125" fill="none" fill-rule="nonzero" stroke="#d0e0d8" stroke-width="1.5" stroke-linecap="round" stroke-linejoin="miter"/><path d="M386.00691,216.84039c0,-3.19139 2.58713,-5.77855 5.77855,-5.77855h16.42912c1.53256,0 3.00233,0.60883 4.08606,1.69252c1.08366,1.08366 1.69246,2.55347 1.69246,4.08603v16.31924c0,3.19139 -2.58713,5.77855 -5.77855,5.77855h-16.42908c-3.19139,0 -5.77855,-2.58713 -5.77855,-5.77855z" fill="url(#color-1)" fill-rule="evenodd" stroke="none" stroke-width="1" stroke-linecap="square" stroke-linejoin="miter"/><path d="M409.22809,230.75624h-9.55875l-4.55179,2.27589v-2.27589h-4.09661v-13.65536h18.20714z" fill="none" fill-rule="nonzero" stroke="url(#color-2)" stroke-width="1.5" stroke-linecap="round" stroke-linejoin="round"/><path d="M395.57273,223.92858h9.10357" fill="none" fill-rule="nonzero" stroke="url(#color-3)" stroke-width="1.5" stroke-linecap="round" stroke-linejoin="round"/></g></g></svg>