<svg version="1.1" xmlns="http://www.w3.org/2000/svg" xmlns:xlink="http://www.w3.org/1999/xlink" width="24.178" height="25.51979" viewBox="0,0,24.178,25.51979"><defs><linearGradient x1="316.86442" y1="113.35892" x2="316.86442" y2="138.87871" gradientUnits="userSpaceOnUse" id="color-1"><stop offset="0" stop-color="#438e30"/><stop offset="1" stop-color="#459968"/></linearGradient></defs><g transform="translate(-304.77541,-113.35892)"><g stroke="none" stroke-miterlimit="10"><path d="M314.03234,119.95319c-0.83245,-0.40615 -1.46465,-1.15268 -2.22906,-1.67274c0.37569,-0.26429 0.79575,-0.47725 1.13464,-0.78912c0.48619,-0.44741 0.77438,-1.01318 1.17895,-1.52097c0.62267,-0.78157 1.34107,-1.4848 1.64141,-2.29776c0.0177,0.06467 0.03629,0.13173 0.05526,0.20117c0.5382,1.97021 0.93231,3.81632 0.93202,5.87456c0.00028,0.2894 -0.00619,0.57966 -0.01691,0.86818c-0.89181,-0.24243 -1.85451,-0.25262 -2.6963,-0.66332z" fill="#78e0b0" stroke-width="0.25"/><path d="M328.95342,113.35892v2.68629c0,12.93048 -7.21673,18.80406 -16.11777,18.80406h-2.55467c0.28475,-4.04556 1.54462,-6.49412 4.83264,-9.40337c1.61715,-1.43045 1.48015,-2.25649 0.68366,-1.78236c-5.48541,3.26385 -8.21066,7.67474 -8.33154,14.71821l-0.00403,0.49696h-2.68629c0,-1.83071 0.15581,-3.49218 0.46473,-5.01262c-0.30803,-1.73803 -0.46249,-4.0966 -0.46339,-7.0757c0,-7.4182 6.01327,-13.43147 13.43147,-13.43147c2.68629,0 5.37259,1.34315 10.74518,0" fill="url(#color-1)" stroke-width="1"/></g></g></svg>