<svg version="1.1" xmlns="http://www.w3.org/2000/svg" xmlns:xlink="http://www.w3.org/1999/xlink" width="94.45175" height="26.81536" viewBox="0,0,94.45175,26.81536"><g transform="translate(-384.58899,-207.14324)"><g stroke-miterlimit="10"><path d="M384.58899,212.27331c0,-3.054 1.69443,-5.13007 4.20973,-5.13007c16.19358,0 76.78303,0 86.03229,0c2.30799,0 4.20973,2.73117 4.20973,5.13007c0,4.06509 0,9.89764 0,16.78929c0,2.66238 -2.09631,4.56467 -4.59437,4.56467c-9.63298,0 -70.40139,0.33133 -85.90408,0.33133c-2.27654,0 -3.9533,-2.6445 -3.9533,-4.98872c0,0 0,-9.61764 0,-16.69657z" fill-opacity="0.01176" fill="#fafafa" stroke="none" stroke-width="0"/><path d="M385.6203,213.23973c0,-2.711 1.65824,-4.55391 4.11983,-4.55391c15.84776,0 75.14332,0 84.19506,0c2.25871,0 4.11983,2.42443 4.11983,4.55391c0,3.60854 0,8.78603 0,14.90367c0,2.36337 -2.05155,4.052 -4.49626,4.052c-9.42726,0 -68.89796,0.29412 -84.06959,0.29412c-2.22792,0 -3.86887,-2.34749 -3.86887,-4.42843c0,0 0,-8.53747 0,-14.82136z" fill="#fafafa" stroke="none" stroke-width="0"/><text transform="translate(399.37948,223.13841) scale(0.19918,0.19918)" font-size="40" xml:space="preserve" fill="#000000" stroke="#000000" stroke-width="1" font-family="Sans Serif" font-weight="normal" text-anchor="start"><tspan x="0" dy="0">和风天气【国内】</tspan></text></g></g></svg>