<svg version="1.1" xmlns="http://www.w3.org/2000/svg" xmlns:xlink="http://www.w3.org/1999/xlink" width="62.09365" height="75.62782" viewBox="0,0,62.09365,75.62782"><g transform="translate(-208.95319,-149.52284)"><g stroke-miterlimit="10"><path d="M271.04684,180c0,16.83207 -13.90014,30.47716 -31.04682,30.47716c-17.14669,0 -31.04683,-13.64509 -31.04683,-30.47716c0,-16.83207 13.90014,-30.47716 31.04683,-30.47716c17.14669,0 31.04682,13.64509 31.04682,30.47716z" fill="#ffffff" stroke="none" stroke-width="0" stroke-linecap="butt" stroke-linejoin="miter"/><path d="M249.50004,164c0.6594,0.37652 1.2938,0.79103 1.9,1.24051c1.0375,0.76919 1.9926,1.64089 2.85,2.59969c2.9562,3.3061 4.75,7.6489 4.75,12.4053c0,10.3578 -8.5066,18.7545 -19,18.7545c-10.4934,0 -19,-8.3967 -19,-18.7545c0,-4.7564 1.79377,-9.0992 4.75,-12.4053c0.8574,-0.9588 1.8125,-1.8305 2.85,-2.59969c0.6062,-0.44948 1.2406,-0.86399 1.9,-1.24051" fill="none" stroke="#a10000" stroke-width="3" stroke-linecap="round" stroke-linejoin="round"/><path d="M240.00004,160v20" fill="none" stroke="#a10000" stroke-width="3" stroke-linecap="round" stroke-linejoin="round"/><text transform="translate(232.3371,222.39766) scale(0.20227,0.22024)" font-size="40" xml:space="preserve" fill="#ffffff" stroke="none" stroke-width="1" stroke-linecap="butt" stroke-linejoin="miter" font-family="Sans Serif" font-weight="normal" text-anchor="start"><tspan x="0" dy="0">关机</tspan></text></g></g></svg>