<svg version="1.1" xmlns="http://www.w3.org/2000/svg" xmlns:xlink="http://www.w3.org/1999/xlink" width="21.96083" height="24.44303" viewBox="0,0,21.96083,24.44303"><defs><linearGradient x1="252.72512" y1="194.61552" x2="252.72512" y2="216.59867" gradientUnits="userSpaceOnUse" id="color-1"><stop offset="0" stop-color="#45bcd1"/><stop offset="1" stop-color="#96eeff"/></linearGradient><linearGradient x1="252.55376" y1="197.91787" x2="252.55376" y2="212.96444" gradientUnits="userSpaceOnUse" id="color-2"><stop offset="0" stop-color="#c7c7c7"/><stop offset="1" stop-color="#e7e7e7"/></linearGradient></defs><g transform="translate(-241.74471,-194.61552)"><g stroke-miterlimit="10"><path d="M256.09979,194.61737c2.17997,0.0192 4.72601,0.18045 6.0776,1.53205c1.33681,1.33681 1.50494,3.83782 1.52608,6.00063c0.00299,0.3055 0.00297,6.69942 -0.00156,7.05413c-0.02729,2.13491 -0.21624,4.5751 -1.52451,5.88337c-1.29387,1.29387 -3.68233,1.48039 -5.79639,1.5072c-0.37868,0.0048 -6.78245,0.00469 -7.07991,0.00235c-2.16464,-0.01697 -4.66501,-0.16824 -6.00632,-1.50955c-1.327,-1.327 -1.51933,-3.81856 -1.54692,-5.97487c-0.00413,-0.32277 -0.00449,-6.77866 0.00067,-7.14973c0.02949,-2.12366 0.22518,-4.53778 1.52388,-5.83648c1.30309,-1.30309 3.71644,-1.48299 5.84157,-1.50775c0.36293,-0.00423 6.70512,-0.00381 6.98582,-0.00134z" fill="url(#color-1)" stroke="none" stroke-width="0.47449" stroke-linecap="butt" stroke-linejoin="miter"/><path d="M259.3248,198.67019v13.54192c0,0.41551 -0.33682,0.75233 -0.75233,0.75233h-12.03743c-0.41551,0 -0.75234,-0.33685 -0.75233,-0.75233l0.00025,-13.54194c0.00001,-0.41549 0.33684,-0.75231 0.75233,-0.75231h12.03719c0.41551,0 0.75233,0.33683 0.75233,0.75233z" fill="url(#color-2)" stroke="#ffffff" stroke-width="1.5" stroke-linecap="butt" stroke-linejoin="round"/><path d="M256.69165,203.56033h-8.27562v-3.38548h8.27562z" fill="#efefef" stroke="#ffffff" stroke-width="1.5" stroke-linecap="butt" stroke-linejoin="round"/><path d="M248.03988,206.94581l2.63315,2.63315" fill="none" stroke="#ffffff" stroke-width="1.5" stroke-linecap="round" stroke-linejoin="round"/><path d="M250.67303,206.94581l-2.63315,2.63315" fill="none" stroke="#ffffff" stroke-width="1.5" stroke-linecap="round" stroke-linejoin="round"/><path d="M254.05851,209.57896h3.00932" fill="none" stroke="#ffffff" stroke-width="1.5" stroke-linecap="round" stroke-linejoin="round"/><path d="M254.05851,207.32198h3.00932" fill="none" stroke="#ffffff" stroke-width="1.5" stroke-linecap="round" stroke-linejoin="round"/><path d="M248.77448,218.28173l8.36172,0.02683" fill="none" stroke="#0e100e" stroke-width="1.5" stroke-linecap="round" stroke-linejoin="miter"/></g></g></svg>