<svg version="1.1" xmlns="http://www.w3.org/2000/svg" xmlns:xlink="http://www.w3.org/1999/xlink" width="78.51628" height="17.35137" viewBox="0,0,78.51628,17.35137"><defs><linearGradient x1="373.14165" y1="218.3577" x2="373.14165" y2="231.68706" gradientUnits="userSpaceOnUse" id="color-1"><stop offset="0" stop-color="#c43b3b"/><stop offset="1" stop-color="#b163c4"/></linearGradient></defs><g transform="translate(-360.74186,-216.32432)"><g stroke-miterlimit="10"><path d="" fill="#e8be51" stroke="#000000" stroke-width="1" stroke-linecap="butt"/><path d="" fill="#ffde00" stroke="none" stroke-width="0" stroke-linecap="butt"/><path d="" fill="#000000" stroke="none" stroke-width="0.5" stroke-linecap="butt"/><path d="" fill="#000000" stroke="none" stroke-width="0.5" stroke-linecap="butt"/><path d="" fill="#000000" stroke="none" stroke-width="0.5" stroke-linecap="butt"/><path d="" fill="#000000" stroke="none" stroke-width="0.5" stroke-linecap="butt"/><path d="" fill="#949494" stroke="none" stroke-width="0.5" stroke-linecap="butt"/><path d="M436.83622,233.47085l-73.53753,0.20485l-2.40736,-1.93378l-0.14947,-13.82757l2.58728,-1.38517l73.53753,-0.20485l2.242,1.9461l0.14947,13.82757z" fill="#ffffff" stroke="none" stroke-width="0" stroke-linecap="round"/><path d="M375.18786,218.35883c1.32181,0.01164 2.86559,0.10942 3.68511,0.92895c0.81057,0.81057 0.91251,2.32704 0.92533,3.63845c0.00182,0.18524 0.0018,4.06216 -0.00095,4.27723c-0.01655,1.29449 -0.13112,2.77408 -0.92437,3.56735c-0.78453,0.78453 -2.23276,0.89763 -3.51461,0.91388c-0.22961,0.00292 -4.1125,0.00284 -4.29287,0.00142c-1.31252,-0.01029 -2.82859,-0.10201 -3.64189,-0.9153c-0.80462,-0.80462 -0.92124,-2.31536 -0.93797,-3.62283c-0.0025,-0.19571 -0.00272,-4.1102 0.0004,-4.33519c0.01788,-1.28767 0.13653,-2.75146 0.924,-3.53893c0.79012,-0.79012 2.25344,-0.8992 3.542,-0.91421c0.22006,-0.00257 4.06561,-0.00232 4.23582,-0.00082z" fill="url(#color-1)" stroke="none" stroke-width="0.47449" stroke-linecap="butt"/><text transform="translate(389.13396,227.63585) scale(0.20511,0.20511)" font-size="40" xml:space="preserve" fill="#515151" stroke="none" stroke-width="1" stroke-linecap="butt" font-family="Sans Serif" font-weight="normal" text-anchor="start"><tspan x="0" dy="0">感谢和成员</tspan></text><path d="M377.77507,224.61719l-0.01516,-0.02087c-0.07228,0.10081 -0.1379,0.21427 -0.18197,0.33773c-0.12115,0.33895 -0.59963,0.78495 -0.84153,0.9951l-1.37869,-1.8636l-0.59799,-0.14735c0,0 -1.90068,-0.29507 -2.09729,-0.19661c-0.19659,0.09813 -0.98299,0.65545 -1.86786,0.55699c-0.88471,-0.09813 -0.85204,-0.62263 -0.45867,-0.75358c0.39318,-0.13132 1.7039,-0.95053 2.42482,-1.2126c0.72092,-0.26208 1.80704,-0.26672 2.22842,-0.19661c0.26726,0.04461 0.56801,-0.07242 0.81707,-0.21371c0.90182,-0.31827 2.29336,1.98973 1.96884,2.71509z" fill="#ffffff" stroke="none" stroke-width="1" stroke-linecap="butt"/><path d="M375.98858,225.62229c0.3113,0.36038 0.44242,0.53485 0.44242,0.80281c0,0.35287 -0.28616,0.63903 -0.63903,0.63903c-0.08706,0 -0.17002,-0.01766 -0.24564,-0.04922c0,0.35287 -0.28616,0.63903 -0.63904,0.63903c-0.16075,0 -0.30719,-0.05975 -0.41961,-0.15771c0.00606,0.03534 0.00999,0.07138 0.00999,0.10849c0,0.35306 -0.28616,0.63903 -0.63903,0.63903c-0.14933,0 -0.28634,-0.05156 -0.39516,-0.13736c-0.06297,0.24835 -0.28812,0.41317 -0.55519,0.43245c-0.0007,0 -0.00161,0 -0.00231,0l0.15914,-0.15556c0.31755,-0.31078 0.32309,-0.8219 0.0123,-1.13964c-0.1131,-0.11561 -0.25457,-0.1925 -0.40906,-0.22478c0.01998,-0.06959 0.0314,-0.14203 0.03228,-0.21623c0.00231,-0.21516 -0.07939,-0.41853 -0.22997,-0.57231c-0.15235,-0.15558 -0.3561,-0.24157 -0.57374,-0.24227c0,-0.00213 0.00037,-0.0043 0.00037,-0.00643c0.00231,-0.21516 -0.0794,-0.41853 -0.2298,-0.57231c-0.15289,-0.15628 -0.35734,-0.24227 -0.57605,-0.24227c-0.07137,0 -0.1411,0.00999 -0.20837,0.02802c-0.02837,-0.15146 -0.10009,-0.29633 -0.21551,-0.41443c-0.07369,-0.07511 -0.15949,-0.13362 -0.2528,-0.17448c0.09848,0.02749 0.20982,0.04926 0.33647,0.06334c0.08347,0.00928 0.16912,0.0141 0.25493,0.0141c0.78141,0 1.45218,-0.39053 1.73871,-0.55734c0.01837,-0.01071 0.0371,-0.02141 0.05334,-0.03069c0.01053,-0.00052 0.02463,-0.0007 0.04227,-0.0007c0.40372,0 1.47877,0.15308 1.85894,0.21195l0.28973,0.02924z" fill="#ffffff" stroke="none" stroke-width="1" stroke-linecap="butt"/><path d="M370.38017,225.63908l-0.58979,0.57694c-0.1629,0.15951 -0.42407,0.15665 -0.58339,-0.00623c-0.15932,-0.16288 -0.15646,-0.42405 0.00641,-0.58338l0.58962,-0.57713c0.16288,-0.15932 0.42405,-0.15645 0.58354,0.00643c0.15932,0.16288 0.15646,0.42405 -0.00639,0.58336z" fill="#ffffff" stroke="none" stroke-width="1" stroke-linecap="butt"/><path d="M371.38008,226.26777l-0.78621,0.76927c-0.16307,0.15947 -0.42424,0.15663 -0.58354,-0.00643c-0.15932,-0.1627 -0.15665,-0.42387 0.00623,-0.58336l0.78639,-0.76927c0.1629,-0.15949 0.42407,-0.15663 0.58339,0.00643c0.15949,0.16288 0.15663,0.42405 -0.00626,0.58336z" fill="#ffffff" stroke="none" stroke-width="1" stroke-linecap="butt"/><path d="M372.18346,227.08876l-0.78639,0.76927c-0.1629,0.15951 -0.42407,0.15663 -0.58339,-0.00606c-0.15949,-0.16307 -0.15663,-0.42424 0.00625,-0.58354l0.78639,-0.76944c0.16288,-0.15951 0.42405,-0.15647 0.58336,0.00641c0.1593,0.1627 0.15665,0.42389 -0.00621,0.58336z" fill="#ffffff" stroke="none" stroke-width="1" stroke-linecap="butt"/><path d="M372.79017,228.1021l-0.45867,0.44885c-0.16288,0.15914 -0.42424,0.15645 -0.58354,-0.00643c-0.15932,-0.16288 -0.15647,-0.42405 0.00641,-0.58336l0.45869,-0.44887c0.1627,-0.15949 0.42387,-0.15645 0.58336,0.00643c0.15932,0.16288 0.15647,0.42405 -0.00624,0.58338z" fill="#ffffff" stroke="none" stroke-width="1" stroke-linecap="butt"/><path d="M369.52795,224.76814l-0.58962,0.57711c-0.02729,0.02695 -0.05174,0.05585 -0.07476,0.08547c-0.1472,-0.16627 -0.27635,-0.34253 -0.33147,-0.49666c-0.03728,-0.10456 -0.09029,-0.20161 -0.14933,-0.29027c-0.32451,-0.72557 1.06701,-3.03356 1.96884,-2.71512c0.23923,0.1288 0.51896,0.22887 0.76927,0.18714c0.23282,-0.03871 0.66846,-0.05458 1.13339,-0.01696c-0.36697,0.16915 -0.78871,0.39909 -1.17299,0.60873c-0.35806,0.19516 -0.72859,0.39713 -0.8699,0.44422c-0.35109,0.11703 -0.56375,0.41762 -0.52878,0.74768c0.01303,0.12257 0.09509,0.47008 0.59051,0.66008c-0.05888,-0.01336 -0.11953,-0.02122 -0.18162,-0.02122c-0.21195,0 -0.41193,0.08171 -0.56355,0.2298z" fill="#ffffff" stroke="none" stroke-width="1" stroke-linecap="butt"/></g></g></svg>