<svg version="1.1" xmlns="http://www.w3.org/2000/svg" xmlns:xlink="http://www.w3.org/1999/xlink" width="729.98647" height="435.24146" viewBox="0,0,729.98647,435.24146"><defs><linearGradient x1="408.52952" y1="13.74596" x2="408.52952" y2="447.6799" gradientUnits="userSpaceOnUse" id="color-1"><stop offset="0" stop-color="#d6d6d6" stop-opacity="0.31765"/><stop offset="1" stop-color="#737373" stop-opacity="0.43137"/></linearGradient><linearGradient x1="408.52952" y1="13.74596" x2="408.52952" y2="447.6799" gradientUnits="userSpaceOnUse" id="color-2"><stop offset="0" stop-color="#ffffff" stop-opacity="0.18431"/><stop offset="1" stop-color="#cacaca" stop-opacity="0.78039"/></linearGradient><linearGradient x1="408.30753" y1="14.05348" x2="408.30753" y2="447.98742" gradientUnits="userSpaceOnUse" id="color-3"><stop offset="0" stop-color="#d6d6d6" stop-opacity="0.31765"/><stop offset="1" stop-color="#cccccc" stop-opacity="0.43137"/></linearGradient><linearGradient x1="408.30753" y1="14.05348" x2="408.30753" y2="447.98742" gradientUnits="userSpaceOnUse" id="color-4"><stop offset="0" stop-color="#ffffff" stop-opacity="0.18431"/><stop offset="1" stop-color="#cacaca" stop-opacity="0.78039"/></linearGradient></defs><g transform="translate(-43.42529,-13.24596)"><g stroke-miterlimit="10"><path d="M46.36522,445.02419c0,0 -2.21794,-0.44152 -2.21794,-6.10931c0,-58.12842 0,-386.63996 0,-417.41262c0,-4.5562 1.5759,-5.97611 1.5759,-5.97611c0,0 0.93151,-1.78019 5.65104,-1.78019c72.70627,0 670.40754,0 713.50121,0c4.84586,0 6.19778,2.04284 6.19778,2.04284c0,0 1.83855,1.28831 1.83855,6.0053c0,31.33582 0,360.61766 0,417.52936c0,5.40785 -2.01366,6.4887 -2.01366,6.4887c0,0 -1.05562,1.86774 -6.7936,1.86774c-78.65324,0 -658.74295,0 -708.58624,0c-6.73298,0 -9.15304,-2.65569 -9.15304,-2.65569z" fill="url(#color-1)" stroke="url(#color-2)" stroke-width="1"/><path d="M46.14323,445.33171c0,0 -2.21794,-0.44152 -2.21794,-6.10931c0,-58.12842 0,-386.63996 0,-417.41262c0,-4.5562 1.5759,-5.97611 1.5759,-5.97611c0,0 0.93151,-1.78019 5.65104,-1.78019c72.70627,0 670.40754,0 713.50121,0c4.84586,0 6.19778,2.04284 6.19778,2.04284c0,0 1.83855,1.28831 1.83855,6.0053c0,31.33582 0,360.61766 0,417.52936c0,5.40785 -2.01366,6.4887 -2.01366,6.4887c0,0 -1.05562,1.86774 -6.7936,1.86774c-78.65324,0 -658.74295,0 -708.58624,0c-6.73298,0 -9.15304,-2.65569 -9.15304,-2.65569z" fill="url(#color-3)" stroke="url(#color-4)" stroke-width="1"/><text transform="translate(59.90162,29.98646) scale(0.32582,0.32582)" font-size="40" xml:space="preserve" fill-opacity="0.95294" fill="#333333" stroke="none" stroke-width="1" font-family="Sans Serif" font-weight="normal" text-anchor="start"><tspan x="0" dy="0">文件管理</tspan></text><path d="M49.80548,440.57281v-400.22235h712.89605v400.22235z" fill="#ffffff" stroke="none" stroke-width="0"/><path d="M54.03101,76.76184v-33.1521h705.79066v33.1521z" fill="#f4f4f4" stroke="none" stroke-width="0"/></g></g></svg>