<svg version="1.1" xmlns="http://www.w3.org/2000/svg" xmlns:xlink="http://www.w3.org/1999/xlink" width="22.96291" height="22.98625" viewBox="0,0,22.96291,22.98625"><defs><radialGradient cx="176.87" cy="174.84253" r="11.49313" gradientUnits="userSpaceOnUse" id="color-1"><stop offset="0" stop-color="#2287fd"/><stop offset="1" stop-color="#269afd"/></radialGradient></defs><g transform="translate(-173.89425,-171.88387)"><g fill="url(#color-1)" stroke="none" stroke-width="0.47449" stroke-miterlimit="10"><path d="M188.90437,171.8858c2.27945,0.02007 4.94166,0.18869 6.35492,1.60196c1.39781,1.39781 1.5736,4.01295 1.59571,6.27444c0.00313,0.31943 0.00311,7.00512 -0.00163,7.37601c-0.02854,2.23233 -0.22611,4.78386 -1.59408,6.15183c-1.35291,1.35291 -3.85036,1.54794 -6.06089,1.57597c-0.39596,0.00502 -7.09194,0.00491 -7.40296,0.00246c-2.26342,-0.01774 -4.87787,-0.17593 -6.28039,-1.57844c-1.38755,-1.38755 -1.58866,-3.9928 -1.61751,-6.2475c-0.00431,-0.33749 -0.00469,-7.08796 0.0007,-7.47597c0.03083,-2.22056 0.23546,-4.74485 1.59341,-6.10281c1.36255,-1.36255 3.88602,-1.55066 6.10813,-1.57654c0.37948,-0.00442 7.01108,-0.00399 7.30459,-0.00141z"/></g></g></svg>