<svg version="1.1" xmlns="http://www.w3.org/2000/svg" xmlns:xlink="http://www.w3.org/1999/xlink" width="493.53057" height="36.01652" viewBox="0,0,493.53057,36.01652"><g transform="translate(-115.69717,-181.46621)"><g stroke-miterlimit="10"><path d="M116.94717,209.22784c0,-6.56821 0,-15.91717 0,-19.62788c0,-1.57458 0.72868,-3.42372 2.09345,-4.78303c1.27226,-1.26717 3.10565,-2.10072 5.19309,-2.10072c32.56966,0 417.85308,0 476.32647,0c4.81831,0 7.41756,3.87759 7.41756,6.93932c0,3.72159 0,13.07294 0,19.625c0,1.98495 -0.96002,3.58798 -2.17335,4.82474c-1.22988,1.25361 -2.72912,2.12746 -5.11194,2.12746c-58.02193,0 -443.86442,0 -476.45873,0c-4.32667,0 -7.28653,-2.98048 -7.28653,-7.0049z" fill="#f4f4f4" stroke-opacity="0.01176" stroke="#000000" stroke-width="2.5" stroke-linecap="butt" stroke-linejoin="miter"/><path d="M151.00871,197.51598c0,3.90752 -3.68009,7.07517 -8.21969,7.07517c-4.5396,0 -8.21967,-3.16766 -8.21967,-7.07517c0,-3.90752 3.68008,-7.07517 8.21967,-7.07517c4.5396,0 8.21969,3.16766 8.21969,7.07517z" fill="none" stroke="#ffffff" stroke-width="0" stroke-linecap="butt" stroke-linejoin="miter"/><path d="M127.70942,198.349c0,-4.56176 3.69808,-8.25983 8.25983,-8.25983c4.56176,0 8.25983,3.69808 8.25983,8.25983c0,4.56176 -3.69808,8.25983 -8.25983,8.25983c-4.56176,0 -8.25983,-3.69808 -8.25983,-8.25983z" fill="none" stroke="#717171" stroke-width="1.5" stroke-linecap="butt" stroke-linejoin="round"/><path d="M133.22081,195.11459c0.70339,-0.70339 1.67514,-1.13846 2.74849,-1.13846c1.07339,0 2.04514,0.43505 2.74853,1.13846" fill="none" stroke="#aeaeae" stroke-width="1.5" stroke-linecap="round" stroke-linejoin="round"/><path d="M146.03017,208.40996l-4.12278,-4.12278" fill="none" stroke="#717171" stroke-width="1.5" stroke-linecap="round" stroke-linejoin="round"/></g></g></svg>