<svg version="1.1" xmlns="http://www.w3.org/2000/svg" xmlns:xlink="http://www.w3.org/1999/xlink" width="29.11765" height="17.62101" viewBox="0,0,29.11765,17.62101"><g transform="translate(-385.44118,-216.18948)"><g stroke="none" stroke-miterlimit="10"><path d="M386.14294,233.3719c0,0 -0.70175,-0.3058 -0.70175,-1.47448c0,-3.68141 0,-11.57285 0,-13.66778c0,-0.99872 0.83333,-1.82086 0.83333,-1.82086c0,0 0.52651,-0.2193 1.90893,-0.2193c3.35469,0 17.60808,0 23.65041,0c1.67979,0 1.76007,0.2193 1.76007,0.2193c0,0 0.96491,0.57186 0.96491,1.3837c0,1.89202 0,9.70066 0,13.67347c0,1.41587 -0.65789,1.59893 -0.65789,1.59893c0,0 -0.47235,0.74561 -2.27117,0.74561c-6.15537,0 -20.13939,0 -23.45416,0c-1.379,0 -2.03267,-0.4386 -2.03267,-0.4386z" fill="#c1eda1" stroke-width="0"/><text transform="translate(389.40443,228.38462) scale(0.25922,0.25922)" font-size="40" xml:space="preserve" fill="#ffffff" stroke-width="1" font-family="Sans Serif" font-weight="normal" text-anchor="start"><tspan x="0" dy="0">发送</tspan></text></g></g></svg>