<svg version="1.1" xmlns="http://www.w3.org/2000/svg" xmlns:xlink="http://www.w3.org/1999/xlink" width="289.69417" height="26.75" viewBox="0,0,289.69417,26.75"><g transform="translate(-40.39693,-164.42747)"><g stroke-miterlimit="10"><path d="M149.90893,187.09048c0,-4.96121 0,-11.00794 0,-13.93637c0,-1.63502 2.01579,-4.19162 4.36188,-4.19162c23.95642,0 158.1292,0 171.9476,0c2.24855,0 3.87269,2.12381 3.87269,3.94703c0,2.80615 0,9.17156 0,14.18096c0,2.33352 -1.84965,3.94703 -4.36188,3.94703c-14.98979,0 -155.384,0 -172.43678,0c-1.09217,0 -3.38351,-2.1507 -3.38351,-3.94703z" fill="#ffffff" stroke="#000000" stroke-width="0" stroke-linecap="butt" stroke-linejoin="miter"/><text transform="translate(257.07343,182.71232) scale(0.2487,0.2487)" font-size="40" xml:space="preserve" fill="#505050" stroke="none" stroke-width="1" stroke-linecap="butt" stroke-linejoin="miter" font-family="&quot;Microsoft YaHei&quot;, &quot;微软雅黑&quot;, STXihei, &quot;华文细黑&quot;" font-weight="normal" text-anchor="start"><tspan x="0" dy="0"> 修改账户密码</tspan></text><text transform="translate(40.64693,185.92747) scale(0.5,0.5)" font-size="40" xml:space="preserve" fill="#505050" stroke="none" stroke-width="1" stroke-linecap="butt" stroke-linejoin="miter" font-family="&quot;Microsoft YaHei&quot;, &quot;微软雅黑&quot;, STXihei, &quot;华文细黑&quot;" font-weight="normal" text-anchor="start"><tspan x="0" dy="0"> </tspan></text><path d="M163.72369,180.33042c1.04588,1.02655 1.45864,2.53188 1.08151,3.94448c-0.37708,1.4126 -1.48624,2.51592 -2.90633,2.89102c-1.42009,0.37515 -2.93336,-0.03542 -3.96531,-1.07583c-1.55164,-1.59806 -1.52945,-4.13828 0.04988,-5.70931c1.57934,-1.57099 4.13298,-1.59308 5.73951,-0.04961z" fill="none" stroke="#000000" stroke-width="1" stroke-linecap="butt" stroke-linejoin="round"/><path d="M163.77791,180.20774l6.99368,-6.99368" fill="none" stroke="#000000" stroke-width="1" stroke-linecap="round" stroke-linejoin="round"/><path d="M169.38869,174.69512l2.23329,2.22152l-2.60552,2.59178l-2.23325,-2.22152z" fill="none" stroke="#000000" stroke-width="1" stroke-linecap="butt" stroke-linejoin="round"/></g></g></svg>