<svg version="1.1" xmlns="http://www.w3.org/2000/svg" xmlns:xlink="http://www.w3.org/1999/xlink" width="211.97542" height="231.67524" viewBox="0,0,211.97542,231.67524"><defs><linearGradient x1="308.00211" y1="98.45071" x2="308.00211" y2="330.12595" gradientUnits="userSpaceOnUse" id="color-1"><stop offset="0" stop-color="#ebebeb" stop-opacity="0.58039"/><stop offset="1" stop-color="#d9d9d9" stop-opacity="0.64314"/></linearGradient></defs><g transform="translate(-202.01439,-98.4507)"><g data-paper-data="{&quot;isPaintingLayer&quot;:true}" fill-rule="nonzero" stroke-miterlimit="10" stroke-dasharray="" stroke-dashoffset="0" style="mix-blend-mode: normal"><path d="M202.0144,108.89394c0,-6.21699 3.80275,-10.44323 9.44778,-10.44323c36.34279,0 172.32201,0 193.07986,0c5.17977,0 9.44778,5.55981 9.44778,10.44323c0,8.27526 0,197.23604 0,211.26529c0,5.41979 -4.70471,9.29223 -10.31102,9.29223c-21.61901,0 -157.99987,0.67449 -192.79213,0.67449c-5.10917,0 -8.87226,-5.38337 -8.87226,-10.15547c0,0 0,-196.66603 0,-211.07653z" fill="url(#color-1)" stroke="none" stroke-width="0" stroke-linecap="butt" stroke-linejoin="miter"/><text transform="translate(273.53719,315.59169) scale(0.44641,0.44641)" font-size="40" xml:space="preserve" fill="#7a7a7a" fill-rule="nonzero" stroke="none" stroke-width="1" stroke-linecap="butt" stroke-linejoin="miter" stroke-miterlimit="10" stroke-dasharray="" stroke-dashoffset="0" font-family="Sans Serif" font-weight="normal" text-anchor="start" style="mix-blend-mode: normal"><tspan x="0" dy="0">文本文档</tspan></text><g fill="none" stroke="#000000" stroke-width="5.5"><path d="M278.73962,149.88617h47.4887l23.74432,23.74432v66.48415c0,2.62279 -2.12609,4.74888 -4.74888,4.74888h-66.48415c-2.62273,0 -4.74888,-2.12609 -4.74888,-4.74888v-85.47965c0,-2.62273 2.12615,-4.74888 4.74888,-4.74888z" stroke-linecap="butt" stroke-linejoin="round"/><path d="M297.73513,183.14795h28.4932" stroke-linecap="round" stroke-linejoin="miter"/><path d="M312.00141,183.14795v37.97124" stroke-linecap="round" stroke-linejoin="miter"/></g></g></g></svg>