<svg version="1.1" xmlns="http://www.w3.org/2000/svg" xmlns:xlink="http://www.w3.org/1999/xlink" width="308.41127" height="20.92898" viewBox="0,0,308.41127,20.92898"><defs><linearGradient x1="337.47566" y1="146.91849" x2="337.47566" y2="163.41313" gradientUnits="userSpaceOnUse" id="color-1"><stop offset="0" stop-color="#fc9f21"/><stop offset="1" stop-color="#fc62d2"/></linearGradient></defs><g transform="translate(-321.81972,-145.01234)"><g stroke-miterlimit="10"><path d="M321.81972,160.24007c0,-3.09396 0,-7.85281 0,-9.69697c0,-2.50379 3.4799,-5.53076 9.31612,-5.53076c27.53257,0 239.91381,0 289.64614,0c6.73087,0 9.44901,3.31191 9.44901,5.92979c0,1.79999 0,6.35432 0,9.29794c0,3.37251 -2.79963,5.70125 -9.66563,5.70125c-50.07083,0 -261.49535,0 -289.2129,0c-5.94787,0 -9.53274,-2.31286 -9.53274,-5.70125z" fill="#f9f9f9" fill-rule="nonzero" stroke="none" stroke-width="0" stroke-linecap="butt" stroke-linejoin="miter"/><text transform="translate(369.38116,158.38009) scale(0.23741,0.23741)" font-size="40" xml:space="preserve" fill="#515151" fill-rule="nonzero" stroke="none" stroke-width="1" stroke-linecap="butt" stroke-linejoin="miter" font-family="Sans Serif" font-weight="normal" text-anchor="start"><tspan x="0" dy="0">音乐</tspan></text><path d="M340.00778,146.91988c1.6357,0.01441 3.54607,0.1354 4.56021,1.14954c1.00305,1.00305 1.1292,2.87963 1.14506,4.50246c0.00224,0.22923 0.00223,5.02678 -0.00117,5.29293c-0.02048,1.60189 -0.16225,3.43284 -1.14389,4.41447c-0.97083,0.97083 -2.76297,1.11078 -4.34921,1.1309c-0.28414,0.0036 -5.08908,0.00352 -5.31227,0.00176c-1.6242,-0.01273 -3.5003,-0.12624 -4.50673,-1.13266c-0.99569,-0.99569 -1.14,-2.86518 -1.1607,-4.48313c-0.0031,-0.24218 -0.00337,-5.08624 0.0005,-5.36466c0.02213,-1.59345 0.16896,-3.40484 1.14341,-4.37929c0.97775,-0.97775 2.78856,-1.11273 4.38311,-1.13131c0.27232,-0.00317 5.03106,-0.00286 5.24168,-0.00101z" fill="url(#color-1)" fill-rule="nonzero" stroke="none" stroke-width="0.47449" stroke-linecap="butt" stroke-linejoin="miter"/><path d="M338.00921,149.79567v8.63912" fill="none" fill-rule="nonzero" stroke="#ededed" stroke-width="2" stroke-linecap="round" stroke-linejoin="round"/><path d="M333.8386,158.7446c0,-0.82921 0.67221,-1.50142 1.50142,-1.50142h2.66919v1.77549c0,0.82921 -0.67221,1.50141 -1.50142,1.50141h-1.16777c-0.82921,0 -1.50142,-0.67221 -1.50142,-1.50141z" fill="#ededed" fill-rule="nonzero" stroke="#ededed" stroke-width="2" stroke-linecap="butt" stroke-linejoin="round"/><path d="M338.00921,149.79568l3.83797,0.89769v2.4154l-3.83797,-0.91011z" fill="#ededed" fill-rule="evenodd" stroke="#ededed" stroke-width="2" stroke-linecap="round" stroke-linejoin="round"/></g></g></svg>