<svg version="1.1" xmlns="http://www.w3.org/2000/svg" xmlns:xlink="http://www.w3.org/1999/xlink" width="308.41127" height="20.92898" viewBox="0,0,308.41127,20.92898"><defs><linearGradient x1="336.42771" y1="149.17778" x2="336.42771" y2="162.36546" gradientUnits="userSpaceOnUse" id="color-1"><stop offset="0" stop-color="#79dbe3"/><stop offset="1" stop-color="#60a8e3"/></linearGradient><linearGradient x1="336.42771" y1="149.17778" x2="336.42771" y2="162.36546" gradientUnits="userSpaceOnUse" id="color-2"><stop offset="0" stop-color="#245c7a"/><stop offset="1" stop-color="#5595ca"/></linearGradient><linearGradient x1="336.42772" y1="152.27268" x2="336.42772" y2="160.13975" gradientUnits="userSpaceOnUse" id="color-3"><stop offset="0" stop-color="#1a4055"/><stop offset="1" stop-color="#5595ca"/></linearGradient><linearGradient x1="342.70297" y1="157.71316" x2="342.70297" y2="161.94938" gradientUnits="userSpaceOnUse" id="color-4"><stop offset="0" stop-color="#d2dbe3"/><stop offset="1" stop-color="#9bc3e3"/></linearGradient></defs><g transform="translate(-321.81972,-145.01234)"><g stroke-miterlimit="10"><path d="M321.81972,160.24007c0,-3.09396 0,-7.85281 0,-9.69697c0,-2.50379 3.4799,-5.53076 9.31612,-5.53076c27.53257,0 239.91381,0 289.64614,0c6.73087,0 9.44901,3.31191 9.44901,5.92979c0,1.79999 0,6.35432 0,9.29794c0,3.37251 -2.79963,5.70125 -9.66563,5.70125c-50.07083,0 -261.49535,0 -289.2129,0c-5.94787,0 -9.53274,-2.31286 -9.53274,-5.70125z" fill="#f9f9f9" stroke="none" stroke-width="0" stroke-linecap="butt" stroke-linejoin="miter"/><text transform="translate(369.38116,158.38009) scale(0.23741,0.23741)" font-size="40" xml:space="preserve" fill="#515151" stroke="none" stroke-width="1" stroke-linecap="butt" stroke-linejoin="miter" font-family="Sans Serif" font-weight="normal" text-anchor="start"><tspan x="0" dy="0">浏览器</tspan></text><path d="M329.83387,155.77162c0,-3.6417 2.95215,-6.59384 6.59384,-6.59384c3.6417,0 6.59384,2.95214 6.59384,6.59384c0,3.6417 -2.95215,6.59384 -6.59384,6.59384c-3.6417,0 -6.59384,-2.95215 -6.59384,-6.59384z" fill="url(#color-1)" stroke="url(#color-2)" stroke-width="1" stroke-linecap="butt" stroke-linejoin="round"/><path d="M342.01769,152.27268c1.7388,0.15174 2.93204,0.68518 3.16764,1.56447c0.47125,1.75879 -3.06762,4.23519 -7.90433,5.53116c-4.83667,1.29598 -9.13962,0.92079 -9.61089,-0.838c-0.24691,-0.92149 0.60697,-2.03997 2.17156,-3.08242" fill="none" stroke="url(#color-3)" stroke-width="1" stroke-linecap="round" stroke-linejoin="round"/><path d="M344.94868,159.83127c0,1.1698 -1.00544,2.11812 -2.24571,2.11812c-1.24027,0 -2.24571,-0.94831 -2.24571,-2.11812c0,-1.1698 1.00544,-2.11811 2.24571,-2.11811c1.24027,0 2.24571,0.94831 2.24571,2.11811z" fill="url(#color-4)" stroke="#1d3548" stroke-width="1" stroke-linecap="butt" stroke-linejoin="miter"/><path d="M344.99703,163.13134l-1.00735,-1.45058" fill="none" stroke="#1d3548" stroke-width="1" stroke-linecap="round" stroke-linejoin="miter"/></g></g></svg>