<svg version="1.1" xmlns="http://www.w3.org/2000/svg" xmlns:xlink="http://www.w3.org/1999/xlink" width="728.76448" height="444.88053" viewBox="0,0,728.76448,444.88053"><defs><linearGradient x1="109.82226" y1="31.56794" x2="109.82226" y2="431.6494" gradientUnits="userSpaceOnUse" id="color-1"><stop offset="0" stop-color="#eaeaea"/><stop offset="1" stop-color="#f1f1f1" stop-opacity="0.99216"/></linearGradient></defs><g transform="translate(-42.64482,-1.56977)"><g stroke="none" stroke-miterlimit="10"><path d="M44.86277,443.7276c0,0 -2.21794,-0.45266 -2.21794,-6.26343c0,-59.59479 0,-396.39349 0,-427.94243c0,-4.67114 1.5759,-6.12687 1.5759,-6.12687c0,0 0.93151,-1.8251 5.65104,-1.8251c72.70627,0 670.40754,0 713.50121,0c4.84586,0 6.19778,2.09437 6.19778,2.09437c0,0 1.83855,1.32081 1.83855,6.15679c0,32.12631 0,369.71474 0,428.06212c0,5.54427 -2.01366,6.65239 -2.01366,6.65239c0,0 -1.05562,1.91486 -6.7936,1.91486c-78.65324,0 -658.74295,0 -708.58624,0c-6.73298,0 -9.15304,-2.72268 -9.15304,-2.72268z" fill-opacity="0.99216" fill="#ededed" stroke-width="0"/><path d="M49.80549,440.57283v-416.00662h712.89605v416.00662z" fill="#ffffff" stroke-width="0"/><path d="M49.80549,440.57281v-400.22235h712.89605v400.22235z" fill="#ffffff" stroke-width="0"/><path d="M64.6813,431.6494v-400.08146h90.28194v400.08146z" fill="url(#color-1)" stroke-width="0"/><text transform="translate(201.46422,90.20979) scale(0.6639,0.6639)" font-size="40" xml:space="preserve" fill="#4c4c4c" stroke-width="1" font-family="&quot;Exo-Bold&quot;, Sans Serif" font-weight="normal" text-anchor="start"><tspan x="0" dy="0">浏览器版本:3.0</tspan><tspan x="0" dy="46.150000000000006px">名称:ZX browser</tspan></text><text transform="translate(55.59682,17.78953) scale(0.32582,0.32582)" font-size="40" xml:space="preserve" fill-opacity="0.95294" fill="#333333" stroke-width="1" font-family="Sans Serif" font-weight="normal" text-anchor="start"><tspan x="0" dy="0">浏览器</tspan></text></g></g></svg>