<svg version="1.1" xmlns="http://www.w3.org/2000/svg" xmlns:xlink="http://www.w3.org/1999/xlink" width="308.41127" height="20.92898" viewBox="0,0,308.41127,20.92898"><defs><linearGradient x1="337.8918" y1="149.4785" x2="337.8918" y2="158.97609" gradientUnits="userSpaceOnUse" id="color-1"><stop offset="0" stop-color="#335bc2"/><stop offset="1" stop-color="#c2c2c2"/></linearGradient></defs><g transform="translate(-321.81972,-145.01234)"><g stroke-miterlimit="10"><path d="M321.81972,160.24007c0,-3.09396 0,-7.85281 0,-9.69697c0,-2.50379 3.4799,-5.53076 9.31612,-5.53076c27.53257,0 239.91381,0 289.64614,0c6.73087,0 9.44901,3.31191 9.44901,5.92979c0,1.79999 0,6.35432 0,9.29794c0,3.37251 -2.79963,5.70125 -9.66563,5.70125c-50.07083,0 -261.49535,0 -289.2129,0c-5.94787,0 -9.53274,-2.31286 -9.53274,-5.70125z" fill="#f9f9f9" stroke="none" stroke-width="0" stroke-linecap="butt" stroke-linejoin="miter"/><text transform="translate(369.38116,158.38009) scale(0.23741,0.23741)" font-size="40" xml:space="preserve" fill="#515151" stroke="none" stroke-width="1" stroke-linecap="butt" stroke-linejoin="miter" font-family="Sans Serif" font-weight="normal" text-anchor="start"><tspan x="0" dy="0">电池</tspan></text><path d="M331.16434,158.97609c-0.43711,0 -0.79146,-0.35435 -0.79146,-0.79146v-7.91466c0,-0.43711 0.35435,-0.79146 0.79146,-0.79146h13.45492c0.43711,0 0.79146,0.35435 0.79146,0.79146v7.91466c0,0.43711 -0.35435,0.79146 -0.79146,0.79146z" fill="url(#color-1)" stroke="#172c45" stroke-width="1" stroke-linecap="butt" stroke-linejoin="miter"/><path d="M337.25554,156.99743h1.58293" fill="none" stroke="#4a90e2" stroke-width="1" stroke-linecap="round" stroke-linejoin="round"/><path d="M333.83164,160.49535h7.91466" fill="none" stroke="#172c45" stroke-width="1" stroke-linecap="round" stroke-linejoin="round"/><text transform="translate(345.63688,160.04455) scale(0.08699,0.08699)" font-size="40" xml:space="preserve" fill="#000000" stroke="none" stroke-width="1" stroke-linecap="butt" stroke-linejoin="miter" font-family="Pixel" font-weight="normal" text-anchor="start"><tspan x="0" dy="0">%</tspan></text><path d="M342.38609,160.13663v-3.2764h7.23223v3.2764z" fill="#dcdcdc" stroke="#646464" stroke-width="1" stroke-linecap="butt" stroke-linejoin="miter"/><path d="M341.46781,159.30013v-1.60937h0.85787v1.60937z" fill="#646464" stroke="#646464" stroke-width="0.5" stroke-linecap="butt" stroke-linejoin="miter"/></g></g></svg>