<svg version="1.1" xmlns="http://www.w3.org/2000/svg" xmlns:xlink="http://www.w3.org/1999/xlink" width="14.45927" height="14.45927" viewBox="0,0,14.45927,14.45927"><g transform="translate(-392.77036,-217.77037)"><g data-paper-data="{&quot;isPaintingLayer&quot;:true}" fill-rule="nonzero" stroke-miterlimit="10" stroke-dasharray="" stroke-dashoffset="0" style="mix-blend-mode: normal"><path d="M394.60031,231.47964c-0.59643,0 -1.07994,-0.4835 -1.07994,-1.07994v-10.79939c0,-0.59643 0.4835,-1.07994 1.07994,-1.07994h10.79939c0.59643,0 1.07994,0.4835 1.07994,1.07994v10.79939c0,0.59643 -0.4835,1.07994 -1.07994,1.07994z" fill="none" stroke="#e1ccb1" stroke-width="1.5" stroke-linecap="round" stroke-linejoin="round"/><path d="M398.10686,231.46575h-3.89314l1.94657,-3.37157l1.94657,-3.37157l1.94657,3.37157l1.94656,3.37157z" fill="none" stroke="#e1ccb1" stroke-width="1.5" stroke-linecap="butt" stroke-linejoin="round"/><path d="M402.06124,231.46575l-1.94656,-3.37157l1.78528,-4.28554l3.89313,7.65711z" fill="none" stroke="#e1ccb1" stroke-width="1.5" stroke-linecap="butt" stroke-linejoin="round"/><path d="M402.60697,221.3469c0,-0.71263 0.5777,-1.29032 1.29032,-1.29032c0.71263,0 1.29032,0.5777 1.29032,1.29032c0,0.71263 -0.5777,1.29032 -1.29032,1.29032c-0.71263,0 -1.29032,-0.5777 -1.29032,-1.29032z" fill="#e1ccb1" stroke="none" stroke-width="0" stroke-linecap="butt" stroke-linejoin="miter"/></g></g></svg>