<svg version="1.1" xmlns="http://www.w3.org/2000/svg" xmlns:xlink="http://www.w3.org/1999/xlink" width="436.61011" height="265.23316" viewBox="0,0,436.61011,265.23316"><g transform="translate(-207.74708,-156.86076)"><g stroke-miterlimit="10"><path d="M207.74708,193.52159c0,-12.83125 0,-19.25016 2.85464,-24.1503c2.51046,-4.31089 6.51749,-7.81653 11.44488,-10.01299c5.60455,-2.49749 12.93769,-2.49754 27.60389,-2.49754h352.80329c14.66994,0 22.00301,0 27.60389,2.49754c4.92736,2.19637 8.93436,5.70207 11.44488,10.01299c2.8547,4.90006 2.85464,11.31902 2.85464,24.1503v191.91153c0,12.83125 0,19.25016 -2.85464,24.1503c-2.51046,4.31089 -6.51749,7.81653 -11.44488,10.01296c-5.60085,2.49749 -12.93392,2.49754 -27.60389,2.49754h-352.80329c-14.66617,0 -21.99925,0 -27.60389,-2.49754c-4.92736,-2.19637 -8.93436,-5.70207 -11.44488,-10.01296c-2.85464,-4.90006 -2.85464,-11.31902 -2.85464,-24.1503z" fill="#f5f5f5" stroke="none" stroke-width="0"/><text transform="translate(222.152,178.26861) scale(0.5,0.5)" font-size="40" xml:space="preserve" fill="#000000" stroke="#000000" stroke-width="1" font-family="Sans Serif" font-weight="normal" text-anchor="start"><tspan x="0" dy="0">可用命令</tspan></text><text transform="translate(224.31004,202.048) scale(0.41365,0.41365)" font-size="40" xml:space="preserve" fill="#000000" stroke="none" stroke-width="1" font-family="Sans Serif" font-weight="normal" text-anchor="start"><tspan x="0" dy="0">/显示错误屏</tspan><tspan x="0" dy="48px">/stop System</tspan><tspan x="0" dy="48px">/debugging  显示调试信息</tspan><tspan x="0" dy="48px">/read file 读取文件文本</tspan><tspan x="0" dy="48px">打开文件传输</tspan><tspan x="0" dy="48px">/set w  设置天气服务API密匙</tspan><tspan x="0" dy="48px">/settxt 设置输入框文字大小</tspan></text></g></g></svg>