<svg version="1.1" xmlns="http://www.w3.org/2000/svg" xmlns:xlink="http://www.w3.org/1999/xlink" width="352.99696" height="20.95556" viewBox="0,0,352.99696,20.95556"><g transform="translate(-223.50152,-214.52222)"><g data-paper-data="{&quot;isPaintingLayer&quot;:true}" fill-rule="nonzero" stroke-miterlimit="10" stroke-dasharray="" stroke-dashoffset="0" style="mix-blend-mode: normal"><path d="M223.50152,231.88169c0,-4.19108 0,-10.8568 0,-13.31832c0,-1.80958 1.22064,-4.04115 3.12279,-4.04115c18.87391,0 309.81354,0 346.15628,0c2.42635,0 3.71789,2.27323 3.71789,5.18464c0,3.99644 0,9.19535 0,11.36767c0,1.93664 -1.48018,4.40325 -4.24834,4.40325c-38.65995,0 -328.53668,0 -346.06787,0c-1.64339,0 -2.68075,-1.48374 -2.68075,-3.59609z" fill="#e9eef0" stroke="none" stroke-width="NaN" stroke-linecap="butt" stroke-linejoin="miter"/><path d="M229.97394,216.74377h7.99859l3.99929,3.99929v11.19802c0,0.44176 -0.3581,0.79986 -0.79986,0.79986h-11.19802c-0.44175,0 -0.79986,-0.3581 -0.79986,-0.79986v-14.39746c0,-0.44175 0.35811,-0.79986 0.79986,-0.79986z" fill="none" stroke="#e1ccb1" stroke-width="1.5" stroke-linecap="butt" stroke-linejoin="round"/><path d="M233.17338,222.3461h4.79915" fill="none" stroke="#e1ccb1" stroke-width="1.5" stroke-linecap="round" stroke-linejoin="miter"/><path d="M235.57627,222.3461v6.39555" fill="none" stroke="#e1ccb1" stroke-width="1.5" stroke-linecap="round" stroke-linejoin="miter"/></g></g></svg>