<svg version="1.1" xmlns="http://www.w3.org/2000/svg" xmlns:xlink="http://www.w3.org/1999/xlink" width="49.22364" height="36.46317" viewBox="0,0,49.22364,36.46317"><g transform="translate(-375.38818,-206.76844)"><g stroke-miterlimit="10"><path d="M376.38818,238.37173c0,-7.21711 0,-22.39711 0,-26.5c0,-2.00018 2.03654,-4.10328 5.23826,-4.10328c9.37104,0 36.25712,0 36.71961,0c2.60166,0 5.26577,2.02993 5.26577,3.97828c0,4.09551 0,19.54943 0,26.75c0,2.28187 -2.04756,3.73489 -5.26577,3.73489c-10.27258,0 -31.28278,0 -36.88961,0c-2.51786,0 -5.06826,-1.50665 -5.06826,-3.85989z" fill-opacity="0.05098" fill="#262626" stroke-opacity="0.01176" stroke="#000000" stroke-width="2" stroke-linecap="butt" stroke-linejoin="miter"/><path d="M392.67019,217.67033l1.09947,1.09948" fill="none" stroke="#444c49" stroke-width="1.5" stroke-linecap="round" stroke-linejoin="round"/><path d="M389.63429,225.00001h1.55487" fill="none" stroke="#444c49" stroke-width="1.5" stroke-linecap="round" stroke-linejoin="round"/><path d="M393.76966,231.23039l-1.09947,1.09947" fill="none" stroke="#444c49" stroke-width="1.5" stroke-linecap="round" stroke-linejoin="round"/><path d="M406.23049,231.23039l1.09947,1.09947" fill="none" stroke="#444c49" stroke-width="1.5" stroke-linecap="round" stroke-linejoin="round"/><path d="M410.36571,225.00001h-1.55487" fill="none" stroke="#444c49" stroke-width="1.5" stroke-linecap="round" stroke-linejoin="round"/><path d="M406.23049,218.76981l1.09947,-1.09948" fill="none" stroke="#444c49" stroke-width="1.5" stroke-linecap="round" stroke-linejoin="round"/><path d="M400.0001,216.18907v-1.55487" fill="none" stroke="#444c49" stroke-width="1.5" stroke-linecap="round" stroke-linejoin="round"/><path d="M394.07678,225.00001c0,-3.27135 2.65197,-5.92332 5.92332,-5.92332c3.27135,0 5.92332,2.65197 5.92332,5.92332c0,3.27135 -2.65197,5.92332 -5.92332,5.92332c-3.27135,0 -5.92332,-2.65197 -5.92332,-5.92332z" fill="#83938e" stroke="#444c49" stroke-width="1.5" stroke-linecap="butt" stroke-linejoin="round"/><path d="M400.0001,233.81099v1.55487" fill="none" stroke="#444c49" stroke-width="1.5" stroke-linecap="round" stroke-linejoin="round"/></g></g></svg>