<svg version="1.1" xmlns="http://www.w3.org/2000/svg" xmlns:xlink="http://www.w3.org/1999/xlink" width="109.46648" height="30.48708" viewBox="0,0,109.46648,30.48708"><defs><radialGradient cx="193.53036" cy="162.43298" r="10.45965" gradientUnits="userSpaceOnUse" id="color-1"><stop offset="0" stop-color="#2287fd"/><stop offset="1" stop-color="#269afd"/></radialGradient><linearGradient x1="201.17589" y1="159.66856" x2="201.17589" y2="181.49811" gradientUnits="userSpaceOnUse" id="color-2"><stop offset="0" stop-color="#87b8d6"/><stop offset="1" stop-color="#9ed6d0"/></linearGradient></defs><g transform="translate(-182.54454,-155.29818)"><g stroke-miterlimit="10"><path d="M182.79454,181.11379c0,-3.81138 0,-14.00638 0,-20.85843c0,-2.57819 2.654,-4.70718 6.17334,-4.70718c19.59709,0 84.26017,0 96.21468,0c3.69009,0 6.57846,2.6957 6.57846,5.13578c0,4.02662 0,13.91282 0,20.42983c0,2.41369 -2.95907,4.42147 -5.97079,4.42147c-10.99158,0 -76.48933,0 -96.61979,0c-3.644,0 -6.3759,-2.37077 -6.3759,-4.42147z" fill="#fafafa" stroke="#cccccc" stroke-width="0.5" stroke-linecap="butt" stroke-linejoin="miter"/><text transform="translate(226.89728,173.1169) scale(0.22047,0.22047)" font-size="40" xml:space="preserve" fill-opacity="0.9098" fill="#000000" stroke="none" stroke-width="0" stroke-linecap="butt" stroke-linejoin="miter" font-family="&quot;Exo-Bold&quot;, Sans Serif" font-weight="normal" text-anchor="start"><tspan x="0" dy="0">时钟</tspan></text><path d="M204.48258,159.74213c2.07447,0.01827 4.4973,0.17172 5.78348,1.4579c1.27211,1.27211 1.43211,3.6521 1.45222,5.71024c0.00285,0.29071 0.00282,6.37521 -0.00149,6.71275c-0.02597,2.03159 -0.20578,4.35369 -1.45073,5.59865c-1.23125,1.23125 -3.50412,1.40874 -5.51588,1.43426c-0.36035,0.00457 -6.45422,0.00446 -6.73728,0.00224c-2.05989,-0.01615 -4.43925,-0.1601 -5.71565,-1.4365c-1.26278,-1.26278 -1.44581,-3.63376 -1.47206,-5.68572c-0.00393,-0.30715 -0.00427,-6.45061 0.00063,-6.80372c0.02806,-2.02088 0.21429,-4.31818 1.45014,-5.55403c1.24003,-1.24003 3.53658,-1.41122 5.55887,-1.43478c0.34536,-0.00403 6.38063,-0.00363 6.64775,-0.00128z" fill="url(#color-1)" stroke="none" stroke-width="0.47449" stroke-linecap="butt" stroke-linejoin="miter"/><path d="M204.52698,159.67041c2.16474,0.01907 4.69299,0.1792 6.03513,1.52134c1.32746,1.32746 1.49443,3.81101 1.51542,5.9587c0.00297,0.30336 0.00294,6.65261 -0.00155,7.00484c-0.0271,2.11999 -0.21473,4.54313 -1.51386,5.84226c-1.28483,1.28483 -3.65659,1.47004 -5.75589,1.49667c-0.37604,0.00477 -6.73506,0.00465 -7.03044,0.00233c-2.14952,-0.01685 -4.63242,-0.16707 -5.96436,-1.499c-1.31773,-1.31773 -1.50871,-3.79188 -1.53611,-5.93313c-0.0041,-0.32051 -0.00446,-6.73129 0.00066,-7.09977c0.02928,-2.10882 0.22361,-4.50608 1.51324,-5.7957c1.29398,-1.29398 3.69047,-1.47263 5.80075,-1.49721c0.36039,-0.00421 6.65827,-0.00378 6.93701,-0.00133z" fill="url(#color-2)" stroke="none" stroke-width="0.47449" stroke-linecap="butt" stroke-linejoin="miter"/><path d="M194.84439,171.15997c0,-3.51007 2.84547,-6.35556 6.35554,-6.35556c3.5101,0 6.35558,2.84549 6.35558,6.35556c0,3.51007 -2.84547,6.35554 -6.35558,6.35554c-3.51007,0 -6.35554,-2.84547 -6.35554,-6.35554z" fill="none" stroke="#ffffff" stroke-width="1.5" stroke-linecap="butt" stroke-linejoin="round"/><path d="M203.81058,173.98004l-2.6944,-2.6944l0.00042,-3.81638" fill="none" stroke="#ffffff" stroke-width="1.5" stroke-linecap="round" stroke-linejoin="round"/><path d="M194.26667,165.26668l2.42667,-1.73333" fill="none" stroke="#ffffff" stroke-width="1.5" stroke-linecap="round" stroke-linejoin="round"/><path d="M208.13334,165.26668l-2.42667,-1.73333" fill="none" stroke="#ffffff" stroke-width="1.5" stroke-linecap="round" stroke-linejoin="round"/></g></g></svg>