<svg version="1.1" xmlns="http://www.w3.org/2000/svg" xmlns:xlink="http://www.w3.org/1999/xlink" width="22.27306" height="24.43498" viewBox="0,0,22.27306,24.43498"><defs><linearGradient x1="252.4395" y1="195.30628" x2="252.4395" y2="217.60195" gradientUnits="userSpaceOnUse" id="color-1"><stop offset="0" stop-color="#99dc7c"/><stop offset="1" stop-color="#c4eab4"/></linearGradient></defs><g transform="translate(-241.30297,-195.30627)"><g stroke-miterlimit="10"><path d="M248.51486,218.96442l8.36172,0.02683" fill="none" stroke="#0e100e" stroke-width="1.5" stroke-linecap="round" stroke-linejoin="miter"/><path d="M255.86215,195.30814c2.21096,0.01947 4.7932,0.18302 6.16401,1.55382c1.35581,1.35581 1.52634,3.89239 1.54777,6.08595c0.00304,0.30984 0.00301,6.79467 -0.00159,7.15442c-0.02768,2.16526 -0.21932,4.64014 -1.54618,5.96702c-1.31226,1.31226 -3.73468,1.50143 -5.8788,1.52863c-0.38406,0.00487 -6.87888,0.00475 -7.18056,0.00239c-2.19542,-0.01721 -4.73133,-0.17063 -6.09171,-1.53102c-1.34587,-1.34587 -1.54094,-3.87285 -1.56892,-6.05982c-0.00419,-0.32736 -0.00455,-6.87503 0.00067,-7.25137c0.02991,-2.15384 0.22839,-4.6023 1.54555,-5.91946c1.32162,-1.32162 3.76927,-1.50407 5.92462,-1.52918c0.36808,-0.0043 6.80045,-0.00387 7.08514,-0.00136z" fill="url(#color-1)" stroke="none" stroke-width="0.47449" stroke-linecap="butt" stroke-linejoin="miter"/><path d="M250.08179,209.53995l0.82437,-1.88426M255.35774,209.53995l-0.82437,-1.88426M250.90616,207.65568l1.8136,-4.14538l1.8136,4.14538M250.90616,207.65568h3.6272" fill="none" stroke="#313131" stroke-width="1.5" stroke-linecap="round" stroke-linejoin="round"/><path d="M247.44383,204.264l-2.26112,0.7537c0.69833,-3.44028 3.73992,-6.02964 7.38627,-6.02964c3.64639,0 6.68796,2.58936 7.3863,6.02964" fill="none" stroke="#313131" stroke-width="1.5" stroke-linecap="round" stroke-linejoin="round"/><path d="M257.9957,208.78624l1.95959,-0.7537c-0.69834,3.44028 -3.73992,6.02964 -7.3863,6.02964c-3.64635,0 -6.68793,-2.58936 -7.38627,-6.02964" fill="none" stroke="#313131" stroke-width="1.5" stroke-linecap="round" stroke-linejoin="round"/></g></g></svg>