<svg xmlns="http://www.w3.org/2000/svg" viewBox="0 0 12 12"><g data-name="图层 2" id="图层_2"><g data-name="图层 1" id="图层_1-2"><path d="M4.5,9.75v.75h-3a1.43089,1.43089,0,0,1-.57129-.11719,1.56678,1.56678,0,0,1-.47754-.3164,1.54655,1.54655,0,0,1-.32812-.46582A1.34681,1.34681,0,0,1,0,9.0293V3a1.43089,1.43089,0,0,1,.11719-.57129,1.56678,1.56678,0,0,1,.3164-.47754,1.54655,1.54655,0,0,1,.46582-.32812A1.34681,1.34681,0,0,1,1.4707,1.5H4.5v.75h-3a.72682.72682,0,0,0-.293.05859A.7639.7639,0,0,0,.80859,2.707.72682.72682,0,0,0,.75,3V9a.74349.74349,0,0,0,.75.75Zm3,1.875A.38023.38023,0,0,1,7.125,12h-3a.375.375,0,0,1,0-.75H5.25V.75H4.125A.36038.36038,0,0,1,3.86133.63867.36038.36038,0,0,1,3.75.375.36038.36038,0,0,1,3.86133.11133.36038.36038,0,0,1,4.125,0h3a.36038.36038,0,0,1,.26367.11133A.36038.36038,0,0,1,7.5.375a.36038.36038,0,0,1-.11133.26367A.36038.36038,0,0,1,7.125.75H6v10.5H7.125a.38023.38023,0,0,1,.375.375ZM10.5293,1.5a1.34713,1.34713,0,0,1,.55957.12012,1.56191,1.56191,0,0,1,.791.791A1.34713,1.34713,0,0,1,12,2.9707V9a1.43089,1.43089,0,0,1-.11719.57129,1.56678,1.56678,0,0,1-.3164.47754,1.54655,1.54655,0,0,1-.46582.32812,1.34681,1.34681,0,0,1-.57129.123H6.75V9.75H10.5a.72682.72682,0,0,0,.293-.05859.7639.7639,0,0,0,.39844-.39844A.72682.72682,0,0,0,11.25,9V3a.73318.73318,0,0,0-.05859-.29A.74811.74811,0,0,0,10.79,2.30859.73318.73318,0,0,0,10.5,2.25H6.75V1.5Z"/></g></g></svg>