<svg version="1.1" xmlns="http://www.w3.org/2000/svg" xmlns:xlink="http://www.w3.org/1999/xlink" width="810.30931" height="474.31845" viewBox="0,0,810.30931,474.31845"><defs><linearGradient x1="403.41367" y1="-1.33232" x2="403.41367" y2="471.98618" gradientUnits="userSpaceOnUse" id="color-1"><stop offset="0" stop-color="#e9f7f0"/><stop offset="1" stop-color="#e2e2e2"/></linearGradient><linearGradient x1="190.64568" y1="237.25386" x2="784.95346" y2="237.25386" gradientUnits="userSpaceOnUse" id="color-2"><stop offset="0" stop-color="#f8f8f8"/><stop offset="1" stop-color="#f5f5f5"/></linearGradient><linearGradient x1="54.39891" y1="12.80461" x2="54.39891" y2="61.24433" gradientUnits="userSpaceOnUse" id="color-3"><stop offset="0" stop-color="#e6fcf1"/><stop offset="1" stop-color="#99ffcf"/></linearGradient></defs><g transform="translate(1.74109,1.83227)"><g stroke-miterlimit="10"><path d="M-1.24109,471.98618v-473.31845h809.30931v473.31845z" fill="url(#color-1)" fill-rule="nonzero" stroke-opacity="0.98824" stroke="#fcfffe" stroke-width="1" stroke-linecap="butt" stroke-linejoin="miter"/><path d="M36.36976,428.67624v-357.0582h140.21985v357.0582z" fill="#f5f5f5" fill-rule="nonzero" stroke="none" stroke-width="0" stroke-linecap="butt" stroke-linejoin="miter"/><path d="M190.64568,428.67429v-382.84086h594.30778v382.84086z" fill="url(#color-2)" fill-rule="nonzero" stroke="none" stroke-width="0" stroke-linecap="butt" stroke-linejoin="miter"/><path d="M323.98395,216.49191v-29.96628h178.50783v29.96628z" fill="none" fill-rule="nonzero" stroke="none" stroke-width="0" stroke-linecap="butt" stroke-linejoin="miter"/><path d="M30.17905,37.02447c0,-13.37628 10.8436,-24.21986 24.21986,-24.21986c13.37628,0 24.21986,10.8436 24.21986,24.21986c0,13.37628 -10.8436,24.21986 -24.21986,24.21986c-13.37628,0 -24.21986,-10.8436 -24.21986,-24.21986z" fill="url(#color-3)" fill-rule="evenodd" stroke="#ffffff" stroke-width="2" stroke-linecap="round" stroke-linejoin="round"/><path d="M47.66865,33.45016c0,-3.71699 3.01328,-6.73027 6.73027,-6.73027c3.71699,0 6.73027,3.01328 6.73027,6.73027c0,3.71699 -3.01328,6.73026 -6.73027,6.73026c-3.71699,0 -6.73027,-3.01327 -6.73027,-6.73026z" fill="none" fill-rule="nonzero" stroke="#ffffff" stroke-width="2" stroke-linecap="butt" stroke-linejoin="round"/><path d="M37.68474,53.39996c0.42156,-6.39195 5.73969,-11.44602 12.23834,-11.44602h9.81227c6.49008,0 11.80282,5.04069 12.23676,11.42062" fill="none" fill-rule="nonzero" stroke="#ffffff" stroke-width="2" stroke-linecap="round" stroke-linejoin="round"/></g></g></svg>