<svg version="1.1" xmlns="http://www.w3.org/2000/svg" xmlns:xlink="http://www.w3.org/1999/xlink" width="688.39651" height="405.39281" viewBox="0,0,688.39651,405.39281"><g transform="translate(-59.5555,-4.40546)"><g stroke-miterlimit="10"><path d="M61.65058,407.31723c0,0 -2.09508,-0.41248 -2.09508,-5.70748c0,-54.30514 0,-361.2095 0,-389.95815c0,-4.25653 1.48861,-5.58304 1.48861,-5.58304c0,0 0.87991,-1.6631 5.33802,-1.6631c68.6789,0 633.27209,0 673.9787,0c4.57744,0 5.85447,1.90848 5.85447,1.90848c0,0 1.73671,1.20357 1.73671,5.61031c0,29.27477 0,336.89877 0,390.06721c0,5.05216 -1.90212,6.06192 -1.90212,6.06192c0,0 -0.99715,1.74489 -6.41729,1.74489c-74.29645,0 -622.25363,0 -669.33598,0c-6.36002,0 -8.64603,-2.48102 -8.64603,-2.48102z" fill-opacity="0.99216" fill="#ededed" stroke="none" stroke-width="0" stroke-linecap="butt" stroke-linejoin="miter"/><path d="M67.10713,404.30737v-373.89854h673.40706v373.89854z" fill="#ffffff" stroke="none" stroke-width="0" stroke-linecap="butt" stroke-linejoin="miter"/><text transform="translate(76.64402,20.7265) scale(0.30777,0.30439)" font-size="40" xml:space="preserve" fill-opacity="0.95294" fill="#333333" stroke="none" stroke-width="1" stroke-linecap="butt" stroke-linejoin="miter" font-family="&quot;Exo-Bold&quot;, Sans Serif" font-weight="normal" text-anchor="start"><tspan x="0" dy="0">2048</tspan></text><path d="M716.16305,12.89007c0,-0.69865 0.10017,-2.36892 1.14969,-3.43447c1.46339,-1.23963 2.27384,-1.29542 3.00258,-1.29542c4.71884,0 14.47114,0 14.70403,0c0.66981,0 2.22963,0.02033 3.48543,1.29918c1.50072,1.35948 1.43796,2.74412 1.43796,3.35104c0,2.61049 0,8.23191 0,12.82157c0,0.72948 -0.51045,2.11917 -1.53156,3.0521c-0.95647,0.92819 -2.58407,1.44298 -3.39184,1.44298c-5.17281,0 -11.20902,0 -14.03237,0c-0.63893,0 -2.29185,-0.39285 -3.39195,-1.40318c-1.08665,-0.88739 -1.43199,-2.42751 -1.43199,-3.17158c0,0 0,-10.04703 0,-12.66222z" fill-opacity="0.01569" fill="#ededed" stroke="#000000" stroke-width="0" stroke-linecap="butt" stroke-linejoin="miter"/><path d="" fill="#131313" stroke="none" stroke-width="0.5" stroke-linecap="butt" stroke-linejoin="miter"/><path d="M720.68124,10.01365l15.32991,15.32991" fill="none" stroke="#000000" stroke-width="1" stroke-linecap="round" stroke-linejoin="round"/><path d="M720.68124,25.34355l15.32991,-15.3299" fill="none" stroke="#000000" stroke-width="1" stroke-linecap="round" stroke-linejoin="round"/></g></g></svg>