<svg version="1.1" xmlns="http://www.w3.org/2000/svg" xmlns:xlink="http://www.w3.org/1999/xlink" width="23.78008" height="21.96687" viewBox="0,0,23.78008,21.96687"><g transform="translate(-739.20102,-16.81354)"><g stroke-miterlimit="10"><path d="M739.20104,21.54343c0,-0.69865 0.10017,-2.36892 1.14969,-3.43447c1.46339,-1.23963 2.27384,-1.29542 3.00258,-1.29542c4.71884,0 14.47114,0 14.70403,0c0.66981,0 2.22963,0.02033 3.48543,1.29918c1.50072,1.35948 1.43796,2.74412 1.43796,3.35104c0,2.61049 0,8.23191 0,12.82157c0,0.72948 -0.51045,2.11917 -1.53156,3.0521c-0.95647,0.92819 -2.58407,1.44298 -3.39184,1.44298c-5.17281,0 -11.20902,0 -14.03237,0c-0.63893,0 -2.29185,-0.39285 -3.39195,-1.40318c-1.08665,-0.88739 -1.43199,-2.42751 -1.43199,-3.17158c0,0 0,-10.04703 0,-12.66222z" fill-opacity="0.01569" fill="#ededed" stroke="#000000" stroke-width="0" stroke-linecap="butt" stroke-linejoin="miter"/><path d="" fill="#131313" stroke="none" stroke-width="0.5" stroke-linecap="butt" stroke-linejoin="miter"/><path d="M743.71923,18.66701l15.32991,15.32991" fill="none" stroke="#ffffff" stroke-width="1" stroke-linecap="round" stroke-linejoin="round"/><path d="M743.71923,33.99691l15.32991,-15.3299" fill="none" stroke="#ffffff" stroke-width="1" stroke-linecap="round" stroke-linejoin="round"/></g></g></svg>