<svg version="1.1" xmlns="http://www.w3.org/2000/svg" xmlns:xlink="http://www.w3.org/1999/xlink" width="336.55411" height="241.76187" viewBox="0,0,336.55411,241.76187"><defs><linearGradient x1="260.65375" y1="123.2157" x2="260.65375" y2="202.64308" gradientUnits="userSpaceOnUse" id="color-1"><stop offset="0" stop-color="#418b2a"/><stop offset="1" stop-color="#2f924e" stop-opacity="0.72549"/></linearGradient></defs><g transform="translate(-210.44374,-123.2157)"><g stroke="none" stroke-miterlimit="10"><path d="M211.94809,363.13892c0,0 -1.50435,-1.23829 -1.50435,-6.47553c0,-27.12585 0,-112.20475 0,-127.87437c0,-4.84764 2.92512,-6.81687 2.92512,-6.81687c0,0 1.31946,-2.34009 6.90324,-2.34009c28.55866,0 263.54834,0 316.25906,0c6.71046,0 7.6537,1.87533 7.6537,1.87533c0,0 2.813,2.62784 2.813,7.64713c0,15.85681 0,100.22318 0,127.38857c0,5.31002 -3.61671,6.6931 -3.61671,6.6931c0,0 0.06039,1.74138 -6.31417,1.74138c-51.86371,0 -290.28184,0 -317.75942,0c-5.0746,0 -7.35946,-1.83865 -7.35946,-1.83865z" fill="#ffffff" stroke-width="0"/><text transform="translate(288.64189,199.02933) scale(0.69115,0.69115)" font-size="40" xml:space="preserve" fill-opacity="0.83922" fill="#5ab85e" stroke-width="1" font-family="&quot;Exo-Bold&quot;, Sans Serif" font-weight="normal" text-anchor="start"><tspan x="0" dy="0"> Leaf OS 0.75 v2</tspan></text><text transform="translate(215.72122,261.28431) scale(0.34791,0.34791)" font-size="40" xml:space="preserve" fill="#585858" stroke-width="1" font-family="&quot;Exo-Bold&quot;, Sans Serif" font-weight="normal" text-anchor="start"><tspan x="0" dy="0">系统作者:玩Minecraft的zx7</tspan><tspan x="0" dy="46.15px">系统版本：0.75 v2</tspan><tspan x="0" dy="46.15px">内部版本号：6</tspan><tspan x="0" dy="46.15px">更新时间：2025.7.14 20:07</tspan><tspan x="0" dy="46.15px">禁止抄袭或者私自用于商业用途..</tspan><tspan x="0" dy="46.15px"> </tspan></text><text transform="translate(215.72122,243.99152) scale(0.40312,0.40312)" font-size="40" xml:space="preserve" fill="#353535" stroke-width="1" font-family="&quot;Exo-Bold&quot;, Sans Serif" font-weight="normal" text-anchor="start"><tspan x="0" dy="0">系统名称:Leaf os</tspan></text><path d="M298.27932,123.2157v8.36077c0,40.2446 -22.46124,58.52544 -50.16466,58.52544h-7.95109c0.88625,-12.59133 4.80744,-20.21216 15.04105,-29.26689c5.03319,-4.45212 4.60679,-7.02305 2.12782,-5.54737c-17.07271,10.15834 -25.55472,23.88675 -25.93096,45.8087l-0.01253,1.54674h-8.36078c0,-5.69786 0.48492,-10.86901 1.44641,-15.60122c-0.95871,-5.40942 -1.43943,-12.75018 -1.44222,-22.02228c0,-23.08828 18.7156,-41.80388 41.80388,-41.80388c8.36077,0 16.72155,4.18038 33.4431,0" fill="url(#color-1)" stroke-width="1"/></g></g></svg>