<svg version="1.1" xmlns="http://www.w3.org/2000/svg" xmlns:xlink="http://www.w3.org/1999/xlink" width="406.4387" height="187.35493" viewBox="0,0,406.4387,187.35493"><g transform="translate(-193.66027,-158.41823)"><g stroke-miterlimit="10"><path d="M265.22051,290.45039c0,3.71071 -3.00949,6.71941 -6.71941,6.71941h-57.6222c-3.71071,0 -6.71863,-3.00949 -6.71863,-6.71941v-29.25386c0,-3.71071 3.00792,-6.71863 6.71863,-6.71863h57.62142c3.71227,0 6.71941,3.00792 6.71941,6.71863v29.25386z" fill="#ffffff" stroke="#cccccc" stroke-width="1" stroke-linecap="butt" stroke-linejoin="miter"/><path d="M265.30813,338.08769c0,3.71071 -3.00949,6.71941 -6.71941,6.71941h-57.6222c-3.71071,0 -6.71863,-3.00949 -6.71863,-6.71941v-29.25386c0,-3.71071 3.00792,-6.71863 6.71863,-6.71863h57.62142c3.71227,0 6.71941,3.00792 6.71941,6.71863v29.25386z" fill="#ffffff" stroke="#cccccc" stroke-width="1" stroke-linecap="butt" stroke-linejoin="miter"/><path d="M347.9913,337.85027c0,3.71071 -3.00949,6.71941 -6.71941,6.71941h-57.6222c-3.71071,0 -6.71863,-3.00949 -6.71863,-6.71941v-29.25386c0,-3.71071 3.00792,-6.71863 6.71863,-6.71863h57.62142c3.71227,0 6.71941,3.00792 6.71941,6.71863v29.25386z" fill="#ffffff" stroke="#cccccc" stroke-width="1" stroke-linecap="butt" stroke-linejoin="miter"/><path d="M347.75684,290.48986c0,3.71071 -3.00949,6.71941 -6.71941,6.71941h-57.6222c-3.71071,0 -6.71863,-3.00949 -6.71863,-6.71941v-29.25386c0,-3.71071 3.00792,-6.71863 6.71863,-6.71863h57.62142c3.71227,0 6.71941,3.00792 6.71941,6.71863v29.25386z" fill="#ffffff" stroke="#cccccc" stroke-width="1" stroke-linecap="butt" stroke-linejoin="miter"/><path d="M430.09925,290.9098c0,3.71071 -3.00949,6.71941 -6.71941,6.71941h-57.6222c-3.71071,0 -6.71863,-3.00949 -6.71863,-6.71941v-29.25386c0,-3.71071 3.00792,-6.71863 6.71863,-6.71863h57.62142c3.71227,0 6.71941,3.00792 6.71941,6.71863v29.25386z" fill="#ffffff" stroke="#cccccc" stroke-width="1" stroke-linecap="butt" stroke-linejoin="miter"/><path d="M430.3106,337.78641c0,3.71071 -3.00949,6.71941 -6.71941,6.71941h-57.6222c-3.71071,0 -6.71863,-3.00949 -6.71863,-6.71941v-29.25386c0,-3.71071 3.00792,-6.71863 6.71863,-6.71863h57.62142c3.71227,0 6.71941,3.00792 6.71941,6.71863v29.25386z" fill="#ffffff" stroke="#cccccc" stroke-width="1" stroke-linecap="butt" stroke-linejoin="miter"/><path d="M514.07685,337.63812c0,3.71071 -3.00949,6.71941 -6.71941,6.71941h-57.6222c-3.71071,0 -6.71863,-3.00949 -6.71863,-6.71941v-29.25386c0,-3.71071 3.00792,-6.71863 6.71863,-6.71863h57.62142c3.71227,0 6.71941,3.00792 6.71941,6.71863v29.25386z" fill="#ffffff" stroke="#cccccc" stroke-width="1" stroke-linecap="butt" stroke-linejoin="miter"/><path d="M513.87781,290.32966c0,3.71071 -3.00949,6.71941 -6.71941,6.71941h-57.6222c-3.71071,0 -6.71863,-3.00949 -6.71863,-6.71941v-29.25386c0,-3.71071 3.00792,-6.71863 6.71863,-6.71863h57.62142c3.71227,0 6.71941,3.00792 6.71941,6.71863v29.25386z" fill="#ffffff" stroke="#cccccc" stroke-width="1" stroke-linecap="butt" stroke-linejoin="miter"/><path d="M598.81367,330.48663c0,2.94812 0.20078,7.32775 -0.27795,9.88089c-0.19168,1.02224 -2.3228,3.27382 -2.745,3.69425c-0.18857,0.18777 1.35672,-1.52679 1.17072,-1.23408c-1.11991,1.76238 -3.36323,2.44547 -4.86719,2.44547l-57.74383,-0.36489c-2.18445,0 -4.78948,-0.30101 -6.01654,-3.7084c-0.85734,-2.38071 -0.58046,-7.49344 -0.58046,-10.71324v-61.7275c0,-7.82984 3.00792,-14.17673 6.71863,-14.17673h57.62142c3.71227,0 6.71941,6.3469 6.71941,14.17673v61.7275z" fill="#ffffff" stroke="#cccccc" stroke-width="1" stroke-linecap="butt" stroke-linejoin="miter"/><path d="M513.37872,242.72113c0,3.71071 -3.00949,6.71941 -6.71941,6.71941h-57.6222c-3.71071,0 -6.71863,-3.00949 -6.71863,-6.71941v-29.25386c0,-3.71071 3.00792,-6.71863 6.71863,-6.71863h57.62142c3.71227,0 6.71941,3.00792 6.71941,6.71863v29.25386z" fill="#ffffff" stroke="#cccccc" stroke-width="1" stroke-linecap="butt" stroke-linejoin="miter"/><path d="M430.35827,243.05117c0,3.71071 -3.00949,6.71941 -6.71941,6.71941h-57.6222c-3.71071,0 -6.71863,-3.00949 -6.71863,-6.71941v-29.25386c0,-3.71071 3.00792,-6.71863 6.71863,-6.71863h57.62142c3.71227,0 6.71941,3.00792 6.71941,6.71863v29.25386z" fill="#ffffff" stroke="#cccccc" stroke-width="1" stroke-linecap="butt" stroke-linejoin="miter"/><path d="M347.50374,243.48282c0,3.71071 -3.00949,6.71941 -6.71941,6.71941h-57.6222c-3.71071,0 -6.71863,-3.00949 -6.71863,-6.71941v-29.25386c0,-3.71071 3.00792,-6.71863 6.71863,-6.71863h57.62142c3.71227,0 6.71941,3.00792 6.71941,6.71863v29.25386z" fill="#ffffff" stroke="#cccccc" stroke-width="1" stroke-linecap="butt" stroke-linejoin="miter"/><path d="M265.76815,242.53813c0,3.71071 -3.00949,6.71941 -6.71941,6.71941h-57.6222c-3.71071,0 -6.71863,-3.00949 -6.71863,-6.71941v-29.25386c0,-3.71071 3.00792,-6.71863 6.71863,-6.71863h57.62142c3.71227,0 6.71941,3.00792 6.71941,6.71863v29.25386z" fill="#ffffff" stroke="#cccccc" stroke-width="1" stroke-linecap="butt" stroke-linejoin="miter"/><path d="M265.79318,195.28271c0,3.71071 -3.00949,6.71941 -6.71941,6.71941h-57.6222c-3.71071,0 -6.71863,-3.00949 -6.71863,-6.71941v-29.25386c0,-3.71071 3.00792,-6.71863 6.71863,-6.71863h57.62142c3.71227,0 6.71941,3.00792 6.71941,6.71863v29.25386z" fill="#ffffff" stroke="#cccccc" stroke-width="1" stroke-linecap="butt" stroke-linejoin="miter"/><path d="M347.69744,195.12768c0,3.71071 -3.00949,6.71941 -6.71941,6.71941h-57.6222c-3.71071,0 -6.71863,-3.00949 -6.71863,-6.71941v-29.25386c0,-3.71071 3.00792,-6.71863 6.71863,-6.71863h57.62142c3.71227,0 6.71941,3.00792 6.71941,6.71863v29.25386z" fill="#ffffff" stroke="#cccccc" stroke-width="1" stroke-linecap="butt" stroke-linejoin="miter"/><path d="M430.36104,195.2153c0,3.71071 -3.00949,6.71941 -6.71941,6.71941h-57.6222c-3.71071,0 -6.71863,-3.00949 -6.71863,-6.71941v-29.25386c0,-3.71071 3.00792,-6.71863 6.71863,-6.71863h57.62142c3.71227,0 6.71941,3.00792 6.71941,6.71863v29.25386z" fill="#ffffff" stroke="#cccccc" stroke-width="1" stroke-linecap="butt" stroke-linejoin="miter"/><path d="M514.19395,194.89072c0,3.71071 -3.00949,6.71941 -6.71941,6.71941h-57.6222c-3.71071,0 -6.71863,-3.00949 -6.71863,-6.71941v-29.25386c0,-3.71071 3.00792,-6.71863 6.71863,-6.71863h57.62142c3.71227,0 6.71941,3.00792 6.71941,6.71863v29.25386z" fill="#ffffff" stroke="#cccccc" stroke-width="1" stroke-linecap="butt" stroke-linejoin="miter"/><text transform="translate(306.3155,282.24072) scale(0.48489,0.48489)" font-size="40" xml:space="preserve" fill="#000000" stroke="none" stroke-width="1" stroke-linecap="butt" stroke-linejoin="miter" font-family="&quot;Exo-Bold&quot;, Sans Serif" font-weight="normal" text-anchor="start"><tspan x="0" dy="0">2</tspan></text><text transform="translate(387.64605,281.55781) scale(0.48489,0.48489)" font-size="40" xml:space="preserve" fill="#000000" stroke="none" stroke-width="1" stroke-linecap="butt" stroke-linejoin="miter" font-family="&quot;Exo-Bold&quot;, Sans Serif" font-weight="normal" text-anchor="start"><tspan x="0" dy="0">3</tspan></text><text transform="translate(470.28493,276.49332) rotate(45.81634) scale(0.48489,0.48489)" font-size="40" xml:space="preserve" fill="#000000" stroke="none" stroke-width="1" stroke-linecap="butt" stroke-linejoin="miter" font-family="Sans Serif" font-weight="normal" text-anchor="start"><tspan x="0" dy="0">+</tspan></text><text transform="translate(388.41475,235.34324) scale(0.48489,0.48489)" font-size="40" xml:space="preserve" fill="#000000" stroke="none" stroke-width="1" stroke-linecap="butt" stroke-linejoin="miter" font-family="&quot;Exo-Bold&quot;, Sans Serif" font-weight="normal" text-anchor="start"><tspan x="0" dy="0">6</tspan></text><text transform="translate(474.85426,235.13641) scale(0.48489,0.48489)" font-size="40" xml:space="preserve" fill="#000000" stroke="none" stroke-width="1" stroke-linecap="butt" stroke-linejoin="miter" font-family="Sans Serif" font-weight="normal" text-anchor="start"><tspan x="0" dy="0">-</tspan></text><text transform="translate(305.68895,235.17557) scale(0.48489,0.48489)" font-size="40" xml:space="preserve" fill="#000000" stroke="none" stroke-width="1" stroke-linecap="butt" stroke-linejoin="miter" font-family="&quot;Exo-Bold&quot;, Sans Serif" font-weight="normal" text-anchor="start"><tspan x="0" dy="0">5</tspan></text><text transform="translate(223.78422,234.72283) scale(0.48489,0.48489)" font-size="40" xml:space="preserve" fill="#000000" stroke="none" stroke-width="1" stroke-linecap="butt" stroke-linejoin="miter" font-family="&quot;Exo-Bold&quot;, Sans Serif" font-weight="normal" text-anchor="start"><tspan x="0" dy="0">4</tspan></text><text transform="translate(223.78422,282.63588) scale(0.48489,0.48489)" font-size="40" xml:space="preserve" fill="#000000" stroke="none" stroke-width="1" stroke-linecap="butt" stroke-linejoin="miter" font-family="&quot;Exo-Bold&quot;, Sans Serif" font-weight="normal" text-anchor="start"><tspan x="0" dy="0">1</tspan></text><text transform="translate(388.41475,187.17069) scale(0.48489,0.48489)" font-size="40" xml:space="preserve" fill="#000000" stroke="none" stroke-width="1" stroke-linecap="butt" stroke-linejoin="miter" font-family="&quot;Exo-Bold&quot;, Sans Serif" font-weight="normal" text-anchor="start"><tspan x="0" dy="0">9</tspan></text><text transform="translate(472.97723,186.96388) scale(0.48489,0.48489)" font-size="40" xml:space="preserve" fill="#000000" stroke="none" stroke-width="1" stroke-linecap="butt" stroke-linejoin="miter" font-family="&quot;Exo-Bold&quot;, Sans Serif" font-weight="normal" text-anchor="start"><tspan x="0" dy="0">+</tspan></text><text transform="translate(305.68895,187.00303) scale(0.48489,0.48489)" font-size="40" xml:space="preserve" fill="#000000" stroke="none" stroke-width="1" stroke-linecap="butt" stroke-linejoin="miter" font-family="&quot;Exo-Bold&quot;, Sans Serif" font-weight="normal" text-anchor="start"><tspan x="0" dy="0">8</tspan></text><text transform="translate(223.78422,186.55028) scale(0.48489,0.48489)" font-size="40" xml:space="preserve" fill="#000000" stroke="none" stroke-width="1" stroke-linecap="butt" stroke-linejoin="miter" font-family="&quot;Exo-Bold&quot;, Sans Serif" font-weight="normal" text-anchor="start"><tspan x="0" dy="0">7</tspan></text><text transform="translate(306.3155,329.16652) scale(0.48489,0.48489)" font-size="40" xml:space="preserve" fill="#000000" stroke="none" stroke-width="1" stroke-linecap="butt" stroke-linejoin="miter" font-family="&quot;Exo-Bold&quot;, Sans Serif" font-weight="normal" text-anchor="start"><tspan x="0" dy="0">0</tspan></text><text transform="translate(472.97723,329.61839) scale(0.48489,0.48489)" font-size="40" xml:space="preserve" fill="#000000" stroke="none" stroke-width="1" stroke-linecap="butt" stroke-linejoin="miter" font-family="Sans Serif" font-weight="normal" text-anchor="start"><tspan x="0" dy="0">รท</tspan></text><text transform="translate(221.17111,328.48168) scale(0.42156,0.42156)" font-size="40" xml:space="preserve" fill="#000000" stroke="none" stroke-width="1" stroke-linecap="butt" stroke-linejoin="miter" font-family="&quot;Exo-Bold&quot;, Sans Serif" font-weight="normal" text-anchor="start"><tspan x="0" dy="0">%</tspan></text><path d="M599.59897,243.06327c0,3.71071 -3.00949,6.71941 -6.71941,6.71941h-57.6222c-3.71071,0 -6.71863,-3.00949 -6.71863,-6.71941v-55.16744h71.05946v55.16744z" fill="#ffffff" stroke="none" stroke-width="1" stroke-linecap="butt" stroke-linejoin="miter"/><path d="M599.59897,235.08721c0,2.94812 0.20078,7.32775 -0.27794,9.88089c-0.19168,1.02225 -2.3228,3.27382 -2.745,3.69426c-0.18857,0.18777 1.35672,-1.52679 1.17072,-1.23407c-1.11991,1.76238 -3.36323,2.44547 -4.86719,2.44547l-57.74383,-0.36489c-2.18446,0 -4.78948,-0.30101 -6.01655,-3.7084c-0.85734,-2.38071 -0.58045,-7.49344 -0.58045,-10.71324v-61.7275c0,-7.82983 3.00792,-14.17674 6.71863,-14.17674h57.62142c3.71227,0 6.71941,6.3469 6.71941,14.17674v61.7275z" fill="#ffffff" stroke="#cccccc" stroke-width="1" stroke-linecap="butt" stroke-linejoin="miter"/><text transform="translate(558.38222,211.89028) scale(0.48489,0.48489)" font-size="40" xml:space="preserve" fill="#000000" stroke="none" stroke-width="1" stroke-linecap="butt" stroke-linejoin="miter" font-family="&quot;Exo-Bold&quot;, Sans Serif" font-weight="normal" text-anchor="start"><tspan x="0" dy="0">C</tspan></text><path d="M550.97942,290.89788c0,-0.79582 0.1141,-2.69837 1.30958,-3.91212c1.6669,-1.41203 2.59005,-1.47557 3.42014,-1.47557c5.37509,0 16.48365,0 16.74893,0c0.76297,0 2.53973,0.02314 3.97017,1.47985c1.70943,1.54855 1.63795,3.12575 1.63795,3.81709c0,2.97354 0,9.37674 0,14.60467c0,0.83092 -0.58143,2.41389 -1.74456,3.47656c-1.08949,1.05728 -2.94345,1.64365 -3.86355,1.64365c-5.8922,0 -12.76786,0 -15.98387,0c-0.72778,0 -2.61059,-0.4475 -3.86368,-1.59833c-1.23777,-1.0108 -1.63113,-2.7651 -1.63113,-3.61265c0,0 0,-11.44429 0,-14.42317z" fill-opacity="0.01569" fill="#ededed" stroke="#000000" stroke-width="0" stroke-linecap="butt" stroke-linejoin="miter"/><path d="M573.58782,305.08331l-17.46186,-17.46187" fill="none" stroke="#000000" stroke-width="2" stroke-linecap="round" stroke-linejoin="round"/><path d="M573.58782,287.62145l-17.46186,17.46185" fill="none" stroke="#000000" stroke-width="2" stroke-linecap="round" stroke-linejoin="round"/><text transform="translate(382.80302,328.37193) scale(0.5,0.5)" font-size="40" xml:space="preserve" fill="#000000" stroke="none" stroke-width="1" stroke-linecap="butt" stroke-linejoin="miter" font-family="&quot;Exo-Bold&quot;, Sans Serif" font-weight="normal" text-anchor="start"><tspan x="0" dy="0">CE</tspan></text></g></g></svg>