<svg version="1.1" xmlns="http://www.w3.org/2000/svg" xmlns:xlink="http://www.w3.org/1999/xlink" width="20.89806" height="24.36627" viewBox="0,0,20.89806,24.36627"><defs><linearGradient x1="249.73277" y1="194.93267" x2="249.73277" y2="215.85196" gradientUnits="userSpaceOnUse" id="color-1"><stop offset="0" stop-color="#fab321"/><stop offset="1" stop-color="#fcd751"/></linearGradient></defs><g transform="translate(-239.28374,-194.93268)"><g stroke-miterlimit="10"><path d="M253.86696,218.54895l-8.36172,-0.02683" fill="none" stroke="#0e100e" stroke-width="1.5" stroke-linecap="round" stroke-linejoin="miter"/><path d="M252.94412,194.93443c2.07447,0.01827 4.4973,0.17172 5.78348,1.4579c1.27211,1.27211 1.43211,3.6521 1.45222,5.71024c0.00285,0.29071 0.00282,6.37521 -0.00149,6.71275c-0.02597,2.03159 -0.20578,4.35369 -1.45073,5.59865c-1.23125,1.23125 -3.50412,1.40874 -5.51588,1.43426c-0.36035,0.00457 -6.45422,0.00446 -6.73728,0.00224c-2.05989,-0.01615 -4.43925,-0.1601 -5.71565,-1.4365c-1.26278,-1.26278 -1.44581,-3.63376 -1.47206,-5.68572c-0.00393,-0.30715 -0.00427,-6.45061 0.00063,-6.80372c0.02806,-2.02088 0.21429,-4.31818 1.45014,-5.55403c1.24003,-1.24003 3.53658,-1.41122 5.55887,-1.43478c0.34536,-0.00403 6.38063,-0.00363 6.64775,-0.00128z" fill="url(#color-1)" stroke="none" stroke-width="0.47449" stroke-linecap="butt" stroke-linejoin="miter"/><path d="M256.60929,199.58652v11.4213c0,0.6308 -0.51133,1.14213 -1.14213,1.14213h-11.4213c-0.63078,0 -1.14213,-0.51133 -1.14213,-1.14213v-11.4213c0,-0.63078 0.51135,-1.14213 1.14213,-1.14213h11.4213c0.6308,0 1.14213,0.51135 1.14213,1.14213z" fill-opacity="0.92549" fill="#ffdc69" stroke="#fcfcfc" stroke-width="1" stroke-linecap="round" stroke-linejoin="round"/><path d="M248.42403,206.82001v-2.30794l1.99873,1.15397l1.99873,1.15397l-1.99873,1.15397l-1.99873,1.15397z" fill="#fcfcfc" stroke-opacity="0.92549" stroke="#fff8e2" stroke-width="1" stroke-linecap="round" stroke-linejoin="round"/><path d="M242.90373,201.87078h13.70556" fill="none" stroke="#fcfcfc" stroke-width="1" stroke-linecap="round" stroke-linejoin="round"/><path d="M253.1829,198.44439l-2.28426,3.42639" fill="none" stroke="#fcfcfc" stroke-width="1" stroke-linecap="round" stroke-linejoin="round"/><path d="M248.61438,198.44439l-2.28426,3.42639" fill="none" stroke="#fcfcfc" stroke-width="1" stroke-linecap="round" stroke-linejoin="round"/></g></g></svg>