<svg version="1.1" xmlns="http://www.w3.org/2000/svg" xmlns:xlink="http://www.w3.org/1999/xlink" width="19.03194" height="17.58077" viewBox="0,0,19.03194,17.58077"><g transform="translate(-677.33043,-74.72608)"><g stroke-miterlimit="10"><path d="" fill="#131313" stroke="none" stroke-width="0.5" stroke-linecap="butt" stroke-linejoin="miter"/><path d="M677.33045,78.51156c0,-0.55915 0.08016,-1.89592 0.92013,-2.74871c1.1712,-0.99211 1.81983,-1.03677 2.40306,-1.03677c3.77664,0 11.5817,0 11.76809,0c0.53607,0 1.78445,0.01627 2.7895,1.03978c1.20107,1.08804 1.15085,2.1962 1.15085,2.68194c0,2.08925 0,6.58825 0,10.2615c0,0.58383 -0.40853,1.69603 -1.22576,2.44269c-0.76549,0.74286 -2.06811,1.15487 -2.71459,1.15487c-4.13996,0 -8.97093,0 -11.23055,0c-0.51135,0 -1.83424,-0.31441 -2.71468,-1.12301c-0.86968,-0.71021 -1.14607,-1.94282 -1.14607,-2.53832c0,0 0,-8.04095 0,-10.13397z" fill-opacity="0.01569" fill="#ededed" stroke="#000000" stroke-width="0" stroke-linecap="butt" stroke-linejoin="miter"/><path d="M681.2884,76.5385l12.269,12.26901" fill="none" stroke="#000000" stroke-width="1" stroke-linecap="round" stroke-linejoin="round"/><path d="M681.2884,88.8075l12.269,-12.269" fill="none" stroke="#000000" stroke-width="1" stroke-linecap="round" stroke-linejoin="round"/></g></g></svg>