<svg version="1.1" xmlns="http://www.w3.org/2000/svg" xmlns:xlink="http://www.w3.org/1999/xlink" width="352.99696" height="20.95556" viewBox="0,0,352.99696,20.95556"><g transform="translate(-223.50152,-214.52222)"><g data-paper-data="{&quot;isPaintingLayer&quot;:true}" fill-rule="nonzero" stroke-miterlimit="10" stroke-dasharray="" stroke-dashoffset="0" style="mix-blend-mode: normal"><path d="M223.50152,231.88169c0,-4.19108 0,-10.8568 0,-13.31832c0,-1.80958 1.22064,-4.04115 3.12279,-4.04115c18.87391,0 309.81354,0 346.15628,0c2.42635,0 3.71789,2.27323 3.71789,5.18464c0,3.99644 0,9.19535 0,11.36767c0,1.93664 -1.48018,4.40325 -4.24834,4.40325c-38.65995,0 -328.53668,0 -346.06787,0c-1.64339,0 -2.68075,-1.48374 -2.68075,-3.59609z" fill="#e9eef0" stroke="none" stroke-width="NaN" stroke-linecap="butt" stroke-linejoin="miter"/><path d="M242.48487,229.25816v2.77948h-5.16189" fill="none" stroke="#e1ccb1" stroke-width="1.5" stroke-linecap="round" stroke-linejoin="round"/><path d="M237.32298,218.53732h5.16189v2.77948" fill="none" stroke="#e1ccb1" stroke-width="1.5" stroke-linecap="round" stroke-linejoin="round"/><path d="M237.32298,229.35473v3.87412l-5.95602,-2.13674v-1.83394" fill="none" stroke="#e1ccb1" stroke-width="1.5" stroke-linecap="round" stroke-linejoin="round"/><path d="M231.36695,221.30608v-1.82324l5.95602,-2.13672v3.95996" fill="none" stroke="#e1ccb1" stroke-width="1.5" stroke-linecap="round" stroke-linejoin="round"/><path d="M229.77868,229.25816c-0.43859,0 -0.79414,-0.35555 -0.79414,-0.79414v-6.35309c0,-0.43859 0.35555,-0.79414 0.79414,-0.79414h14.29446c0.43859,0 0.79414,0.35555 0.79414,0.79414v6.35309c0,0.43859 -0.35555,0.79414 -0.79414,0.79414z" fill="none" stroke="#e1ccb1" stroke-width="1.5" stroke-linecap="round" stroke-linejoin="round"/><path d="M231.36695,223.30214v3.97068" fill="none" stroke="#e1ccb1" stroke-width="1.5" stroke-linecap="round" stroke-linejoin="miter"/><path d="M235.7347,227.27282v-3.97068" fill="none" stroke="#e1ccb1" stroke-width="1.5" stroke-linecap="round" stroke-linejoin="miter"/><path d="M241.29366,223.6992v3.17655" fill="none" stroke="#e1ccb1" stroke-width="1.5" stroke-linecap="round" stroke-linejoin="round"/><path d="M240.10247,223.69921h1.1912h1.1912" fill="none" stroke="#e1ccb1" stroke-width="1.5" stroke-linecap="round" stroke-linejoin="round"/><path d="M231.36695,223.30214h1.1912c0.6579,0 1.1912,0.5333 1.1912,1.1912v0c0,0.6579 -0.5333,1.1912 -1.1912,1.1912h-1.1912" fill="none" stroke="#e1ccb1" stroke-width="1.5" stroke-linecap="round" stroke-linejoin="round"/><path d="M235.7347,223.30214h1.1912c0.6579,0 1.1912,0.5333 1.1912,1.1912v0c0,0.6579 -0.5333,1.1912 -1.1912,1.1912h-1.1912" fill="none" stroke="#e1ccb1" stroke-width="1.5" stroke-linecap="round" stroke-linejoin="round"/></g></g></svg>