<svg version="1.1" xmlns="http://www.w3.org/2000/svg" xmlns:xlink="http://www.w3.org/1999/xlink" width="558.09514" height="36.01652" viewBox="0,0,558.09514,36.01652"><g transform="translate(-31.35876,-400.84094)"><g data-paper-data="{&quot;isPaintingLayer&quot;:true}" fill-rule="nonzero" stroke-miterlimit="10" stroke-dasharray="" stroke-dashoffset="0" style="mix-blend-mode: normal"><path d="M32.60876,428.60257c0,-6.56821 0,-15.91717 0,-19.62788c0,-1.57458 0.8245,-3.42372 2.36872,-4.78303c1.43954,-1.26717 3.514,-2.10072 5.87592,-2.10072c36.85217,0 472.79568,0 538.95762,0c5.45186,0 8.39288,3.87759 8.39288,6.93932c0,3.72159 0,13.07294 0,19.625c0,1.98495 -1.08625,3.58798 -2.45912,4.82474c-1.3916,1.25361 -3.08796,2.12746 -5.78409,2.12746c-65.65111,0 -502.22721,0 -539.10728,0c-4.89558,0 -8.24462,-2.98048 -8.24462,-7.0049z" fill-opacity="0.61176" fill="#e0e0e0" stroke-opacity="0.01176" stroke="#000000" stroke-width="2.5" stroke-linecap="butt" stroke-linejoin="miter"/><path d="M66.6703,416.89071c0,3.90752 -3.68009,7.07517 -8.21969,7.07517c-4.5396,0 -8.21967,-3.16766 -8.21967,-7.07517c0,-3.90752 3.68008,-7.07517 8.21967,-7.07517c4.5396,0 8.21969,3.16766 8.21969,7.07517z" fill="none" stroke="#ffffff" stroke-width="0" stroke-linecap="butt" stroke-linejoin="miter"/><path d="M43.37101,417.72373c0,-4.56176 3.69808,-8.25983 8.25983,-8.25983c4.56176,0 8.25983,3.69808 8.25983,8.25983c0,4.56176 -3.69808,8.25983 -8.25983,8.25983c-4.56176,0 -8.25983,-3.69808 -8.25983,-8.25983z" fill="none" stroke="#717171" stroke-width="1" stroke-linecap="butt" stroke-linejoin="round"/><path d="M48.8824,414.48932c0.70339,-0.70339 1.67514,-1.13846 2.74849,-1.13846c1.07339,0 2.04514,0.43505 2.74853,1.13846" fill="none" stroke="#aeaeae" stroke-width="1" stroke-linecap="round" stroke-linejoin="round"/><path d="M61.69176,427.78469l-4.12278,-4.12278" fill="none" stroke="#717171" stroke-width="1" stroke-linecap="round" stroke-linejoin="round"/><text transform="translate(73,423.76875) scale(0.32665,0.32665)" font-size="40" xml:space="preserve" fill="#000000" fill-rule="nonzero" stroke="none" stroke-width="1" stroke-linecap="butt" stroke-linejoin="miter" stroke-miterlimit="10" stroke-dasharray="" stroke-dashoffset="0" font-family="Sans Serif" font-weight="normal" text-anchor="start" style="mix-blend-mode: normal"><tspan x="0" dy="0">在电脑上搜索文件</tspan></text></g></g></svg>