<svg version="1.1" xmlns="http://www.w3.org/2000/svg" xmlns:xlink="http://www.w3.org/1999/xlink" width="77.76" height="47.16" viewBox="0,0,77.76,47.16"><g transform="translate(-194.38047,-161.89095)"><g stroke-miterlimit="10"><path d="M194.38047,209.05095v-47.16h77.76v47.16z" fill="#f3f3f3" stroke="none" stroke-width="0" stroke-linecap="butt" stroke-linejoin="miter"/><path d="M245.96891,183.33693c0,-0.97772 0.74964,-1.77027 1.67442,-1.77027c0.92478,0 1.67442,0.79255 1.67442,1.77027zM232.57357,165.63423c0.92478,0 1.67442,0.79258 1.67442,1.77027c0,0.97769 -0.74964,1.77027 -1.67442,1.77027zM245.1317,201.03964h-25.11628v-3.54054h25.11628zM215.82938,196.61396v-26.55405h3.34884v26.55405zM249.31775,183.33693v13.27703h-3.34884v-13.27703zM220.01543,165.63423h12.55814v3.54054h-12.55814zM220.01543,201.03964c-2.31189,0 -4.18605,-1.98146 -4.18605,-4.42568h3.34884c0,0.48886 0.37484,0.88514 0.83721,0.88514zM245.1317,197.4991c0.46239,0 0.83721,-0.39627 0.83721,-0.88514h3.34884c0,2.44421 -1.87418,4.42568 -4.18605,4.42568zM215.82938,170.05991c0,-2.44424 1.87416,-4.42568 4.18605,-4.42568v3.54054c-0.46238,0 -0.83721,0.39629 -0.83721,0.88514z" fill="#4a90e2" stroke="none" stroke-width="1" stroke-linecap="butt" stroke-linejoin="miter"/><path d="M217.5038,193.07342l8.95236,-8.67609c0.62439,-0.60517 1.57797,-0.62198 2.22112,-0.03912l10.59396,9.60035" fill="none" stroke="#4a90e2" stroke-width="3" stroke-linecap="round" stroke-linejoin="round"/><path d="M235.9224,189.53288l3.99642,-4.22519c0.58914,-0.62287 1.52196,-0.69297 2.18863,-0.16437l5.53588,4.38956" fill="none" stroke="#4a90e2" stroke-width="3" stroke-linecap="round" stroke-linejoin="round"/><path d="M243.45729,178.02612v-10.62162" fill="none" stroke="#4a90e2" stroke-width="3" stroke-linecap="round" stroke-linejoin="round"/><path d="M239.27124,171.83018l4.18605,-4.42568l4.18605,4.42568" fill="none" stroke="#4a90e2" stroke-width="3" stroke-linecap="round" stroke-linejoin="round"/><text transform="translate(245.26034,206.47154) scale(0.10364,0.10364)" font-size="40" xml:space="preserve" fill="#4a90e2" stroke="none" stroke-width="1" stroke-linecap="butt" stroke-linejoin="miter" font-family="Sans Serif" font-weight="normal" text-anchor="start"><tspan x="0" dy="0">导入动态壁纸</tspan></text></g></g></svg>