<svg version="1.1" xmlns="http://www.w3.org/2000/svg" xmlns:xlink="http://www.w3.org/1999/xlink" width="308.41127" height="20.92898" viewBox="0,0,308.41127,20.92898"><defs><linearGradient x1="337.07332" y1="154.94151" x2="337.07332" y2="160.33862" gradientUnits="userSpaceOnUse" id="color-1"><stop offset="0" stop-color="#326327"/><stop offset="1" stop-color="#66c34c"/></linearGradient><linearGradient x1="339.04002" y1="152.90813" x2="339.04002" y2="160.4985" gradientUnits="userSpaceOnUse" id="color-2"><stop offset="0" stop-color="#326327"/><stop offset="1" stop-color="#66c34c"/></linearGradient></defs><g transform="translate(-321.81972,-145.01234)"><g stroke-miterlimit="10"><path d="M321.81972,160.24007c0,-3.09396 0,-7.85281 0,-9.69697c0,-2.50379 3.4799,-5.53076 9.31612,-5.53076c27.53257,0 239.91381,0 289.64614,0c6.73087,0 9.44901,3.31191 9.44901,5.92979c0,1.79999 0,6.35432 0,9.29794c0,3.37251 -2.79963,5.70125 -9.66563,5.70125c-50.07083,0 -261.49535,0 -289.2129,0c-5.94787,0 -9.53274,-2.31286 -9.53274,-5.70125z" fill="#f9f9f9" fill-rule="nonzero" stroke="none" stroke-width="0" stroke-linecap="butt" stroke-linejoin="miter"/><text transform="translate(369.38116,158.38009) scale(0.23741,0.23741)" font-size="40" xml:space="preserve" fill="#515151" fill-rule="nonzero" stroke="none" stroke-width="1" stroke-linecap="butt" stroke-linejoin="miter" font-family="Sans Serif" font-weight="normal" text-anchor="start"><tspan x="0" dy="0">全部应用</tspan></text><path d="M331.74056,151.90257h13.50659l-0.75036,10.12995h-12.00586z" fill="#97e083" fill-rule="evenodd" stroke="#4c4c4c" stroke-width="1" stroke-linecap="butt" stroke-linejoin="round"/><path d="M341.4569,156.89411c0.04606,0.0854 -0.03935,0.13146 -0.03935,0.13146l-0.07079,0.03816c-0.24484,0.13837 -0.4716,0.28523 -0.70504,0.44028c-0.33339,0.24509 -0.78363,0.35849 -1.16675,0.50075c-0.55136,0.20475 -1.08036,0.4158 -1.65481,0.55023c-0.3768,0.6853 -0.88082,1.32419 -1.42761,1.86834c-0.01223,0.01691 -0.02458,0.03374 -0.03707,0.0505c0.02258,0.00956 0.0485,0.01659 0.07924,0.02148c0.02181,-0.05776 0.09046,-0.05776 0.09046,-0.05776l0.01,0.0009c0.671,-0.09187 1.31877,-0.30922 1.98818,-0.39875c0.23569,-0.08481 0.4731,-0.16558 0.71455,-0.23291c0.12101,-0.03375 0.2376,-0.02778 0.34761,-0.08779c0.32289,-0.17614 0.62058,-0.41914 0.87864,-0.6779c0.12839,-0.12875 0.21306,-0.28024 0.35195,-0.40268c0.11764,-0.17755 0.27233,-0.3194 0.38875,-0.4974c0.08784,-0.13429 0.13716,-0.28204 0.21606,-0.42017c0.05986,-0.10479 0.15027,-0.16703 0.21387,-0.26549c0.13021,-0.20155 0.08732,-0.42706 0.05256,-0.64528c-0.02437,-0.153 -0.00375,-0.31007 -0.06519,-0.45388c-0.19855,-0.42287 -0.29209,-0.87974 -0.48886,-1.30572c-0.08952,-0.1938 -0.26401,-0.29465 -0.39879,-0.45256c-0.18492,-0.21665 -0.28559,-0.42844 -0.52733,-0.60351c-0.20899,-0.16776 -0.335,-0.45012 -0.56954,-0.58112c-0.42171,-0.23552 -0.90566,-0.28872 -1.32992,-0.50134c0.09626,0.16321 0.13806,0.31083 0.19464,0.51826c0.16685,0.61169 0.28745,1.18113 0.28753,1.81985c-0.00005,0.05031 -0.00059,0.10058 -0.00166,0.15081c0.2288,-0.16323 0.38599,-0.37837 0.61507,-0.55141c0.20763,-0.15682 0.43887,-0.27422 0.6449,-0.43341l0.0609,-0.06732c0,0 0.06537,-0.0717 0.13708,-0.00633c0.0717,0.06537 0.00633,0.13708 0.00633,0.13708l-0.07264,0.07913c-0.21035,0.16377 -0.44601,0.28437 -0.65835,0.44475c-0.2567,0.19388 -0.42545,0.43731 -0.70088,0.60909c0.01143,0.01881 0.01695,0.04451 0.00559,0.07864c-0.01186,0.03562 -0.0329,0.05287 -0.05426,0.06063c-0.03853,0.53136 -0.14155,1.05472 -0.33339,1.55665c-0.10182,0.2664 -0.27113,0.48889 -0.37382,0.75397c-0.03901,0.08808 -0.08031,0.17561 -0.12375,0.26249c0.50302,-0.13562 0.97598,-0.31981 1.4666,-0.50204c0.36586,-0.1359 0.8058,-0.24141 1.12278,-0.47769c0.2387,-0.158 0.47088,-0.30896 0.72092,-0.4503l0.07415,-0.04002c0,0 0.0854,-0.04606 0.13146,0.03935zM337.35186,158.54583c-0.30587,-0.0937 -0.47886,-0.39765 -0.67196,-0.62426c-0.13195,-0.15486 -0.30256,-0.27142 -0.43887,-0.4219c-0.11566,-0.12768 -0.2037,-0.26756 -0.32502,-0.39163c0,0 -0.06773,-0.06948 0.00175,-0.13721c0.06948,-0.06773 0.13721,0.00175 0.13721,0.00175c0.12271,0.12624 0.2127,0.26754 0.3299,0.39682c0.13722,0.15139 0.30822,0.26898 0.44141,0.42475c0.16707,0.19539 0.3216,0.48391 0.58582,0.56719c0.07802,0.02459 0.19313,0.01448 0.28806,0.00932c0.06659,-0.12595 0.12855,-0.25355 0.18528,-0.38257c0.10212,-0.26381 0.27096,-0.4845 0.37181,-0.74895c0.18791,-0.49273 0.28809,-1.00701 0.32354,-1.52897c-0.29028,-0.09325 -0.60515,-0.08702 -0.88455,-0.22397c-0.27332,-0.13397 -0.46996,-0.38501 -0.72831,-0.54084c-0.18627,0.18616 -0.40343,0.33071 -0.5914,0.51687c-0.40899,0.40499 -0.70614,1.05487 -0.7841,1.62c-0.0611,1.04674 -0.05717,2.17593 0.52595,3.07362c0.04099,0.07301 0.07098,0.13192 0.09889,0.17905c0.00933,-0.0125 0.01858,-0.02505 0.02777,-0.03762c0.50708,-0.50936 0.98274,-1.09619 1.34633,-1.7293c-0.08467,0.00192 -0.17015,-0.00092 -0.23948,-0.02217zM336.84459,154.77131c0.01903,-0.03805 0.04639,-0.05108 0.07113,-0.05371c0.00504,-0.00569 0.01004,-0.01143 0.01504,-0.01721c0.12517,-0.09868 0.27564,-0.16795 0.3933,-0.27595c0.16489,-0.15137 0.26075,-0.35612 0.41242,-0.5186c0.26881,-0.28796 0.54088,-0.59214 0.34334,-0.98404c0,0 -0.00204,-0.00409 -0.00436,-0.01094c-0.00211,-0.00294 -0.00424,-0.0059 -0.0064,-0.00887c0,0 -0.05699,-0.07853 0.02155,-0.13551c0.02117,-0.01536 0.04077,-0.02087 0.05811,-0.02073c0.00249,-0.00887 0.00647,-0.01823 0.01229,-0.02807c0.04943,-0.08349 0.13292,-0.03406 0.13292,-0.03406c0.44634,0.2646 0.98269,0.30095 1.43886,0.56053c0.2504,0.14248 0.36977,0.42103 0.59181,0.59574c0.25292,0.18388 0.36546,0.4085 0.55967,0.63461c0.14766,0.17191 0.32528,0.28132 0.42478,0.4937c0.19975,0.42635 0.29152,0.88591 0.4907,1.30976c0.12832,0.32005 0.17726,0.84424 0.055,1.17181c-0.05661,0.15169 -0.18938,0.23135 -0.2656,0.36777c-0.19183,0.34336 -0.40844,0.62571 -0.62675,0.94835c-0.14158,0.12712 -0.22961,0.2801 -0.36197,0.41334c-0.26849,0.27025 -0.58413,0.53362 -0.92429,0.71134c-0.12959,0.06771 -0.24827,0.06413 -0.38624,0.10315c-0.2434,0.06883 -0.48193,0.15077 -0.72054,0.23448c-0.59844,0.08502 -1.17902,0.26188 -1.77482,0.36597c0.00011,0.00233 0.00017,0.0047 0.00017,0.00715c0,0.09703 -0.09703,0.09703 -0.09703,0.09703h-0.11754c-0.15825,-0.00001 -0.26288,-0.02187 -0.34415,-0.07073c-0.23902,0.29617 -0.51069,0.57259 -0.76264,0.85594c-0.0007,0.02923 -0.01192,0.07938 -0.07832,0.09215c-0.09528,0.01834 -0.11361,-0.07694 -0.11361,-0.07694l0.01712,-0.11051c0.2624,-0.2975 0.54658,-0.58627 0.79669,-0.89633c-0.04553,-0.0624 -0.08948,-0.14037 -0.14297,-0.23579c-0.60522,-0.93518 -0.61694,-2.10352 -0.55295,-3.19295c0.0859,-0.61612 0.40059,-1.29509 0.84151,-1.73967c0.18712,-0.18868 0.40498,-0.33331 0.59278,-0.51931c0.00163,-0.01018 0.00513,-0.02115 0.01101,-0.03293zM337.77933,155.31087c0.25426,0.12405 0.54247,0.12783 0.81183,0.20105c0.00324,-0.08714 0.00476,-0.17446 0.00468,-0.26188c0.00008,-0.62168 -0.11793,-1.17296 -0.28049,-1.76806c-0.00573,-0.02097 -0.01122,-0.04117 -0.01656,-0.0607c-0.09071,0.24556 -0.30566,0.45824 -0.49373,0.69431c-0.12219,0.15338 -0.20601,0.31944 -0.35285,0.45459c-0.10236,0.0942 -0.22946,0.15787 -0.34294,0.2377c0.23089,0.15708 0.41865,0.38032 0.67009,0.50299z" fill="#000000" fill-rule="nonzero" stroke-opacity="0.96078" stroke="#1f371a" stroke-width="0.5" stroke-linecap="butt" stroke-linejoin="miter"/><path d="M337.779,155.31473c-0.25144,-0.12268 -0.44239,-0.34816 -0.67328,-0.50525c0.11347,-0.07983 0.24036,-0.14415 0.34271,-0.23835c0.14685,-0.13514 0.2339,-0.30603 0.3561,-0.45941c0.18808,-0.23607 0.40507,-0.44848 0.49578,-0.69403c0.00535,0.01953 0.01096,0.03978 0.01669,0.06075c0.16256,0.59509 0.2816,1.1527 0.28151,1.77439c0.00008,0.08742 -0.00187,0.17508 -0.0051,0.26223c-0.26937,-0.07323 -0.56014,-0.0763 -0.81441,-0.20035z" fill="#326327" fill-rule="nonzero" stroke="none" stroke-width="0.25" stroke-linecap="butt" stroke-linejoin="miter"/><path d="M337.35072,158.54213c0.06933,0.02124 0.15784,0.03119 0.24251,0.02926c-0.36359,0.6331 -0.8423,1.22026 -1.34937,1.72962c-0.00918,0.01259 -0.01846,0.02511 -0.02779,0.03762c-0.0279,-0.04713 -0.0581,-0.10611 -0.09908,-0.17912c-0.58311,-0.89769 -0.58929,-2.03188 -0.5282,-3.07861c0.07797,-0.56512 0.37758,-1.21733 0.78656,-1.62232c0.18798,-0.18615 0.40617,-0.33089 0.59245,-0.51706c0.25835,0.15583 0.45622,0.40702 0.72954,0.54098c0.27939,0.13695 0.59557,0.13139 0.88586,0.22464c-0.03545,0.52197 -0.13434,1.03805 -0.32225,1.53079c-0.10085,0.26444 -0.2698,0.4879 -0.37192,0.75171c-0.05672,0.12902 -0.11973,0.25804 -0.18631,0.38399c-0.09494,0.00517 -0.21093,0.01585 -0.28895,-0.00874c-0.26422,-0.08329 -0.42371,-0.37327 -0.59077,-0.56866c-0.13319,-0.15577 -0.30451,-0.27683 -0.44173,-0.42822c-0.11719,-0.12929 -0.20682,-0.27128 -0.32953,-0.39753c0,0 -0.06112,-0.0654 -0.1306,0.00233c-0.06948,0.06773 -0.00158,0.13688 -0.00158,0.13688c0.12133,0.12408 0.20966,0.26298 0.32533,0.39065c0.13631,0.15048 0.30624,0.26414 0.4382,0.41899c0.1931,0.22662 0.3618,0.5291 0.66767,0.6228z" fill="url(#color-1)" fill-rule="nonzero" stroke="none" stroke-width="0.25" stroke-linecap="butt" stroke-linejoin="miter"/><path d="M341.45303,156.89382c-0.04606,-0.0854 -0.12371,-0.03877 -0.12371,-0.03877l-0.07416,0.04009c-0.25004,0.14134 -0.48253,0.29351 -0.72123,0.4515c-0.31697,0.23629 -0.75927,0.34396 -1.12512,0.47985c-0.49062,0.18223 -0.96698,0.36595 -1.47,0.50157c0.04344,-0.08689 0.08466,-0.17448 0.12367,-0.26255c0.10268,-0.26508 0.27152,-0.48797 0.37334,-0.75438c0.19183,-0.50193 0.29655,-1.03179 0.33507,-1.56314c0.02136,-0.00777 0.04266,-0.02508 0.05451,-0.06069c0.01136,-0.03414 0.00589,-0.05984 -0.00554,-0.07866c0.27545,-0.17178 0.44601,-0.41513 0.70271,-0.60902c0.21233,-0.16037 0.44877,-0.28068 0.65911,-0.44445l0.07268,-0.07912c0,0 0.06174,-0.06483 -0.00995,-0.13021c-0.0717,-0.06537 -0.13691,0.0064 -0.13691,0.0064l-0.06086,0.06734c-0.20602,0.15919 -0.43644,0.27684 -0.64406,0.43367c-0.22908,0.17303 -0.38478,0.38817 -0.61358,0.55141c0.00107,-0.05023 0.00023,-0.10814 0.00027,-0.15845c-0.00008,-0.63872 -0.11939,-1.2005 -0.28624,-1.8122c-0.05658,-0.20742 -0.09974,-0.36268 -0.196,-0.52589c0.42426,0.21263 0.90963,0.26581 1.33135,0.50134c0.23455,0.13099 0.3614,0.41361 0.57039,0.58138c0.24174,0.17508 0.34329,0.3874 0.52822,0.60405c0.13479,0.15791 0.30987,0.25937 0.3994,0.45318c0.19677,0.42598 0.29112,0.88475 0.48965,1.30761c0.06145,0.14379 0.04085,0.30154 0.06522,0.45454c0.03477,0.21823 0.07749,0.44465 -0.05271,0.6462c-0.0636,0.09847 -0.15418,0.16114 -0.21403,0.26593c-0.07888,0.13812 -0.12855,0.2865 -0.21638,0.42079c-0.11643,0.17801 -0.27172,0.32056 -0.38936,0.49811c-0.13889,0.12243 -0.22417,0.27438 -0.35255,0.40313c-0.25805,0.25876 -0.55708,0.50228 -0.87997,0.67841c-0.11001,0.06001 -0.22703,0.0541 -0.34805,0.08784c-0.24144,0.06733 -0.47971,0.14807 -0.71539,0.23287c-0.66941,0.08953 -1.31876,0.30627 -1.98974,0.39814l-0.01,-0.0009c0,0 -0.06869,-0.00002 -0.09049,0.05775c-0.03074,-0.00489 -0.05671,-0.01195 -0.07929,-0.02151c0.01248,-0.01676 0.02935,-0.03991 0.04157,-0.05682c0.54679,-0.54415 1.05071,-1.18312 1.4275,-1.86842c0.57445,-0.13442 1.10007,-0.34591 1.65144,-0.55067c0.38311,-0.14228 0.83111,-0.25372 1.16451,-0.49881c0.23344,-0.15504 0.45983,-0.30076 0.70468,-0.43914l0.07077,-0.03808c0,0 0.08537,-0.04584 0.03932,-0.13124z" fill="url(#color-2)" fill-rule="nonzero" stroke="none" stroke-width="0.25" stroke-linecap="butt" stroke-linejoin="miter"/><path d="M335.49239,153.4033v-4.87738h6.00293v4.87738" fill="none" fill-rule="nonzero" stroke="#4c4c4c" stroke-width="1" stroke-linecap="round" stroke-linejoin="round"/></g></g></svg>