<svg version="1.1" xmlns="http://www.w3.org/2000/svg" xmlns:xlink="http://www.w3.org/1999/xlink" width="24.04707" height="20.61227" viewBox="0,0,24.04707,20.61227"><g transform="translate(-454.88816,-139.10232)"><g stroke-miterlimit="10"><path d="M455.45931,158.07839c0,0 -0.07114,-0.00772 -0.07114,-1.70629c0,-4.06003 0,-11.28909 0,-13.64033c0,-1.45313 0.09486,-2.19086 0.09486,-2.19086c0,0 0.09393,-0.93859 0.35886,-0.93859c1.65979,0 18.18044,0 21.86664,0c0.46584,0 0.45856,0.90234 0.45856,0.90234c0,0 0.26815,1.12471 0.26815,2.78396c0,2.37678 0,9.04145 0,12.95513c0,1.76525 -0.17533,2.39075 -0.17533,2.39075c0,0 -0.0472,0.58008 -0.44824,0.58008c-3.48021,0 -20.4037,0 -22.01176,0c-0.24187,0 -0.3406,-1.13619 -0.3406,-1.13619z" fill-opacity="0.8549" fill="#ffffff" stroke="#ffffff" stroke-width="1" stroke-linecap="butt" stroke-linejoin="miter"/><path d="M469.09338,156.86725l-1.8051,-7.2099l-7.21289,-1.3957l13.70449,-5.09891z" fill="none" stroke="#3f3f3f" stroke-width="1.5" stroke-linecap="butt" stroke-linejoin="round"/><path d="M469.6102,147.0719l-2.23895,2.23895" fill="none" stroke="#3f3f3f" stroke-width="1.5" stroke-linecap="round" stroke-linejoin="round"/></g></g></svg>