<svg version="1.1" xmlns="http://www.w3.org/2000/svg" xmlns:xlink="http://www.w3.org/1999/xlink" width="352.99696" height="20.95556" viewBox="0,0,352.99696,20.95556"><g transform="translate(-223.50152,-214.52222)"><g data-paper-data="{&quot;isPaintingLayer&quot;:true}" fill-rule="nonzero" stroke="none" stroke-linecap="butt" stroke-linejoin="miter" stroke-miterlimit="10" stroke-dasharray="" stroke-dashoffset="0" style="mix-blend-mode: normal"><path d="M223.50152,231.88169c0,-4.19108 0,-10.8568 0,-13.31832c0,-1.80958 1.22064,-4.04115 3.12279,-4.04115c18.87391,0 309.81354,0 346.15628,0c2.42635,0 3.71789,2.27323 3.71789,5.18464c0,3.99644 0,9.19535 0,11.36767c0,1.93664 -1.48018,4.40325 -4.24834,4.40325c-38.65995,0 -328.53668,0 -346.06787,0c-1.64339,0 -2.68075,-1.48374 -2.68075,-3.59609z" fill="#e9eef0" stroke-width="NaN"/><path d="M231.83066,229.875c-0.15095,0.00107 -0.30052,-0.02885 -0.43945,-0.08789c-0.26969,-0.11343 -0.48423,-0.32797 -0.59766,-0.59766c-0.05904,-0.13893 -0.08895,-0.2885 -0.08789,-0.43945v-7.5c-0.00106,-0.15095 0.02885,-0.30052 0.08789,-0.43945c0.11343,-0.26969 0.32797,-0.48424 0.59766,-0.59766c0.13893,-0.05904 0.2885,-0.08895 0.43945,-0.08789h2.8125c0.35465,0.00155 0.68831,0.16837 0.90234,0.45117c0.13282,0.17578 0.26368,0.35059 0.39258,0.52442c0.1289,0.17383 0.25976,0.34864 0.39258,0.52441h4.5c0.15095,-0.00107 0.30052,0.02885 0.43945,0.08789c0.26969,0.11343 0.48424,0.32797 0.59766,0.59766c0.05904,0.13893 0.08895,0.2885 0.08789,0.43945v6c0.00106,0.15095 -0.02885,0.30052 -0.08789,0.43945c-0.11343,0.26969 -0.32797,0.48424 -0.59766,0.59766c-0.13893,0.05904 -0.2885,0.08895 -0.43945,0.08789z" fill="#e1ccb1" stroke-width="1"/></g></g></svg>