<svg version="1.1" xmlns="http://www.w3.org/2000/svg" xmlns:xlink="http://www.w3.org/1999/xlink" width="23.54778" height="23.57169" viewBox="0,0,23.54778,23.57169"><g transform="translate(-388.22613,-213.21415)"><g stroke-miterlimit="10"><path d="M403.61855,213.21613c2.3375,0.02059 5.06752,0.19349 6.51678,1.64276c1.43341,1.43341 1.61369,4.11515 1.63636,6.43425c0.00321,0.32757 0.00318,7.18354 -0.00167,7.56387c-0.02926,2.28918 -0.23187,4.90571 -1.63468,6.30852c-1.38737,1.38737 -3.94842,1.58736 -6.21526,1.61611c-0.40604,0.00515 -7.27257,0.00503 -7.59152,0.00252c-2.32107,-0.0182 -5.00211,-0.1804 -6.44035,-1.61863c-1.42289,-1.42289 -1.62912,-4.0945 -1.6587,-6.40663c-0.00443,-0.34609 -0.00481,-7.2685 0.00071,-7.66638c0.03162,-2.27712 0.24146,-4.8657 1.634,-6.25824c1.39726,-1.39726 3.985,-1.59016 6.26369,-1.6167c0.38915,-0.00454 7.18965,-0.00409 7.49063,-0.00144z" fill="#fffcfc" stroke="none" stroke-width="0.47449" stroke-linecap="butt"/><path d="M395.09613,224.95059l-0.43601,-0.43599zM391.98393,227.42719h0.61662zM397.57278,233.01608v-0.61662zM399.07852,219.22409l0.43608,0.43601zM401.89237,228.93297c0.24081,0.24081 0.24081,0.63126 0,0.87207c-0.24081,0.24081 -0.63125,0.24081 -0.87206,0zM395.19499,223.9797c-0.24081,-0.24081 -0.24081,-0.63124 0,-0.87205c0.24081,-0.24081 0.63123,-0.24081 0.87204,0zM405.77594,225.92148l-4.85446,4.85445l-0.87206,-0.87206l4.85445,-4.85446zM394.2241,224.07852l4.85442,-4.85443l0.87207,0.87204l-4.85447,4.85446zM394.2241,230.77593c-0.67419,-0.67425 -1.22463,-1.2228 -1.59888,-1.7133c-0.38511,-0.50481 -0.64128,-1.01981 -0.64128,-1.63544h1.23324c0,0.23753 0.08708,0.49231 0.3885,0.88736c0.31227,0.40927 0.79161,0.89049 1.49046,1.58933zM395.09613,224.95059c-0.69885,0.69883 -1.17818,1.18005 -1.49046,1.58932c-0.30142,0.39505 -0.3885,0.64975 -0.3885,0.88728h-1.23324c0,-0.61555 0.25617,-1.13064 0.64128,-1.63536c0.37426,-0.4905 0.92469,-1.03904 1.59888,-1.7133zM400.92148,230.77593c-0.67417,0.67418 -1.2228,1.2246 -1.7133,1.59886c-0.50473,0.3851 -1.01982,0.64129 -1.63539,0.64129v-1.23324c0.23751,0 0.49227,-0.08706 0.88731,-0.38847c0.40927,-0.31225 0.89049,-0.79166 1.58933,-1.4905zM395.09613,229.90387c0.69885,0.69884 1.18005,1.17824 1.58933,1.4905c0.39505,0.30141 0.6498,0.38847 0.88733,0.38847v1.23324c-0.61559,0 -1.13064,-0.25619 -1.63539,-0.64129c-0.49052,-0.37425 -1.03911,-0.92468 -1.7133,-1.59886zM405.77594,219.22409c0.67417,0.6742 1.2246,1.22278 1.59886,1.7133c0.3851,0.50475 0.64128,1.0198 0.64128,1.63539h-1.23324c0,-0.23753 -0.08706,-0.49228 -0.38847,-0.88733c-0.31225,-0.40928 -0.79167,-0.89047 -1.4905,-1.58933zM404.90387,225.04941c0.69883,-0.69884 1.17825,-1.18005 1.4905,-1.58932c0.3014,-0.39504 0.38847,-0.6498 0.38847,-0.88731h1.23324c0,0.61558 -0.25618,1.13067 -0.64128,1.6354c-0.37425,0.4905 -0.92468,1.03912 -1.59886,1.7133zM404.90387,220.09613c-0.69883,-0.69885 -1.18005,-1.17819 -1.58932,-1.49047c-0.39505,-0.30142 -0.64983,-0.3885 -0.88736,-0.3885v-1.23324c0.61563,0 1.13064,0.25617 1.63545,0.64128c0.4905,0.37426 1.03905,0.92469 1.7133,1.59888zM399.07852,219.22409c0.67426,-0.67419 1.22281,-1.22463 1.71331,-1.59888c0.50473,-0.38511 1.01981,-0.64128 1.63536,-0.64128v1.23324c-0.23753,0 -0.49222,0.08708 -0.88727,0.3885c-0.40927,0.31227 -0.89049,0.79162 -1.58932,1.49047zM401.02031,229.80504l-5.82532,-5.82534l0.87204,-0.87205l5.82535,5.82532z" fill="#1c274c" stroke="none" stroke-width="1" stroke-linecap="butt"/><path d="M397.53352,232.39945h9.86594" fill="none" stroke="#1c274c" stroke-width="1.5" stroke-linecap="round"/></g></g></svg>