<svg version="1.1" xmlns="http://www.w3.org/2000/svg" xmlns:xlink="http://www.w3.org/1999/xlink" width="24.178" height="25.51979" viewBox="0,0,24.178,25.51979"><defs><linearGradient x1="316.86442" y1="113.35892" x2="316.86442" y2="138.87871" gradientUnits="userSpaceOnUse" id="color-1"><stop offset="0" stop-color="#fafafa"/><stop offset="1" stop-color="#dedede"/></linearGradient></defs><g transform="translate(-304.77542,-113.35892)"><g fill="url(#color-1)" stroke="none" stroke-miterlimit="10"><path d="M328.95342,113.35892v2.68629c0,12.93048 -7.21673,18.80406 -16.11777,18.80406h-2.55467c0.28475,-4.04556 1.54462,-6.49412 4.83264,-9.40337c1.61715,-1.43045 1.48015,-2.25649 0.68366,-1.78236c-5.48541,3.26385 -8.21066,7.67474 -8.33154,14.71821l-0.00403,0.49696h-2.68629c0,-1.83071 0.15581,-3.49218 0.46473,-5.01262c-0.30803,-1.73803 -0.46249,-4.0966 -0.46339,-7.0757c0,-7.4182 6.01327,-13.43147 13.43147,-13.43147c2.68629,0 5.37259,1.34315 10.74518,0"/></g></g></svg>