<svg version="1.1" xmlns="http://www.w3.org/2000/svg" xmlns:xlink="http://www.w3.org/1999/xlink" width="111.09865" height="75.62782" viewBox="0,0,111.09865,75.62782"><g transform="translate(-161.18247,-149.52284)"><g stroke-miterlimit="10"><path d="M272.28112,180c0,16.83207 -14.02766,30.47716 -31.33165,30.47716c-17.304,0 -31.33166,-13.64509 -31.33166,-30.47716c0,-16.83207 14.02766,-30.47716 31.33166,-30.47716c17.304,0 31.33165,13.64509 31.33165,30.47716z" fill="#ffffff" stroke="none" stroke-width="0" stroke-linecap="butt" stroke-linejoin="miter"/><path d="M232.86572,163.46924c-0.5621,1.74257 -0.8657,3.60126 -0.8657,5.53076c0,9.9411 8.0589,18 18,18c2.5346,0 4.9468,-0.5238 7.1343,-1.4692c-2.3337,7.2352 -9.1227,12.4692 -17.1343,12.4692c-9.9411,0 -18,-8.0589 -18,-18c0,-7.4065 4.4734,-13.7683 10.8657,-16.53076z" fill="none" stroke="#00b5ff" stroke-width="3" stroke-linecap="butt" stroke-linejoin="round"/><path d="M257.00001,174h-10l10,-8h-9.3395" fill="none" stroke="#00b5ff" stroke-width="3" stroke-linecap="round" stroke-linejoin="round"/><path d="M161.18247,173.7594v0z" fill="#ffffff" stroke="none" stroke-width="0" stroke-linecap="butt" stroke-linejoin="miter"/><text transform="translate(232.3371,222.39766) scale(0.20227,0.22024)" font-size="40" xml:space="preserve" fill="#ffffff" stroke="none" stroke-width="1" stroke-linecap="butt" stroke-linejoin="miter" font-family="Sans Serif" font-weight="normal" text-anchor="start"><tspan x="0" dy="0">睡眠</tspan></text></g></g></svg>