<svg version="1.1" xmlns="http://www.w3.org/2000/svg" xmlns:xlink="http://www.w3.org/1999/xlink" width="46.3917" height="42.32225" viewBox="0,0,46.3917,42.32225"><g transform="translate(-376.80415,-203.83887)"><g stroke-miterlimit="10"><path d="M395.89384,222.35726l10.375,-0.125l1.875,0.125" fill="none" fill-rule="nonzero" stroke="#d0e0d8" stroke-width="1.5" stroke-linecap="round" stroke-linejoin="miter"/><path d="M386.00691,216.84038c0,-3.19139 2.58713,-5.77855 5.77855,-5.77855h16.42912c1.53256,0 3.00233,0.60883 4.08606,1.69252c1.08366,1.08366 1.69246,2.55347 1.69246,4.08603v16.31924c0,3.19139 -2.58713,5.77855 -5.77855,5.77855h-16.42908c-3.19139,0 -5.77855,-2.58713 -5.77855,-5.77855z" fill="#1f1f1f" fill-rule="evenodd" stroke="none" stroke-width="1" stroke-linecap="square" stroke-linejoin="miter"/><path d="M376.80415,246.16112v-42.32224h46.3917v42.32225z" fill="none" fill-rule="nonzero" stroke="none" stroke-width="0" stroke-linecap="butt" stroke-linejoin="miter"/><path d="M409.22809,230.75623h-9.55875l-4.55179,2.27589v-2.27589h-4.09661v-13.65536h18.20714z" fill="none" fill-rule="nonzero" stroke="#76e0a6" stroke-width="1.5" stroke-linecap="round" stroke-linejoin="round"/><path d="M395.57273,223.92857h9.10357" fill="none" fill-rule="nonzero" stroke="#76e0a6" stroke-width="1.5" stroke-linecap="round" stroke-linejoin="round"/></g></g></svg>