<svg version="1.1" xmlns="http://www.w3.org/2000/svg" xmlns:xlink="http://www.w3.org/1999/xlink" width="28.11736" height="27.906" viewBox="0,0,28.11736,27.906"><g transform="translate(-290.39824,-184.7032)"><g stroke-miterlimit="10"><path d="M290.39824,190.7119c0,-0.88754 0.11844,-3.00941 1.35939,-4.36304c1.73029,-1.57479 2.68857,-1.64567 3.55023,-1.64567c5.57951,0 17.11055,0 17.38592,0c0.79198,0 2.63629,0.02584 4.12114,1.65044c1.77444,1.72703 1.70024,3.48603 1.70024,4.25705c0,3.31628 0,10.45757 0,16.28811c0,0.92671 -0.60356,2.69213 -1.8109,3.87731c-1.13093,1.17916 -3.05538,1.8331 -4.01048,1.8331c-6.11629,0 -13.25346,0 -16.59176,0c-0.75546,0 -2.70986,-0.49907 -4.01061,-1.78255c-1.28485,-1.1273 -1.69317,-3.08382 -1.69317,-4.02907c0,0 0.00001,-12.76342 0.00001,-16.08568z" fill="#ffffff" stroke="#000000" stroke-width="0" stroke-linecap="butt" stroke-linejoin="miter"/><text transform="translate(293.67548,207.34803) scale(0.10388,0.10388)" font-size="40" xml:space="preserve" fill="#797979" stroke="none" stroke-width="1" stroke-linecap="butt" stroke-linejoin="miter" font-family="&quot;Microsoft YaHei&quot;, Pixel" font-weight="normal" text-anchor="start"><tspan x="0" dy="0">加入生词本</tspan></text><path d="M298.81666,198.08079c0,-2.30659 0,-7.78516 0,-7.78516c0,-0.99222 0.80436,-1.79658 1.79658,-1.79658h6.58744v7.78516c0,0 -5.02065,0 -6.58744,0c-0.98812,0 -1.79658,0.80373 -1.79658,1.79658z" fill="none" stroke="#f5a623" stroke-width="1" stroke-linecap="butt" stroke-linejoin="round"/><path d="M308.99725,189.09792v10.77945c-4.52862,0 -7.72255,0 -8.38402,0c-0.99222,0 -1.79658,-0.80436 -1.79658,-1.79658c0,-0.99222 0.80436,-1.79658 1.79658,-1.79658c0.34545,0 6.58744,0 6.58744,0" fill="none" stroke="#f5a623" stroke-width="1" stroke-linecap="round" stroke-linejoin="round"/><path d="M300.91266,198.08079h5.98858" fill="none" stroke="#f5a623" stroke-width="1" stroke-linecap="round" stroke-linejoin="round"/></g></g></svg>