<svg version="1.1" xmlns="http://www.w3.org/2000/svg" xmlns:xlink="http://www.w3.org/1999/xlink" width="44.6927" height="34.26857" viewBox="0,0,44.6927,34.26857"><g transform="translate(-384.64966,-211.3603)"><g fill="#000000" stroke="none" stroke-miterlimit="10"><path d="M384.64966,218.86728c0,-4.1462 3.36059,-7.50689 7.50768,-7.50697c3.91969,0 7.13643,3.00305 7.47582,6.8379c-1.77426,1.62954 -3.11217,3.73795 -3.81215,6.13792c-0.24851,-0.01588 -0.49851,-0.02339 -0.74694,-0.02339c-2.06066,0 -3.991,0.56441 -5.64403,1.54853c-2.79705,-1.08938 -4.78037,-3.8083 -4.78037,-6.99398z"/><path d="M429.34235,236.68257c0,2.46674 -1.00304,4.71062 -2.62133,6.32585c-1.61505,1.6174 -3.8591,2.62045 -6.32576,2.62045h-25.08805c-2.7348,0 -5.22128,-1.11216 -7.0137,-2.90529c-1.79233,-1.79093 -2.90451,-4.2781 -2.90451,-7.0137c0,-2.73489 1.11218,-5.22207 2.90451,-7.013c1.79251,-1.7939 4.27889,-2.90607 7.0137,-2.90529c0.55761,0 1.103,0.05001 1.63634,0.13861c0.55158,-2.60528 1.90982,-4.91208 3.8076,-6.63407c2.20757,-2.00454 5.14856,-3.22956 8.36522,-3.22878c3.4334,-0.00078 6.55159,1.39463 8.80009,3.64542c2.09697,2.09401 3.43566,4.94771 3.61068,8.10308c2.01589,0.25533 3.8303,1.17502 5.19396,2.54016c1.61818,1.61514 2.62125,3.8599 2.62125,6.32655zM427.00743,236.68229c0,-1.82953 -0.73786,-3.47502 -1.93635,-4.67579c-1.19545,-1.19387 -2.83415,-1.93035 -4.65607,-1.93636l-1.23943,0.04784l0.044,-1.25533c0.00455,-0.13477 0.00907,-0.24999 0.00907,-0.34846c0,-2.79627 -1.13032,-5.31747 -2.9622,-7.15083c-1.83336,-1.83257 -4.35457,-2.96212 -7.15005,-2.96212c-2.61958,0 -4.99694,0.99171 -6.79539,2.62273c-1.79696,1.63259 -3.00306,3.8969 -3.26371,6.44247l-0.14542,1.41673l-1.3606,-0.42048c-0.70905,-0.21971 -1.46063,-0.3379 -2.24397,-0.3379c-2.09697,0.00078 -3.98638,0.84777 -5.36217,2.22207c-1.37578,1.37578 -2.22119,3.26517 -2.22276,5.36294c0.00157,2.09847 0.84697,3.98717 2.22276,5.36296c1.37578,1.375 3.26519,2.22119 5.36217,2.22197h25.08797c1.83039,-0.00078 3.47582,-0.73856 4.67579,-1.93715c1.19859,-1.19997 1.93645,-2.84551 1.93636,-4.67529z"/></g></g></svg>