<svg version="1.1" xmlns="http://www.w3.org/2000/svg" xmlns:xlink="http://www.w3.org/1999/xlink" width="92.43472" height="41.17577" viewBox="0,0,92.43472,41.17577"><defs><linearGradient x1="393.87982" y1="391.64915" x2="393.87982" y2="432.82494" gradientUnits="userSpaceOnUse" id="color-1"><stop offset="0" stop-color="#fafafa"/><stop offset="1" stop-color="#f0f0f0"/></linearGradient></defs><g transform="translate(-347.66246,-391.64917)"><g stroke-miterlimit="10"><path d="M347.66246,399.52656c0,-4.6895 1.65824,-7.87738 4.11983,-7.87738c15.84776,0 75.14332,0 84.19506,0c2.25871,0 4.11983,4.19379 4.11983,7.87738c0,6.24207 0,15.19813 0,25.78045c0,4.08817 -2.05155,7.00917 -4.49626,7.00917c-9.42726,0 -68.89796,0.50877 -84.06959,0.50877c-2.22792,0 -3.86887,-4.0607 -3.86887,-7.66032c0,0 0,-14.76817 0,-25.63807z" fill="url(#color-1)" stroke="none" stroke-width="0" stroke-linecap="butt" stroke-linejoin="miter"/><path d="M381.35226,414.23637c0,-6.57171 5.32747,-11.89918 11.89918,-11.89918c6.57171,0 11.89918,5.32747 11.89918,11.89918c0,6.57171 -5.32747,11.89918 -11.89918,11.89918c-6.57171,0 -11.89918,-5.32747 -11.89918,-11.89918z" fill="none" stroke="#000000" stroke-width="2" stroke-linecap="butt" stroke-linejoin="round"/><path d="M389.05173,398.13748h8.39942" fill="none" stroke="#000000" stroke-width="2" stroke-linecap="round" stroke-linejoin="round"/><path d="M393.25144,414.23637v-5.59962" fill="none" stroke="#000000" stroke-width="2" stroke-linecap="round" stroke-linejoin="round"/><path d="M393.25144,414.23637h5.59962" fill="none" stroke="#000000" stroke-width="2" stroke-linecap="round" stroke-linejoin="round"/><path d="M393.25144,398.13748v2.79981" fill="none" stroke="#000000" stroke-width="2" stroke-linecap="round" stroke-linejoin="round"/></g></g></svg>